%TF.GenerationSoftware,KiCad,Pcbnew,7.0.2*%
%TF.CreationDate,2023-06-15T03:48:31-07:00*%
%TF.ProjectId,DS5,4453352e-6b69-4636-9164-5f7063625858,rev?*%
%TF.SameCoordinates,Original*%
%TF.FileFunction,Legend,Bot*%
%TF.FilePolarity,Positive*%
%FSLAX46Y46*%
G04 Gerber Fmt 4.6, Leading zero omitted, Abs format (unit mm)*
G04 Created by KiCad (PCBNEW 7.0.2) date 2023-06-15 03:48:31*
%MOMM*%
%LPD*%
G01*
G04 APERTURE LIST*
%ADD10C,0.150000*%
G04 APERTURE END LIST*
D10*
%TO.C,Right*%
X100139047Y-85717619D02*
X100472380Y-85241428D01*
X100710475Y-85717619D02*
X100710475Y-84717619D01*
X100710475Y-84717619D02*
X100329523Y-84717619D01*
X100329523Y-84717619D02*
X100234285Y-84765238D01*
X100234285Y-84765238D02*
X100186666Y-84812857D01*
X100186666Y-84812857D02*
X100139047Y-84908095D01*
X100139047Y-84908095D02*
X100139047Y-85050952D01*
X100139047Y-85050952D02*
X100186666Y-85146190D01*
X100186666Y-85146190D02*
X100234285Y-85193809D01*
X100234285Y-85193809D02*
X100329523Y-85241428D01*
X100329523Y-85241428D02*
X100710475Y-85241428D01*
X99710475Y-85717619D02*
X99710475Y-85050952D01*
X99710475Y-84717619D02*
X99758094Y-84765238D01*
X99758094Y-84765238D02*
X99710475Y-84812857D01*
X99710475Y-84812857D02*
X99662856Y-84765238D01*
X99662856Y-84765238D02*
X99710475Y-84717619D01*
X99710475Y-84717619D02*
X99710475Y-84812857D01*
X98805714Y-85050952D02*
X98805714Y-85860476D01*
X98805714Y-85860476D02*
X98853333Y-85955714D01*
X98853333Y-85955714D02*
X98900952Y-86003333D01*
X98900952Y-86003333D02*
X98996190Y-86050952D01*
X98996190Y-86050952D02*
X99139047Y-86050952D01*
X99139047Y-86050952D02*
X99234285Y-86003333D01*
X98805714Y-85670000D02*
X98900952Y-85717619D01*
X98900952Y-85717619D02*
X99091428Y-85717619D01*
X99091428Y-85717619D02*
X99186666Y-85670000D01*
X99186666Y-85670000D02*
X99234285Y-85622380D01*
X99234285Y-85622380D02*
X99281904Y-85527142D01*
X99281904Y-85527142D02*
X99281904Y-85241428D01*
X99281904Y-85241428D02*
X99234285Y-85146190D01*
X99234285Y-85146190D02*
X99186666Y-85098571D01*
X99186666Y-85098571D02*
X99091428Y-85050952D01*
X99091428Y-85050952D02*
X98900952Y-85050952D01*
X98900952Y-85050952D02*
X98805714Y-85098571D01*
X98329523Y-85717619D02*
X98329523Y-84717619D01*
X97900952Y-85717619D02*
X97900952Y-85193809D01*
X97900952Y-85193809D02*
X97948571Y-85098571D01*
X97948571Y-85098571D02*
X98043809Y-85050952D01*
X98043809Y-85050952D02*
X98186666Y-85050952D01*
X98186666Y-85050952D02*
X98281904Y-85098571D01*
X98281904Y-85098571D02*
X98329523Y-85146190D01*
X97567618Y-85050952D02*
X97186666Y-85050952D01*
X97424761Y-84717619D02*
X97424761Y-85574761D01*
X97424761Y-85574761D02*
X97377142Y-85670000D01*
X97377142Y-85670000D02*
X97281904Y-85717619D01*
X97281904Y-85717619D02*
X97186666Y-85717619D01*
%TO.C,L1*%
X218186666Y-67717619D02*
X218662856Y-67717619D01*
X218662856Y-67717619D02*
X218662856Y-66717619D01*
X217329523Y-67717619D02*
X217900951Y-67717619D01*
X217615237Y-67717619D02*
X217615237Y-66717619D01*
X217615237Y-66717619D02*
X217710475Y-66860476D01*
X217710475Y-66860476D02*
X217805713Y-66955714D01*
X217805713Y-66955714D02*
X217900951Y-67003333D01*
%TO.C,Cross*%
X137281905Y-103622380D02*
X137329524Y-103670000D01*
X137329524Y-103670000D02*
X137472381Y-103717619D01*
X137472381Y-103717619D02*
X137567619Y-103717619D01*
X137567619Y-103717619D02*
X137710476Y-103670000D01*
X137710476Y-103670000D02*
X137805714Y-103574761D01*
X137805714Y-103574761D02*
X137853333Y-103479523D01*
X137853333Y-103479523D02*
X137900952Y-103289047D01*
X137900952Y-103289047D02*
X137900952Y-103146190D01*
X137900952Y-103146190D02*
X137853333Y-102955714D01*
X137853333Y-102955714D02*
X137805714Y-102860476D01*
X137805714Y-102860476D02*
X137710476Y-102765238D01*
X137710476Y-102765238D02*
X137567619Y-102717619D01*
X137567619Y-102717619D02*
X137472381Y-102717619D01*
X137472381Y-102717619D02*
X137329524Y-102765238D01*
X137329524Y-102765238D02*
X137281905Y-102812857D01*
X136853333Y-103717619D02*
X136853333Y-103050952D01*
X136853333Y-103241428D02*
X136805714Y-103146190D01*
X136805714Y-103146190D02*
X136758095Y-103098571D01*
X136758095Y-103098571D02*
X136662857Y-103050952D01*
X136662857Y-103050952D02*
X136567619Y-103050952D01*
X136091428Y-103717619D02*
X136186666Y-103670000D01*
X136186666Y-103670000D02*
X136234285Y-103622380D01*
X136234285Y-103622380D02*
X136281904Y-103527142D01*
X136281904Y-103527142D02*
X136281904Y-103241428D01*
X136281904Y-103241428D02*
X136234285Y-103146190D01*
X136234285Y-103146190D02*
X136186666Y-103098571D01*
X136186666Y-103098571D02*
X136091428Y-103050952D01*
X136091428Y-103050952D02*
X135948571Y-103050952D01*
X135948571Y-103050952D02*
X135853333Y-103098571D01*
X135853333Y-103098571D02*
X135805714Y-103146190D01*
X135805714Y-103146190D02*
X135758095Y-103241428D01*
X135758095Y-103241428D02*
X135758095Y-103527142D01*
X135758095Y-103527142D02*
X135805714Y-103622380D01*
X135805714Y-103622380D02*
X135853333Y-103670000D01*
X135853333Y-103670000D02*
X135948571Y-103717619D01*
X135948571Y-103717619D02*
X136091428Y-103717619D01*
X135377142Y-103670000D02*
X135281904Y-103717619D01*
X135281904Y-103717619D02*
X135091428Y-103717619D01*
X135091428Y-103717619D02*
X134996190Y-103670000D01*
X134996190Y-103670000D02*
X134948571Y-103574761D01*
X134948571Y-103574761D02*
X134948571Y-103527142D01*
X134948571Y-103527142D02*
X134996190Y-103431904D01*
X134996190Y-103431904D02*
X135091428Y-103384285D01*
X135091428Y-103384285D02*
X135234285Y-103384285D01*
X135234285Y-103384285D02*
X135329523Y-103336666D01*
X135329523Y-103336666D02*
X135377142Y-103241428D01*
X135377142Y-103241428D02*
X135377142Y-103193809D01*
X135377142Y-103193809D02*
X135329523Y-103098571D01*
X135329523Y-103098571D02*
X135234285Y-103050952D01*
X135234285Y-103050952D02*
X135091428Y-103050952D01*
X135091428Y-103050952D02*
X134996190Y-103098571D01*
X134567618Y-103670000D02*
X134472380Y-103717619D01*
X134472380Y-103717619D02*
X134281904Y-103717619D01*
X134281904Y-103717619D02*
X134186666Y-103670000D01*
X134186666Y-103670000D02*
X134139047Y-103574761D01*
X134139047Y-103574761D02*
X134139047Y-103527142D01*
X134139047Y-103527142D02*
X134186666Y-103431904D01*
X134186666Y-103431904D02*
X134281904Y-103384285D01*
X134281904Y-103384285D02*
X134424761Y-103384285D01*
X134424761Y-103384285D02*
X134519999Y-103336666D01*
X134519999Y-103336666D02*
X134567618Y-103241428D01*
X134567618Y-103241428D02*
X134567618Y-103193809D01*
X134567618Y-103193809D02*
X134519999Y-103098571D01*
X134519999Y-103098571D02*
X134424761Y-103050952D01*
X134424761Y-103050952D02*
X134281904Y-103050952D01*
X134281904Y-103050952D02*
X134186666Y-103098571D01*
%TO.C,L2*%
X218186666Y-96717619D02*
X218662856Y-96717619D01*
X218662856Y-96717619D02*
X218662856Y-95717619D01*
X217900951Y-95812857D02*
X217853332Y-95765238D01*
X217853332Y-95765238D02*
X217758094Y-95717619D01*
X217758094Y-95717619D02*
X217519999Y-95717619D01*
X217519999Y-95717619D02*
X217424761Y-95765238D01*
X217424761Y-95765238D02*
X217377142Y-95812857D01*
X217377142Y-95812857D02*
X217329523Y-95908095D01*
X217329523Y-95908095D02*
X217329523Y-96003333D01*
X217329523Y-96003333D02*
X217377142Y-96146190D01*
X217377142Y-96146190D02*
X217948570Y-96717619D01*
X217948570Y-96717619D02*
X217329523Y-96717619D01*
%TO.C,Left*%
X45710476Y-71717619D02*
X46186666Y-71717619D01*
X46186666Y-71717619D02*
X46186666Y-70717619D01*
X44996190Y-71670000D02*
X45091428Y-71717619D01*
X45091428Y-71717619D02*
X45281904Y-71717619D01*
X45281904Y-71717619D02*
X45377142Y-71670000D01*
X45377142Y-71670000D02*
X45424761Y-71574761D01*
X45424761Y-71574761D02*
X45424761Y-71193809D01*
X45424761Y-71193809D02*
X45377142Y-71098571D01*
X45377142Y-71098571D02*
X45281904Y-71050952D01*
X45281904Y-71050952D02*
X45091428Y-71050952D01*
X45091428Y-71050952D02*
X44996190Y-71098571D01*
X44996190Y-71098571D02*
X44948571Y-71193809D01*
X44948571Y-71193809D02*
X44948571Y-71289047D01*
X44948571Y-71289047D02*
X45424761Y-71384285D01*
X44662856Y-71050952D02*
X44281904Y-71050952D01*
X44519999Y-71717619D02*
X44519999Y-70860476D01*
X44519999Y-70860476D02*
X44472380Y-70765238D01*
X44472380Y-70765238D02*
X44377142Y-70717619D01*
X44377142Y-70717619D02*
X44281904Y-70717619D01*
X44091427Y-71050952D02*
X43710475Y-71050952D01*
X43948570Y-70717619D02*
X43948570Y-71574761D01*
X43948570Y-71574761D02*
X43900951Y-71670000D01*
X43900951Y-71670000D02*
X43805713Y-71717619D01*
X43805713Y-71717619D02*
X43710475Y-71717619D01*
%TO.C,R2*%
X190186666Y-89717619D02*
X190519999Y-89241428D01*
X190758094Y-89717619D02*
X190758094Y-88717619D01*
X190758094Y-88717619D02*
X190377142Y-88717619D01*
X190377142Y-88717619D02*
X190281904Y-88765238D01*
X190281904Y-88765238D02*
X190234285Y-88812857D01*
X190234285Y-88812857D02*
X190186666Y-88908095D01*
X190186666Y-88908095D02*
X190186666Y-89050952D01*
X190186666Y-89050952D02*
X190234285Y-89146190D01*
X190234285Y-89146190D02*
X190281904Y-89193809D01*
X190281904Y-89193809D02*
X190377142Y-89241428D01*
X190377142Y-89241428D02*
X190758094Y-89241428D01*
X189805713Y-88812857D02*
X189758094Y-88765238D01*
X189758094Y-88765238D02*
X189662856Y-88717619D01*
X189662856Y-88717619D02*
X189424761Y-88717619D01*
X189424761Y-88717619D02*
X189329523Y-88765238D01*
X189329523Y-88765238D02*
X189281904Y-88812857D01*
X189281904Y-88812857D02*
X189234285Y-88908095D01*
X189234285Y-88908095D02*
X189234285Y-89003333D01*
X189234285Y-89003333D02*
X189281904Y-89146190D01*
X189281904Y-89146190D02*
X189853332Y-89717619D01*
X189853332Y-89717619D02*
X189234285Y-89717619D01*
%TO.C,Up*%
X114758094Y-137717619D02*
X114758094Y-138527142D01*
X114758094Y-138527142D02*
X114710475Y-138622380D01*
X114710475Y-138622380D02*
X114662856Y-138670000D01*
X114662856Y-138670000D02*
X114567618Y-138717619D01*
X114567618Y-138717619D02*
X114377142Y-138717619D01*
X114377142Y-138717619D02*
X114281904Y-138670000D01*
X114281904Y-138670000D02*
X114234285Y-138622380D01*
X114234285Y-138622380D02*
X114186666Y-138527142D01*
X114186666Y-138527142D02*
X114186666Y-137717619D01*
X113710475Y-138050952D02*
X113710475Y-139050952D01*
X113710475Y-138098571D02*
X113615237Y-138050952D01*
X113615237Y-138050952D02*
X113424761Y-138050952D01*
X113424761Y-138050952D02*
X113329523Y-138098571D01*
X113329523Y-138098571D02*
X113281904Y-138146190D01*
X113281904Y-138146190D02*
X113234285Y-138241428D01*
X113234285Y-138241428D02*
X113234285Y-138527142D01*
X113234285Y-138527142D02*
X113281904Y-138622380D01*
X113281904Y-138622380D02*
X113329523Y-138670000D01*
X113329523Y-138670000D02*
X113424761Y-138717619D01*
X113424761Y-138717619D02*
X113615237Y-138717619D01*
X113615237Y-138717619D02*
X113710475Y-138670000D01*
%TO.C,R1*%
X190186666Y-60717619D02*
X190519999Y-60241428D01*
X190758094Y-60717619D02*
X190758094Y-59717619D01*
X190758094Y-59717619D02*
X190377142Y-59717619D01*
X190377142Y-59717619D02*
X190281904Y-59765238D01*
X190281904Y-59765238D02*
X190234285Y-59812857D01*
X190234285Y-59812857D02*
X190186666Y-59908095D01*
X190186666Y-59908095D02*
X190186666Y-60050952D01*
X190186666Y-60050952D02*
X190234285Y-60146190D01*
X190234285Y-60146190D02*
X190281904Y-60193809D01*
X190281904Y-60193809D02*
X190377142Y-60241428D01*
X190377142Y-60241428D02*
X190758094Y-60241428D01*
X189234285Y-60717619D02*
X189805713Y-60717619D01*
X189519999Y-60717619D02*
X189519999Y-59717619D01*
X189519999Y-59717619D02*
X189615237Y-59860476D01*
X189615237Y-59860476D02*
X189710475Y-59955714D01*
X189710475Y-59955714D02*
X189805713Y-60003333D01*
%TO.C,Square*%
X138400952Y-74670000D02*
X138258095Y-74717619D01*
X138258095Y-74717619D02*
X138020000Y-74717619D01*
X138020000Y-74717619D02*
X137924762Y-74670000D01*
X137924762Y-74670000D02*
X137877143Y-74622380D01*
X137877143Y-74622380D02*
X137829524Y-74527142D01*
X137829524Y-74527142D02*
X137829524Y-74431904D01*
X137829524Y-74431904D02*
X137877143Y-74336666D01*
X137877143Y-74336666D02*
X137924762Y-74289047D01*
X137924762Y-74289047D02*
X138020000Y-74241428D01*
X138020000Y-74241428D02*
X138210476Y-74193809D01*
X138210476Y-74193809D02*
X138305714Y-74146190D01*
X138305714Y-74146190D02*
X138353333Y-74098571D01*
X138353333Y-74098571D02*
X138400952Y-74003333D01*
X138400952Y-74003333D02*
X138400952Y-73908095D01*
X138400952Y-73908095D02*
X138353333Y-73812857D01*
X138353333Y-73812857D02*
X138305714Y-73765238D01*
X138305714Y-73765238D02*
X138210476Y-73717619D01*
X138210476Y-73717619D02*
X137972381Y-73717619D01*
X137972381Y-73717619D02*
X137829524Y-73765238D01*
X136972381Y-74050952D02*
X136972381Y-75050952D01*
X136972381Y-74670000D02*
X137067619Y-74717619D01*
X137067619Y-74717619D02*
X137258095Y-74717619D01*
X137258095Y-74717619D02*
X137353333Y-74670000D01*
X137353333Y-74670000D02*
X137400952Y-74622380D01*
X137400952Y-74622380D02*
X137448571Y-74527142D01*
X137448571Y-74527142D02*
X137448571Y-74241428D01*
X137448571Y-74241428D02*
X137400952Y-74146190D01*
X137400952Y-74146190D02*
X137353333Y-74098571D01*
X137353333Y-74098571D02*
X137258095Y-74050952D01*
X137258095Y-74050952D02*
X137067619Y-74050952D01*
X137067619Y-74050952D02*
X136972381Y-74098571D01*
X136067619Y-74050952D02*
X136067619Y-74717619D01*
X136496190Y-74050952D02*
X136496190Y-74574761D01*
X136496190Y-74574761D02*
X136448571Y-74670000D01*
X136448571Y-74670000D02*
X136353333Y-74717619D01*
X136353333Y-74717619D02*
X136210476Y-74717619D01*
X136210476Y-74717619D02*
X136115238Y-74670000D01*
X136115238Y-74670000D02*
X136067619Y-74622380D01*
X135162857Y-74717619D02*
X135162857Y-74193809D01*
X135162857Y-74193809D02*
X135210476Y-74098571D01*
X135210476Y-74098571D02*
X135305714Y-74050952D01*
X135305714Y-74050952D02*
X135496190Y-74050952D01*
X135496190Y-74050952D02*
X135591428Y-74098571D01*
X135162857Y-74670000D02*
X135258095Y-74717619D01*
X135258095Y-74717619D02*
X135496190Y-74717619D01*
X135496190Y-74717619D02*
X135591428Y-74670000D01*
X135591428Y-74670000D02*
X135639047Y-74574761D01*
X135639047Y-74574761D02*
X135639047Y-74479523D01*
X135639047Y-74479523D02*
X135591428Y-74384285D01*
X135591428Y-74384285D02*
X135496190Y-74336666D01*
X135496190Y-74336666D02*
X135258095Y-74336666D01*
X135258095Y-74336666D02*
X135162857Y-74289047D01*
X134686666Y-74717619D02*
X134686666Y-74050952D01*
X134686666Y-74241428D02*
X134639047Y-74146190D01*
X134639047Y-74146190D02*
X134591428Y-74098571D01*
X134591428Y-74098571D02*
X134496190Y-74050952D01*
X134496190Y-74050952D02*
X134400952Y-74050952D01*
X133686666Y-74670000D02*
X133781904Y-74717619D01*
X133781904Y-74717619D02*
X133972380Y-74717619D01*
X133972380Y-74717619D02*
X134067618Y-74670000D01*
X134067618Y-74670000D02*
X134115237Y-74574761D01*
X134115237Y-74574761D02*
X134115237Y-74193809D01*
X134115237Y-74193809D02*
X134067618Y-74098571D01*
X134067618Y-74098571D02*
X133972380Y-74050952D01*
X133972380Y-74050952D02*
X133781904Y-74050952D01*
X133781904Y-74050952D02*
X133686666Y-74098571D01*
X133686666Y-74098571D02*
X133639047Y-74193809D01*
X133639047Y-74193809D02*
X133639047Y-74289047D01*
X133639047Y-74289047D02*
X134115237Y-74384285D01*
%TO.C,Circle*%
X162377143Y-89622380D02*
X162424762Y-89670000D01*
X162424762Y-89670000D02*
X162567619Y-89717619D01*
X162567619Y-89717619D02*
X162662857Y-89717619D01*
X162662857Y-89717619D02*
X162805714Y-89670000D01*
X162805714Y-89670000D02*
X162900952Y-89574761D01*
X162900952Y-89574761D02*
X162948571Y-89479523D01*
X162948571Y-89479523D02*
X162996190Y-89289047D01*
X162996190Y-89289047D02*
X162996190Y-89146190D01*
X162996190Y-89146190D02*
X162948571Y-88955714D01*
X162948571Y-88955714D02*
X162900952Y-88860476D01*
X162900952Y-88860476D02*
X162805714Y-88765238D01*
X162805714Y-88765238D02*
X162662857Y-88717619D01*
X162662857Y-88717619D02*
X162567619Y-88717619D01*
X162567619Y-88717619D02*
X162424762Y-88765238D01*
X162424762Y-88765238D02*
X162377143Y-88812857D01*
X161948571Y-89717619D02*
X161948571Y-89050952D01*
X161948571Y-88717619D02*
X161996190Y-88765238D01*
X161996190Y-88765238D02*
X161948571Y-88812857D01*
X161948571Y-88812857D02*
X161900952Y-88765238D01*
X161900952Y-88765238D02*
X161948571Y-88717619D01*
X161948571Y-88717619D02*
X161948571Y-88812857D01*
X161472381Y-89717619D02*
X161472381Y-89050952D01*
X161472381Y-89241428D02*
X161424762Y-89146190D01*
X161424762Y-89146190D02*
X161377143Y-89098571D01*
X161377143Y-89098571D02*
X161281905Y-89050952D01*
X161281905Y-89050952D02*
X161186667Y-89050952D01*
X160424762Y-89670000D02*
X160520000Y-89717619D01*
X160520000Y-89717619D02*
X160710476Y-89717619D01*
X160710476Y-89717619D02*
X160805714Y-89670000D01*
X160805714Y-89670000D02*
X160853333Y-89622380D01*
X160853333Y-89622380D02*
X160900952Y-89527142D01*
X160900952Y-89527142D02*
X160900952Y-89241428D01*
X160900952Y-89241428D02*
X160853333Y-89146190D01*
X160853333Y-89146190D02*
X160805714Y-89098571D01*
X160805714Y-89098571D02*
X160710476Y-89050952D01*
X160710476Y-89050952D02*
X160520000Y-89050952D01*
X160520000Y-89050952D02*
X160424762Y-89098571D01*
X159853333Y-89717619D02*
X159948571Y-89670000D01*
X159948571Y-89670000D02*
X159996190Y-89574761D01*
X159996190Y-89574761D02*
X159996190Y-88717619D01*
X159091428Y-89670000D02*
X159186666Y-89717619D01*
X159186666Y-89717619D02*
X159377142Y-89717619D01*
X159377142Y-89717619D02*
X159472380Y-89670000D01*
X159472380Y-89670000D02*
X159519999Y-89574761D01*
X159519999Y-89574761D02*
X159519999Y-89193809D01*
X159519999Y-89193809D02*
X159472380Y-89098571D01*
X159472380Y-89098571D02*
X159377142Y-89050952D01*
X159377142Y-89050952D02*
X159186666Y-89050952D01*
X159186666Y-89050952D02*
X159091428Y-89098571D01*
X159091428Y-89098571D02*
X159043809Y-89193809D01*
X159043809Y-89193809D02*
X159043809Y-89289047D01*
X159043809Y-89289047D02*
X159519999Y-89384285D01*
%TO.C,Down*%
X75710475Y-71717619D02*
X75710475Y-70717619D01*
X75710475Y-70717619D02*
X75472380Y-70717619D01*
X75472380Y-70717619D02*
X75329523Y-70765238D01*
X75329523Y-70765238D02*
X75234285Y-70860476D01*
X75234285Y-70860476D02*
X75186666Y-70955714D01*
X75186666Y-70955714D02*
X75139047Y-71146190D01*
X75139047Y-71146190D02*
X75139047Y-71289047D01*
X75139047Y-71289047D02*
X75186666Y-71479523D01*
X75186666Y-71479523D02*
X75234285Y-71574761D01*
X75234285Y-71574761D02*
X75329523Y-71670000D01*
X75329523Y-71670000D02*
X75472380Y-71717619D01*
X75472380Y-71717619D02*
X75710475Y-71717619D01*
X74567618Y-71717619D02*
X74662856Y-71670000D01*
X74662856Y-71670000D02*
X74710475Y-71622380D01*
X74710475Y-71622380D02*
X74758094Y-71527142D01*
X74758094Y-71527142D02*
X74758094Y-71241428D01*
X74758094Y-71241428D02*
X74710475Y-71146190D01*
X74710475Y-71146190D02*
X74662856Y-71098571D01*
X74662856Y-71098571D02*
X74567618Y-71050952D01*
X74567618Y-71050952D02*
X74424761Y-71050952D01*
X74424761Y-71050952D02*
X74329523Y-71098571D01*
X74329523Y-71098571D02*
X74281904Y-71146190D01*
X74281904Y-71146190D02*
X74234285Y-71241428D01*
X74234285Y-71241428D02*
X74234285Y-71527142D01*
X74234285Y-71527142D02*
X74281904Y-71622380D01*
X74281904Y-71622380D02*
X74329523Y-71670000D01*
X74329523Y-71670000D02*
X74424761Y-71717619D01*
X74424761Y-71717619D02*
X74567618Y-71717619D01*
X73900951Y-71050952D02*
X73710475Y-71717619D01*
X73710475Y-71717619D02*
X73519999Y-71241428D01*
X73519999Y-71241428D02*
X73329523Y-71717619D01*
X73329523Y-71717619D02*
X73139047Y-71050952D01*
X72758094Y-71050952D02*
X72758094Y-71717619D01*
X72758094Y-71146190D02*
X72710475Y-71098571D01*
X72710475Y-71098571D02*
X72615237Y-71050952D01*
X72615237Y-71050952D02*
X72472380Y-71050952D01*
X72472380Y-71050952D02*
X72377142Y-71098571D01*
X72377142Y-71098571D02*
X72329523Y-71193809D01*
X72329523Y-71193809D02*
X72329523Y-71717619D01*
%TO.C,Triangle*%
X163900952Y-59717619D02*
X163329524Y-59717619D01*
X163615238Y-60717619D02*
X163615238Y-59717619D01*
X162996190Y-60717619D02*
X162996190Y-60050952D01*
X162996190Y-60241428D02*
X162948571Y-60146190D01*
X162948571Y-60146190D02*
X162900952Y-60098571D01*
X162900952Y-60098571D02*
X162805714Y-60050952D01*
X162805714Y-60050952D02*
X162710476Y-60050952D01*
X162377142Y-60717619D02*
X162377142Y-60050952D01*
X162377142Y-59717619D02*
X162424761Y-59765238D01*
X162424761Y-59765238D02*
X162377142Y-59812857D01*
X162377142Y-59812857D02*
X162329523Y-59765238D01*
X162329523Y-59765238D02*
X162377142Y-59717619D01*
X162377142Y-59717619D02*
X162377142Y-59812857D01*
X161472381Y-60717619D02*
X161472381Y-60193809D01*
X161472381Y-60193809D02*
X161520000Y-60098571D01*
X161520000Y-60098571D02*
X161615238Y-60050952D01*
X161615238Y-60050952D02*
X161805714Y-60050952D01*
X161805714Y-60050952D02*
X161900952Y-60098571D01*
X161472381Y-60670000D02*
X161567619Y-60717619D01*
X161567619Y-60717619D02*
X161805714Y-60717619D01*
X161805714Y-60717619D02*
X161900952Y-60670000D01*
X161900952Y-60670000D02*
X161948571Y-60574761D01*
X161948571Y-60574761D02*
X161948571Y-60479523D01*
X161948571Y-60479523D02*
X161900952Y-60384285D01*
X161900952Y-60384285D02*
X161805714Y-60336666D01*
X161805714Y-60336666D02*
X161567619Y-60336666D01*
X161567619Y-60336666D02*
X161472381Y-60289047D01*
X160996190Y-60050952D02*
X160996190Y-60717619D01*
X160996190Y-60146190D02*
X160948571Y-60098571D01*
X160948571Y-60098571D02*
X160853333Y-60050952D01*
X160853333Y-60050952D02*
X160710476Y-60050952D01*
X160710476Y-60050952D02*
X160615238Y-60098571D01*
X160615238Y-60098571D02*
X160567619Y-60193809D01*
X160567619Y-60193809D02*
X160567619Y-60717619D01*
X159662857Y-60050952D02*
X159662857Y-60860476D01*
X159662857Y-60860476D02*
X159710476Y-60955714D01*
X159710476Y-60955714D02*
X159758095Y-61003333D01*
X159758095Y-61003333D02*
X159853333Y-61050952D01*
X159853333Y-61050952D02*
X159996190Y-61050952D01*
X159996190Y-61050952D02*
X160091428Y-61003333D01*
X159662857Y-60670000D02*
X159758095Y-60717619D01*
X159758095Y-60717619D02*
X159948571Y-60717619D01*
X159948571Y-60717619D02*
X160043809Y-60670000D01*
X160043809Y-60670000D02*
X160091428Y-60622380D01*
X160091428Y-60622380D02*
X160139047Y-60527142D01*
X160139047Y-60527142D02*
X160139047Y-60241428D01*
X160139047Y-60241428D02*
X160091428Y-60146190D01*
X160091428Y-60146190D02*
X160043809Y-60098571D01*
X160043809Y-60098571D02*
X159948571Y-60050952D01*
X159948571Y-60050952D02*
X159758095Y-60050952D01*
X159758095Y-60050952D02*
X159662857Y-60098571D01*
X159043809Y-60717619D02*
X159139047Y-60670000D01*
X159139047Y-60670000D02*
X159186666Y-60574761D01*
X159186666Y-60574761D02*
X159186666Y-59717619D01*
X158281904Y-60670000D02*
X158377142Y-60717619D01*
X158377142Y-60717619D02*
X158567618Y-60717619D01*
X158567618Y-60717619D02*
X158662856Y-60670000D01*
X158662856Y-60670000D02*
X158710475Y-60574761D01*
X158710475Y-60574761D02*
X158710475Y-60193809D01*
X158710475Y-60193809D02*
X158662856Y-60098571D01*
X158662856Y-60098571D02*
X158567618Y-60050952D01*
X158567618Y-60050952D02*
X158377142Y-60050952D01*
X158377142Y-60050952D02*
X158281904Y-60098571D01*
X158281904Y-60098571D02*
X158234285Y-60193809D01*
X158234285Y-60193809D02*
X158234285Y-60289047D01*
X158234285Y-60289047D02*
X158710475Y-60384285D01*
%TO.C,Right*%
X99020000Y-83985000D02*
G75*
G03*
X101560000Y-81445000I0J2540000D01*
G01*
X95210000Y-79539999D02*
G75*
G03*
X97674161Y-77616040I0J2539999D01*
G01*
X101560000Y-81445000D02*
X101560000Y-81064000D01*
X101560000Y-78016000D02*
X101560000Y-77635000D01*
X101560000Y-77635000D02*
X101179000Y-77635000D01*
X99401000Y-77635000D02*
X97750000Y-77635000D01*
X95210000Y-79540000D02*
X90130000Y-79540000D01*
X90130000Y-83985000D02*
X99020000Y-83985000D01*
X90130000Y-83604000D02*
X90130000Y-83985000D01*
X90130000Y-79540000D02*
X90130000Y-80556000D01*
%TO.C,L1*%
X209130000Y-61540000D02*
X209130000Y-62556000D01*
X209130000Y-65604000D02*
X209130000Y-65985000D01*
X209130000Y-65985000D02*
X218020000Y-65985000D01*
X214210000Y-61540000D02*
X209130000Y-61540000D01*
X218401000Y-59635000D02*
X216750000Y-59635000D01*
X220560000Y-59635000D02*
X220179000Y-59635000D01*
X220560000Y-60016000D02*
X220560000Y-59635000D01*
X220560000Y-63445000D02*
X220560000Y-63064000D01*
X214210000Y-61539999D02*
G75*
G03*
X216674161Y-59616040I0J2539999D01*
G01*
X218020000Y-65985000D02*
G75*
G03*
X220560000Y-63445000I0J2540000D01*
G01*
%TO.C,Cross*%
X127130000Y-97540000D02*
X127130000Y-98556000D01*
X127130000Y-101604000D02*
X127130000Y-101985000D01*
X127130000Y-101985000D02*
X136020000Y-101985000D01*
X132210000Y-97540000D02*
X127130000Y-97540000D01*
X136401000Y-95635000D02*
X134750000Y-95635000D01*
X138560000Y-95635000D02*
X138179000Y-95635000D01*
X138560000Y-96016000D02*
X138560000Y-95635000D01*
X138560000Y-99445000D02*
X138560000Y-99064000D01*
X132210000Y-97539999D02*
G75*
G03*
X134674161Y-95616040I0J2539999D01*
G01*
X136020000Y-101985000D02*
G75*
G03*
X138560000Y-99445000I0J2540000D01*
G01*
%TO.C,L2*%
X209130000Y-90540000D02*
X209130000Y-91556000D01*
X209130000Y-94604000D02*
X209130000Y-94985000D01*
X209130000Y-94985000D02*
X218020000Y-94985000D01*
X214210000Y-90540000D02*
X209130000Y-90540000D01*
X218401000Y-88635000D02*
X216750000Y-88635000D01*
X220560000Y-88635000D02*
X220179000Y-88635000D01*
X220560000Y-89016000D02*
X220560000Y-88635000D01*
X220560000Y-92445000D02*
X220560000Y-92064000D01*
X214210000Y-90539999D02*
G75*
G03*
X216674161Y-88616040I0J2539999D01*
G01*
X218020000Y-94985000D02*
G75*
G03*
X220560000Y-92445000I0J2540000D01*
G01*
%TO.C,Left*%
X36130000Y-65540000D02*
X36130000Y-66556000D01*
X36130000Y-69604000D02*
X36130000Y-69985000D01*
X36130000Y-69985000D02*
X45020000Y-69985000D01*
X41210000Y-65540000D02*
X36130000Y-65540000D01*
X45401000Y-63635000D02*
X43750000Y-63635000D01*
X47560000Y-63635000D02*
X47179000Y-63635000D01*
X47560000Y-64016000D02*
X47560000Y-63635000D01*
X47560000Y-67445000D02*
X47560000Y-67064000D01*
X41210000Y-65539999D02*
G75*
G03*
X43674161Y-63616040I0J2539999D01*
G01*
X45020000Y-69985000D02*
G75*
G03*
X47560000Y-67445000I0J2540000D01*
G01*
%TO.C,R2*%
X181130000Y-83540000D02*
X181130000Y-84556000D01*
X181130000Y-87604000D02*
X181130000Y-87985000D01*
X181130000Y-87985000D02*
X190020000Y-87985000D01*
X186210000Y-83540000D02*
X181130000Y-83540000D01*
X190401000Y-81635000D02*
X188750000Y-81635000D01*
X192560000Y-81635000D02*
X192179000Y-81635000D01*
X192560000Y-82016000D02*
X192560000Y-81635000D01*
X192560000Y-85445000D02*
X192560000Y-85064000D01*
X186210000Y-83539999D02*
G75*
G03*
X188674161Y-81616040I0J2539999D01*
G01*
X190020000Y-87985000D02*
G75*
G03*
X192560000Y-85445000I0J2540000D01*
G01*
%TO.C,Up*%
X105130000Y-132540000D02*
X105130000Y-133556000D01*
X105130000Y-136604000D02*
X105130000Y-136985000D01*
X105130000Y-136985000D02*
X114020000Y-136985000D01*
X110210000Y-132540000D02*
X105130000Y-132540000D01*
X114401000Y-130635000D02*
X112750000Y-130635000D01*
X116560000Y-130635000D02*
X116179000Y-130635000D01*
X116560000Y-131016000D02*
X116560000Y-130635000D01*
X116560000Y-134445000D02*
X116560000Y-134064000D01*
X110210000Y-132539999D02*
G75*
G03*
X112674161Y-130616040I0J2539999D01*
G01*
X114020000Y-136985000D02*
G75*
G03*
X116560000Y-134445000I0J2540000D01*
G01*
%TO.C,R1*%
X181130000Y-54540000D02*
X181130000Y-55556000D01*
X181130000Y-58604000D02*
X181130000Y-58985000D01*
X181130000Y-58985000D02*
X190020000Y-58985000D01*
X186210000Y-54540000D02*
X181130000Y-54540000D01*
X190401000Y-52635000D02*
X188750000Y-52635000D01*
X192560000Y-52635000D02*
X192179000Y-52635000D01*
X192560000Y-53016000D02*
X192560000Y-52635000D01*
X192560000Y-56445000D02*
X192560000Y-56064000D01*
X186210000Y-54539999D02*
G75*
G03*
X188674161Y-52616040I0J2539999D01*
G01*
X190020000Y-58985000D02*
G75*
G03*
X192560000Y-56445000I0J2540000D01*
G01*
%TO.C,Square*%
X127130000Y-68540000D02*
X127130000Y-69556000D01*
X127130000Y-72604000D02*
X127130000Y-72985000D01*
X127130000Y-72985000D02*
X136020000Y-72985000D01*
X132210000Y-68540000D02*
X127130000Y-68540000D01*
X136401000Y-66635000D02*
X134750000Y-66635000D01*
X138560000Y-66635000D02*
X138179000Y-66635000D01*
X138560000Y-67016000D02*
X138560000Y-66635000D01*
X138560000Y-70445000D02*
X138560000Y-70064000D01*
X132210000Y-68539999D02*
G75*
G03*
X134674161Y-66616040I0J2539999D01*
G01*
X136020000Y-72985000D02*
G75*
G03*
X138560000Y-70445000I0J2540000D01*
G01*
%TO.C,Circle*%
X152130000Y-83540000D02*
X152130000Y-84556000D01*
X152130000Y-87604000D02*
X152130000Y-87985000D01*
X152130000Y-87985000D02*
X161020000Y-87985000D01*
X157210000Y-83540000D02*
X152130000Y-83540000D01*
X161401000Y-81635000D02*
X159750000Y-81635000D01*
X163560000Y-81635000D02*
X163179000Y-81635000D01*
X163560000Y-82016000D02*
X163560000Y-81635000D01*
X163560000Y-85445000D02*
X163560000Y-85064000D01*
X157210000Y-83539999D02*
G75*
G03*
X159674161Y-81616040I0J2539999D01*
G01*
X161020000Y-87985000D02*
G75*
G03*
X163560000Y-85445000I0J2540000D01*
G01*
%TO.C,Down*%
X74020000Y-69985000D02*
G75*
G03*
X76560000Y-67445000I0J2540000D01*
G01*
X70210000Y-65539999D02*
G75*
G03*
X72674161Y-63616040I0J2539999D01*
G01*
X76560000Y-67445000D02*
X76560000Y-67064000D01*
X76560000Y-64016000D02*
X76560000Y-63635000D01*
X76560000Y-63635000D02*
X76179000Y-63635000D01*
X74401000Y-63635000D02*
X72750000Y-63635000D01*
X70210000Y-65540000D02*
X65130000Y-65540000D01*
X65130000Y-69985000D02*
X74020000Y-69985000D01*
X65130000Y-69604000D02*
X65130000Y-69985000D01*
X65130000Y-65540000D02*
X65130000Y-66556000D01*
%TO.C,Triangle*%
X152130000Y-54540000D02*
X152130000Y-55556000D01*
X152130000Y-58604000D02*
X152130000Y-58985000D01*
X152130000Y-58985000D02*
X161020000Y-58985000D01*
X157210000Y-54540000D02*
X152130000Y-54540000D01*
X161401000Y-52635000D02*
X159750000Y-52635000D01*
X163560000Y-52635000D02*
X163179000Y-52635000D01*
X163560000Y-53016000D02*
X163560000Y-52635000D01*
X163560000Y-56445000D02*
X163560000Y-56064000D01*
X157210000Y-54539999D02*
G75*
G03*
X159674161Y-52616040I0J2539999D01*
G01*
X161020000Y-58985000D02*
G75*
G03*
X163560000Y-56445000I0J2540000D01*
G01*
%TD*%
M02*
