M48
; DRILL file {KiCad 7.0.2} date Thu Jun 15 03:47:46 2023
; FORMAT={-:-/ absolute / inch / decimal}
; #@! TF.CreationDate,2023-06-15T03:47:46-07:00
; #@! TF.GenerationSoftware,Kicad,Pcbnew,7.0.2
; #@! TF.FileFunction,Plated,1,2,PTH
FMAT,2
INCH
; #@! TA.AperFunction,Plated,PTH,ComponentDrill
T1C0.0310
; #@! TA.AperFunction,Plated,PTH,ComponentDrill
T2C0.0394
; #@! TA.AperFunction,Plated,PTH,ComponentDrill
T3C0.0433
; #@! TA.AperFunction,Plated,PTH,ComponentDrill
T4C0.0590
%
G90
G05
T1
X1.9291Y-1.6535
X1.9291Y-1.9535
X2.0291Y-1.6535
X2.0291Y-1.9535
X2.1291Y-1.6535
X2.1291Y-1.9535
X2.2291Y-1.6535
X2.2291Y-1.9535
X2.3291Y-1.6535
X2.3291Y-1.9535
X2.4291Y-1.6535
X2.4291Y-1.9535
X2.5291Y-1.6535
X2.5291Y-1.9535
X3.0102Y-3.8976
X3.0102Y-4.1976
X3.1102Y-3.8976
X3.1102Y-4.1976
X3.2102Y-3.8976
X3.2102Y-4.1976
X3.3102Y-3.8976
X3.3102Y-4.1976
X3.4102Y-3.8976
X3.4102Y-4.1976
X3.5102Y-3.8976
X3.5102Y-4.1976
X3.6102Y-3.8976
X3.6102Y-4.1976
T2
X1.5787Y-5.5181
X1.5787Y-5.6181
X5.1181Y-1.1024
X5.2181Y-1.1024
X5.3181Y-1.1024
X5.4181Y-1.1024
X5.711Y-1.1024
X5.811Y-1.1024
X5.911Y-1.1024
X6.011Y-1.1024
X6.3016Y-1.1024
X6.4016Y-1.1024
X6.5016Y-1.1024
X6.6016Y-1.1024
X6.8921Y-1.1024
X6.9921Y-1.1024
X7.0921Y-1.1024
X7.1921Y-1.1024
T3
X1.7323Y-1.0236
X1.7323Y-1.2008
X1.9882Y-1.0236
X1.9882Y-1.2008
X2.2047Y-1.0236
X2.2047Y-1.2008
X2.4606Y-1.0236
X2.4606Y-1.2008
X2.6772Y-1.0236
X2.6772Y-1.2008
X2.9331Y-1.0236
X2.9331Y-1.2008
X3.1496Y-1.0236
X3.1496Y-1.2008
X3.4055Y-1.0236
X3.4055Y-1.2008
T4
X1.4724Y-2.3803
X1.7224Y-2.2803
X2.6142Y-2.3803
X2.8642Y-2.2803
X3.5984Y-2.9315
X3.8484Y-2.8315
X4.189Y-5.0181
X4.439Y-4.9181
X5.0551Y-2.4984
X5.0551Y-3.6402
X5.3051Y-2.3984
X5.3051Y-3.5402
X6.0394Y-1.9472
X6.0394Y-3.089
X6.2894Y-1.8472
X6.2894Y-2.989
X7.1811Y-1.9472
X7.1811Y-3.089
X7.4311Y-1.8472
X7.4311Y-2.989
X8.2835Y-2.2228
X8.2835Y-3.3646
X8.5335Y-2.1228
X8.5335Y-3.2646
T0
M30
