M48
; DRILL file {KiCad 7.0.2} date Thu Jun 15 03:47:46 2023
; FORMAT={-:-/ absolute / inch / decimal}
; #@! TF.CreationDate,2023-06-15T03:47:46-07:00
; #@! TF.GenerationSoftware,Kicad,Pcbnew,7.0.2
; #@! TF.FileFunction,NonPlated,1,2,NPTH
FMAT,2
INCH
; #@! TA.AperFunction,NonPlated,NPTH,ComponentDrill
T1C0.0670
; #@! TA.AperFunction,NonPlated,NPTH,ComponentDrill
T2C0.1181
; #@! TA.AperFunction,NonPlated,NPTH,ComponentDrill
T3C0.1570
%
G90
G05
T1
X1.4224Y-2.4803
X1.8224Y-2.4803
X2.5642Y-2.4803
X2.9642Y-2.4803
X3.5484Y-3.0315
X3.9484Y-3.0315
X4.139Y-5.1181
X4.539Y-5.1181
X5.0051Y-2.5984
X5.0051Y-3.7402
X5.4051Y-2.5984
X5.4051Y-3.7402
X5.9894Y-2.0472
X5.9894Y-3.189
X6.3894Y-2.0472
X6.3894Y-3.189
X7.1311Y-2.0472
X7.1311Y-3.189
X7.5311Y-2.0472
X7.5311Y-3.189
X8.2335Y-2.3228
X8.2335Y-3.4646
X8.6335Y-2.3228
X8.6335Y-3.4646
T2
X1.5224Y-2.6803
X1.7724Y-2.5803
X2.6642Y-2.6803
X2.9142Y-2.5803
X3.6484Y-3.2315
X3.8984Y-3.1315
X4.239Y-5.3181
X4.489Y-5.2181
X5.1051Y-2.7984
X5.1051Y-3.9402
X5.3551Y-2.6984
X5.3551Y-3.8402
X6.0894Y-2.2472
X6.0894Y-3.389
X6.3394Y-2.1472
X6.3394Y-3.289
X7.2311Y-2.2472
X7.2311Y-3.389
X7.4811Y-2.1472
X7.4811Y-3.289
X8.3335Y-2.5228
X8.3335Y-3.6646
X8.5835Y-2.4228
X8.5835Y-3.5646
T3
X1.6224Y-2.4803
X2.7642Y-2.4803
X3.7484Y-3.0315
X4.339Y-5.1181
X5.2051Y-2.5984
X5.2051Y-3.7402
X6.1894Y-2.0472
X6.1894Y-3.189
X7.3311Y-2.0472
X7.3311Y-3.189
X8.4335Y-2.3228
X8.4335Y-3.4646
T0
M30
