%TF.GenerationSoftware,KiCad,Pcbnew,7.0.2*%
%TF.CreationDate,2023-06-15T03:48:31-07:00*%
%TF.ProjectId,DS5,4453352e-6b69-4636-9164-5f7063625858,rev?*%
%TF.SameCoordinates,Original*%
%TF.FileFunction,Copper,L1,Top*%
%TF.FilePolarity,Positive*%
%FSLAX46Y46*%
G04 Gerber Fmt 4.6, Leading zero omitted, Abs format (unit mm)*
G04 Created by KiCad (PCBNEW 7.0.2) date 2023-06-15 03:48:31*
%MOMM*%
%LPD*%
G01*
G04 APERTURE LIST*
%TA.AperFunction,ComponentPad*%
%ADD10R,1.295400X1.295400*%
%TD*%
%TA.AperFunction,ComponentPad*%
%ADD11C,1.295400*%
%TD*%
%TA.AperFunction,ComponentPad*%
%ADD12R,1.700000X1.700000*%
%TD*%
%TA.AperFunction,ComponentPad*%
%ADD13O,1.700000X1.700000*%
%TD*%
%TA.AperFunction,ComponentPad*%
%ADD14C,2.286000*%
%TD*%
%TA.AperFunction,ComponentPad*%
%ADD15C,2.000000*%
%TD*%
%TA.AperFunction,Conductor*%
%ADD16C,0.250000*%
%TD*%
G04 APERTURE END LIST*
D10*
%TO.P,Left + Right,1,1A*%
%TO.N,Net-(Neutral1-1A)*%
X49000000Y-49620000D03*
D11*
%TO.P,Left + Right,2,1B*%
X51540000Y-49620000D03*
%TO.P,Left + Right,3,1Y*%
%TO.N,Net-(Neutral1-1Y)*%
X54080000Y-49620000D03*
%TO.P,Left + Right,4,2A*%
X56620000Y-49620000D03*
%TO.P,Left + Right,5,2B*%
%TO.N,Net-(Neutral1-2B)*%
X59160000Y-49620000D03*
%TO.P,Left + Right,6,2Y*%
%TO.N,/Left*%
X61700000Y-49620000D03*
%TO.P,Left + Right,7,GND*%
%TO.N,GND*%
X64240000Y-49620000D03*
%TO.P,Left + Right,8,3Y*%
%TO.N,/Right*%
X64240000Y-42000000D03*
%TO.P,Left + Right,9,3A*%
%TO.N,Net-(Neutral1-1A)*%
X61700000Y-42000000D03*
%TO.P,Left + Right,10,3B*%
%TO.N,Net-(Neutral1-3B)*%
X59160000Y-42000000D03*
%TO.P,Left + Right,11,4Y*%
X56620000Y-42000000D03*
%TO.P,Left + Right,12,4A*%
%TO.N,Net-(Neutral1-2B)*%
X54080000Y-42000000D03*
%TO.P,Left + Right,13,4B*%
X51540000Y-42000000D03*
%TO.P,Left + Right,14,VCC*%
%TO.N,/5V*%
X49000000Y-42000000D03*
%TD*%
D12*
%TO.P,BT1,1,+*%
%TO.N,/5V*%
X40100000Y-140160000D03*
D13*
%TO.P,BT1,2,-*%
%TO.N,GND*%
X40100000Y-142700000D03*
%TD*%
D12*
%TO.P,Shoulder,1,Pin_1*%
%TO.N,/R2*%
X175060000Y-28000000D03*
D13*
%TO.P,Shoulder,2,Pin_2*%
%TO.N,/R1*%
X177600000Y-28000000D03*
%TO.P,Shoulder,3,Pin_3*%
%TO.N,/L2*%
X180140000Y-28000000D03*
%TO.P,Shoulder,4,Pin_4*%
%TO.N,/L1*%
X182680000Y-28000000D03*
%TD*%
D14*
%TO.P,Right,2*%
%TO.N,GND*%
X91400000Y-74460000D03*
%TO.P,Right,1*%
%TO.N,Net-(Neutral1-2B)*%
X97750000Y-71920000D03*
%TD*%
%TO.P,L1,1*%
%TO.N,/L1*%
X216750000Y-53920000D03*
%TO.P,L1,2*%
%TO.N,GND*%
X210400000Y-56460000D03*
%TD*%
D12*
%TO.P,DPad1,1,Pin_1*%
%TO.N,/Right*%
X145060000Y-28000000D03*
D13*
%TO.P,DPad1,2,Pin_2*%
%TO.N,/Left*%
X147600000Y-28000000D03*
%TO.P,DPad1,3,Pin_3*%
%TO.N,/Up*%
X150140000Y-28000000D03*
%TO.P,DPad1,4,Pin_4*%
%TO.N,/Down*%
X152680000Y-28000000D03*
%TD*%
D14*
%TO.P,Cross,1*%
%TO.N,/X*%
X134750000Y-89920000D03*
%TO.P,Cross,2*%
%TO.N,GND*%
X128400000Y-92460000D03*
%TD*%
D10*
%TO.P,Up + Down,1,1A*%
%TO.N,Net-(UpPrio1-1A)*%
X76460000Y-106620000D03*
D11*
%TO.P,Up + Down,2,1B*%
X79000000Y-106620000D03*
%TO.P,Up + Down,3,1Y*%
%TO.N,Net-(UpPrio1-1Y)*%
X81540000Y-106620000D03*
%TO.P,Up + Down,4,2A*%
X84080000Y-106620000D03*
%TO.P,Up + Down,5,2B*%
%TO.N,/Up*%
X86620000Y-106620000D03*
%TO.P,Up + Down,6,2Y*%
%TO.N,/Down*%
X89160000Y-106620000D03*
%TO.P,Up + Down,7,GND*%
%TO.N,GND*%
X91700000Y-106620000D03*
%TO.P,Up + Down,8,3Y*%
%TO.N,unconnected-(UpPrio1-3Y-Pad8)*%
X91700000Y-99000000D03*
%TO.P,Up + Down,9,3A*%
%TO.N,unconnected-(UpPrio1-3A-Pad9)*%
X89160000Y-99000000D03*
%TO.P,Up + Down,10,3B*%
%TO.N,unconnected-(UpPrio1-3B-Pad10)*%
X86620000Y-99000000D03*
%TO.P,Up + Down,11,4Y*%
%TO.N,unconnected-(UpPrio1-4Y-Pad11)*%
X84080000Y-99000000D03*
%TO.P,Up + Down,12,4A*%
%TO.N,unconnected-(UpPrio1-4A-Pad12)*%
X81540000Y-99000000D03*
%TO.P,Up + Down,13,4B*%
%TO.N,unconnected-(UpPrio1-4B-Pad13)*%
X79000000Y-99000000D03*
%TO.P,Up + Down,14,VCC*%
%TO.N,/5V*%
X76460000Y-99000000D03*
%TD*%
D15*
%TO.P,Share,1*%
%TO.N,/Share*%
X68000000Y-26000000D03*
X74500000Y-26000000D03*
%TO.P,Share,2*%
%TO.N,GND*%
X68000000Y-30500000D03*
X74500000Y-30500000D03*
%TD*%
D14*
%TO.P,L2,1*%
%TO.N,/L2*%
X216750000Y-82920000D03*
%TO.P,L2,2*%
%TO.N,GND*%
X210400000Y-85460000D03*
%TD*%
%TO.P,Left,1*%
%TO.N,Net-(Neutral1-1A)*%
X43750000Y-57920000D03*
%TO.P,Left,2*%
%TO.N,GND*%
X37400000Y-60460000D03*
%TD*%
%TO.P,R2,1*%
%TO.N,/R2*%
X188750000Y-75920000D03*
%TO.P,R2,2*%
%TO.N,GND*%
X182400000Y-78460000D03*
%TD*%
D15*
%TO.P,Touch,1*%
%TO.N,/Touch*%
X80000000Y-26000000D03*
X86500000Y-26000000D03*
%TO.P,Touch,2*%
%TO.N,GND*%
X80000000Y-30500000D03*
X86500000Y-30500000D03*
%TD*%
D14*
%TO.P,Up,1*%
%TO.N,/Up*%
X112750000Y-124920000D03*
%TO.P,Up,2*%
%TO.N,GND*%
X106400000Y-127460000D03*
%TD*%
%TO.P,R1,1*%
%TO.N,/R1*%
X188750000Y-46920000D03*
%TO.P,R1,2*%
%TO.N,GND*%
X182400000Y-49460000D03*
%TD*%
D15*
%TO.P,Option,1*%
%TO.N,/Option*%
X56000000Y-26000000D03*
X62500000Y-26000000D03*
%TO.P,Option,2*%
%TO.N,GND*%
X56000000Y-30500000D03*
X62500000Y-30500000D03*
%TD*%
D14*
%TO.P,Square,1*%
%TO.N,/\u25A1*%
X134750000Y-60920000D03*
%TO.P,Square,2*%
%TO.N,GND*%
X128400000Y-63460000D03*
%TD*%
D12*
%TO.P,Face,1,Pin_1*%
%TO.N,/\u25A1*%
X160060000Y-28000000D03*
D13*
%TO.P,Face,2,Pin_2*%
%TO.N,/X*%
X162600000Y-28000000D03*
%TO.P,Face,3,Pin_3*%
%TO.N,/O*%
X165140000Y-28000000D03*
%TO.P,Face,4,Pin_4*%
%TO.N,/\u25B3*%
X167680000Y-28000000D03*
%TD*%
D14*
%TO.P,Circle,1*%
%TO.N,/O*%
X159750000Y-75920000D03*
%TO.P,Circle,2*%
%TO.N,GND*%
X153400000Y-78460000D03*
%TD*%
%TO.P,Down,2*%
%TO.N,GND*%
X66400000Y-60460000D03*
%TO.P,Down,1*%
%TO.N,Net-(UpPrio1-1A)*%
X72750000Y-57920000D03*
%TD*%
%TO.P,Triangle,1*%
%TO.N,/\u25B3*%
X159750000Y-46920000D03*
%TO.P,Triangle,2*%
%TO.N,GND*%
X153400000Y-49460000D03*
%TD*%
D15*
%TO.P,Ps,1*%
%TO.N,/PS*%
X44000000Y-26000000D03*
X50500000Y-26000000D03*
%TO.P,Ps,2*%
%TO.N,GND*%
X44000000Y-30500000D03*
X50500000Y-30500000D03*
%TD*%
D12*
%TO.P,Side,1,Pin_1*%
%TO.N,/Touch*%
X130000000Y-28000000D03*
D13*
%TO.P,Side,2,Pin_2*%
%TO.N,/Share*%
X132540000Y-28000000D03*
%TO.P,Side,3,Pin_3*%
%TO.N,/Option*%
X135080000Y-28000000D03*
%TO.P,Side,4,Pin_4*%
%TO.N,/PS*%
X137620000Y-28000000D03*
%TD*%
D16*
%TO.N,/Left*%
X135500000Y-41000000D02*
X70320000Y-41000000D01*
X147600000Y-28900000D02*
X135500000Y-41000000D01*
X70320000Y-41000000D02*
X61700000Y-49620000D01*
X147600000Y-28000000D02*
X147600000Y-28900000D01*
%TO.N,/Right*%
X134060000Y-39000000D02*
X145060000Y-28000000D01*
X67240000Y-39000000D02*
X134060000Y-39000000D01*
X64240000Y-42000000D02*
X67240000Y-39000000D01*
%TO.N,/Option*%
X128080000Y-35000000D02*
X135080000Y-28000000D01*
X67000000Y-35000000D02*
X128080000Y-35000000D01*
X64000000Y-32000000D02*
X67000000Y-35000000D01*
X64000000Y-27500000D02*
X64000000Y-32000000D01*
X62500000Y-26000000D02*
X64000000Y-27500000D01*
%TO.N,/PS*%
X57000000Y-37000000D02*
X128620000Y-37000000D01*
X52000000Y-32000000D02*
X57000000Y-37000000D01*
X52000000Y-27500000D02*
X52000000Y-32000000D01*
X128620000Y-37000000D02*
X137620000Y-28000000D01*
X50500000Y-26000000D02*
X52000000Y-27500000D01*
%TO.N,/Down*%
X90780000Y-105000000D02*
X89160000Y-106620000D01*
X118000000Y-105000000D02*
X90780000Y-105000000D01*
X139000000Y-53000000D02*
X136000000Y-56000000D01*
X123000000Y-100000000D02*
X118000000Y-105000000D01*
X139000000Y-44500000D02*
X139000000Y-53000000D01*
X123000000Y-58000000D02*
X123000000Y-100000000D01*
X152680000Y-30820000D02*
X139000000Y-44500000D01*
X136000000Y-56000000D02*
X125000000Y-56000000D01*
X152680000Y-28000000D02*
X152680000Y-30820000D01*
X125000000Y-56000000D02*
X123000000Y-58000000D01*
%TO.N,Net-(Neutral1-1A)*%
X51540000Y-47210000D02*
X51540000Y-49620000D01*
X61700000Y-44300000D02*
X60520000Y-45480000D01*
X53270000Y-45480000D02*
X51540000Y-47210000D01*
X61700000Y-42000000D02*
X61700000Y-44300000D01*
X60520000Y-45480000D02*
X53270000Y-45480000D01*
%TO.N,Net-(UpPrio1-1A)*%
X79972700Y-59722700D02*
X78170000Y-57920000D01*
X79000000Y-106620000D02*
X79972700Y-105647300D01*
X79972700Y-105647300D02*
X79972700Y-59722700D01*
X78170000Y-57920000D02*
X72750000Y-57920000D01*
%TO.N,/Up*%
X124250000Y-53000000D02*
X134000000Y-53000000D01*
X86620000Y-106620000D02*
X91240000Y-102000000D01*
X120000000Y-57250000D02*
X124250000Y-53000000D01*
X91240000Y-102000000D02*
X117000000Y-102000000D01*
X136000000Y-51000000D02*
X136000000Y-44000000D01*
X120000000Y-99000000D02*
X120000000Y-57250000D01*
X117000000Y-102000000D02*
X120000000Y-99000000D01*
X134000000Y-53000000D02*
X136000000Y-51000000D01*
X136000000Y-44000000D02*
X150140000Y-29860000D01*
X150140000Y-29860000D02*
X150140000Y-28000000D01*
%TO.N,/\u25A1*%
X142000000Y-53670000D02*
X142000000Y-45000000D01*
X134750000Y-60920000D02*
X142000000Y-53670000D01*
X159000000Y-38000000D02*
X160060000Y-36940000D01*
X160060000Y-36940000D02*
X160060000Y-28000000D01*
X149000000Y-38000000D02*
X159000000Y-38000000D01*
X142000000Y-45000000D02*
X149000000Y-38000000D01*
%TO.N,/X*%
X149000000Y-41000000D02*
X161000000Y-41000000D01*
X145000000Y-88000000D02*
X145000000Y-45000000D01*
X145000000Y-45000000D02*
X149000000Y-41000000D01*
X134750000Y-89920000D02*
X143080000Y-89920000D01*
X143080000Y-89920000D02*
X145000000Y-88000000D01*
X161000000Y-41000000D02*
X162600000Y-39400000D01*
X162600000Y-39400000D02*
X162600000Y-28000000D01*
%TO.N,/O*%
X165140000Y-40860000D02*
X165140000Y-28000000D01*
X163000000Y-43000000D02*
X165140000Y-40860000D01*
X150000000Y-43000000D02*
X163000000Y-43000000D01*
X149920000Y-75920000D02*
X148000000Y-74000000D01*
X148000000Y-74000000D02*
X148000000Y-45000000D01*
X159750000Y-75920000D02*
X149920000Y-75920000D01*
X148000000Y-45000000D02*
X150000000Y-43000000D01*
%TO.N,/\u25B3*%
X165080000Y-46920000D02*
X159750000Y-46920000D01*
X167680000Y-28000000D02*
X167680000Y-44320000D01*
X167680000Y-44320000D02*
X165080000Y-46920000D01*
%TO.N,/L1*%
X184000000Y-40000000D02*
X182680000Y-38680000D01*
X195000000Y-40000000D02*
X184000000Y-40000000D01*
X198000000Y-52000000D02*
X198000000Y-43000000D01*
X182680000Y-38680000D02*
X182680000Y-28000000D01*
X199920000Y-53920000D02*
X198000000Y-52000000D01*
X216750000Y-53920000D02*
X199920000Y-53920000D01*
X198000000Y-43000000D02*
X195000000Y-40000000D01*
%TO.N,/L2*%
X182000000Y-42000000D02*
X180140000Y-40140000D01*
X216750000Y-82920000D02*
X197920000Y-82920000D01*
X197920000Y-82920000D02*
X196000000Y-81000000D01*
X196000000Y-81000000D02*
X196000000Y-44000000D01*
X196000000Y-44000000D02*
X194000000Y-42000000D01*
X194000000Y-42000000D02*
X182000000Y-42000000D01*
X180140000Y-40140000D02*
X180140000Y-28000000D01*
%TO.N,/R1*%
X179920000Y-46920000D02*
X188750000Y-46920000D01*
X177600000Y-44600000D02*
X179920000Y-46920000D01*
X177600000Y-28000000D02*
X177600000Y-44600000D01*
%TO.N,/R2*%
X176920000Y-75920000D02*
X188750000Y-75920000D01*
X175060000Y-28000000D02*
X175060000Y-74060000D01*
X175060000Y-74060000D02*
X176920000Y-75920000D01*
%TO.N,Net-(Neutral1-2B)*%
X60540000Y-51000000D02*
X59160000Y-49620000D01*
X81000000Y-51000000D02*
X60540000Y-51000000D01*
X83000000Y-53000000D02*
X81000000Y-51000000D01*
X83000000Y-70000000D02*
X83000000Y-53000000D01*
X84852313Y-71852313D02*
X83000000Y-70000000D01*
X97830918Y-71852313D02*
X84852313Y-71852313D01*
%TO.N,/Share*%
X127540000Y-33000000D02*
X132540000Y-28000000D01*
X75825000Y-31825000D02*
X77000000Y-33000000D01*
X75825000Y-27325000D02*
X75825000Y-31825000D01*
X74500000Y-26000000D02*
X75825000Y-27325000D01*
X77000000Y-33000000D02*
X127540000Y-33000000D01*
%TO.N,/Touch*%
X128000000Y-26000000D02*
X130000000Y-28000000D01*
X86500000Y-26000000D02*
X128000000Y-26000000D01*
%TO.N,GND*%
X80000000Y-30500000D02*
X86500000Y-30500000D01*
%TO.N,/Touch*%
X80000000Y-26000000D02*
X86500000Y-26000000D01*
%TO.N,GND*%
X68000000Y-30500000D02*
X74500000Y-30500000D01*
%TO.N,/Share*%
X68000000Y-26000000D02*
X74500000Y-26000000D01*
%TO.N,GND*%
X56000000Y-30500000D02*
X62500000Y-30500000D01*
%TO.N,/Option*%
X56000000Y-26000000D02*
X62500000Y-26000000D01*
%TO.N,GND*%
X44000000Y-30500000D02*
X50500000Y-30500000D01*
%TO.N,/PS*%
X44000000Y-26000000D02*
X50500000Y-26000000D01*
%TO.N,Net-(Neutral1-3B)*%
X56620000Y-42000000D02*
X59160000Y-42000000D01*
%TO.N,Net-(Neutral1-2B)*%
X51540000Y-42000000D02*
X54080000Y-42000000D01*
%TO.N,/Up*%
X86620000Y-106620000D02*
X86620000Y-122620000D01*
X86620000Y-122620000D02*
X88852313Y-124852313D01*
X88852313Y-124852313D02*
X112830918Y-124852313D01*
%TO.N,Net-(UpPrio1-1A)*%
X76460000Y-106620000D02*
X79000000Y-106620000D01*
%TO.N,Net-(Neutral1-1A)*%
X49000000Y-57000000D02*
X49000000Y-49620000D01*
X49000000Y-49620000D02*
X51540000Y-49620000D01*
X43830918Y-57852313D02*
X48147687Y-57852313D01*
X48147687Y-57852313D02*
X49000000Y-57000000D01*
%TO.N,Net-(Neutral1-1Y)*%
X54080000Y-49620000D02*
X56620000Y-49620000D01*
%TO.N,Net-(UpPrio1-1Y)*%
X81540000Y-106620000D02*
X84080000Y-106620000D01*
%TD*%
M02*
