%TF.GenerationSoftware,KiCad,Pcbnew,7.0.2*%
%TF.CreationDate,2023-06-15T03:48:31-07:00*%
%TF.ProjectId,DS5,4453352e-6b69-4636-9164-5f7063625858,rev?*%
%TF.SameCoordinates,Original*%
%TF.FileFunction,Soldermask,Bot*%
%TF.FilePolarity,Negative*%
%FSLAX46Y46*%
G04 Gerber Fmt 4.6, Leading zero omitted, Abs format (unit mm)*
G04 Created by KiCad (PCBNEW 7.0.2) date 2023-06-15 03:48:31*
%MOMM*%
%LPD*%
G01*
G04 APERTURE LIST*
%ADD10R,1.295400X1.295400*%
%ADD11C,1.295400*%
%ADD12R,1.700000X1.700000*%
%ADD13O,1.700000X1.700000*%
%ADD14R,2.550000X2.500000*%
%ADD15C,2.286000*%
%ADD16C,1.701800*%
%ADD17C,3.000000*%
%ADD18C,3.987800*%
%ADD19C,2.000000*%
G04 APERTURE END LIST*
D10*
%TO.C,Left + Right*%
X49000000Y-49620000D03*
D11*
X51540000Y-49620000D03*
X54080000Y-49620000D03*
X56620000Y-49620000D03*
X59160000Y-49620000D03*
X61700000Y-49620000D03*
X64240000Y-49620000D03*
X64240000Y-42000000D03*
X61700000Y-42000000D03*
X59160000Y-42000000D03*
X56620000Y-42000000D03*
X54080000Y-42000000D03*
X51540000Y-42000000D03*
X49000000Y-42000000D03*
%TD*%
D12*
%TO.C,BT1*%
X40100000Y-140160000D03*
D13*
X40100000Y-142700000D03*
%TD*%
D12*
%TO.C,Shoulder*%
X175060000Y-28000000D03*
D13*
X177600000Y-28000000D03*
X180140000Y-28000000D03*
X182680000Y-28000000D03*
%TD*%
D14*
%TO.C,Right*%
X102770000Y-79540000D03*
D15*
X91400000Y-74460000D03*
X97750000Y-71920000D03*
D14*
X88920000Y-82080000D03*
D16*
X100290000Y-77000000D03*
D17*
X99020000Y-79540000D03*
D18*
X95210000Y-77000000D03*
D17*
X92670000Y-82080000D03*
D16*
X90130000Y-77000000D03*
%TD*%
%TO.C,L1*%
X209130000Y-59000000D03*
D17*
X211670000Y-64080000D03*
D18*
X214210000Y-59000000D03*
D17*
X218020000Y-61540000D03*
D16*
X219290000Y-59000000D03*
D14*
X207920000Y-64080000D03*
D15*
X216750000Y-53920000D03*
X210400000Y-56460000D03*
D14*
X221770000Y-61540000D03*
%TD*%
D12*
%TO.C,DPad1*%
X145060000Y-28000000D03*
D13*
X147600000Y-28000000D03*
X150140000Y-28000000D03*
X152680000Y-28000000D03*
%TD*%
D16*
%TO.C,Cross*%
X127130000Y-95000000D03*
D17*
X129670000Y-100080000D03*
D18*
X132210000Y-95000000D03*
D17*
X136020000Y-97540000D03*
D16*
X137290000Y-95000000D03*
D14*
X125920000Y-100080000D03*
D15*
X134750000Y-89920000D03*
X128400000Y-92460000D03*
D14*
X139770000Y-97540000D03*
%TD*%
D10*
%TO.C,Up + Down*%
X76460000Y-106620000D03*
D11*
X79000000Y-106620000D03*
X81540000Y-106620000D03*
X84080000Y-106620000D03*
X86620000Y-106620000D03*
X89160000Y-106620000D03*
X91700000Y-106620000D03*
X91700000Y-99000000D03*
X89160000Y-99000000D03*
X86620000Y-99000000D03*
X84080000Y-99000000D03*
X81540000Y-99000000D03*
X79000000Y-99000000D03*
X76460000Y-99000000D03*
%TD*%
D19*
%TO.C,Share*%
X68000000Y-26000000D03*
X74500000Y-26000000D03*
X68000000Y-30500000D03*
X74500000Y-30500000D03*
%TD*%
D16*
%TO.C,L2*%
X209130000Y-88000000D03*
D17*
X211670000Y-93080000D03*
D18*
X214210000Y-88000000D03*
D17*
X218020000Y-90540000D03*
D16*
X219290000Y-88000000D03*
D14*
X207920000Y-93080000D03*
D15*
X216750000Y-82920000D03*
X210400000Y-85460000D03*
D14*
X221770000Y-90540000D03*
%TD*%
D16*
%TO.C,Left*%
X36130000Y-63000000D03*
D17*
X38670000Y-68080000D03*
D18*
X41210000Y-63000000D03*
D17*
X45020000Y-65540000D03*
D16*
X46290000Y-63000000D03*
D14*
X34920000Y-68080000D03*
D15*
X43750000Y-57920000D03*
X37400000Y-60460000D03*
D14*
X48770000Y-65540000D03*
%TD*%
D16*
%TO.C,R2*%
X181130000Y-81000000D03*
D17*
X183670000Y-86080000D03*
D18*
X186210000Y-81000000D03*
D17*
X190020000Y-83540000D03*
D16*
X191290000Y-81000000D03*
D14*
X179920000Y-86080000D03*
D15*
X188750000Y-75920000D03*
X182400000Y-78460000D03*
D14*
X193770000Y-83540000D03*
%TD*%
D19*
%TO.C,Touch*%
X80000000Y-26000000D03*
X86500000Y-26000000D03*
X80000000Y-30500000D03*
X86500000Y-30500000D03*
%TD*%
D16*
%TO.C,Up*%
X105130000Y-130000000D03*
D17*
X107670000Y-135080000D03*
D18*
X110210000Y-130000000D03*
D17*
X114020000Y-132540000D03*
D16*
X115290000Y-130000000D03*
D14*
X103920000Y-135080000D03*
D15*
X112750000Y-124920000D03*
X106400000Y-127460000D03*
D14*
X117770000Y-132540000D03*
%TD*%
D16*
%TO.C,R1*%
X181130000Y-52000000D03*
D17*
X183670000Y-57080000D03*
D18*
X186210000Y-52000000D03*
D17*
X190020000Y-54540000D03*
D16*
X191290000Y-52000000D03*
D14*
X179920000Y-57080000D03*
D15*
X188750000Y-46920000D03*
X182400000Y-49460000D03*
D14*
X193770000Y-54540000D03*
%TD*%
D19*
%TO.C,Option*%
X56000000Y-26000000D03*
X62500000Y-26000000D03*
X56000000Y-30500000D03*
X62500000Y-30500000D03*
%TD*%
D16*
%TO.C,Square*%
X127130000Y-66000000D03*
D17*
X129670000Y-71080000D03*
D18*
X132210000Y-66000000D03*
D17*
X136020000Y-68540000D03*
D16*
X137290000Y-66000000D03*
D14*
X125920000Y-71080000D03*
D15*
X134750000Y-60920000D03*
X128400000Y-63460000D03*
D14*
X139770000Y-68540000D03*
%TD*%
D12*
%TO.C,Face*%
X160060000Y-28000000D03*
D13*
X162600000Y-28000000D03*
X165140000Y-28000000D03*
X167680000Y-28000000D03*
%TD*%
D16*
%TO.C,Circle*%
X152130000Y-81000000D03*
D17*
X154670000Y-86080000D03*
D18*
X157210000Y-81000000D03*
D17*
X161020000Y-83540000D03*
D16*
X162290000Y-81000000D03*
D14*
X150920000Y-86080000D03*
D15*
X159750000Y-75920000D03*
X153400000Y-78460000D03*
D14*
X164770000Y-83540000D03*
%TD*%
%TO.C,Down*%
X77770000Y-65540000D03*
D15*
X66400000Y-60460000D03*
X72750000Y-57920000D03*
D14*
X63920000Y-68080000D03*
D16*
X75290000Y-63000000D03*
D17*
X74020000Y-65540000D03*
D18*
X70210000Y-63000000D03*
D17*
X67670000Y-68080000D03*
D16*
X65130000Y-63000000D03*
%TD*%
%TO.C,Triangle*%
X152130000Y-52000000D03*
D17*
X154670000Y-57080000D03*
D18*
X157210000Y-52000000D03*
D17*
X161020000Y-54540000D03*
D16*
X162290000Y-52000000D03*
D14*
X150920000Y-57080000D03*
D15*
X159750000Y-46920000D03*
X153400000Y-49460000D03*
D14*
X164770000Y-54540000D03*
%TD*%
D19*
%TO.C,Ps*%
X44000000Y-26000000D03*
X50500000Y-26000000D03*
X44000000Y-30500000D03*
X50500000Y-30500000D03*
%TD*%
D12*
%TO.C,Side*%
X130000000Y-28000000D03*
D13*
X132540000Y-28000000D03*
X135080000Y-28000000D03*
X137620000Y-28000000D03*
%TD*%
M02*
