M48
; DRILL file {KiCad 7.0.2} date Thu Jun 15 01:27:31 2023
; FORMAT={-:-/ absolute / inch / decimal}
; #@! TF.CreationDate,2023-06-15T01:27:31-07:00
; #@! TF.GenerationSoftware,Kicad,Pcbnew,7.0.2
; #@! TF.FileFunction,Plated,1,2,PTH
FMAT,2
INCH
; #@! TA.AperFunction,Plated,PTH,ComponentDrill
T1C0.0310
; #@! TA.AperFunction,Plated,PTH,ComponentDrill
T2C0.0394
; #@! TA.AperFunction,Plated,PTH,ComponentDrill
T3C0.0433
; #@! TA.AperFunction,Plated,PTH,ComponentDrill
T4C0.0590
%
G90
G05
T1
X1.8504Y-1.5354
X1.8504Y-1.8354
X1.9504Y-1.5354
X1.9504Y-1.8354
X2.0504Y-1.5354
X2.0504Y-1.8354
X2.1504Y-1.5354
X2.1504Y-1.8354
X2.2504Y-1.5354
X2.2504Y-1.8354
X2.3504Y-1.5354
X2.3504Y-1.8354
X2.4504Y-1.5354
X2.4504Y-1.8354
X2.9315Y-3.7795
X2.9315Y-4.0795
X3.0315Y-3.7795
X3.0315Y-4.0795
X3.1315Y-3.7795
X3.1315Y-4.0795
X3.2315Y-3.7795
X3.2315Y-4.0795
X3.3315Y-3.7795
X3.3315Y-4.0795
X3.4315Y-3.7795
X3.4315Y-4.0795
X3.5315Y-3.7795
X3.5315Y-4.0795
T2
X1.5Y-5.4
X1.5Y-5.5
X3.9Y-0.9
X4.0Y-0.9
X4.1Y-0.9
X4.2Y-0.9
X4.4906Y-0.9
X4.5906Y-0.9
X4.6906Y-0.9
X4.7906Y-0.9
X5.0811Y-0.9
X5.1811Y-0.9
X5.2811Y-0.9
X5.3811Y-0.9
X5.6717Y-0.9
X5.7717Y-0.9
X5.8717Y-0.9
X5.9717Y-0.9
T3
X0.8858Y-0.8465
X0.8858Y-1.0236
X1.1417Y-0.8465
X1.1417Y-1.0236
X1.3583Y-0.8465
X1.3583Y-1.0236
X1.6142Y-0.8465
X1.6142Y-1.0236
X1.8307Y-0.8465
X1.8307Y-1.0236
X2.0866Y-0.8465
X2.0866Y-1.0236
X2.3031Y-0.8465
X2.3031Y-1.0236
X2.5591Y-0.8465
X2.5591Y-1.0236
T4
X1.3937Y-2.2622
X1.6437Y-2.1622
X2.5354Y-2.2622
X2.7854Y-2.1622
X3.5197Y-2.8134
X3.7697Y-2.7134
X4.1102Y-4.9
X4.3602Y-4.8
X4.9764Y-2.3803
X4.9764Y-3.522
X5.2264Y-2.2803
X5.2264Y-3.422
X5.9606Y-1.8291
X5.9606Y-2.9709
X6.2106Y-1.7291
X6.2106Y-2.8709
X7.1024Y-1.8291
X7.1024Y-2.9709
X7.3524Y-1.7291
X7.3524Y-2.8709
X8.2047Y-2.1047
X8.2047Y-3.2465
X8.4547Y-2.0047
X8.4547Y-3.1465
T0
M30
