%TF.GenerationSoftware,KiCad,Pcbnew,7.0.2*%
%TF.CreationDate,2023-06-15T01:27:37-07:00*%
%TF.ProjectId,DS5,4453352e-6b69-4636-9164-5f7063625858,rev?*%
%TF.SameCoordinates,Original*%
%TF.FileFunction,Soldermask,Top*%
%TF.FilePolarity,Negative*%
%FSLAX46Y46*%
G04 Gerber Fmt 4.6, Leading zero omitted, Abs format (unit mm)*
G04 Created by KiCad (PCBNEW 7.0.2) date 2023-06-15 01:27:37*
%MOMM*%
%LPD*%
G01*
G04 APERTURE LIST*
%ADD10R,1.700000X1.700000*%
%ADD11O,1.700000X1.700000*%
%ADD12R,1.295400X1.295400*%
%ADD13C,1.295400*%
%ADD14C,1.701800*%
%ADD15C,3.000000*%
%ADD16C,3.987800*%
%ADD17C,2.286000*%
%ADD18C,2.000000*%
G04 APERTURE END LIST*
D10*
%TO.C,Battery*%
X38100000Y-137160000D03*
D11*
X38100000Y-139700000D03*
%TD*%
D12*
%TO.C,Left+Right*%
X47000000Y-46620000D03*
D13*
X49540000Y-46620000D03*
X52080000Y-46620000D03*
X54620000Y-46620000D03*
X57160000Y-46620000D03*
X59700000Y-46620000D03*
X62240000Y-46620000D03*
X62240000Y-39000000D03*
X59700000Y-39000000D03*
X57160000Y-39000000D03*
X54620000Y-39000000D03*
X52080000Y-39000000D03*
X49540000Y-39000000D03*
X47000000Y-39000000D03*
%TD*%
D10*
%TO.C,Shoulder*%
X144060000Y-22860000D03*
D11*
X146600000Y-22860000D03*
X149140000Y-22860000D03*
X151680000Y-22860000D03*
%TD*%
D14*
%TO.C,Right*%
X88130000Y-74000000D03*
D15*
X90670000Y-79080000D03*
D16*
X93210000Y-74000000D03*
D15*
X97020000Y-76540000D03*
D14*
X98290000Y-74000000D03*
D17*
X95750000Y-68920000D03*
X89400000Y-71460000D03*
%TD*%
D14*
%TO.C,L1*%
X207130000Y-56000000D03*
D15*
X209670000Y-61080000D03*
D16*
X212210000Y-56000000D03*
D15*
X216020000Y-58540000D03*
D14*
X217290000Y-56000000D03*
D17*
X214750000Y-50920000D03*
X208400000Y-53460000D03*
%TD*%
D10*
%TO.C,DPad1*%
X114060000Y-22860000D03*
D11*
X116600000Y-22860000D03*
X119140000Y-22860000D03*
X121680000Y-22860000D03*
%TD*%
D14*
%TO.C,Cross*%
X125130000Y-92000000D03*
D15*
X127670000Y-97080000D03*
D16*
X130210000Y-92000000D03*
D15*
X134020000Y-94540000D03*
D14*
X135290000Y-92000000D03*
D17*
X132750000Y-86920000D03*
X126400000Y-89460000D03*
%TD*%
D12*
%TO.C,Up+Down*%
X74460000Y-103620000D03*
D13*
X77000000Y-103620000D03*
X79540000Y-103620000D03*
X82080000Y-103620000D03*
X84620000Y-103620000D03*
X87160000Y-103620000D03*
X89700000Y-103620000D03*
X89700000Y-96000000D03*
X87160000Y-96000000D03*
X84620000Y-96000000D03*
X82080000Y-96000000D03*
X79540000Y-96000000D03*
X77000000Y-96000000D03*
X74460000Y-96000000D03*
%TD*%
D18*
%TO.C,SHARE1*%
X46500000Y-21500000D03*
X53000000Y-21500000D03*
X46500000Y-26000000D03*
X53000000Y-26000000D03*
%TD*%
D14*
%TO.C,L2*%
X207130000Y-85000000D03*
D15*
X209670000Y-90080000D03*
D16*
X212210000Y-85000000D03*
D15*
X216020000Y-87540000D03*
D14*
X217290000Y-85000000D03*
D17*
X214750000Y-79920000D03*
X208400000Y-82460000D03*
%TD*%
D14*
%TO.C,Left*%
X34130000Y-60000000D03*
D15*
X36670000Y-65080000D03*
D16*
X39210000Y-60000000D03*
D15*
X43020000Y-62540000D03*
D14*
X44290000Y-60000000D03*
D17*
X41750000Y-54920000D03*
X35400000Y-57460000D03*
%TD*%
D14*
%TO.C,R2*%
X179130000Y-78000000D03*
D15*
X181670000Y-83080000D03*
D16*
X184210000Y-78000000D03*
D15*
X188020000Y-80540000D03*
D14*
X189290000Y-78000000D03*
D17*
X186750000Y-72920000D03*
X180400000Y-75460000D03*
%TD*%
D18*
%TO.C,TOUCH1*%
X58500000Y-21500000D03*
X65000000Y-21500000D03*
X58500000Y-26000000D03*
X65000000Y-26000000D03*
%TD*%
D14*
%TO.C,DU1*%
X103130000Y-127000000D03*
D15*
X105670000Y-132080000D03*
D16*
X108210000Y-127000000D03*
D15*
X112020000Y-129540000D03*
D14*
X113290000Y-127000000D03*
D17*
X110750000Y-121920000D03*
X104400000Y-124460000D03*
%TD*%
D14*
%TO.C,R1*%
X179130000Y-49000000D03*
D15*
X181670000Y-54080000D03*
D16*
X184210000Y-49000000D03*
D15*
X188020000Y-51540000D03*
D14*
X189290000Y-49000000D03*
D17*
X186750000Y-43920000D03*
X180400000Y-46460000D03*
%TD*%
D18*
%TO.C,OPTION1*%
X34500000Y-21500000D03*
X41000000Y-21500000D03*
X34500000Y-26000000D03*
X41000000Y-26000000D03*
%TD*%
D14*
%TO.C,Square*%
X125130000Y-63000000D03*
D15*
X127670000Y-68080000D03*
D16*
X130210000Y-63000000D03*
D15*
X134020000Y-65540000D03*
D14*
X135290000Y-63000000D03*
D17*
X132750000Y-57920000D03*
X126400000Y-60460000D03*
%TD*%
D10*
%TO.C,Face*%
X129060000Y-22860000D03*
D11*
X131600000Y-22860000D03*
X134140000Y-22860000D03*
X136680000Y-22860000D03*
%TD*%
D14*
%TO.C,Circle*%
X150130000Y-78000000D03*
D15*
X152670000Y-83080000D03*
D16*
X155210000Y-78000000D03*
D15*
X159020000Y-80540000D03*
D14*
X160290000Y-78000000D03*
D17*
X157750000Y-72920000D03*
X151400000Y-75460000D03*
%TD*%
D14*
%TO.C,Down*%
X63130000Y-60000000D03*
D15*
X65670000Y-65080000D03*
D16*
X68210000Y-60000000D03*
D15*
X72020000Y-62540000D03*
D14*
X73290000Y-60000000D03*
D17*
X70750000Y-54920000D03*
X64400000Y-57460000D03*
%TD*%
D14*
%TO.C,Triangle*%
X150130000Y-49000000D03*
D15*
X152670000Y-54080000D03*
D16*
X155210000Y-49000000D03*
D15*
X159020000Y-51540000D03*
D14*
X160290000Y-49000000D03*
D17*
X157750000Y-43920000D03*
X151400000Y-46460000D03*
%TD*%
D18*
%TO.C,PS1*%
X22500000Y-21500000D03*
X29000000Y-21500000D03*
X22500000Y-26000000D03*
X29000000Y-26000000D03*
%TD*%
D10*
%TO.C,Side*%
X99060000Y-22860000D03*
D11*
X101600000Y-22860000D03*
X104140000Y-22860000D03*
X106680000Y-22860000D03*
%TD*%
M02*
