M48
; DRILL file {KiCad 7.0.2} date Mon Jun 12 14:06:47 2023
; FORMAT={-:-/ absolute / inch / decimal}
; #@! TF.CreationDate,2023-06-12T14:06:47-07:00
; #@! TF.GenerationSoftware,Kicad,Pcbnew,7.0.2
; #@! TF.FileFunction,NonPlated,1,2,NPTH
FMAT,2
INCH
; #@! TA.AperFunction,NonPlated,NPTH,ComponentDrill
T1C0.0670
; #@! TA.AperFunction,NonPlated,NPTH,ComponentDrill
T2C0.1181
; #@! TA.AperFunction,NonPlated,NPTH,ComponentDrill
T3C0.1570
%
G90
G05
T1
X1.3437Y-2.3622
X1.7437Y-2.3622
X2.4854Y-2.3622
X2.8854Y-2.3622
X3.4697Y-2.9134
X3.8697Y-2.9134
X4.0602Y-5.0
X4.4602Y-5.0
X4.9264Y-2.4803
X4.9264Y-3.622
X5.3264Y-2.4803
X5.3264Y-3.622
X5.9106Y-1.9291
X5.9106Y-3.0709
X6.3106Y-1.9291
X6.3106Y-3.0709
X7.0524Y-1.9291
X7.0524Y-3.0709
X7.4524Y-1.9291
X7.4524Y-3.0709
X8.1547Y-2.2047
X8.1547Y-3.3465
X8.5547Y-2.2047
X8.5547Y-3.3465
T2
X1.4437Y-2.5622
X1.6937Y-2.4622
X2.5854Y-2.5622
X2.8354Y-2.4622
X3.5697Y-3.1134
X3.8197Y-3.0134
X4.1602Y-5.2
X4.4102Y-5.1
X5.0264Y-2.6803
X5.0264Y-3.822
X5.2764Y-2.5803
X5.2764Y-3.722
X6.0106Y-2.1291
X6.0106Y-3.2709
X6.2606Y-2.0291
X6.2606Y-3.1709
X7.1524Y-2.1291
X7.1524Y-3.2709
X7.4024Y-2.0291
X7.4024Y-3.1709
X8.2547Y-2.4047
X8.2547Y-3.5465
X8.5047Y-2.3047
X8.5047Y-3.4465
T3
X1.5437Y-2.3622
X2.6854Y-2.3622
X3.6697Y-2.9134
X4.2602Y-5.0
X5.1264Y-2.4803
X5.1264Y-3.622
X6.1106Y-1.9291
X6.1106Y-3.0709
X7.2524Y-1.9291
X7.2524Y-3.0709
X8.3547Y-2.2047
X8.3547Y-3.3465
T0
M30
