%TF.GenerationSoftware,KiCad,Pcbnew,7.0.2*%
%TF.CreationDate,2023-06-12T14:05:00-07:00*%
%TF.ProjectId,DS5,4453352e-6b69-4636-9164-5f7063625858,rev?*%
%TF.SameCoordinates,Original*%
%TF.FileFunction,Legend,Bot*%
%TF.FilePolarity,Positive*%
%FSLAX46Y46*%
G04 Gerber Fmt 4.6, Leading zero omitted, Abs format (unit mm)*
G04 Created by KiCad (PCBNEW 7.0.2) date 2023-06-12 14:05:00*
%MOMM*%
%LPD*%
G01*
G04 APERTURE LIST*
%ADD10C,0.150000*%
G04 APERTURE END LIST*
D10*
%TO.C,Triangle*%
X161900952Y-56717619D02*
X161329524Y-56717619D01*
X161615238Y-57717619D02*
X161615238Y-56717619D01*
X160996190Y-57717619D02*
X160996190Y-57050952D01*
X160996190Y-57241428D02*
X160948571Y-57146190D01*
X160948571Y-57146190D02*
X160900952Y-57098571D01*
X160900952Y-57098571D02*
X160805714Y-57050952D01*
X160805714Y-57050952D02*
X160710476Y-57050952D01*
X160377142Y-57717619D02*
X160377142Y-57050952D01*
X160377142Y-56717619D02*
X160424761Y-56765238D01*
X160424761Y-56765238D02*
X160377142Y-56812857D01*
X160377142Y-56812857D02*
X160329523Y-56765238D01*
X160329523Y-56765238D02*
X160377142Y-56717619D01*
X160377142Y-56717619D02*
X160377142Y-56812857D01*
X159472381Y-57717619D02*
X159472381Y-57193809D01*
X159472381Y-57193809D02*
X159520000Y-57098571D01*
X159520000Y-57098571D02*
X159615238Y-57050952D01*
X159615238Y-57050952D02*
X159805714Y-57050952D01*
X159805714Y-57050952D02*
X159900952Y-57098571D01*
X159472381Y-57670000D02*
X159567619Y-57717619D01*
X159567619Y-57717619D02*
X159805714Y-57717619D01*
X159805714Y-57717619D02*
X159900952Y-57670000D01*
X159900952Y-57670000D02*
X159948571Y-57574761D01*
X159948571Y-57574761D02*
X159948571Y-57479523D01*
X159948571Y-57479523D02*
X159900952Y-57384285D01*
X159900952Y-57384285D02*
X159805714Y-57336666D01*
X159805714Y-57336666D02*
X159567619Y-57336666D01*
X159567619Y-57336666D02*
X159472381Y-57289047D01*
X158996190Y-57050952D02*
X158996190Y-57717619D01*
X158996190Y-57146190D02*
X158948571Y-57098571D01*
X158948571Y-57098571D02*
X158853333Y-57050952D01*
X158853333Y-57050952D02*
X158710476Y-57050952D01*
X158710476Y-57050952D02*
X158615238Y-57098571D01*
X158615238Y-57098571D02*
X158567619Y-57193809D01*
X158567619Y-57193809D02*
X158567619Y-57717619D01*
X157662857Y-57050952D02*
X157662857Y-57860476D01*
X157662857Y-57860476D02*
X157710476Y-57955714D01*
X157710476Y-57955714D02*
X157758095Y-58003333D01*
X157758095Y-58003333D02*
X157853333Y-58050952D01*
X157853333Y-58050952D02*
X157996190Y-58050952D01*
X157996190Y-58050952D02*
X158091428Y-58003333D01*
X157662857Y-57670000D02*
X157758095Y-57717619D01*
X157758095Y-57717619D02*
X157948571Y-57717619D01*
X157948571Y-57717619D02*
X158043809Y-57670000D01*
X158043809Y-57670000D02*
X158091428Y-57622380D01*
X158091428Y-57622380D02*
X158139047Y-57527142D01*
X158139047Y-57527142D02*
X158139047Y-57241428D01*
X158139047Y-57241428D02*
X158091428Y-57146190D01*
X158091428Y-57146190D02*
X158043809Y-57098571D01*
X158043809Y-57098571D02*
X157948571Y-57050952D01*
X157948571Y-57050952D02*
X157758095Y-57050952D01*
X157758095Y-57050952D02*
X157662857Y-57098571D01*
X157043809Y-57717619D02*
X157139047Y-57670000D01*
X157139047Y-57670000D02*
X157186666Y-57574761D01*
X157186666Y-57574761D02*
X157186666Y-56717619D01*
X156281904Y-57670000D02*
X156377142Y-57717619D01*
X156377142Y-57717619D02*
X156567618Y-57717619D01*
X156567618Y-57717619D02*
X156662856Y-57670000D01*
X156662856Y-57670000D02*
X156710475Y-57574761D01*
X156710475Y-57574761D02*
X156710475Y-57193809D01*
X156710475Y-57193809D02*
X156662856Y-57098571D01*
X156662856Y-57098571D02*
X156567618Y-57050952D01*
X156567618Y-57050952D02*
X156377142Y-57050952D01*
X156377142Y-57050952D02*
X156281904Y-57098571D01*
X156281904Y-57098571D02*
X156234285Y-57193809D01*
X156234285Y-57193809D02*
X156234285Y-57289047D01*
X156234285Y-57289047D02*
X156710475Y-57384285D01*
%TO.C,Square*%
X136400952Y-71670000D02*
X136258095Y-71717619D01*
X136258095Y-71717619D02*
X136020000Y-71717619D01*
X136020000Y-71717619D02*
X135924762Y-71670000D01*
X135924762Y-71670000D02*
X135877143Y-71622380D01*
X135877143Y-71622380D02*
X135829524Y-71527142D01*
X135829524Y-71527142D02*
X135829524Y-71431904D01*
X135829524Y-71431904D02*
X135877143Y-71336666D01*
X135877143Y-71336666D02*
X135924762Y-71289047D01*
X135924762Y-71289047D02*
X136020000Y-71241428D01*
X136020000Y-71241428D02*
X136210476Y-71193809D01*
X136210476Y-71193809D02*
X136305714Y-71146190D01*
X136305714Y-71146190D02*
X136353333Y-71098571D01*
X136353333Y-71098571D02*
X136400952Y-71003333D01*
X136400952Y-71003333D02*
X136400952Y-70908095D01*
X136400952Y-70908095D02*
X136353333Y-70812857D01*
X136353333Y-70812857D02*
X136305714Y-70765238D01*
X136305714Y-70765238D02*
X136210476Y-70717619D01*
X136210476Y-70717619D02*
X135972381Y-70717619D01*
X135972381Y-70717619D02*
X135829524Y-70765238D01*
X134972381Y-71050952D02*
X134972381Y-72050952D01*
X134972381Y-71670000D02*
X135067619Y-71717619D01*
X135067619Y-71717619D02*
X135258095Y-71717619D01*
X135258095Y-71717619D02*
X135353333Y-71670000D01*
X135353333Y-71670000D02*
X135400952Y-71622380D01*
X135400952Y-71622380D02*
X135448571Y-71527142D01*
X135448571Y-71527142D02*
X135448571Y-71241428D01*
X135448571Y-71241428D02*
X135400952Y-71146190D01*
X135400952Y-71146190D02*
X135353333Y-71098571D01*
X135353333Y-71098571D02*
X135258095Y-71050952D01*
X135258095Y-71050952D02*
X135067619Y-71050952D01*
X135067619Y-71050952D02*
X134972381Y-71098571D01*
X134067619Y-71050952D02*
X134067619Y-71717619D01*
X134496190Y-71050952D02*
X134496190Y-71574761D01*
X134496190Y-71574761D02*
X134448571Y-71670000D01*
X134448571Y-71670000D02*
X134353333Y-71717619D01*
X134353333Y-71717619D02*
X134210476Y-71717619D01*
X134210476Y-71717619D02*
X134115238Y-71670000D01*
X134115238Y-71670000D02*
X134067619Y-71622380D01*
X133162857Y-71717619D02*
X133162857Y-71193809D01*
X133162857Y-71193809D02*
X133210476Y-71098571D01*
X133210476Y-71098571D02*
X133305714Y-71050952D01*
X133305714Y-71050952D02*
X133496190Y-71050952D01*
X133496190Y-71050952D02*
X133591428Y-71098571D01*
X133162857Y-71670000D02*
X133258095Y-71717619D01*
X133258095Y-71717619D02*
X133496190Y-71717619D01*
X133496190Y-71717619D02*
X133591428Y-71670000D01*
X133591428Y-71670000D02*
X133639047Y-71574761D01*
X133639047Y-71574761D02*
X133639047Y-71479523D01*
X133639047Y-71479523D02*
X133591428Y-71384285D01*
X133591428Y-71384285D02*
X133496190Y-71336666D01*
X133496190Y-71336666D02*
X133258095Y-71336666D01*
X133258095Y-71336666D02*
X133162857Y-71289047D01*
X132686666Y-71717619D02*
X132686666Y-71050952D01*
X132686666Y-71241428D02*
X132639047Y-71146190D01*
X132639047Y-71146190D02*
X132591428Y-71098571D01*
X132591428Y-71098571D02*
X132496190Y-71050952D01*
X132496190Y-71050952D02*
X132400952Y-71050952D01*
X131686666Y-71670000D02*
X131781904Y-71717619D01*
X131781904Y-71717619D02*
X131972380Y-71717619D01*
X131972380Y-71717619D02*
X132067618Y-71670000D01*
X132067618Y-71670000D02*
X132115237Y-71574761D01*
X132115237Y-71574761D02*
X132115237Y-71193809D01*
X132115237Y-71193809D02*
X132067618Y-71098571D01*
X132067618Y-71098571D02*
X131972380Y-71050952D01*
X131972380Y-71050952D02*
X131781904Y-71050952D01*
X131781904Y-71050952D02*
X131686666Y-71098571D01*
X131686666Y-71098571D02*
X131639047Y-71193809D01*
X131639047Y-71193809D02*
X131639047Y-71289047D01*
X131639047Y-71289047D02*
X132115237Y-71384285D01*
%TO.C,R2*%
X188186666Y-86717619D02*
X188519999Y-86241428D01*
X188758094Y-86717619D02*
X188758094Y-85717619D01*
X188758094Y-85717619D02*
X188377142Y-85717619D01*
X188377142Y-85717619D02*
X188281904Y-85765238D01*
X188281904Y-85765238D02*
X188234285Y-85812857D01*
X188234285Y-85812857D02*
X188186666Y-85908095D01*
X188186666Y-85908095D02*
X188186666Y-86050952D01*
X188186666Y-86050952D02*
X188234285Y-86146190D01*
X188234285Y-86146190D02*
X188281904Y-86193809D01*
X188281904Y-86193809D02*
X188377142Y-86241428D01*
X188377142Y-86241428D02*
X188758094Y-86241428D01*
X187805713Y-85812857D02*
X187758094Y-85765238D01*
X187758094Y-85765238D02*
X187662856Y-85717619D01*
X187662856Y-85717619D02*
X187424761Y-85717619D01*
X187424761Y-85717619D02*
X187329523Y-85765238D01*
X187329523Y-85765238D02*
X187281904Y-85812857D01*
X187281904Y-85812857D02*
X187234285Y-85908095D01*
X187234285Y-85908095D02*
X187234285Y-86003333D01*
X187234285Y-86003333D02*
X187281904Y-86146190D01*
X187281904Y-86146190D02*
X187853332Y-86717619D01*
X187853332Y-86717619D02*
X187234285Y-86717619D01*
%TO.C,R1*%
X188186666Y-57717619D02*
X188519999Y-57241428D01*
X188758094Y-57717619D02*
X188758094Y-56717619D01*
X188758094Y-56717619D02*
X188377142Y-56717619D01*
X188377142Y-56717619D02*
X188281904Y-56765238D01*
X188281904Y-56765238D02*
X188234285Y-56812857D01*
X188234285Y-56812857D02*
X188186666Y-56908095D01*
X188186666Y-56908095D02*
X188186666Y-57050952D01*
X188186666Y-57050952D02*
X188234285Y-57146190D01*
X188234285Y-57146190D02*
X188281904Y-57193809D01*
X188281904Y-57193809D02*
X188377142Y-57241428D01*
X188377142Y-57241428D02*
X188758094Y-57241428D01*
X187234285Y-57717619D02*
X187805713Y-57717619D01*
X187519999Y-57717619D02*
X187519999Y-56717619D01*
X187519999Y-56717619D02*
X187615237Y-56860476D01*
X187615237Y-56860476D02*
X187710475Y-56955714D01*
X187710475Y-56955714D02*
X187805713Y-57003333D01*
%TO.C,L2*%
X216186666Y-93717619D02*
X216662856Y-93717619D01*
X216662856Y-93717619D02*
X216662856Y-92717619D01*
X215900951Y-92812857D02*
X215853332Y-92765238D01*
X215853332Y-92765238D02*
X215758094Y-92717619D01*
X215758094Y-92717619D02*
X215519999Y-92717619D01*
X215519999Y-92717619D02*
X215424761Y-92765238D01*
X215424761Y-92765238D02*
X215377142Y-92812857D01*
X215377142Y-92812857D02*
X215329523Y-92908095D01*
X215329523Y-92908095D02*
X215329523Y-93003333D01*
X215329523Y-93003333D02*
X215377142Y-93146190D01*
X215377142Y-93146190D02*
X215948570Y-93717619D01*
X215948570Y-93717619D02*
X215329523Y-93717619D01*
%TO.C,L1*%
X216186666Y-64717619D02*
X216662856Y-64717619D01*
X216662856Y-64717619D02*
X216662856Y-63717619D01*
X215329523Y-64717619D02*
X215900951Y-64717619D01*
X215615237Y-64717619D02*
X215615237Y-63717619D01*
X215615237Y-63717619D02*
X215710475Y-63860476D01*
X215710475Y-63860476D02*
X215805713Y-63955714D01*
X215805713Y-63955714D02*
X215900951Y-64003333D01*
%TO.C,DU1*%
X113281904Y-135717619D02*
X113281904Y-134717619D01*
X113281904Y-134717619D02*
X113043809Y-134717619D01*
X113043809Y-134717619D02*
X112900952Y-134765238D01*
X112900952Y-134765238D02*
X112805714Y-134860476D01*
X112805714Y-134860476D02*
X112758095Y-134955714D01*
X112758095Y-134955714D02*
X112710476Y-135146190D01*
X112710476Y-135146190D02*
X112710476Y-135289047D01*
X112710476Y-135289047D02*
X112758095Y-135479523D01*
X112758095Y-135479523D02*
X112805714Y-135574761D01*
X112805714Y-135574761D02*
X112900952Y-135670000D01*
X112900952Y-135670000D02*
X113043809Y-135717619D01*
X113043809Y-135717619D02*
X113281904Y-135717619D01*
X112281904Y-134717619D02*
X112281904Y-135527142D01*
X112281904Y-135527142D02*
X112234285Y-135622380D01*
X112234285Y-135622380D02*
X112186666Y-135670000D01*
X112186666Y-135670000D02*
X112091428Y-135717619D01*
X112091428Y-135717619D02*
X111900952Y-135717619D01*
X111900952Y-135717619D02*
X111805714Y-135670000D01*
X111805714Y-135670000D02*
X111758095Y-135622380D01*
X111758095Y-135622380D02*
X111710476Y-135527142D01*
X111710476Y-135527142D02*
X111710476Y-134717619D01*
X110710476Y-135717619D02*
X111281904Y-135717619D01*
X110996190Y-135717619D02*
X110996190Y-134717619D01*
X110996190Y-134717619D02*
X111091428Y-134860476D01*
X111091428Y-134860476D02*
X111186666Y-134955714D01*
X111186666Y-134955714D02*
X111281904Y-135003333D01*
%TO.C,Right*%
X98139047Y-82717619D02*
X98472380Y-82241428D01*
X98710475Y-82717619D02*
X98710475Y-81717619D01*
X98710475Y-81717619D02*
X98329523Y-81717619D01*
X98329523Y-81717619D02*
X98234285Y-81765238D01*
X98234285Y-81765238D02*
X98186666Y-81812857D01*
X98186666Y-81812857D02*
X98139047Y-81908095D01*
X98139047Y-81908095D02*
X98139047Y-82050952D01*
X98139047Y-82050952D02*
X98186666Y-82146190D01*
X98186666Y-82146190D02*
X98234285Y-82193809D01*
X98234285Y-82193809D02*
X98329523Y-82241428D01*
X98329523Y-82241428D02*
X98710475Y-82241428D01*
X97710475Y-82717619D02*
X97710475Y-82050952D01*
X97710475Y-81717619D02*
X97758094Y-81765238D01*
X97758094Y-81765238D02*
X97710475Y-81812857D01*
X97710475Y-81812857D02*
X97662856Y-81765238D01*
X97662856Y-81765238D02*
X97710475Y-81717619D01*
X97710475Y-81717619D02*
X97710475Y-81812857D01*
X96805714Y-82050952D02*
X96805714Y-82860476D01*
X96805714Y-82860476D02*
X96853333Y-82955714D01*
X96853333Y-82955714D02*
X96900952Y-83003333D01*
X96900952Y-83003333D02*
X96996190Y-83050952D01*
X96996190Y-83050952D02*
X97139047Y-83050952D01*
X97139047Y-83050952D02*
X97234285Y-83003333D01*
X96805714Y-82670000D02*
X96900952Y-82717619D01*
X96900952Y-82717619D02*
X97091428Y-82717619D01*
X97091428Y-82717619D02*
X97186666Y-82670000D01*
X97186666Y-82670000D02*
X97234285Y-82622380D01*
X97234285Y-82622380D02*
X97281904Y-82527142D01*
X97281904Y-82527142D02*
X97281904Y-82241428D01*
X97281904Y-82241428D02*
X97234285Y-82146190D01*
X97234285Y-82146190D02*
X97186666Y-82098571D01*
X97186666Y-82098571D02*
X97091428Y-82050952D01*
X97091428Y-82050952D02*
X96900952Y-82050952D01*
X96900952Y-82050952D02*
X96805714Y-82098571D01*
X96329523Y-82717619D02*
X96329523Y-81717619D01*
X95900952Y-82717619D02*
X95900952Y-82193809D01*
X95900952Y-82193809D02*
X95948571Y-82098571D01*
X95948571Y-82098571D02*
X96043809Y-82050952D01*
X96043809Y-82050952D02*
X96186666Y-82050952D01*
X96186666Y-82050952D02*
X96281904Y-82098571D01*
X96281904Y-82098571D02*
X96329523Y-82146190D01*
X95567618Y-82050952D02*
X95186666Y-82050952D01*
X95424761Y-81717619D02*
X95424761Y-82574761D01*
X95424761Y-82574761D02*
X95377142Y-82670000D01*
X95377142Y-82670000D02*
X95281904Y-82717619D01*
X95281904Y-82717619D02*
X95186666Y-82717619D01*
%TO.C,Left*%
X43710476Y-68717619D02*
X44186666Y-68717619D01*
X44186666Y-68717619D02*
X44186666Y-67717619D01*
X42996190Y-68670000D02*
X43091428Y-68717619D01*
X43091428Y-68717619D02*
X43281904Y-68717619D01*
X43281904Y-68717619D02*
X43377142Y-68670000D01*
X43377142Y-68670000D02*
X43424761Y-68574761D01*
X43424761Y-68574761D02*
X43424761Y-68193809D01*
X43424761Y-68193809D02*
X43377142Y-68098571D01*
X43377142Y-68098571D02*
X43281904Y-68050952D01*
X43281904Y-68050952D02*
X43091428Y-68050952D01*
X43091428Y-68050952D02*
X42996190Y-68098571D01*
X42996190Y-68098571D02*
X42948571Y-68193809D01*
X42948571Y-68193809D02*
X42948571Y-68289047D01*
X42948571Y-68289047D02*
X43424761Y-68384285D01*
X42662856Y-68050952D02*
X42281904Y-68050952D01*
X42519999Y-68717619D02*
X42519999Y-67860476D01*
X42519999Y-67860476D02*
X42472380Y-67765238D01*
X42472380Y-67765238D02*
X42377142Y-67717619D01*
X42377142Y-67717619D02*
X42281904Y-67717619D01*
X42091427Y-68050952D02*
X41710475Y-68050952D01*
X41948570Y-67717619D02*
X41948570Y-68574761D01*
X41948570Y-68574761D02*
X41900951Y-68670000D01*
X41900951Y-68670000D02*
X41805713Y-68717619D01*
X41805713Y-68717619D02*
X41710475Y-68717619D01*
%TO.C,Down*%
X73710475Y-68717619D02*
X73710475Y-67717619D01*
X73710475Y-67717619D02*
X73472380Y-67717619D01*
X73472380Y-67717619D02*
X73329523Y-67765238D01*
X73329523Y-67765238D02*
X73234285Y-67860476D01*
X73234285Y-67860476D02*
X73186666Y-67955714D01*
X73186666Y-67955714D02*
X73139047Y-68146190D01*
X73139047Y-68146190D02*
X73139047Y-68289047D01*
X73139047Y-68289047D02*
X73186666Y-68479523D01*
X73186666Y-68479523D02*
X73234285Y-68574761D01*
X73234285Y-68574761D02*
X73329523Y-68670000D01*
X73329523Y-68670000D02*
X73472380Y-68717619D01*
X73472380Y-68717619D02*
X73710475Y-68717619D01*
X72567618Y-68717619D02*
X72662856Y-68670000D01*
X72662856Y-68670000D02*
X72710475Y-68622380D01*
X72710475Y-68622380D02*
X72758094Y-68527142D01*
X72758094Y-68527142D02*
X72758094Y-68241428D01*
X72758094Y-68241428D02*
X72710475Y-68146190D01*
X72710475Y-68146190D02*
X72662856Y-68098571D01*
X72662856Y-68098571D02*
X72567618Y-68050952D01*
X72567618Y-68050952D02*
X72424761Y-68050952D01*
X72424761Y-68050952D02*
X72329523Y-68098571D01*
X72329523Y-68098571D02*
X72281904Y-68146190D01*
X72281904Y-68146190D02*
X72234285Y-68241428D01*
X72234285Y-68241428D02*
X72234285Y-68527142D01*
X72234285Y-68527142D02*
X72281904Y-68622380D01*
X72281904Y-68622380D02*
X72329523Y-68670000D01*
X72329523Y-68670000D02*
X72424761Y-68717619D01*
X72424761Y-68717619D02*
X72567618Y-68717619D01*
X71900951Y-68050952D02*
X71710475Y-68717619D01*
X71710475Y-68717619D02*
X71519999Y-68241428D01*
X71519999Y-68241428D02*
X71329523Y-68717619D01*
X71329523Y-68717619D02*
X71139047Y-68050952D01*
X70758094Y-68050952D02*
X70758094Y-68717619D01*
X70758094Y-68146190D02*
X70710475Y-68098571D01*
X70710475Y-68098571D02*
X70615237Y-68050952D01*
X70615237Y-68050952D02*
X70472380Y-68050952D01*
X70472380Y-68050952D02*
X70377142Y-68098571D01*
X70377142Y-68098571D02*
X70329523Y-68193809D01*
X70329523Y-68193809D02*
X70329523Y-68717619D01*
%TO.C,Cross*%
X135281905Y-100622380D02*
X135329524Y-100670000D01*
X135329524Y-100670000D02*
X135472381Y-100717619D01*
X135472381Y-100717619D02*
X135567619Y-100717619D01*
X135567619Y-100717619D02*
X135710476Y-100670000D01*
X135710476Y-100670000D02*
X135805714Y-100574761D01*
X135805714Y-100574761D02*
X135853333Y-100479523D01*
X135853333Y-100479523D02*
X135900952Y-100289047D01*
X135900952Y-100289047D02*
X135900952Y-100146190D01*
X135900952Y-100146190D02*
X135853333Y-99955714D01*
X135853333Y-99955714D02*
X135805714Y-99860476D01*
X135805714Y-99860476D02*
X135710476Y-99765238D01*
X135710476Y-99765238D02*
X135567619Y-99717619D01*
X135567619Y-99717619D02*
X135472381Y-99717619D01*
X135472381Y-99717619D02*
X135329524Y-99765238D01*
X135329524Y-99765238D02*
X135281905Y-99812857D01*
X134853333Y-100717619D02*
X134853333Y-100050952D01*
X134853333Y-100241428D02*
X134805714Y-100146190D01*
X134805714Y-100146190D02*
X134758095Y-100098571D01*
X134758095Y-100098571D02*
X134662857Y-100050952D01*
X134662857Y-100050952D02*
X134567619Y-100050952D01*
X134091428Y-100717619D02*
X134186666Y-100670000D01*
X134186666Y-100670000D02*
X134234285Y-100622380D01*
X134234285Y-100622380D02*
X134281904Y-100527142D01*
X134281904Y-100527142D02*
X134281904Y-100241428D01*
X134281904Y-100241428D02*
X134234285Y-100146190D01*
X134234285Y-100146190D02*
X134186666Y-100098571D01*
X134186666Y-100098571D02*
X134091428Y-100050952D01*
X134091428Y-100050952D02*
X133948571Y-100050952D01*
X133948571Y-100050952D02*
X133853333Y-100098571D01*
X133853333Y-100098571D02*
X133805714Y-100146190D01*
X133805714Y-100146190D02*
X133758095Y-100241428D01*
X133758095Y-100241428D02*
X133758095Y-100527142D01*
X133758095Y-100527142D02*
X133805714Y-100622380D01*
X133805714Y-100622380D02*
X133853333Y-100670000D01*
X133853333Y-100670000D02*
X133948571Y-100717619D01*
X133948571Y-100717619D02*
X134091428Y-100717619D01*
X133377142Y-100670000D02*
X133281904Y-100717619D01*
X133281904Y-100717619D02*
X133091428Y-100717619D01*
X133091428Y-100717619D02*
X132996190Y-100670000D01*
X132996190Y-100670000D02*
X132948571Y-100574761D01*
X132948571Y-100574761D02*
X132948571Y-100527142D01*
X132948571Y-100527142D02*
X132996190Y-100431904D01*
X132996190Y-100431904D02*
X133091428Y-100384285D01*
X133091428Y-100384285D02*
X133234285Y-100384285D01*
X133234285Y-100384285D02*
X133329523Y-100336666D01*
X133329523Y-100336666D02*
X133377142Y-100241428D01*
X133377142Y-100241428D02*
X133377142Y-100193809D01*
X133377142Y-100193809D02*
X133329523Y-100098571D01*
X133329523Y-100098571D02*
X133234285Y-100050952D01*
X133234285Y-100050952D02*
X133091428Y-100050952D01*
X133091428Y-100050952D02*
X132996190Y-100098571D01*
X132567618Y-100670000D02*
X132472380Y-100717619D01*
X132472380Y-100717619D02*
X132281904Y-100717619D01*
X132281904Y-100717619D02*
X132186666Y-100670000D01*
X132186666Y-100670000D02*
X132139047Y-100574761D01*
X132139047Y-100574761D02*
X132139047Y-100527142D01*
X132139047Y-100527142D02*
X132186666Y-100431904D01*
X132186666Y-100431904D02*
X132281904Y-100384285D01*
X132281904Y-100384285D02*
X132424761Y-100384285D01*
X132424761Y-100384285D02*
X132519999Y-100336666D01*
X132519999Y-100336666D02*
X132567618Y-100241428D01*
X132567618Y-100241428D02*
X132567618Y-100193809D01*
X132567618Y-100193809D02*
X132519999Y-100098571D01*
X132519999Y-100098571D02*
X132424761Y-100050952D01*
X132424761Y-100050952D02*
X132281904Y-100050952D01*
X132281904Y-100050952D02*
X132186666Y-100098571D01*
%TO.C,Circle*%
X160377143Y-86622380D02*
X160424762Y-86670000D01*
X160424762Y-86670000D02*
X160567619Y-86717619D01*
X160567619Y-86717619D02*
X160662857Y-86717619D01*
X160662857Y-86717619D02*
X160805714Y-86670000D01*
X160805714Y-86670000D02*
X160900952Y-86574761D01*
X160900952Y-86574761D02*
X160948571Y-86479523D01*
X160948571Y-86479523D02*
X160996190Y-86289047D01*
X160996190Y-86289047D02*
X160996190Y-86146190D01*
X160996190Y-86146190D02*
X160948571Y-85955714D01*
X160948571Y-85955714D02*
X160900952Y-85860476D01*
X160900952Y-85860476D02*
X160805714Y-85765238D01*
X160805714Y-85765238D02*
X160662857Y-85717619D01*
X160662857Y-85717619D02*
X160567619Y-85717619D01*
X160567619Y-85717619D02*
X160424762Y-85765238D01*
X160424762Y-85765238D02*
X160377143Y-85812857D01*
X159948571Y-86717619D02*
X159948571Y-86050952D01*
X159948571Y-85717619D02*
X159996190Y-85765238D01*
X159996190Y-85765238D02*
X159948571Y-85812857D01*
X159948571Y-85812857D02*
X159900952Y-85765238D01*
X159900952Y-85765238D02*
X159948571Y-85717619D01*
X159948571Y-85717619D02*
X159948571Y-85812857D01*
X159472381Y-86717619D02*
X159472381Y-86050952D01*
X159472381Y-86241428D02*
X159424762Y-86146190D01*
X159424762Y-86146190D02*
X159377143Y-86098571D01*
X159377143Y-86098571D02*
X159281905Y-86050952D01*
X159281905Y-86050952D02*
X159186667Y-86050952D01*
X158424762Y-86670000D02*
X158520000Y-86717619D01*
X158520000Y-86717619D02*
X158710476Y-86717619D01*
X158710476Y-86717619D02*
X158805714Y-86670000D01*
X158805714Y-86670000D02*
X158853333Y-86622380D01*
X158853333Y-86622380D02*
X158900952Y-86527142D01*
X158900952Y-86527142D02*
X158900952Y-86241428D01*
X158900952Y-86241428D02*
X158853333Y-86146190D01*
X158853333Y-86146190D02*
X158805714Y-86098571D01*
X158805714Y-86098571D02*
X158710476Y-86050952D01*
X158710476Y-86050952D02*
X158520000Y-86050952D01*
X158520000Y-86050952D02*
X158424762Y-86098571D01*
X157853333Y-86717619D02*
X157948571Y-86670000D01*
X157948571Y-86670000D02*
X157996190Y-86574761D01*
X157996190Y-86574761D02*
X157996190Y-85717619D01*
X157091428Y-86670000D02*
X157186666Y-86717619D01*
X157186666Y-86717619D02*
X157377142Y-86717619D01*
X157377142Y-86717619D02*
X157472380Y-86670000D01*
X157472380Y-86670000D02*
X157519999Y-86574761D01*
X157519999Y-86574761D02*
X157519999Y-86193809D01*
X157519999Y-86193809D02*
X157472380Y-86098571D01*
X157472380Y-86098571D02*
X157377142Y-86050952D01*
X157377142Y-86050952D02*
X157186666Y-86050952D01*
X157186666Y-86050952D02*
X157091428Y-86098571D01*
X157091428Y-86098571D02*
X157043809Y-86193809D01*
X157043809Y-86193809D02*
X157043809Y-86289047D01*
X157043809Y-86289047D02*
X157519999Y-86384285D01*
%TO.C,Triangle*%
X159020000Y-55985000D02*
G75*
G03*
X161560000Y-53445000I0J2540000D01*
G01*
X155210000Y-51539999D02*
G75*
G03*
X157674161Y-49616040I0J2539999D01*
G01*
X161560000Y-53445000D02*
X161560000Y-53064000D01*
X161560000Y-50016000D02*
X161560000Y-49635000D01*
X161560000Y-49635000D02*
X161179000Y-49635000D01*
X159401000Y-49635000D02*
X157750000Y-49635000D01*
X155210000Y-51540000D02*
X150130000Y-51540000D01*
X150130000Y-55985000D02*
X159020000Y-55985000D01*
X150130000Y-55604000D02*
X150130000Y-55985000D01*
X150130000Y-51540000D02*
X150130000Y-52556000D01*
%TO.C,Square*%
X134020000Y-69985000D02*
G75*
G03*
X136560000Y-67445000I0J2540000D01*
G01*
X130210000Y-65539999D02*
G75*
G03*
X132674161Y-63616040I0J2539999D01*
G01*
X136560000Y-67445000D02*
X136560000Y-67064000D01*
X136560000Y-64016000D02*
X136560000Y-63635000D01*
X136560000Y-63635000D02*
X136179000Y-63635000D01*
X134401000Y-63635000D02*
X132750000Y-63635000D01*
X130210000Y-65540000D02*
X125130000Y-65540000D01*
X125130000Y-69985000D02*
X134020000Y-69985000D01*
X125130000Y-69604000D02*
X125130000Y-69985000D01*
X125130000Y-65540000D02*
X125130000Y-66556000D01*
%TO.C,R2*%
X188020000Y-84985000D02*
G75*
G03*
X190560000Y-82445000I0J2540000D01*
G01*
X184210000Y-80539999D02*
G75*
G03*
X186674161Y-78616040I0J2539999D01*
G01*
X190560000Y-82445000D02*
X190560000Y-82064000D01*
X190560000Y-79016000D02*
X190560000Y-78635000D01*
X190560000Y-78635000D02*
X190179000Y-78635000D01*
X188401000Y-78635000D02*
X186750000Y-78635000D01*
X184210000Y-80540000D02*
X179130000Y-80540000D01*
X179130000Y-84985000D02*
X188020000Y-84985000D01*
X179130000Y-84604000D02*
X179130000Y-84985000D01*
X179130000Y-80540000D02*
X179130000Y-81556000D01*
%TO.C,R1*%
X179130000Y-51540000D02*
X179130000Y-52556000D01*
X179130000Y-55604000D02*
X179130000Y-55985000D01*
X179130000Y-55985000D02*
X188020000Y-55985000D01*
X184210000Y-51540000D02*
X179130000Y-51540000D01*
X188401000Y-49635000D02*
X186750000Y-49635000D01*
X190560000Y-49635000D02*
X190179000Y-49635000D01*
X190560000Y-50016000D02*
X190560000Y-49635000D01*
X190560000Y-53445000D02*
X190560000Y-53064000D01*
X184210000Y-51539999D02*
G75*
G03*
X186674161Y-49616040I0J2539999D01*
G01*
X188020000Y-55985000D02*
G75*
G03*
X190560000Y-53445000I0J2540000D01*
G01*
%TO.C,L2*%
X216020000Y-91985000D02*
G75*
G03*
X218560000Y-89445000I0J2540000D01*
G01*
X212210000Y-87539999D02*
G75*
G03*
X214674161Y-85616040I0J2539999D01*
G01*
X218560000Y-89445000D02*
X218560000Y-89064000D01*
X218560000Y-86016000D02*
X218560000Y-85635000D01*
X218560000Y-85635000D02*
X218179000Y-85635000D01*
X216401000Y-85635000D02*
X214750000Y-85635000D01*
X212210000Y-87540000D02*
X207130000Y-87540000D01*
X207130000Y-91985000D02*
X216020000Y-91985000D01*
X207130000Y-91604000D02*
X207130000Y-91985000D01*
X207130000Y-87540000D02*
X207130000Y-88556000D01*
%TO.C,L1*%
X216020000Y-62985000D02*
G75*
G03*
X218560000Y-60445000I0J2540000D01*
G01*
X212210000Y-58539999D02*
G75*
G03*
X214674161Y-56616040I0J2539999D01*
G01*
X218560000Y-60445000D02*
X218560000Y-60064000D01*
X218560000Y-57016000D02*
X218560000Y-56635000D01*
X218560000Y-56635000D02*
X218179000Y-56635000D01*
X216401000Y-56635000D02*
X214750000Y-56635000D01*
X212210000Y-58540000D02*
X207130000Y-58540000D01*
X207130000Y-62985000D02*
X216020000Y-62985000D01*
X207130000Y-62604000D02*
X207130000Y-62985000D01*
X207130000Y-58540000D02*
X207130000Y-59556000D01*
%TO.C,DU1*%
X103130000Y-129540000D02*
X103130000Y-130556000D01*
X103130000Y-133604000D02*
X103130000Y-133985000D01*
X103130000Y-133985000D02*
X112020000Y-133985000D01*
X108210000Y-129540000D02*
X103130000Y-129540000D01*
X112401000Y-127635000D02*
X110750000Y-127635000D01*
X114560000Y-127635000D02*
X114179000Y-127635000D01*
X114560000Y-128016000D02*
X114560000Y-127635000D01*
X114560000Y-131445000D02*
X114560000Y-131064000D01*
X108210000Y-129539999D02*
G75*
G03*
X110674161Y-127616040I0J2539999D01*
G01*
X112020000Y-133985000D02*
G75*
G03*
X114560000Y-131445000I0J2540000D01*
G01*
%TO.C,Right*%
X88130000Y-76540000D02*
X88130000Y-77556000D01*
X88130000Y-80604000D02*
X88130000Y-80985000D01*
X88130000Y-80985000D02*
X97020000Y-80985000D01*
X93210000Y-76540000D02*
X88130000Y-76540000D01*
X97401000Y-74635000D02*
X95750000Y-74635000D01*
X99560000Y-74635000D02*
X99179000Y-74635000D01*
X99560000Y-75016000D02*
X99560000Y-74635000D01*
X99560000Y-78445000D02*
X99560000Y-78064000D01*
X93210000Y-76539999D02*
G75*
G03*
X95674161Y-74616040I0J2539999D01*
G01*
X97020000Y-80985000D02*
G75*
G03*
X99560000Y-78445000I0J2540000D01*
G01*
%TO.C,Left*%
X34130000Y-62540000D02*
X34130000Y-63556000D01*
X34130000Y-66604000D02*
X34130000Y-66985000D01*
X34130000Y-66985000D02*
X43020000Y-66985000D01*
X39210000Y-62540000D02*
X34130000Y-62540000D01*
X43401000Y-60635000D02*
X41750000Y-60635000D01*
X45560000Y-60635000D02*
X45179000Y-60635000D01*
X45560000Y-61016000D02*
X45560000Y-60635000D01*
X45560000Y-64445000D02*
X45560000Y-64064000D01*
X39210000Y-62539999D02*
G75*
G03*
X41674161Y-60616040I0J2539999D01*
G01*
X43020000Y-66985000D02*
G75*
G03*
X45560000Y-64445000I0J2540000D01*
G01*
%TO.C,Down*%
X63130000Y-62540000D02*
X63130000Y-63556000D01*
X63130000Y-66604000D02*
X63130000Y-66985000D01*
X63130000Y-66985000D02*
X72020000Y-66985000D01*
X68210000Y-62540000D02*
X63130000Y-62540000D01*
X72401000Y-60635000D02*
X70750000Y-60635000D01*
X74560000Y-60635000D02*
X74179000Y-60635000D01*
X74560000Y-61016000D02*
X74560000Y-60635000D01*
X74560000Y-64445000D02*
X74560000Y-64064000D01*
X68210000Y-62539999D02*
G75*
G03*
X70674161Y-60616040I0J2539999D01*
G01*
X72020000Y-66985000D02*
G75*
G03*
X74560000Y-64445000I0J2540000D01*
G01*
%TO.C,Cross*%
X134020000Y-98985000D02*
G75*
G03*
X136560000Y-96445000I0J2540000D01*
G01*
X130210000Y-94539999D02*
G75*
G03*
X132674161Y-92616040I0J2539999D01*
G01*
X136560000Y-96445000D02*
X136560000Y-96064000D01*
X136560000Y-93016000D02*
X136560000Y-92635000D01*
X136560000Y-92635000D02*
X136179000Y-92635000D01*
X134401000Y-92635000D02*
X132750000Y-92635000D01*
X130210000Y-94540000D02*
X125130000Y-94540000D01*
X125130000Y-98985000D02*
X134020000Y-98985000D01*
X125130000Y-98604000D02*
X125130000Y-98985000D01*
X125130000Y-94540000D02*
X125130000Y-95556000D01*
%TO.C,Circle*%
X150130000Y-80540000D02*
X150130000Y-81556000D01*
X150130000Y-84604000D02*
X150130000Y-84985000D01*
X150130000Y-84985000D02*
X159020000Y-84985000D01*
X155210000Y-80540000D02*
X150130000Y-80540000D01*
X159401000Y-78635000D02*
X157750000Y-78635000D01*
X161560000Y-78635000D02*
X161179000Y-78635000D01*
X161560000Y-79016000D02*
X161560000Y-78635000D01*
X161560000Y-82445000D02*
X161560000Y-82064000D01*
X155210000Y-80539999D02*
G75*
G03*
X157674161Y-78616040I0J2539999D01*
G01*
X159020000Y-84985000D02*
G75*
G03*
X161560000Y-82445000I0J2540000D01*
G01*
%TD*%
M02*
