<?xml version="1.0" encoding="UTF-8"?>
<svg xmlns="http://www.w3.org/2000/svg" width="800.000" height="600.000" viewBox="0.0 0.0 800.000 600.000" version="1.1">
  <title>Produce by Acme CAD Converter</title>
  <desc>Produce by Acme CAD Converter</desc>
<path d="M103.4 71.78L100.59 71.96M100.59 71.96L97.84 72.51M97.84 72.51L95.18 73.41M95.18 73.41L92.66 74.65M92.66 74.65L90.32 76.21M90.32 76.21L88.21 78.07M88.21 78.07L86.36 80.18M86.36 80.18L84.8 82.52M84.8 82.52L83.55 85.04M83.55 85.04L82.65 87.7M82.65 87.7L82.1 90.45M82.1 90.45L81.92 93.26M81.92 93.26L82.1 96.06M82.1 96.06L82.65 98.82M82.65 98.82L83.55 101.48M83.55 101.48L84.8 104M84.8 104L86.36 106.33M86.36 106.33L88.21 108.44M88.21 108.44L90.32 110.3M90.32 110.3L92.66 111.86M92.66 111.86L95.18 113.1M95.18 113.1L97.84 114M97.84 114L100.59 114.55M100.59 114.55L103.4 114.74M103.4 114.74L318.2 114.74M318.2 114.74L318.2 114.74M318.2 114.74L321 114.55M321 114.55L323.76 114M323.76 114L326.42 113.1M326.42 113.1L328.94 111.86M328.94 111.86L331.27 110.3M331.27 110.3L333.39 108.44M333.39 108.44L335.24 106.33M335.24 106.33L336.8 104M336.8 104L338.04 101.48M338.04 101.48L338.95 98.82M338.95 98.82L339.49 96.06M339.49 96.06L339.68 93.26M339.68 93.26L339.49 90.45M339.49 90.45L338.95 87.7M338.95 87.7L338.04 85.04M338.04 85.04L336.8 82.52M336.8 82.52L335.24 80.18M335.24 80.18L333.39 78.07M333.39 78.07L331.27 76.21M331.27 76.21L328.94 74.65M328.94 74.65L326.42 73.41M326.42 73.41L323.76 72.51M323.76 72.51L321 71.96M321 71.96L318.2 71.78M318.2 71.78L103.4 71.78"
fill="none" stroke="black" stroke-width="0.5"/>
<path d="M743.68 85.2L743.87 82.84M743.87 82.84L744.45 80.55M744.45 80.55L745.4 78.39M745.4 78.39L746.7 76.41M746.7 76.41L748.3 74.67M748.3 74.67L750.17 73.21M750.17 73.21L752.25 72.09M752.25 72.09L754.48 71.32M754.48 71.32L756.82 70.93M756.82 70.93L759.18 70.93M759.18 70.93L761.51 71.32M761.51 71.32L763.75 72.09M763.75 72.09L765.83 73.21M765.83 73.21L767.7 74.67M767.7 74.67L769.3 76.41M769.3 76.41L770.59 78.39M770.59 78.39L771.54 80.55M771.54 80.55L772.12 82.84M772.12 82.84L772.32 85.2M772.32 85.2L772.12 87.56M772.12 87.56L771.54 89.85M771.54 89.85L770.59 92.02M770.59 92.02L769.3 94M769.3 94L767.7 95.74M767.7 95.74L765.83 97.19M765.83 97.19L763.75 98.31M763.75 98.31L761.51 99.08M761.51 99.08L759.18 99.47M759.18 99.47L756.82 99.47M756.82 99.47L754.48 99.08M754.48 99.08L752.25 98.31M752.25 98.31L750.17 97.19M750.17 97.19L748.3 95.74M748.3 95.74L746.7 94M746.7 94L745.4 92.02M745.4 92.02L744.45 89.85M744.45 89.85L743.87 87.56M743.87 87.56L743.68 85.2"
fill="none" stroke="black" stroke-width="0.5"/>
<path d="M743.68 514.8L743.87 512.44M743.87 512.44L744.45 510.15M744.45 510.15L745.4 507.98M745.4 507.98L746.7 506M746.7 506L748.3 504.26M748.3 504.26L750.17 502.81M750.17 502.81L752.25 501.69M752.25 501.69L754.48 500.92M754.48 500.92L756.82 500.53M756.82 500.53L759.18 500.53M759.18 500.53L761.51 500.92M761.51 500.92L763.75 501.69M763.75 501.69L765.83 502.81M765.83 502.81L767.7 504.26M767.7 504.26L769.3 506M769.3 506L770.59 507.98M770.59 507.98L771.54 510.15M771.54 510.15L772.12 512.44M772.12 512.44L772.32 514.8M772.32 514.8L772.12 517.16M772.12 517.16L771.54 519.45M771.54 519.45L770.59 521.61M770.59 521.61L769.3 523.59M769.3 523.59L767.7 525.33M767.7 525.33L765.83 526.79M765.83 526.79L763.75 527.91M763.75 527.91L761.51 528.68M761.51 528.68L759.18 529.07M759.18 529.07L756.82 529.07M756.82 529.07L754.48 528.68M754.48 528.68L752.25 527.91M752.25 527.91L750.17 526.79M750.17 526.79L748.3 525.33M748.3 525.33L746.7 523.59M746.7 523.59L745.4 521.61M745.4 521.61L744.45 519.45M744.45 519.45L743.87 517.16M743.87 517.16L743.68 514.8"
fill="none" stroke="black" stroke-width="0.5"/>
<path d="M27.68 514.8L27.88 512.44M27.88 512.44L28.46 510.15M28.46 510.15L29.41 507.98M29.41 507.98L30.7 506M30.7 506L32.3 504.26M32.3 504.26L34.17 502.81M34.17 502.81L36.25 501.69M36.25 501.69L38.49 500.92M38.49 500.92L40.82 500.53M40.82 500.53L43.18 500.53M43.18 500.53L45.52 500.92M45.52 500.92L47.75 501.69M47.75 501.69L49.83 502.81M49.83 502.81L51.7 504.26M51.7 504.26L53.3 506M53.3 506L54.6 507.98M54.6 507.98L55.55 510.15M55.55 510.15L56.13 512.44M56.13 512.44L56.32 514.8M56.32 514.8L56.13 517.16M56.13 517.16L55.55 519.45M55.55 519.45L54.6 521.61M54.6 521.61L53.3 523.59M53.3 523.59L51.7 525.33M51.7 525.33L49.83 526.79M49.83 526.79L47.75 527.91M47.75 527.91L45.52 528.68M45.52 528.68L43.18 529.07M43.18 529.07L40.82 529.07M40.82 529.07L38.49 528.68M38.49 528.68L36.25 527.91M36.25 527.91L34.17 526.79M34.17 526.79L32.3 525.33M32.3 525.33L30.7 523.59M30.7 523.59L29.41 521.61M29.41 521.61L28.46 519.45M28.46 519.45L27.88 517.16M27.88 517.16L27.68 514.8"
fill="none" stroke="black" stroke-width="0.5"/>
<path d="M27.68 85.2L27.88 82.84M27.88 82.84L28.46 80.55M28.46 80.55L29.41 78.39M29.41 78.39L30.7 76.41M30.7 76.41L32.3 74.67M32.3 74.67L34.17 73.21M34.17 73.21L36.25 72.09M36.25 72.09L38.49 71.32M38.49 71.32L40.82 70.93M40.82 70.93L43.18 70.93M43.18 70.93L45.52 71.32M45.52 71.32L47.75 72.09M47.75 72.09L49.83 73.21M49.83 73.21L51.7 74.67M51.7 74.67L53.3 76.41M53.3 76.41L54.6 78.39M54.6 78.39L55.55 80.55M55.55 80.55L56.13 82.84M56.13 82.84L56.32 85.2M56.32 85.2L56.13 87.56M56.13 87.56L55.55 89.85M55.55 89.85L54.6 92.02M54.6 92.02L53.3 94M53.3 94L51.7 95.74M51.7 95.74L49.83 97.19M49.83 97.19L47.75 98.31M47.75 98.31L45.52 99.08M45.52 99.08L43.18 99.47M43.18 99.47L40.82 99.47M40.82 99.47L38.49 99.08M38.49 99.08L36.25 98.31M36.25 98.31L34.17 97.19M34.17 97.19L32.3 95.74M32.3 95.74L30.7 94M30.7 94L29.41 92.02M29.41 92.02L28.46 89.85M28.46 89.85L27.88 87.56M27.88 87.56L27.68 85.2"
fill="none" stroke="black" stroke-width="0.5"/>
<path d="M666.71 285.68L666.9 281.6M666.9 281.6L667.49 277.55M667.49 277.55L668.45 273.58M668.45 273.58L669.79 269.71M669.79 269.71L671.48 265.99M671.48 265.99L673.53 262.45M673.53 262.45L675.9 259.12M675.9 259.12L678.58 256.03M678.58 256.03L681.54 253.21M681.54 253.21L684.75 250.69M684.75 250.69L688.19 248.48M688.19 248.48L691.82 246.6M691.82 246.6L695.62 245.08M695.62 245.08L699.54 243.93M699.54 243.93L703.55 243.16M703.55 243.16L707.62 242.77M707.62 242.77L711.71 242.77M711.71 242.77L715.78 243.16M715.78 243.16L719.8 243.93M719.8 243.93L723.72 245.08M723.72 245.08L727.51 246.6M727.51 246.6L731.15 248.48M731.15 248.48L734.59 250.69M734.59 250.69L737.8 253.21M737.8 253.21L740.76 256.03M740.76 256.03L743.44 259.12M743.44 259.12L745.81 262.45M745.81 262.45L747.85 265.99M747.85 265.99L749.55 269.71M749.55 269.71L750.89 273.58M750.89 273.58L751.85 277.55M751.85 277.55L752.43 281.6M752.43 281.6L752.63 285.68M752.63 285.68L752.43 289.76M752.43 289.76L751.85 293.81M751.85 293.81L750.89 297.78M750.89 297.78L749.55 301.65M749.55 301.65L747.85 305.37M747.85 305.37L745.81 308.91M745.81 308.91L743.44 312.24M743.44 312.24L740.76 315.33M740.76 315.33L737.8 318.15M737.8 318.15L734.59 320.67M734.59 320.67L731.15 322.88M731.15 322.88L727.51 324.76M727.51 324.76L723.72 326.28M723.72 326.28L719.8 327.43M719.8 327.43L715.78 328.2M715.78 328.2L711.71 328.59M711.71 328.59L707.62 328.59M707.62 328.59L703.55 328.2M703.55 328.2L699.54 327.43M699.54 327.43L695.62 326.28M695.62 326.28L691.82 324.76M691.82 324.76L688.19 322.88M688.19 322.88L684.75 320.67M684.75 320.67L681.54 318.15M681.54 318.15L678.58 315.33M678.58 315.33L675.9 312.24M675.9 312.24L673.53 308.91M673.53 308.91L671.48 305.37M671.48 305.37L669.79 301.65M669.79 301.65L668.45 297.78M668.45 297.78L667.49 293.81M667.49 293.81L666.9 289.76M666.9 289.76L666.71 285.68"
fill="none" stroke="black" stroke-width="0.5"/>
<path d="M666.71 181.86L666.9 177.78M666.9 177.78L667.49 173.73M667.49 173.73L668.45 169.76M668.45 169.76L669.79 165.89M669.79 165.89L671.48 162.18M671.48 162.18L673.53 158.63M673.53 158.63L675.9 155.3M675.9 155.3L678.58 152.21M678.58 152.21L681.54 149.39M681.54 149.39L684.75 146.87M684.75 146.87L688.19 144.66M688.19 144.66L691.82 142.78M691.82 142.78L695.62 141.26M695.62 141.26L699.54 140.11M699.54 140.11L703.55 139.34M703.55 139.34L707.62 138.95M707.62 138.95L711.71 138.95M711.71 138.95L715.78 139.34M715.78 139.34L719.8 140.11M719.8 140.11L723.72 141.26M723.72 141.26L727.51 142.78M727.51 142.78L731.15 144.66M731.15 144.66L734.59 146.87M734.59 146.87L737.8 149.39M737.8 149.39L740.76 152.21M740.76 152.21L743.44 155.3M743.44 155.3L745.81 158.63M745.81 158.63L747.85 162.18M747.85 162.18L749.55 165.89M749.55 165.89L750.89 169.76M750.89 169.76L751.85 173.73M751.85 173.73L752.43 177.78M752.43 177.78L752.63 181.86M752.63 181.86L752.43 185.94M752.43 185.94L751.85 189.99M751.85 189.99L750.89 193.96M750.89 193.96L749.55 197.83M749.55 197.83L747.85 201.55M747.85 201.55L745.81 205.09M745.81 205.09L743.44 208.42M743.44 208.42L740.76 211.51M740.76 211.51L737.8 214.33M737.8 214.33L734.59 216.85M734.59 216.85L731.15 219.06M731.15 219.06L727.51 220.94M727.51 220.94L723.72 222.46M723.72 222.46L719.8 223.61M719.8 223.61L715.78 224.38M715.78 224.38L711.71 224.77M711.71 224.77L707.62 224.77M707.62 224.77L703.55 224.38M703.55 224.38L699.54 223.61M699.54 223.61L695.62 222.46M695.62 222.46L691.82 220.94M691.82 220.94L688.19 219.06M688.19 219.06L684.75 216.85M684.75 216.85L681.54 214.33M681.54 214.33L678.58 211.51M678.58 211.51L675.9 208.42M675.9 208.42L673.53 205.09M673.53 205.09L671.48 201.55M671.48 201.55L669.79 197.83M669.79 197.83L668.45 193.96M668.45 193.96L667.49 189.99M667.49 189.99L666.9 185.94M666.9 185.94L666.71 181.86"
fill="none" stroke="black" stroke-width="0.5"/>
<path d="M566.47 156.8L566.66 152.72M566.66 152.72L567.25 148.67M567.25 148.67L568.21 144.7M568.21 144.7L569.55 140.83M569.55 140.83L571.24 137.12M571.24 137.12L573.29 133.57M573.29 133.57L575.66 130.24M575.66 130.24L578.34 127.15M578.34 127.15L581.3 124.33M581.3 124.33L584.51 121.81M584.51 121.81L587.95 119.6M587.95 119.6L591.58 117.72M591.58 117.72L595.38 116.2M595.38 116.2L599.3 115.05M599.3 115.05L603.32 114.28M603.32 114.28L607.39 113.89M607.39 113.89L611.47 113.89M611.47 113.89L615.54 114.28M615.54 114.28L619.56 115.05M619.56 115.05L623.48 116.2M623.48 116.2L627.28 117.72M627.28 117.72L630.91 119.6M630.91 119.6L634.35 121.81M634.35 121.81L637.56 124.33M637.56 124.33L640.52 127.15M640.52 127.15L643.2 130.24M643.2 130.24L645.57 133.57M645.57 133.57L647.61 137.12M647.61 137.12L649.31 140.83M649.31 140.83L650.65 144.7M650.65 144.7L651.61 148.67M651.61 148.67L652.19 152.72M652.19 152.72L652.39 156.8M652.39 156.8L652.19 160.88M652.19 160.88L651.61 164.93M651.61 164.93L650.65 168.9M650.65 168.9L649.31 172.77M649.31 172.77L647.61 176.49M647.61 176.49L645.57 180.03M645.57 180.03L643.2 183.36M643.2 183.36L640.52 186.45M640.52 186.45L637.56 189.27M637.56 189.27L634.35 191.79M634.35 191.79L630.91 194M630.91 194L627.28 195.88M627.28 195.88L623.48 197.4M623.48 197.4L619.56 198.55M619.56 198.55L615.54 199.32M615.54 199.32L611.47 199.71M611.47 199.71L607.39 199.71M607.39 199.71L603.32 199.32M603.32 199.32L599.3 198.55M599.3 198.55L595.38 197.4M595.38 197.4L591.58 195.88M591.58 195.88L587.95 194M587.95 194L584.51 191.79M584.51 191.79L581.3 189.27M581.3 189.27L578.34 186.45M578.34 186.45L575.66 183.36M575.66 183.36L573.29 180.03M573.29 180.03L571.24 176.49M571.24 176.49L569.55 172.77M569.55 172.77L568.21 168.9M568.21 168.9L567.25 164.93M567.25 164.93L566.66 160.88M566.66 160.88L566.47 156.8"
fill="none" stroke="black" stroke-width="0.5"/>
<path d="M566.47 260.62L566.66 256.54M566.66 256.54L567.25 252.49M567.25 252.49L568.21 248.52M568.21 248.52L569.55 244.65M569.55 244.65L571.24 240.93M571.24 240.93L573.29 237.39M573.29 237.39L575.66 234.06M575.66 234.06L578.34 230.97M578.34 230.97L581.3 228.15M581.3 228.15L584.51 225.63M584.51 225.63L587.95 223.42M587.95 223.42L591.58 221.54M591.58 221.54L595.38 220.02M595.38 220.02L599.3 218.87M599.3 218.87L603.32 218.1M603.32 218.1L607.39 217.71M607.39 217.71L611.47 217.71M611.47 217.71L615.54 218.1M615.54 218.1L619.56 218.87M619.56 218.87L623.48 220.02M623.48 220.02L627.28 221.54M627.28 221.54L630.91 223.42M630.91 223.42L634.35 225.63M634.35 225.63L637.56 228.15M637.56 228.15L640.52 230.97M640.52 230.97L643.2 234.06M643.2 234.06L645.57 237.39M645.57 237.39L647.61 240.93M647.61 240.93L649.31 244.65M649.31 244.65L650.65 248.52M650.65 248.52L651.61 252.49M651.61 252.49L652.19 256.54M652.19 256.54L652.39 260.62M652.39 260.62L652.19 264.7M652.19 264.7L651.61 268.75M651.61 268.75L650.65 272.72M650.65 272.72L649.31 276.59M649.31 276.59L647.61 280.31M647.61 280.31L645.57 283.85M645.57 283.85L643.2 287.18M643.2 287.18L640.52 290.27M640.52 290.27L637.56 293.09M637.56 293.09L634.35 295.61M634.35 295.61L630.91 297.82M630.91 297.82L627.28 299.7M627.28 299.7L623.48 301.22M623.48 301.22L619.56 302.37M619.56 302.37L615.54 303.14M615.54 303.14L611.47 303.53M611.47 303.53L607.39 303.53M607.39 303.53L603.32 303.14M603.32 303.14L599.3 302.37M599.3 302.37L595.38 301.22M595.38 301.22L591.58 299.7M591.58 299.7L587.95 297.82M587.95 297.82L584.51 295.61M584.51 295.61L581.3 293.09M581.3 293.09L578.34 290.27M578.34 290.27L575.66 287.18M575.66 287.18L573.29 283.85M573.29 283.85L571.24 280.31M571.24 280.31L569.55 276.59M569.55 276.59L568.21 272.72M568.21 272.72L567.25 268.75M567.25 268.75L566.66 264.7M566.66 264.7L566.47 260.62"
fill="none" stroke="black" stroke-width="0.5"/>
<path d="M462.65 260.62L462.84 256.54M462.84 256.54L463.43 252.49M463.43 252.49L464.39 248.52M464.39 248.52L465.73 244.65M465.73 244.65L467.43 240.93M467.43 240.93L469.47 237.39M469.47 237.39L471.84 234.06M471.84 234.06L474.52 230.97M474.52 230.97L477.48 228.15M477.48 228.15L480.69 225.63M480.69 225.63L484.13 223.42M484.13 223.42L487.76 221.54M487.76 221.54L491.56 220.02M491.56 220.02L495.48 218.87M495.48 218.87L499.5 218.1M499.5 218.1L503.57 217.71M503.57 217.71L507.65 217.71M507.65 217.71L511.72 218.1M511.72 218.1L515.74 218.87M515.74 218.87L519.66 220.02M519.66 220.02L523.46 221.54M523.46 221.54L527.09 223.42M527.09 223.42L530.53 225.63M530.53 225.63L533.74 228.15M533.74 228.15L536.7 230.97M536.7 230.97L539.38 234.06M539.38 234.06L541.75 237.39M541.75 237.39L543.79 240.93M543.79 240.93L545.49 244.65M545.49 244.65L546.83 248.52M546.83 248.52L547.79 252.49M547.79 252.49L548.37 256.54M548.37 256.54L548.57 260.62M548.57 260.62L548.37 264.7M548.37 264.7L547.79 268.75M547.79 268.75L546.83 272.72M546.83 272.72L545.49 276.59M545.49 276.59L543.79 280.31M543.79 280.31L541.75 283.85M541.75 283.85L539.38 287.18M539.38 287.18L536.7 290.27M536.7 290.27L533.74 293.09M533.74 293.09L530.53 295.61M530.53 295.61L527.09 297.82M527.09 297.82L523.46 299.7M523.46 299.7L519.66 301.22M519.66 301.22L515.74 302.37M515.74 302.37L511.72 303.14M511.72 303.14L507.65 303.53M507.65 303.53L503.57 303.53M503.57 303.53L499.5 303.14M499.5 303.14L495.48 302.37M495.48 302.37L491.56 301.22M491.56 301.22L487.76 299.7M487.76 299.7L484.13 297.82M484.13 297.82L480.69 295.61M480.69 295.61L477.48 293.09M477.48 293.09L474.52 290.27M474.52 290.27L471.84 287.18M471.84 287.18L469.47 283.85M469.47 283.85L467.43 280.31M467.43 280.31L465.73 276.59M465.73 276.59L464.39 272.72M464.39 272.72L463.43 268.75M463.43 268.75L462.84 264.7M462.84 264.7L462.65 260.62"
fill="none" stroke="black" stroke-width="0.5"/>
<path d="M462.65 156.8L462.84 152.72M462.84 152.72L463.43 148.67M463.43 148.67L464.39 144.7M464.39 144.7L465.73 140.83M465.73 140.83L467.43 137.12M467.43 137.12L469.47 133.57M469.47 133.57L471.84 130.24M471.84 130.24L474.52 127.15M474.52 127.15L477.48 124.33M477.48 124.33L480.69 121.81M480.69 121.81L484.13 119.6M484.13 119.6L487.76 117.72M487.76 117.72L491.56 116.2M491.56 116.2L495.48 115.05M495.48 115.05L499.5 114.28M499.5 114.28L503.57 113.89M503.57 113.89L507.65 113.89M507.65 113.89L511.72 114.28M511.72 114.28L515.74 115.05M515.74 115.05L519.66 116.2M519.66 116.2L523.46 117.72M523.46 117.72L527.09 119.6M527.09 119.6L530.53 121.81M530.53 121.81L533.74 124.33M533.74 124.33L536.7 127.15M536.7 127.15L539.38 130.24M539.38 130.24L541.75 133.57M541.75 133.57L543.79 137.12M543.79 137.12L545.49 140.83M545.49 140.83L546.83 144.7M546.83 144.7L547.79 148.67M547.79 148.67L548.37 152.72M548.37 152.72L548.57 156.8M548.57 156.8L548.37 160.88M548.37 160.88L547.79 164.93M547.79 164.93L546.83 168.9M546.83 168.9L545.49 172.77M545.49 172.77L543.79 176.49M543.79 176.49L541.75 180.03M541.75 180.03L539.38 183.36M539.38 183.36L536.7 186.45M536.7 186.45L533.74 189.27M533.74 189.27L530.53 191.79M530.53 191.79L527.09 194M527.09 194L523.46 195.88M523.46 195.88L519.66 197.4M519.66 197.4L515.74 198.55M515.74 198.55L511.72 199.32M511.72 199.32L507.65 199.71M507.65 199.71L503.57 199.71M503.57 199.71L499.5 199.32M499.5 199.32L495.48 198.55M495.48 198.55L491.56 197.4M491.56 197.4L487.76 195.88M487.76 195.88L484.13 194M484.13 194L480.69 191.79M480.69 191.79L477.48 189.27M477.48 189.27L474.52 186.45M474.52 186.45L471.84 183.36M471.84 183.36L469.47 180.03M469.47 180.03L467.43 176.49M467.43 176.49L465.73 172.77M465.73 172.77L464.39 168.9M464.39 168.9L463.43 164.93M463.43 164.93L462.84 160.88M462.84 160.88L462.65 156.8"
fill="none" stroke="black" stroke-width="0.5"/>
<path d="M373.15 206.92L373.34 202.84M373.34 202.84L373.93 198.79M373.93 198.79L374.89 194.82M374.89 194.82L376.23 190.95M376.23 190.95L377.93 187.24M377.93 187.24L379.97 183.69M379.97 183.69L382.34 180.36M382.34 180.36L385.02 177.27M385.02 177.27L387.98 174.45M387.98 174.45L391.19 171.93M391.19 171.93L394.63 169.72M394.63 169.72L398.26 167.84M398.26 167.84L402.06 166.32M402.06 166.32L405.98 165.17M405.98 165.17L410 164.4M410 164.4L414.07 164.01M414.07 164.01L418.15 164.01M418.15 164.01L422.22 164.4M422.22 164.4L426.24 165.17M426.24 165.17L430.16 166.32M430.16 166.32L433.96 167.84M433.96 167.84L437.59 169.72M437.59 169.72L441.03 171.93M441.03 171.93L444.24 174.45M444.24 174.45L447.2 177.27M447.2 177.27L449.88 180.36M449.88 180.36L452.25 183.69M452.25 183.69L454.29 187.24M454.29 187.24L455.99 190.95M455.99 190.95L457.33 194.82M457.33 194.82L458.29 198.79M458.29 198.79L458.88 202.84M458.88 202.84L459.07 206.92M459.07 206.92L458.88 211M458.88 211L458.29 215.05M458.29 215.05L457.33 219.02M457.33 219.02L455.99 222.89M455.99 222.89L454.29 226.61M454.29 226.61L452.25 230.15M452.25 230.15L449.88 233.48M449.88 233.48L447.2 236.57M447.2 236.57L444.24 239.39M444.24 239.39L441.03 241.91M441.03 241.91L437.59 244.12M437.59 244.12L433.96 246M433.96 246L430.16 247.52M430.16 247.52L426.24 248.67M426.24 248.67L422.22 249.44M422.22 249.44L418.15 249.83M418.15 249.83L414.07 249.83M414.07 249.83L410 249.44M410 249.44L405.98 248.67M405.98 248.67L402.06 247.52M402.06 247.52L398.26 246M398.26 246L394.63 244.12M394.63 244.12L391.19 241.91M391.19 241.91L387.98 239.39M387.98 239.39L385.02 236.57M385.02 236.57L382.34 233.48M382.34 233.48L379.97 230.15M379.97 230.15L377.93 226.61M377.93 226.61L376.23 222.89M376.23 222.89L374.89 219.02M374.89 219.02L373.93 215.05M373.93 215.05L373.34 211M373.34 211L373.15 206.92"
fill="none" stroke="black" stroke-width="0.5"/>
<path d="M373.15 310.74L373.34 306.66M373.34 306.66L373.93 302.61M373.93 302.61L374.89 298.64M374.89 298.64L376.23 294.77M376.23 294.77L377.93 291.05M377.93 291.05L379.97 287.51M379.97 287.51L382.34 284.18M382.34 284.18L385.02 281.09M385.02 281.09L387.98 278.27M387.98 278.27L391.19 275.75M391.19 275.75L394.63 273.54M394.63 273.54L398.26 271.66M398.26 271.66L402.06 270.14M402.06 270.14L405.98 268.99M405.98 268.99L410 268.22M410 268.22L414.07 267.83M414.07 267.83L418.15 267.83M418.15 267.83L422.22 268.22M422.22 268.22L426.24 268.99M426.24 268.99L430.16 270.14M430.16 270.14L433.96 271.66M433.96 271.66L437.59 273.54M437.59 273.54L441.03 275.75M441.03 275.75L444.24 278.27M444.24 278.27L447.2 281.09M447.2 281.09L449.88 284.18M449.88 284.18L452.25 287.51M452.25 287.51L454.29 291.05M454.29 291.05L455.99 294.77M455.99 294.77L457.33 298.64M457.33 298.64L458.29 302.61M458.29 302.61L458.88 306.66M458.88 306.66L459.07 310.74M459.07 310.74L458.88 314.82M458.88 314.82L458.29 318.87M458.29 318.87L457.33 322.84M457.33 322.84L455.99 326.71M455.99 326.71L454.29 330.43M454.29 330.43L452.25 333.97M452.25 333.97L449.88 337.3M449.88 337.3L447.2 340.39M447.2 340.39L444.24 343.21M444.24 343.21L441.03 345.73M441.03 345.73L437.59 347.94M437.59 347.94L433.96 349.82M433.96 349.82L430.16 351.34M430.16 351.34L426.24 352.49M426.24 352.49L422.22 353.26M422.22 353.26L418.15 353.65M418.15 353.65L414.07 353.65M414.07 353.65L410 353.26M410 353.26L405.98 352.49M405.98 352.49L402.06 351.34M402.06 351.34L398.26 349.82M398.26 349.82L394.63 347.94M394.63 347.94L391.19 345.73M391.19 345.73L387.98 343.21M387.98 343.21L385.02 340.39M385.02 340.39L382.34 337.3M382.34 337.3L379.97 333.97M379.97 333.97L377.93 330.43M377.93 330.43L376.23 326.71M376.23 326.71L374.89 322.84M374.89 322.84L373.93 318.87M373.93 318.87L373.34 314.82M373.34 314.82L373.15 310.74"
fill="none" stroke="black" stroke-width="0.5"/>
<path d="M151.19 196.18L151.39 192.1M151.39 192.1L151.97 188.05M151.97 188.05L152.93 184.08M152.93 184.08L154.27 180.21M154.27 180.21L155.97 176.5M155.97 176.5L158.01 172.95M158.01 172.95L160.38 169.62M160.38 169.62L163.06 166.53M163.06 166.53L166.02 163.71M166.02 163.71L169.23 161.19M169.23 161.19L172.67 158.98M172.67 158.98L176.3 157.1M176.3 157.1L180.1 155.58M180.1 155.58L184.02 154.43M184.02 154.43L188.04 153.66M188.04 153.66L192.11 153.27M192.11 153.27L196.19 153.27M196.19 153.27L200.26 153.66M200.26 153.66L204.28 154.43M204.28 154.43L208.2 155.58M208.2 155.58L212 157.1M212 157.1L215.63 158.98M215.63 158.98L219.07 161.19M219.07 161.19L222.28 163.71M222.28 163.71L225.24 166.53M225.24 166.53L227.92 169.62M227.92 169.62L230.29 172.95M230.29 172.95L232.34 176.5M232.34 176.5L234.03 180.21M234.03 180.21L235.37 184.08M235.37 184.08L236.33 188.05M236.33 188.05L236.92 192.1M236.92 192.1L237.11 196.18M237.11 196.18L236.92 200.26M236.92 200.26L236.33 204.31M236.33 204.31L235.37 208.28M235.37 208.28L234.03 212.15M234.03 212.15L232.34 215.87M232.34 215.87L230.29 219.41M230.29 219.41L227.92 222.74M227.92 222.74L225.24 225.83M225.24 225.83L222.28 228.65M222.28 228.65L219.07 231.17M219.07 231.17L215.63 233.38M215.63 233.38L212 235.26M212 235.26L208.2 236.78M208.2 236.78L204.28 237.93M204.28 237.93L200.26 238.7M200.26 238.7L196.19 239.09M196.19 239.09L192.11 239.09M192.11 239.09L188.04 238.7M188.04 238.7L184.02 237.93M184.02 237.93L180.1 236.78M180.1 236.78L176.3 235.26M176.3 235.26L172.67 233.38M172.67 233.38L169.23 231.17M169.23 231.17L166.02 228.65M166.02 228.65L163.06 225.83M163.06 225.83L160.38 222.74M160.38 222.74L158.01 219.41M158.01 219.41L155.97 215.87M155.97 215.87L154.27 212.15M154.27 212.15L152.93 208.28M152.93 208.28L151.97 204.31M151.97 204.31L151.39 200.26M151.39 200.26L151.19 196.18"
fill="none" stroke="black" stroke-width="0.5"/>
<path d="M240.69 246.3L240.89 242.22M240.89 242.22L241.47 238.17M241.47 238.17L242.43 234.2M242.43 234.2L243.77 230.33M243.77 230.33L245.47 226.61M245.47 226.61L247.51 223.07M247.51 223.07L249.88 219.74M249.88 219.74L252.56 216.65M252.56 216.65L255.52 213.83M255.52 213.83L258.73 211.31M258.73 211.31L262.17 209.1M262.17 209.1L265.8 207.22M265.8 207.22L269.6 205.7M269.6 205.7L273.52 204.55M273.52 204.55L277.54 203.78M277.54 203.78L281.61 203.39M281.61 203.39L285.69 203.39M285.69 203.39L289.76 203.78M289.76 203.78L293.78 204.55M293.78 204.55L297.7 205.7M297.7 205.7L301.5 207.22M301.5 207.22L305.13 209.1M305.13 209.1L308.57 211.31M308.57 211.31L311.78 213.83M311.78 213.83L314.74 216.65M314.74 216.65L317.42 219.74M317.42 219.74L319.79 223.07M319.79 223.07L321.83 226.61M321.83 226.61L323.53 230.33M323.53 230.33L324.87 234.2M324.87 234.2L325.83 238.17M325.83 238.17L326.42 242.22M326.42 242.22L326.61 246.3M326.61 246.3L326.42 250.38M326.42 250.38L325.83 254.43M325.83 254.43L324.87 258.4M324.87 258.4L323.53 262.27M323.53 262.27L321.83 265.99M321.83 265.99L319.79 269.53M319.79 269.53L317.42 272.86M317.42 272.86L314.74 275.95M314.74 275.95L311.78 278.77M311.78 278.77L308.57 281.29M308.57 281.29L305.13 283.5M305.13 283.5L301.5 285.38M301.5 285.38L297.7 286.9M297.7 286.9L293.78 288.05M293.78 288.05L289.76 288.82M289.76 288.82L285.69 289.21M285.69 289.21L281.61 289.21M281.61 289.21L277.54 288.82M277.54 288.82L273.52 288.05M273.52 288.05L269.6 286.9M269.6 286.9L265.8 285.38M265.8 285.38L262.17 283.5M262.17 283.5L258.73 281.29M258.73 281.29L255.52 278.77M255.52 278.77L252.56 275.95M252.56 275.95L249.88 272.86M249.88 272.86L247.51 269.53M247.51 269.53L245.47 265.99M245.47 265.99L243.77 262.27M243.77 262.27L242.43 258.4M242.43 258.4L241.47 254.43M241.47 254.43L240.89 250.38M240.89 250.38L240.69 246.3"
fill="none" stroke="black" stroke-width="0.5"/>
<path d="M283.65 436.04L283.85 431.42M283.85 431.42L284.44 426.84M284.44 426.84L285.43 422.33M285.43 422.33L286.8 417.91M286.8 417.91L288.55 413.64M288.55 413.64L290.65 409.52M290.65 409.52L293.11 405.61M293.11 405.61L295.89 401.92M295.89 401.92L298.97 398.48M298.97 398.48L302.34 395.32M302.34 395.32L305.97 392.46M305.97 392.46L309.84 389.92M309.84 389.92L313.9 387.73M313.9 387.73L318.14 385.89M318.14 385.89L322.52 384.43M322.52 384.43L327.02 383.34M327.02 383.34L331.58 382.65M331.58 382.65L336.19 382.35M336.19 382.35L340.81 382.45M340.81 382.45L345.41 382.95M345.41 382.95L349.94 383.84M349.94 383.84L354.38 385.11M354.38 385.11L358.7 386.77M358.7 386.77L362.86 388.78M362.86 388.78L366.82 391.15M366.82 391.15L370.57 393.85M370.57 393.85L374.08 396.86M374.08 396.86L377.31 400.16M377.31 400.16L380.24 403.73M380.24 403.73L382.86 407.54M382.86 407.54L385.14 411.56M385.14 411.56L387.07 415.76M387.07 415.76L388.63 420.11M388.63 420.11L389.81 424.57M389.81 424.57L390.6 429.13M390.6 429.13L391 433.73M391 433.73L391 438.35M391 438.35L390.6 442.95M390.6 442.95L389.81 447.51M389.81 447.51L388.63 451.97M388.63 451.97L387.07 456.32M387.07 456.32L385.14 460.52M385.14 460.52L382.86 464.54M382.86 464.54L380.24 468.35M380.24 468.35L377.31 471.91M377.31 471.91L374.08 475.22M374.08 475.22L370.57 478.23M370.57 478.23L366.82 480.93M366.82 480.93L362.86 483.3M362.86 483.3L358.7 485.31M358.7 485.31L354.38 486.97M354.38 486.97L349.94 488.24M349.94 488.24L345.41 489.13M345.41 489.13L340.81 489.63M340.81 489.63L336.19 489.73M336.19 489.73L331.58 489.43M331.58 489.43L327.02 488.74M327.02 488.74L322.52 487.65M322.52 487.65L318.14 486.19M318.14 486.19L313.9 484.35M313.9 484.35L309.84 482.15M309.84 482.15L305.97 479.62M305.97 479.62L302.34 476.76M302.34 476.76L298.97 473.6M298.97 473.6L295.89 470.16M295.89 470.16L293.11 466.47M293.11 466.47L290.65 462.56M290.65 462.56L288.55 458.44M288.55 458.44L286.8 454.16M286.8 454.16L285.43 449.75M285.43 449.75L284.44 445.24M284.44 445.24L283.85 440.66M283.85 440.66L283.65 436.04"
fill="none" stroke="black" stroke-width="0.5"/>
<path d="M47.37 196.18L47.57 192.1M47.57 192.1L48.15 188.05M48.15 188.05L49.11 184.08M49.11 184.08L50.45 180.21M50.45 180.21L52.15 176.5M52.15 176.5L54.19 172.95M54.19 172.95L56.56 169.62M56.56 169.62L59.24 166.53M59.24 166.53L62.2 163.71M62.2 163.71L65.41 161.19M65.41 161.19L68.85 158.98M68.85 158.98L72.49 157.1M72.49 157.1L76.28 155.58M76.28 155.58L80.2 154.43M80.2 154.43L84.22 153.66M84.22 153.66L88.29 153.27M88.29 153.27L92.38 153.27M92.38 153.27L96.45 153.66M96.45 153.66L100.46 154.43M100.46 154.43L104.38 155.58M104.38 155.58L108.18 157.1M108.18 157.1L111.81 158.98M111.81 158.98L115.25 161.19M115.25 161.19L118.46 163.71M118.46 163.71L121.42 166.53M121.42 166.53L124.1 169.62M124.1 169.62L126.47 172.95M126.47 172.95L128.52 176.5M128.52 176.5L130.21 180.21M130.21 180.21L131.55 184.08M131.55 184.08L132.51 188.05M132.51 188.05L133.1 192.1M133.1 192.1L133.29 196.18M133.29 196.18L133.1 200.26M133.1 200.26L132.51 204.31M132.51 204.31L131.55 208.28M131.55 208.28L130.21 212.15M130.21 212.15L128.52 215.87M128.52 215.87L126.47 219.41M126.47 219.41L124.1 222.74M124.1 222.74L121.42 225.83M121.42 225.83L118.46 228.65M118.46 228.65L115.25 231.17M115.25 231.17L111.81 233.38M111.81 233.38L108.18 235.26M108.18 235.26L104.38 236.78M104.38 236.78L100.46 237.93M100.46 237.93L96.45 238.7M96.45 238.7L92.38 239.09M92.38 239.09L88.29 239.09M88.29 239.09L84.22 238.7M84.22 238.7L80.2 237.93M80.2 237.93L76.28 236.78M76.28 236.78L72.49 235.26M72.49 235.26L68.85 233.38M68.85 233.38L65.41 231.17M65.41 231.17L62.2 228.65M62.2 228.65L59.24 225.83M59.24 225.83L56.56 222.74M56.56 222.74L54.19 219.41M54.19 219.41L52.15 215.87M52.15 215.87L50.45 212.15M50.45 212.15L49.11 208.28M49.11 208.28L48.15 204.31M48.15 204.31L47.57 200.26M47.57 200.26L47.37 196.18"
fill="none" stroke="black" stroke-width="0.5"/>
<path d="M42 45.46L38.11 45.65M38.11 45.65L34.25 46.23M34.25 46.23L30.47 47.17M30.47 47.17L26.79 48.49M26.79 48.49L23.27 50.16M23.27 50.16L19.92 52.16M19.92 52.16L16.79 54.48M16.79 54.48L13.9 57.1M13.9 57.1L11.28 59.99M11.28 59.99L8.96 63.12M8.96 63.12L6.96 66.47M6.96 66.47L5.29 69.99M5.29 69.99L3.97 73.67M3.97 73.67L3.03 77.45M3.03 77.45L2.46 81.31M2.46 81.31L2.26 85.2M2.26 85.2L2.26 514.8M2.26 514.8L2.26 514.8M2.26 514.8L2.46 518.69M2.46 518.69L3.03 522.55M3.03 522.55L3.97 526.33M3.97 526.33L5.29 530.01M5.29 530.01L6.96 533.53M6.96 533.53L8.96 536.88M8.96 536.88L11.28 540.01M11.28 540.01L13.9 542.9M13.9 542.9L16.79 545.52M16.79 545.52L19.92 547.84M19.92 547.84L23.27 549.84M23.27 549.84L26.79 551.51M26.79 551.51L30.47 552.83M30.47 552.83L34.25 553.77M34.25 553.77L38.11 554.35M38.11 554.35L42 554.54M42 554.54L758 554.54M758 554.54L758 554.54M758 554.54L761.89 554.35M761.89 554.35L765.75 553.77M765.75 553.77L769.53 552.83M769.53 552.83L773.21 551.51M773.21 551.51L776.73 549.84M776.73 549.84L780.08 547.84M780.08 547.84L783.21 545.52M783.21 545.52L786.1 542.9M786.1 542.9L788.72 540.01M788.72 540.01L791.04 536.88M791.04 536.88L793.04 533.53M793.04 533.53L794.71 530.01M794.71 530.01L796.03 526.33M796.03 526.33L796.97 522.55M796.97 522.55L797.54 518.69M797.54 518.69L797.74 514.8M797.74 514.8L797.74 85.2M797.74 85.2L797.74 85.2M797.74 85.2L797.54 81.31M797.54 81.31L796.97 77.45M796.97 77.45L796.03 73.67M796.03 73.67L794.71 69.99M794.71 69.99L793.04 66.47M793.04 66.47L791.04 63.12M791.04 63.12L788.72 59.99M788.72 59.99L786.1 57.1M786.1 57.1L783.21 54.48M783.21 54.48L780.08 52.16M780.08 52.16L776.73 50.16M776.73 50.16L773.21 48.49M773.21 48.49L769.53 47.17M769.53 47.17L765.75 46.23M765.75 46.23L761.89 45.65M761.89 45.65L758 45.46M758 45.46L42 45.46"
fill="none" stroke="black" stroke-width="0.5"/>
</svg>
