%TF.GenerationSoftware,KiCad,Pcbnew,7.0.2*%
%TF.CreationDate,2023-09-05T17:50:13-07:00*%
%TF.ProjectId,takupcb-r2,74616b75-7063-4622-9d72-322e6b696361,rev?*%
%TF.SameCoordinates,Original*%
%TF.FileFunction,Drillmap*%
%TF.FilePolarity,Positive*%
%FSLAX45Y45*%
G04 Gerber Fmt 4.5, Leading zero omitted, Abs format (unit mm)*
G04 Created by KiCad (PCBNEW 7.0.2) date 2023-09-05 17:50:13*
%MOMM*%
%LPD*%
G01*
G04 APERTURE LIST*
%ADD10C,0.150000*%
%ADD11C,0.100000*%
%ADD12C,0.200000*%
%ADD13C,0.170180*%
%ADD14C,0.300000*%
%ADD15C,0.398780*%
G04 APERTURE END LIST*
D10*
X23350000Y-3000000D02*
G75*
G03*
X23350000Y-3000000I-350000J0D01*
G01*
X3350000Y-15000000D02*
G75*
G03*
X3350000Y-15000000I-350000J0D01*
G01*
D11*
X2000000Y-15000000D02*
G75*
G03*
X3000000Y-16000000I1000000J0D01*
G01*
X24000000Y-3000000D02*
G75*
G03*
X23000000Y-2000000I-1000000J0D01*
G01*
X23000000Y-2000000D02*
X3000000Y-2000000D01*
D10*
X23350000Y-15000000D02*
G75*
G03*
X23350000Y-15000000I-350000J0D01*
G01*
D11*
X2000000Y-3000000D02*
X2000000Y-15000000D01*
X24000000Y-15000000D02*
X24000000Y-3000000D01*
X3000000Y-2000000D02*
G75*
G03*
X2000000Y-3000000I0J-1000000D01*
G01*
X3350000Y-3000000D02*
G75*
G03*
X3350000Y-3000000I-350000J0D01*
G01*
X23000000Y-16000000D02*
G75*
G03*
X24000000Y-15000000I0J1000000D01*
G01*
X3000000Y-16000000D02*
X23000000Y-16000000D01*
D12*
D13*
X3756910Y-6014910D02*
X3927090Y-6185090D01*
X3927090Y-6014910D02*
X3756910Y-6185090D01*
X4772910Y-6014910D02*
X4943090Y-6185090D01*
X4943090Y-6014910D02*
X4772910Y-6185090D01*
X6656910Y-6014910D02*
X6827090Y-6185090D01*
X6827090Y-6014910D02*
X6656910Y-6185090D01*
X7672910Y-6014910D02*
X7843090Y-6185090D01*
X7843090Y-6014910D02*
X7672910Y-6185090D01*
X9156910Y-7414910D02*
X9327090Y-7585090D01*
X9327090Y-7414910D02*
X9156910Y-7585090D01*
X10172910Y-7414910D02*
X10343090Y-7585090D01*
X10343090Y-7414910D02*
X10172910Y-7585090D01*
X10656910Y-12714910D02*
X10827090Y-12885090D01*
X10827090Y-12714910D02*
X10656910Y-12885090D01*
X11672910Y-12714910D02*
X11843090Y-12885090D01*
X11843090Y-12714910D02*
X11672910Y-12885090D01*
X12856910Y-6314910D02*
X13027090Y-6485090D01*
X13027090Y-6314910D02*
X12856910Y-6485090D01*
X12856910Y-9214910D02*
X13027090Y-9385090D01*
X13027090Y-9214910D02*
X12856910Y-9385090D01*
X13872910Y-6314910D02*
X14043090Y-6485090D01*
X14043090Y-6314910D02*
X13872910Y-6485090D01*
X13872910Y-9214910D02*
X14043090Y-9385090D01*
X14043090Y-9214910D02*
X13872910Y-9385090D01*
X15356910Y-4914910D02*
X15527090Y-5085090D01*
X15527090Y-4914910D02*
X15356910Y-5085090D01*
X15356910Y-7814910D02*
X15527090Y-7985090D01*
X15527090Y-7814910D02*
X15356910Y-7985090D01*
X16372910Y-4914910D02*
X16543090Y-5085090D01*
X16543090Y-4914910D02*
X16372910Y-5085090D01*
X16372910Y-7814910D02*
X16543090Y-7985090D01*
X16543090Y-7814910D02*
X16372910Y-7985090D01*
X18256910Y-4914910D02*
X18427090Y-5085090D01*
X18427090Y-4914910D02*
X18256910Y-5085090D01*
X18256910Y-7814910D02*
X18427090Y-7985090D01*
X18427090Y-7814910D02*
X18256910Y-7985090D01*
X19272910Y-4914910D02*
X19443090Y-5085090D01*
X19443090Y-4914910D02*
X19272910Y-5085090D01*
X19272910Y-7814910D02*
X19443090Y-7985090D01*
X19443090Y-7814910D02*
X19272910Y-7985090D01*
X21056910Y-5614910D02*
X21227090Y-5785090D01*
X21227090Y-5614910D02*
X21056910Y-5785090D01*
X21056910Y-8514910D02*
X21227090Y-8685090D01*
X21227090Y-8514910D02*
X21056910Y-8685090D01*
X22072910Y-5614910D02*
X22243090Y-5785090D01*
X22243090Y-5614910D02*
X22072910Y-5785090D01*
X22072910Y-8514910D02*
X22243090Y-8685090D01*
X22243090Y-8514910D02*
X22072910Y-8685090D01*
D14*
X4246000Y-6608000D02*
G75*
G03*
X4246000Y-6608000I-150000J0D01*
G01*
X4881000Y-6354000D02*
G75*
G03*
X4881000Y-6354000I-150000J0D01*
G01*
X7146000Y-6608000D02*
G75*
G03*
X7146000Y-6608000I-150000J0D01*
G01*
X7781000Y-6354000D02*
G75*
G03*
X7781000Y-6354000I-150000J0D01*
G01*
X9646000Y-8008000D02*
G75*
G03*
X9646000Y-8008000I-150000J0D01*
G01*
X10281000Y-7754000D02*
G75*
G03*
X10281000Y-7754000I-150000J0D01*
G01*
X11146000Y-13308000D02*
G75*
G03*
X11146000Y-13308000I-150000J0D01*
G01*
X11781000Y-13054000D02*
G75*
G03*
X11781000Y-13054000I-150000J0D01*
G01*
X13346000Y-6908000D02*
G75*
G03*
X13346000Y-6908000I-150000J0D01*
G01*
X13346000Y-9808000D02*
G75*
G03*
X13346000Y-9808000I-150000J0D01*
G01*
X13981000Y-6654000D02*
G75*
G03*
X13981000Y-6654000I-150000J0D01*
G01*
X13981000Y-9554000D02*
G75*
G03*
X13981000Y-9554000I-150000J0D01*
G01*
X15846000Y-5508000D02*
G75*
G03*
X15846000Y-5508000I-150000J0D01*
G01*
X15846000Y-8408000D02*
G75*
G03*
X15846000Y-8408000I-150000J0D01*
G01*
X16481000Y-5254000D02*
G75*
G03*
X16481000Y-5254000I-150000J0D01*
G01*
X16481000Y-8154000D02*
G75*
G03*
X16481000Y-8154000I-150000J0D01*
G01*
X18746000Y-5508000D02*
G75*
G03*
X18746000Y-5508000I-150000J0D01*
G01*
X18746000Y-8408000D02*
G75*
G03*
X18746000Y-8408000I-150000J0D01*
G01*
X19381000Y-5254000D02*
G75*
G03*
X19381000Y-5254000I-150000J0D01*
G01*
X19381000Y-8154000D02*
G75*
G03*
X19381000Y-8154000I-150000J0D01*
G01*
X21546000Y-6208000D02*
G75*
G03*
X21546000Y-6208000I-150000J0D01*
G01*
X21546000Y-9108000D02*
G75*
G03*
X21546000Y-9108000I-150000J0D01*
G01*
X22181000Y-5954000D02*
G75*
G03*
X22181000Y-5954000I-150000J0D01*
G01*
X22181000Y-8854000D02*
G75*
G03*
X22181000Y-8854000I-150000J0D01*
G01*
D15*
X4350000Y-5900610D02*
X4350000Y-6299390D01*
X4150610Y-6100000D02*
X4549390Y-6100000D01*
X7250000Y-5900610D02*
X7250000Y-6299390D01*
X7050610Y-6100000D02*
X7449390Y-6100000D01*
X9750000Y-7300610D02*
X9750000Y-7699390D01*
X9550610Y-7500000D02*
X9949390Y-7500000D01*
X11250000Y-12600610D02*
X11250000Y-12999390D01*
X11050610Y-12800000D02*
X11449390Y-12800000D01*
X13450000Y-6200610D02*
X13450000Y-6599390D01*
X13250610Y-6400000D02*
X13649390Y-6400000D01*
X13450000Y-9100610D02*
X13450000Y-9499390D01*
X13250610Y-9300000D02*
X13649390Y-9300000D01*
X15950000Y-4800610D02*
X15950000Y-5199390D01*
X15750610Y-5000000D02*
X16149390Y-5000000D01*
X15950000Y-7700610D02*
X15950000Y-8099390D01*
X15750610Y-7900000D02*
X16149390Y-7900000D01*
X18850000Y-4800610D02*
X18850000Y-5199390D01*
X18650610Y-5000000D02*
X19049390Y-5000000D01*
X18850000Y-7700610D02*
X18850000Y-8099390D01*
X18650610Y-7900000D02*
X19049390Y-7900000D01*
X21650000Y-5500610D02*
X21650000Y-5899390D01*
X21450610Y-5700000D02*
X21849390Y-5700000D01*
X21650000Y-8400610D02*
X21650000Y-8799390D01*
X21450610Y-8600000D02*
X21849390Y-8600000D01*
D12*
X2242619Y-16317524D02*
X2242619Y-16117524D01*
X2242619Y-16117524D02*
X2290238Y-16117524D01*
X2290238Y-16117524D02*
X2318810Y-16127048D01*
X2318810Y-16127048D02*
X2337857Y-16146095D01*
X2337857Y-16146095D02*
X2347381Y-16165143D01*
X2347381Y-16165143D02*
X2356905Y-16203238D01*
X2356905Y-16203238D02*
X2356905Y-16231809D01*
X2356905Y-16231809D02*
X2347381Y-16269905D01*
X2347381Y-16269905D02*
X2337857Y-16288952D01*
X2337857Y-16288952D02*
X2318810Y-16308000D01*
X2318810Y-16308000D02*
X2290238Y-16317524D01*
X2290238Y-16317524D02*
X2242619Y-16317524D01*
X2442619Y-16317524D02*
X2442619Y-16184190D01*
X2442619Y-16222286D02*
X2452143Y-16203238D01*
X2452143Y-16203238D02*
X2461667Y-16193714D01*
X2461667Y-16193714D02*
X2480714Y-16184190D01*
X2480714Y-16184190D02*
X2499762Y-16184190D01*
X2566429Y-16317524D02*
X2566429Y-16184190D01*
X2566429Y-16117524D02*
X2556905Y-16127048D01*
X2556905Y-16127048D02*
X2566429Y-16136571D01*
X2566429Y-16136571D02*
X2575952Y-16127048D01*
X2575952Y-16127048D02*
X2566429Y-16117524D01*
X2566429Y-16117524D02*
X2566429Y-16136571D01*
X2690238Y-16317524D02*
X2671190Y-16308000D01*
X2671190Y-16308000D02*
X2661667Y-16288952D01*
X2661667Y-16288952D02*
X2661667Y-16117524D01*
X2795000Y-16317524D02*
X2775952Y-16308000D01*
X2775952Y-16308000D02*
X2766429Y-16288952D01*
X2766429Y-16288952D02*
X2766429Y-16117524D01*
X3023571Y-16317524D02*
X3023571Y-16117524D01*
X3023571Y-16117524D02*
X3090238Y-16260381D01*
X3090238Y-16260381D02*
X3156905Y-16117524D01*
X3156905Y-16117524D02*
X3156905Y-16317524D01*
X3337857Y-16317524D02*
X3337857Y-16212762D01*
X3337857Y-16212762D02*
X3328333Y-16193714D01*
X3328333Y-16193714D02*
X3309286Y-16184190D01*
X3309286Y-16184190D02*
X3271190Y-16184190D01*
X3271190Y-16184190D02*
X3252143Y-16193714D01*
X3337857Y-16308000D02*
X3318809Y-16317524D01*
X3318809Y-16317524D02*
X3271190Y-16317524D01*
X3271190Y-16317524D02*
X3252143Y-16308000D01*
X3252143Y-16308000D02*
X3242619Y-16288952D01*
X3242619Y-16288952D02*
X3242619Y-16269905D01*
X3242619Y-16269905D02*
X3252143Y-16250857D01*
X3252143Y-16250857D02*
X3271190Y-16241333D01*
X3271190Y-16241333D02*
X3318809Y-16241333D01*
X3318809Y-16241333D02*
X3337857Y-16231809D01*
X3433095Y-16184190D02*
X3433095Y-16384190D01*
X3433095Y-16193714D02*
X3452143Y-16184190D01*
X3452143Y-16184190D02*
X3490238Y-16184190D01*
X3490238Y-16184190D02*
X3509286Y-16193714D01*
X3509286Y-16193714D02*
X3518809Y-16203238D01*
X3518809Y-16203238D02*
X3528333Y-16222286D01*
X3528333Y-16222286D02*
X3528333Y-16279428D01*
X3528333Y-16279428D02*
X3518809Y-16298476D01*
X3518809Y-16298476D02*
X3509286Y-16308000D01*
X3509286Y-16308000D02*
X3490238Y-16317524D01*
X3490238Y-16317524D02*
X3452143Y-16317524D01*
X3452143Y-16317524D02*
X3433095Y-16308000D01*
X3614048Y-16298476D02*
X3623571Y-16308000D01*
X3623571Y-16308000D02*
X3614048Y-16317524D01*
X3614048Y-16317524D02*
X3604524Y-16308000D01*
X3604524Y-16308000D02*
X3614048Y-16298476D01*
X3614048Y-16298476D02*
X3614048Y-16317524D01*
X3614048Y-16193714D02*
X3623571Y-16203238D01*
X3623571Y-16203238D02*
X3614048Y-16212762D01*
X3614048Y-16212762D02*
X3604524Y-16203238D01*
X3604524Y-16203238D02*
X3614048Y-16193714D01*
X3614048Y-16193714D02*
X3614048Y-16212762D01*
D13*
X1824820Y-16559910D02*
X1995000Y-16730090D01*
X1995000Y-16559910D02*
X1824820Y-16730090D01*
D12*
X2347381Y-16737524D02*
X2233095Y-16737524D01*
X2290238Y-16737524D02*
X2290238Y-16537524D01*
X2290238Y-16537524D02*
X2271190Y-16566095D01*
X2271190Y-16566095D02*
X2252143Y-16585143D01*
X2252143Y-16585143D02*
X2233095Y-16594667D01*
X2433095Y-16718476D02*
X2442619Y-16728000D01*
X2442619Y-16728000D02*
X2433095Y-16737524D01*
X2433095Y-16737524D02*
X2423571Y-16728000D01*
X2423571Y-16728000D02*
X2433095Y-16718476D01*
X2433095Y-16718476D02*
X2433095Y-16737524D01*
X2509286Y-16537524D02*
X2642619Y-16537524D01*
X2642619Y-16537524D02*
X2556905Y-16737524D01*
X2756905Y-16537524D02*
X2775952Y-16537524D01*
X2775952Y-16537524D02*
X2795000Y-16547048D01*
X2795000Y-16547048D02*
X2804524Y-16556571D01*
X2804524Y-16556571D02*
X2814048Y-16575619D01*
X2814048Y-16575619D02*
X2823571Y-16613714D01*
X2823571Y-16613714D02*
X2823571Y-16661333D01*
X2823571Y-16661333D02*
X2814048Y-16699428D01*
X2814048Y-16699428D02*
X2804524Y-16718476D01*
X2804524Y-16718476D02*
X2795000Y-16728000D01*
X2795000Y-16728000D02*
X2775952Y-16737524D01*
X2775952Y-16737524D02*
X2756905Y-16737524D01*
X2756905Y-16737524D02*
X2737857Y-16728000D01*
X2737857Y-16728000D02*
X2728333Y-16718476D01*
X2728333Y-16718476D02*
X2718810Y-16699428D01*
X2718810Y-16699428D02*
X2709286Y-16661333D01*
X2709286Y-16661333D02*
X2709286Y-16613714D01*
X2709286Y-16613714D02*
X2718810Y-16575619D01*
X2718810Y-16575619D02*
X2728333Y-16556571D01*
X2728333Y-16556571D02*
X2737857Y-16547048D01*
X2737857Y-16547048D02*
X2756905Y-16537524D01*
X2899762Y-16556571D02*
X2909286Y-16547048D01*
X2909286Y-16547048D02*
X2928333Y-16537524D01*
X2928333Y-16537524D02*
X2975952Y-16537524D01*
X2975952Y-16537524D02*
X2995000Y-16547048D01*
X2995000Y-16547048D02*
X3004524Y-16556571D01*
X3004524Y-16556571D02*
X3014048Y-16575619D01*
X3014048Y-16575619D02*
X3014048Y-16594667D01*
X3014048Y-16594667D02*
X3004524Y-16623238D01*
X3004524Y-16623238D02*
X2890238Y-16737524D01*
X2890238Y-16737524D02*
X3014048Y-16737524D01*
X3099762Y-16737524D02*
X3099762Y-16604190D01*
X3099762Y-16623238D02*
X3109286Y-16613714D01*
X3109286Y-16613714D02*
X3128333Y-16604190D01*
X3128333Y-16604190D02*
X3156905Y-16604190D01*
X3156905Y-16604190D02*
X3175952Y-16613714D01*
X3175952Y-16613714D02*
X3185476Y-16632762D01*
X3185476Y-16632762D02*
X3185476Y-16737524D01*
X3185476Y-16632762D02*
X3195000Y-16613714D01*
X3195000Y-16613714D02*
X3214048Y-16604190D01*
X3214048Y-16604190D02*
X3242619Y-16604190D01*
X3242619Y-16604190D02*
X3261667Y-16613714D01*
X3261667Y-16613714D02*
X3271190Y-16632762D01*
X3271190Y-16632762D02*
X3271190Y-16737524D01*
X3366429Y-16737524D02*
X3366429Y-16604190D01*
X3366429Y-16623238D02*
X3375952Y-16613714D01*
X3375952Y-16613714D02*
X3395000Y-16604190D01*
X3395000Y-16604190D02*
X3423571Y-16604190D01*
X3423571Y-16604190D02*
X3442619Y-16613714D01*
X3442619Y-16613714D02*
X3452143Y-16632762D01*
X3452143Y-16632762D02*
X3452143Y-16737524D01*
X3452143Y-16632762D02*
X3461667Y-16613714D01*
X3461667Y-16613714D02*
X3480714Y-16604190D01*
X3480714Y-16604190D02*
X3509286Y-16604190D01*
X3509286Y-16604190D02*
X3528333Y-16613714D01*
X3528333Y-16613714D02*
X3537857Y-16632762D01*
X3537857Y-16632762D02*
X3537857Y-16737524D01*
X3928333Y-16528000D02*
X3756905Y-16785143D01*
X4185476Y-16537524D02*
X4204524Y-16537524D01*
X4204524Y-16537524D02*
X4223572Y-16547048D01*
X4223572Y-16547048D02*
X4233095Y-16556571D01*
X4233095Y-16556571D02*
X4242619Y-16575619D01*
X4242619Y-16575619D02*
X4252143Y-16613714D01*
X4252143Y-16613714D02*
X4252143Y-16661333D01*
X4252143Y-16661333D02*
X4242619Y-16699428D01*
X4242619Y-16699428D02*
X4233095Y-16718476D01*
X4233095Y-16718476D02*
X4223572Y-16728000D01*
X4223572Y-16728000D02*
X4204524Y-16737524D01*
X4204524Y-16737524D02*
X4185476Y-16737524D01*
X4185476Y-16737524D02*
X4166429Y-16728000D01*
X4166429Y-16728000D02*
X4156905Y-16718476D01*
X4156905Y-16718476D02*
X4147381Y-16699428D01*
X4147381Y-16699428D02*
X4137857Y-16661333D01*
X4137857Y-16661333D02*
X4137857Y-16613714D01*
X4137857Y-16613714D02*
X4147381Y-16575619D01*
X4147381Y-16575619D02*
X4156905Y-16556571D01*
X4156905Y-16556571D02*
X4166429Y-16547048D01*
X4166429Y-16547048D02*
X4185476Y-16537524D01*
X4337857Y-16718476D02*
X4347381Y-16728000D01*
X4347381Y-16728000D02*
X4337857Y-16737524D01*
X4337857Y-16737524D02*
X4328334Y-16728000D01*
X4328334Y-16728000D02*
X4337857Y-16718476D01*
X4337857Y-16718476D02*
X4337857Y-16737524D01*
X4471191Y-16537524D02*
X4490238Y-16537524D01*
X4490238Y-16537524D02*
X4509286Y-16547048D01*
X4509286Y-16547048D02*
X4518810Y-16556571D01*
X4518810Y-16556571D02*
X4528334Y-16575619D01*
X4528334Y-16575619D02*
X4537857Y-16613714D01*
X4537857Y-16613714D02*
X4537857Y-16661333D01*
X4537857Y-16661333D02*
X4528334Y-16699428D01*
X4528334Y-16699428D02*
X4518810Y-16718476D01*
X4518810Y-16718476D02*
X4509286Y-16728000D01*
X4509286Y-16728000D02*
X4490238Y-16737524D01*
X4490238Y-16737524D02*
X4471191Y-16737524D01*
X4471191Y-16737524D02*
X4452143Y-16728000D01*
X4452143Y-16728000D02*
X4442619Y-16718476D01*
X4442619Y-16718476D02*
X4433095Y-16699428D01*
X4433095Y-16699428D02*
X4423572Y-16661333D01*
X4423572Y-16661333D02*
X4423572Y-16613714D01*
X4423572Y-16613714D02*
X4433095Y-16575619D01*
X4433095Y-16575619D02*
X4442619Y-16556571D01*
X4442619Y-16556571D02*
X4452143Y-16547048D01*
X4452143Y-16547048D02*
X4471191Y-16537524D01*
X4709286Y-16537524D02*
X4671191Y-16537524D01*
X4671191Y-16537524D02*
X4652143Y-16547048D01*
X4652143Y-16547048D02*
X4642619Y-16556571D01*
X4642619Y-16556571D02*
X4623572Y-16585143D01*
X4623572Y-16585143D02*
X4614048Y-16623238D01*
X4614048Y-16623238D02*
X4614048Y-16699428D01*
X4614048Y-16699428D02*
X4623572Y-16718476D01*
X4623572Y-16718476D02*
X4633095Y-16728000D01*
X4633095Y-16728000D02*
X4652143Y-16737524D01*
X4652143Y-16737524D02*
X4690238Y-16737524D01*
X4690238Y-16737524D02*
X4709286Y-16728000D01*
X4709286Y-16728000D02*
X4718810Y-16718476D01*
X4718810Y-16718476D02*
X4728334Y-16699428D01*
X4728334Y-16699428D02*
X4728334Y-16651809D01*
X4728334Y-16651809D02*
X4718810Y-16632762D01*
X4718810Y-16632762D02*
X4709286Y-16623238D01*
X4709286Y-16623238D02*
X4690238Y-16613714D01*
X4690238Y-16613714D02*
X4652143Y-16613714D01*
X4652143Y-16613714D02*
X4633095Y-16623238D01*
X4633095Y-16623238D02*
X4623572Y-16632762D01*
X4623572Y-16632762D02*
X4614048Y-16651809D01*
X4795000Y-16537524D02*
X4928334Y-16537524D01*
X4928334Y-16537524D02*
X4842619Y-16737524D01*
X5042619Y-16537524D02*
X5061667Y-16537524D01*
X5061667Y-16537524D02*
X5080715Y-16547048D01*
X5080715Y-16547048D02*
X5090238Y-16556571D01*
X5090238Y-16556571D02*
X5099762Y-16575619D01*
X5099762Y-16575619D02*
X5109286Y-16613714D01*
X5109286Y-16613714D02*
X5109286Y-16661333D01*
X5109286Y-16661333D02*
X5099762Y-16699428D01*
X5099762Y-16699428D02*
X5090238Y-16718476D01*
X5090238Y-16718476D02*
X5080715Y-16728000D01*
X5080715Y-16728000D02*
X5061667Y-16737524D01*
X5061667Y-16737524D02*
X5042619Y-16737524D01*
X5042619Y-16737524D02*
X5023572Y-16728000D01*
X5023572Y-16728000D02*
X5014048Y-16718476D01*
X5014048Y-16718476D02*
X5004524Y-16699428D01*
X5004524Y-16699428D02*
X4995000Y-16661333D01*
X4995000Y-16661333D02*
X4995000Y-16613714D01*
X4995000Y-16613714D02*
X5004524Y-16575619D01*
X5004524Y-16575619D02*
X5014048Y-16556571D01*
X5014048Y-16556571D02*
X5023572Y-16547048D01*
X5023572Y-16547048D02*
X5042619Y-16537524D01*
X5185476Y-16537524D02*
X5185476Y-16575619D01*
X5261667Y-16537524D02*
X5261667Y-16575619D01*
X5556905Y-16813714D02*
X5547381Y-16804190D01*
X5547381Y-16804190D02*
X5528334Y-16775619D01*
X5528334Y-16775619D02*
X5518810Y-16756571D01*
X5518810Y-16756571D02*
X5509286Y-16728000D01*
X5509286Y-16728000D02*
X5499762Y-16680381D01*
X5499762Y-16680381D02*
X5499762Y-16642286D01*
X5499762Y-16642286D02*
X5509286Y-16594667D01*
X5509286Y-16594667D02*
X5518810Y-16566095D01*
X5518810Y-16566095D02*
X5528334Y-16547048D01*
X5528334Y-16547048D02*
X5547381Y-16518476D01*
X5547381Y-16518476D02*
X5556905Y-16508952D01*
X5623572Y-16556571D02*
X5633095Y-16547048D01*
X5633095Y-16547048D02*
X5652143Y-16537524D01*
X5652143Y-16537524D02*
X5699762Y-16537524D01*
X5699762Y-16537524D02*
X5718810Y-16547048D01*
X5718810Y-16547048D02*
X5728334Y-16556571D01*
X5728334Y-16556571D02*
X5737857Y-16575619D01*
X5737857Y-16575619D02*
X5737857Y-16594667D01*
X5737857Y-16594667D02*
X5728334Y-16623238D01*
X5728334Y-16623238D02*
X5614048Y-16737524D01*
X5614048Y-16737524D02*
X5737857Y-16737524D01*
X5909286Y-16604190D02*
X5909286Y-16737524D01*
X5861667Y-16528000D02*
X5814048Y-16670857D01*
X5814048Y-16670857D02*
X5937857Y-16670857D01*
X6166429Y-16737524D02*
X6166429Y-16537524D01*
X6252143Y-16737524D02*
X6252143Y-16632762D01*
X6252143Y-16632762D02*
X6242619Y-16613714D01*
X6242619Y-16613714D02*
X6223572Y-16604190D01*
X6223572Y-16604190D02*
X6195000Y-16604190D01*
X6195000Y-16604190D02*
X6175953Y-16613714D01*
X6175953Y-16613714D02*
X6166429Y-16623238D01*
X6375953Y-16737524D02*
X6356905Y-16728000D01*
X6356905Y-16728000D02*
X6347381Y-16718476D01*
X6347381Y-16718476D02*
X6337857Y-16699428D01*
X6337857Y-16699428D02*
X6337857Y-16642286D01*
X6337857Y-16642286D02*
X6347381Y-16623238D01*
X6347381Y-16623238D02*
X6356905Y-16613714D01*
X6356905Y-16613714D02*
X6375953Y-16604190D01*
X6375953Y-16604190D02*
X6404524Y-16604190D01*
X6404524Y-16604190D02*
X6423572Y-16613714D01*
X6423572Y-16613714D02*
X6433096Y-16623238D01*
X6433096Y-16623238D02*
X6442619Y-16642286D01*
X6442619Y-16642286D02*
X6442619Y-16699428D01*
X6442619Y-16699428D02*
X6433096Y-16718476D01*
X6433096Y-16718476D02*
X6423572Y-16728000D01*
X6423572Y-16728000D02*
X6404524Y-16737524D01*
X6404524Y-16737524D02*
X6375953Y-16737524D01*
X6556905Y-16737524D02*
X6537857Y-16728000D01*
X6537857Y-16728000D02*
X6528334Y-16708952D01*
X6528334Y-16708952D02*
X6528334Y-16537524D01*
X6709286Y-16728000D02*
X6690238Y-16737524D01*
X6690238Y-16737524D02*
X6652143Y-16737524D01*
X6652143Y-16737524D02*
X6633096Y-16728000D01*
X6633096Y-16728000D02*
X6623572Y-16708952D01*
X6623572Y-16708952D02*
X6623572Y-16632762D01*
X6623572Y-16632762D02*
X6633096Y-16613714D01*
X6633096Y-16613714D02*
X6652143Y-16604190D01*
X6652143Y-16604190D02*
X6690238Y-16604190D01*
X6690238Y-16604190D02*
X6709286Y-16613714D01*
X6709286Y-16613714D02*
X6718810Y-16632762D01*
X6718810Y-16632762D02*
X6718810Y-16651809D01*
X6718810Y-16651809D02*
X6623572Y-16670857D01*
X6795000Y-16728000D02*
X6814048Y-16737524D01*
X6814048Y-16737524D02*
X6852143Y-16737524D01*
X6852143Y-16737524D02*
X6871191Y-16728000D01*
X6871191Y-16728000D02*
X6880715Y-16708952D01*
X6880715Y-16708952D02*
X6880715Y-16699428D01*
X6880715Y-16699428D02*
X6871191Y-16680381D01*
X6871191Y-16680381D02*
X6852143Y-16670857D01*
X6852143Y-16670857D02*
X6823572Y-16670857D01*
X6823572Y-16670857D02*
X6804524Y-16661333D01*
X6804524Y-16661333D02*
X6795000Y-16642286D01*
X6795000Y-16642286D02*
X6795000Y-16632762D01*
X6795000Y-16632762D02*
X6804524Y-16613714D01*
X6804524Y-16613714D02*
X6823572Y-16604190D01*
X6823572Y-16604190D02*
X6852143Y-16604190D01*
X6852143Y-16604190D02*
X6871191Y-16613714D01*
X6947381Y-16813714D02*
X6956905Y-16804190D01*
X6956905Y-16804190D02*
X6975953Y-16775619D01*
X6975953Y-16775619D02*
X6985477Y-16756571D01*
X6985477Y-16756571D02*
X6995000Y-16728000D01*
X6995000Y-16728000D02*
X7004524Y-16680381D01*
X7004524Y-16680381D02*
X7004524Y-16642286D01*
X7004524Y-16642286D02*
X6995000Y-16594667D01*
X6995000Y-16594667D02*
X6985477Y-16566095D01*
X6985477Y-16566095D02*
X6975953Y-16547048D01*
X6975953Y-16547048D02*
X6956905Y-16518476D01*
X6956905Y-16518476D02*
X6947381Y-16508952D01*
X7309286Y-16813714D02*
X7299762Y-16804190D01*
X7299762Y-16804190D02*
X7280715Y-16775619D01*
X7280715Y-16775619D02*
X7271191Y-16756571D01*
X7271191Y-16756571D02*
X7261667Y-16728000D01*
X7261667Y-16728000D02*
X7252143Y-16680381D01*
X7252143Y-16680381D02*
X7252143Y-16642286D01*
X7252143Y-16642286D02*
X7261667Y-16594667D01*
X7261667Y-16594667D02*
X7271191Y-16566095D01*
X7271191Y-16566095D02*
X7280715Y-16547048D01*
X7280715Y-16547048D02*
X7299762Y-16518476D01*
X7299762Y-16518476D02*
X7309286Y-16508952D01*
X7385477Y-16604190D02*
X7385477Y-16737524D01*
X7385477Y-16623238D02*
X7395000Y-16613714D01*
X7395000Y-16613714D02*
X7414048Y-16604190D01*
X7414048Y-16604190D02*
X7442619Y-16604190D01*
X7442619Y-16604190D02*
X7461667Y-16613714D01*
X7461667Y-16613714D02*
X7471191Y-16632762D01*
X7471191Y-16632762D02*
X7471191Y-16737524D01*
X7595000Y-16737524D02*
X7575953Y-16728000D01*
X7575953Y-16728000D02*
X7566429Y-16718476D01*
X7566429Y-16718476D02*
X7556905Y-16699428D01*
X7556905Y-16699428D02*
X7556905Y-16642286D01*
X7556905Y-16642286D02*
X7566429Y-16623238D01*
X7566429Y-16623238D02*
X7575953Y-16613714D01*
X7575953Y-16613714D02*
X7595000Y-16604190D01*
X7595000Y-16604190D02*
X7623572Y-16604190D01*
X7623572Y-16604190D02*
X7642619Y-16613714D01*
X7642619Y-16613714D02*
X7652143Y-16623238D01*
X7652143Y-16623238D02*
X7661667Y-16642286D01*
X7661667Y-16642286D02*
X7661667Y-16699428D01*
X7661667Y-16699428D02*
X7652143Y-16718476D01*
X7652143Y-16718476D02*
X7642619Y-16728000D01*
X7642619Y-16728000D02*
X7623572Y-16737524D01*
X7623572Y-16737524D02*
X7595000Y-16737524D01*
X7718810Y-16604190D02*
X7795000Y-16604190D01*
X7747381Y-16537524D02*
X7747381Y-16708952D01*
X7747381Y-16708952D02*
X7756905Y-16728000D01*
X7756905Y-16728000D02*
X7775953Y-16737524D01*
X7775953Y-16737524D02*
X7795000Y-16737524D01*
X8014048Y-16604190D02*
X8014048Y-16804190D01*
X8014048Y-16613714D02*
X8033096Y-16604190D01*
X8033096Y-16604190D02*
X8071191Y-16604190D01*
X8071191Y-16604190D02*
X8090239Y-16613714D01*
X8090239Y-16613714D02*
X8099762Y-16623238D01*
X8099762Y-16623238D02*
X8109286Y-16642286D01*
X8109286Y-16642286D02*
X8109286Y-16699428D01*
X8109286Y-16699428D02*
X8099762Y-16718476D01*
X8099762Y-16718476D02*
X8090239Y-16728000D01*
X8090239Y-16728000D02*
X8071191Y-16737524D01*
X8071191Y-16737524D02*
X8033096Y-16737524D01*
X8033096Y-16737524D02*
X8014048Y-16728000D01*
X8223572Y-16737524D02*
X8204524Y-16728000D01*
X8204524Y-16728000D02*
X8195000Y-16708952D01*
X8195000Y-16708952D02*
X8195000Y-16537524D01*
X8385477Y-16737524D02*
X8385477Y-16632762D01*
X8385477Y-16632762D02*
X8375953Y-16613714D01*
X8375953Y-16613714D02*
X8356905Y-16604190D01*
X8356905Y-16604190D02*
X8318810Y-16604190D01*
X8318810Y-16604190D02*
X8299762Y-16613714D01*
X8385477Y-16728000D02*
X8366429Y-16737524D01*
X8366429Y-16737524D02*
X8318810Y-16737524D01*
X8318810Y-16737524D02*
X8299762Y-16728000D01*
X8299762Y-16728000D02*
X8290239Y-16708952D01*
X8290239Y-16708952D02*
X8290239Y-16689905D01*
X8290239Y-16689905D02*
X8299762Y-16670857D01*
X8299762Y-16670857D02*
X8318810Y-16661333D01*
X8318810Y-16661333D02*
X8366429Y-16661333D01*
X8366429Y-16661333D02*
X8385477Y-16651809D01*
X8452143Y-16604190D02*
X8528334Y-16604190D01*
X8480715Y-16537524D02*
X8480715Y-16708952D01*
X8480715Y-16708952D02*
X8490239Y-16728000D01*
X8490239Y-16728000D02*
X8509286Y-16737524D01*
X8509286Y-16737524D02*
X8528334Y-16737524D01*
X8671191Y-16728000D02*
X8652143Y-16737524D01*
X8652143Y-16737524D02*
X8614048Y-16737524D01*
X8614048Y-16737524D02*
X8595001Y-16728000D01*
X8595001Y-16728000D02*
X8585477Y-16708952D01*
X8585477Y-16708952D02*
X8585477Y-16632762D01*
X8585477Y-16632762D02*
X8595001Y-16613714D01*
X8595001Y-16613714D02*
X8614048Y-16604190D01*
X8614048Y-16604190D02*
X8652143Y-16604190D01*
X8652143Y-16604190D02*
X8671191Y-16613714D01*
X8671191Y-16613714D02*
X8680715Y-16632762D01*
X8680715Y-16632762D02*
X8680715Y-16651809D01*
X8680715Y-16651809D02*
X8585477Y-16670857D01*
X8852143Y-16737524D02*
X8852143Y-16537524D01*
X8852143Y-16728000D02*
X8833096Y-16737524D01*
X8833096Y-16737524D02*
X8795001Y-16737524D01*
X8795001Y-16737524D02*
X8775953Y-16728000D01*
X8775953Y-16728000D02*
X8766429Y-16718476D01*
X8766429Y-16718476D02*
X8756905Y-16699428D01*
X8756905Y-16699428D02*
X8756905Y-16642286D01*
X8756905Y-16642286D02*
X8766429Y-16623238D01*
X8766429Y-16623238D02*
X8775953Y-16613714D01*
X8775953Y-16613714D02*
X8795001Y-16604190D01*
X8795001Y-16604190D02*
X8833096Y-16604190D01*
X8833096Y-16604190D02*
X8852143Y-16613714D01*
X8928334Y-16813714D02*
X8937858Y-16804190D01*
X8937858Y-16804190D02*
X8956905Y-16775619D01*
X8956905Y-16775619D02*
X8966429Y-16756571D01*
X8966429Y-16756571D02*
X8975953Y-16728000D01*
X8975953Y-16728000D02*
X8985477Y-16680381D01*
X8985477Y-16680381D02*
X8985477Y-16642286D01*
X8985477Y-16642286D02*
X8975953Y-16594667D01*
X8975953Y-16594667D02*
X8966429Y-16566095D01*
X8966429Y-16566095D02*
X8956905Y-16547048D01*
X8956905Y-16547048D02*
X8937858Y-16518476D01*
X8937858Y-16518476D02*
X8928334Y-16508952D01*
X1995000Y-16935180D02*
G75*
G03*
X1995000Y-16935180I-100000J0D01*
G01*
X2223571Y-16827704D02*
X2347381Y-16827704D01*
X2347381Y-16827704D02*
X2280714Y-16903894D01*
X2280714Y-16903894D02*
X2309286Y-16903894D01*
X2309286Y-16903894D02*
X2328333Y-16913418D01*
X2328333Y-16913418D02*
X2337857Y-16922942D01*
X2337857Y-16922942D02*
X2347381Y-16941990D01*
X2347381Y-16941990D02*
X2347381Y-16989609D01*
X2347381Y-16989609D02*
X2337857Y-17008656D01*
X2337857Y-17008656D02*
X2328333Y-17018180D01*
X2328333Y-17018180D02*
X2309286Y-17027704D01*
X2309286Y-17027704D02*
X2252143Y-17027704D01*
X2252143Y-17027704D02*
X2233095Y-17018180D01*
X2233095Y-17018180D02*
X2223571Y-17008656D01*
X2433095Y-17008656D02*
X2442619Y-17018180D01*
X2442619Y-17018180D02*
X2433095Y-17027704D01*
X2433095Y-17027704D02*
X2423571Y-17018180D01*
X2423571Y-17018180D02*
X2433095Y-17008656D01*
X2433095Y-17008656D02*
X2433095Y-17027704D01*
X2566429Y-16827704D02*
X2585476Y-16827704D01*
X2585476Y-16827704D02*
X2604524Y-16837228D01*
X2604524Y-16837228D02*
X2614048Y-16846751D01*
X2614048Y-16846751D02*
X2623571Y-16865799D01*
X2623571Y-16865799D02*
X2633095Y-16903894D01*
X2633095Y-16903894D02*
X2633095Y-16951513D01*
X2633095Y-16951513D02*
X2623571Y-16989609D01*
X2623571Y-16989609D02*
X2614048Y-17008656D01*
X2614048Y-17008656D02*
X2604524Y-17018180D01*
X2604524Y-17018180D02*
X2585476Y-17027704D01*
X2585476Y-17027704D02*
X2566429Y-17027704D01*
X2566429Y-17027704D02*
X2547381Y-17018180D01*
X2547381Y-17018180D02*
X2537857Y-17008656D01*
X2537857Y-17008656D02*
X2528333Y-16989609D01*
X2528333Y-16989609D02*
X2518810Y-16951513D01*
X2518810Y-16951513D02*
X2518810Y-16903894D01*
X2518810Y-16903894D02*
X2528333Y-16865799D01*
X2528333Y-16865799D02*
X2537857Y-16846751D01*
X2537857Y-16846751D02*
X2547381Y-16837228D01*
X2547381Y-16837228D02*
X2566429Y-16827704D01*
X2756905Y-16827704D02*
X2775952Y-16827704D01*
X2775952Y-16827704D02*
X2795000Y-16837228D01*
X2795000Y-16837228D02*
X2804524Y-16846751D01*
X2804524Y-16846751D02*
X2814048Y-16865799D01*
X2814048Y-16865799D02*
X2823571Y-16903894D01*
X2823571Y-16903894D02*
X2823571Y-16951513D01*
X2823571Y-16951513D02*
X2814048Y-16989609D01*
X2814048Y-16989609D02*
X2804524Y-17008656D01*
X2804524Y-17008656D02*
X2795000Y-17018180D01*
X2795000Y-17018180D02*
X2775952Y-17027704D01*
X2775952Y-17027704D02*
X2756905Y-17027704D01*
X2756905Y-17027704D02*
X2737857Y-17018180D01*
X2737857Y-17018180D02*
X2728333Y-17008656D01*
X2728333Y-17008656D02*
X2718810Y-16989609D01*
X2718810Y-16989609D02*
X2709286Y-16951513D01*
X2709286Y-16951513D02*
X2709286Y-16903894D01*
X2709286Y-16903894D02*
X2718810Y-16865799D01*
X2718810Y-16865799D02*
X2728333Y-16846751D01*
X2728333Y-16846751D02*
X2737857Y-16837228D01*
X2737857Y-16837228D02*
X2756905Y-16827704D01*
X2947381Y-16827704D02*
X2966429Y-16827704D01*
X2966429Y-16827704D02*
X2985476Y-16837228D01*
X2985476Y-16837228D02*
X2995000Y-16846751D01*
X2995000Y-16846751D02*
X3004524Y-16865799D01*
X3004524Y-16865799D02*
X3014048Y-16903894D01*
X3014048Y-16903894D02*
X3014048Y-16951513D01*
X3014048Y-16951513D02*
X3004524Y-16989609D01*
X3004524Y-16989609D02*
X2995000Y-17008656D01*
X2995000Y-17008656D02*
X2985476Y-17018180D01*
X2985476Y-17018180D02*
X2966429Y-17027704D01*
X2966429Y-17027704D02*
X2947381Y-17027704D01*
X2947381Y-17027704D02*
X2928333Y-17018180D01*
X2928333Y-17018180D02*
X2918809Y-17008656D01*
X2918809Y-17008656D02*
X2909286Y-16989609D01*
X2909286Y-16989609D02*
X2899762Y-16951513D01*
X2899762Y-16951513D02*
X2899762Y-16903894D01*
X2899762Y-16903894D02*
X2909286Y-16865799D01*
X2909286Y-16865799D02*
X2918809Y-16846751D01*
X2918809Y-16846751D02*
X2928333Y-16837228D01*
X2928333Y-16837228D02*
X2947381Y-16827704D01*
X3099762Y-17027704D02*
X3099762Y-16894370D01*
X3099762Y-16913418D02*
X3109286Y-16903894D01*
X3109286Y-16903894D02*
X3128333Y-16894370D01*
X3128333Y-16894370D02*
X3156905Y-16894370D01*
X3156905Y-16894370D02*
X3175952Y-16903894D01*
X3175952Y-16903894D02*
X3185476Y-16922942D01*
X3185476Y-16922942D02*
X3185476Y-17027704D01*
X3185476Y-16922942D02*
X3195000Y-16903894D01*
X3195000Y-16903894D02*
X3214048Y-16894370D01*
X3214048Y-16894370D02*
X3242619Y-16894370D01*
X3242619Y-16894370D02*
X3261667Y-16903894D01*
X3261667Y-16903894D02*
X3271190Y-16922942D01*
X3271190Y-16922942D02*
X3271190Y-17027704D01*
X3366429Y-17027704D02*
X3366429Y-16894370D01*
X3366429Y-16913418D02*
X3375952Y-16903894D01*
X3375952Y-16903894D02*
X3395000Y-16894370D01*
X3395000Y-16894370D02*
X3423571Y-16894370D01*
X3423571Y-16894370D02*
X3442619Y-16903894D01*
X3442619Y-16903894D02*
X3452143Y-16922942D01*
X3452143Y-16922942D02*
X3452143Y-17027704D01*
X3452143Y-16922942D02*
X3461667Y-16903894D01*
X3461667Y-16903894D02*
X3480714Y-16894370D01*
X3480714Y-16894370D02*
X3509286Y-16894370D01*
X3509286Y-16894370D02*
X3528333Y-16903894D01*
X3528333Y-16903894D02*
X3537857Y-16922942D01*
X3537857Y-16922942D02*
X3537857Y-17027704D01*
X3928333Y-16818180D02*
X3756905Y-17075323D01*
X4185476Y-16827704D02*
X4204524Y-16827704D01*
X4204524Y-16827704D02*
X4223572Y-16837228D01*
X4223572Y-16837228D02*
X4233095Y-16846751D01*
X4233095Y-16846751D02*
X4242619Y-16865799D01*
X4242619Y-16865799D02*
X4252143Y-16903894D01*
X4252143Y-16903894D02*
X4252143Y-16951513D01*
X4252143Y-16951513D02*
X4242619Y-16989609D01*
X4242619Y-16989609D02*
X4233095Y-17008656D01*
X4233095Y-17008656D02*
X4223572Y-17018180D01*
X4223572Y-17018180D02*
X4204524Y-17027704D01*
X4204524Y-17027704D02*
X4185476Y-17027704D01*
X4185476Y-17027704D02*
X4166429Y-17018180D01*
X4166429Y-17018180D02*
X4156905Y-17008656D01*
X4156905Y-17008656D02*
X4147381Y-16989609D01*
X4147381Y-16989609D02*
X4137857Y-16951513D01*
X4137857Y-16951513D02*
X4137857Y-16903894D01*
X4137857Y-16903894D02*
X4147381Y-16865799D01*
X4147381Y-16865799D02*
X4156905Y-16846751D01*
X4156905Y-16846751D02*
X4166429Y-16837228D01*
X4166429Y-16837228D02*
X4185476Y-16827704D01*
X4337857Y-17008656D02*
X4347381Y-17018180D01*
X4347381Y-17018180D02*
X4337857Y-17027704D01*
X4337857Y-17027704D02*
X4328334Y-17018180D01*
X4328334Y-17018180D02*
X4337857Y-17008656D01*
X4337857Y-17008656D02*
X4337857Y-17027704D01*
X4537857Y-17027704D02*
X4423572Y-17027704D01*
X4480714Y-17027704D02*
X4480714Y-16827704D01*
X4480714Y-16827704D02*
X4461667Y-16856275D01*
X4461667Y-16856275D02*
X4442619Y-16875323D01*
X4442619Y-16875323D02*
X4423572Y-16884847D01*
X4728334Y-17027704D02*
X4614048Y-17027704D01*
X4671191Y-17027704D02*
X4671191Y-16827704D01*
X4671191Y-16827704D02*
X4652143Y-16856275D01*
X4652143Y-16856275D02*
X4633095Y-16875323D01*
X4633095Y-16875323D02*
X4614048Y-16884847D01*
X4842619Y-16913418D02*
X4823572Y-16903894D01*
X4823572Y-16903894D02*
X4814048Y-16894370D01*
X4814048Y-16894370D02*
X4804524Y-16875323D01*
X4804524Y-16875323D02*
X4804524Y-16865799D01*
X4804524Y-16865799D02*
X4814048Y-16846751D01*
X4814048Y-16846751D02*
X4823572Y-16837228D01*
X4823572Y-16837228D02*
X4842619Y-16827704D01*
X4842619Y-16827704D02*
X4880715Y-16827704D01*
X4880715Y-16827704D02*
X4899762Y-16837228D01*
X4899762Y-16837228D02*
X4909286Y-16846751D01*
X4909286Y-16846751D02*
X4918810Y-16865799D01*
X4918810Y-16865799D02*
X4918810Y-16875323D01*
X4918810Y-16875323D02*
X4909286Y-16894370D01*
X4909286Y-16894370D02*
X4899762Y-16903894D01*
X4899762Y-16903894D02*
X4880715Y-16913418D01*
X4880715Y-16913418D02*
X4842619Y-16913418D01*
X4842619Y-16913418D02*
X4823572Y-16922942D01*
X4823572Y-16922942D02*
X4814048Y-16932466D01*
X4814048Y-16932466D02*
X4804524Y-16951513D01*
X4804524Y-16951513D02*
X4804524Y-16989609D01*
X4804524Y-16989609D02*
X4814048Y-17008656D01*
X4814048Y-17008656D02*
X4823572Y-17018180D01*
X4823572Y-17018180D02*
X4842619Y-17027704D01*
X4842619Y-17027704D02*
X4880715Y-17027704D01*
X4880715Y-17027704D02*
X4899762Y-17018180D01*
X4899762Y-17018180D02*
X4909286Y-17008656D01*
X4909286Y-17008656D02*
X4918810Y-16989609D01*
X4918810Y-16989609D02*
X4918810Y-16951513D01*
X4918810Y-16951513D02*
X4909286Y-16932466D01*
X4909286Y-16932466D02*
X4899762Y-16922942D01*
X4899762Y-16922942D02*
X4880715Y-16913418D01*
X5109286Y-17027704D02*
X4995000Y-17027704D01*
X5052143Y-17027704D02*
X5052143Y-16827704D01*
X5052143Y-16827704D02*
X5033095Y-16856275D01*
X5033095Y-16856275D02*
X5014048Y-16875323D01*
X5014048Y-16875323D02*
X4995000Y-16884847D01*
X5185476Y-16827704D02*
X5185476Y-16865799D01*
X5261667Y-16827704D02*
X5261667Y-16865799D01*
X5556905Y-17103894D02*
X5547381Y-17094370D01*
X5547381Y-17094370D02*
X5528334Y-17065799D01*
X5528334Y-17065799D02*
X5518810Y-17046751D01*
X5518810Y-17046751D02*
X5509286Y-17018180D01*
X5509286Y-17018180D02*
X5499762Y-16970561D01*
X5499762Y-16970561D02*
X5499762Y-16932466D01*
X5499762Y-16932466D02*
X5509286Y-16884847D01*
X5509286Y-16884847D02*
X5518810Y-16856275D01*
X5518810Y-16856275D02*
X5528334Y-16837228D01*
X5528334Y-16837228D02*
X5547381Y-16808656D01*
X5547381Y-16808656D02*
X5556905Y-16799132D01*
X5623572Y-16846751D02*
X5633095Y-16837228D01*
X5633095Y-16837228D02*
X5652143Y-16827704D01*
X5652143Y-16827704D02*
X5699762Y-16827704D01*
X5699762Y-16827704D02*
X5718810Y-16837228D01*
X5718810Y-16837228D02*
X5728334Y-16846751D01*
X5728334Y-16846751D02*
X5737857Y-16865799D01*
X5737857Y-16865799D02*
X5737857Y-16884847D01*
X5737857Y-16884847D02*
X5728334Y-16913418D01*
X5728334Y-16913418D02*
X5614048Y-17027704D01*
X5614048Y-17027704D02*
X5737857Y-17027704D01*
X5909286Y-16894370D02*
X5909286Y-17027704D01*
X5861667Y-16818180D02*
X5814048Y-16961037D01*
X5814048Y-16961037D02*
X5937857Y-16961037D01*
X6166429Y-17027704D02*
X6166429Y-16827704D01*
X6252143Y-17027704D02*
X6252143Y-16922942D01*
X6252143Y-16922942D02*
X6242619Y-16903894D01*
X6242619Y-16903894D02*
X6223572Y-16894370D01*
X6223572Y-16894370D02*
X6195000Y-16894370D01*
X6195000Y-16894370D02*
X6175953Y-16903894D01*
X6175953Y-16903894D02*
X6166429Y-16913418D01*
X6375953Y-17027704D02*
X6356905Y-17018180D01*
X6356905Y-17018180D02*
X6347381Y-17008656D01*
X6347381Y-17008656D02*
X6337857Y-16989609D01*
X6337857Y-16989609D02*
X6337857Y-16932466D01*
X6337857Y-16932466D02*
X6347381Y-16913418D01*
X6347381Y-16913418D02*
X6356905Y-16903894D01*
X6356905Y-16903894D02*
X6375953Y-16894370D01*
X6375953Y-16894370D02*
X6404524Y-16894370D01*
X6404524Y-16894370D02*
X6423572Y-16903894D01*
X6423572Y-16903894D02*
X6433096Y-16913418D01*
X6433096Y-16913418D02*
X6442619Y-16932466D01*
X6442619Y-16932466D02*
X6442619Y-16989609D01*
X6442619Y-16989609D02*
X6433096Y-17008656D01*
X6433096Y-17008656D02*
X6423572Y-17018180D01*
X6423572Y-17018180D02*
X6404524Y-17027704D01*
X6404524Y-17027704D02*
X6375953Y-17027704D01*
X6556905Y-17027704D02*
X6537857Y-17018180D01*
X6537857Y-17018180D02*
X6528334Y-16999132D01*
X6528334Y-16999132D02*
X6528334Y-16827704D01*
X6709286Y-17018180D02*
X6690238Y-17027704D01*
X6690238Y-17027704D02*
X6652143Y-17027704D01*
X6652143Y-17027704D02*
X6633096Y-17018180D01*
X6633096Y-17018180D02*
X6623572Y-16999132D01*
X6623572Y-16999132D02*
X6623572Y-16922942D01*
X6623572Y-16922942D02*
X6633096Y-16903894D01*
X6633096Y-16903894D02*
X6652143Y-16894370D01*
X6652143Y-16894370D02*
X6690238Y-16894370D01*
X6690238Y-16894370D02*
X6709286Y-16903894D01*
X6709286Y-16903894D02*
X6718810Y-16922942D01*
X6718810Y-16922942D02*
X6718810Y-16941990D01*
X6718810Y-16941990D02*
X6623572Y-16961037D01*
X6795000Y-17018180D02*
X6814048Y-17027704D01*
X6814048Y-17027704D02*
X6852143Y-17027704D01*
X6852143Y-17027704D02*
X6871191Y-17018180D01*
X6871191Y-17018180D02*
X6880715Y-16999132D01*
X6880715Y-16999132D02*
X6880715Y-16989609D01*
X6880715Y-16989609D02*
X6871191Y-16970561D01*
X6871191Y-16970561D02*
X6852143Y-16961037D01*
X6852143Y-16961037D02*
X6823572Y-16961037D01*
X6823572Y-16961037D02*
X6804524Y-16951513D01*
X6804524Y-16951513D02*
X6795000Y-16932466D01*
X6795000Y-16932466D02*
X6795000Y-16922942D01*
X6795000Y-16922942D02*
X6804524Y-16903894D01*
X6804524Y-16903894D02*
X6823572Y-16894370D01*
X6823572Y-16894370D02*
X6852143Y-16894370D01*
X6852143Y-16894370D02*
X6871191Y-16903894D01*
X6947381Y-17103894D02*
X6956905Y-17094370D01*
X6956905Y-17094370D02*
X6975953Y-17065799D01*
X6975953Y-17065799D02*
X6985477Y-17046751D01*
X6985477Y-17046751D02*
X6995000Y-17018180D01*
X6995000Y-17018180D02*
X7004524Y-16970561D01*
X7004524Y-16970561D02*
X7004524Y-16932466D01*
X7004524Y-16932466D02*
X6995000Y-16884847D01*
X6995000Y-16884847D02*
X6985477Y-16856275D01*
X6985477Y-16856275D02*
X6975953Y-16837228D01*
X6975953Y-16837228D02*
X6956905Y-16808656D01*
X6956905Y-16808656D02*
X6947381Y-16799132D01*
X7309286Y-17103894D02*
X7299762Y-17094370D01*
X7299762Y-17094370D02*
X7280715Y-17065799D01*
X7280715Y-17065799D02*
X7271191Y-17046751D01*
X7271191Y-17046751D02*
X7261667Y-17018180D01*
X7261667Y-17018180D02*
X7252143Y-16970561D01*
X7252143Y-16970561D02*
X7252143Y-16932466D01*
X7252143Y-16932466D02*
X7261667Y-16884847D01*
X7261667Y-16884847D02*
X7271191Y-16856275D01*
X7271191Y-16856275D02*
X7280715Y-16837228D01*
X7280715Y-16837228D02*
X7299762Y-16808656D01*
X7299762Y-16808656D02*
X7309286Y-16799132D01*
X7385477Y-16894370D02*
X7385477Y-17027704D01*
X7385477Y-16913418D02*
X7395000Y-16903894D01*
X7395000Y-16903894D02*
X7414048Y-16894370D01*
X7414048Y-16894370D02*
X7442619Y-16894370D01*
X7442619Y-16894370D02*
X7461667Y-16903894D01*
X7461667Y-16903894D02*
X7471191Y-16922942D01*
X7471191Y-16922942D02*
X7471191Y-17027704D01*
X7595000Y-17027704D02*
X7575953Y-17018180D01*
X7575953Y-17018180D02*
X7566429Y-17008656D01*
X7566429Y-17008656D02*
X7556905Y-16989609D01*
X7556905Y-16989609D02*
X7556905Y-16932466D01*
X7556905Y-16932466D02*
X7566429Y-16913418D01*
X7566429Y-16913418D02*
X7575953Y-16903894D01*
X7575953Y-16903894D02*
X7595000Y-16894370D01*
X7595000Y-16894370D02*
X7623572Y-16894370D01*
X7623572Y-16894370D02*
X7642619Y-16903894D01*
X7642619Y-16903894D02*
X7652143Y-16913418D01*
X7652143Y-16913418D02*
X7661667Y-16932466D01*
X7661667Y-16932466D02*
X7661667Y-16989609D01*
X7661667Y-16989609D02*
X7652143Y-17008656D01*
X7652143Y-17008656D02*
X7642619Y-17018180D01*
X7642619Y-17018180D02*
X7623572Y-17027704D01*
X7623572Y-17027704D02*
X7595000Y-17027704D01*
X7718810Y-16894370D02*
X7795000Y-16894370D01*
X7747381Y-16827704D02*
X7747381Y-16999132D01*
X7747381Y-16999132D02*
X7756905Y-17018180D01*
X7756905Y-17018180D02*
X7775953Y-17027704D01*
X7775953Y-17027704D02*
X7795000Y-17027704D01*
X8014048Y-16894370D02*
X8014048Y-17094370D01*
X8014048Y-16903894D02*
X8033096Y-16894370D01*
X8033096Y-16894370D02*
X8071191Y-16894370D01*
X8071191Y-16894370D02*
X8090239Y-16903894D01*
X8090239Y-16903894D02*
X8099762Y-16913418D01*
X8099762Y-16913418D02*
X8109286Y-16932466D01*
X8109286Y-16932466D02*
X8109286Y-16989609D01*
X8109286Y-16989609D02*
X8099762Y-17008656D01*
X8099762Y-17008656D02*
X8090239Y-17018180D01*
X8090239Y-17018180D02*
X8071191Y-17027704D01*
X8071191Y-17027704D02*
X8033096Y-17027704D01*
X8033096Y-17027704D02*
X8014048Y-17018180D01*
X8223572Y-17027704D02*
X8204524Y-17018180D01*
X8204524Y-17018180D02*
X8195000Y-16999132D01*
X8195000Y-16999132D02*
X8195000Y-16827704D01*
X8385477Y-17027704D02*
X8385477Y-16922942D01*
X8385477Y-16922942D02*
X8375953Y-16903894D01*
X8375953Y-16903894D02*
X8356905Y-16894370D01*
X8356905Y-16894370D02*
X8318810Y-16894370D01*
X8318810Y-16894370D02*
X8299762Y-16903894D01*
X8385477Y-17018180D02*
X8366429Y-17027704D01*
X8366429Y-17027704D02*
X8318810Y-17027704D01*
X8318810Y-17027704D02*
X8299762Y-17018180D01*
X8299762Y-17018180D02*
X8290239Y-16999132D01*
X8290239Y-16999132D02*
X8290239Y-16980085D01*
X8290239Y-16980085D02*
X8299762Y-16961037D01*
X8299762Y-16961037D02*
X8318810Y-16951513D01*
X8318810Y-16951513D02*
X8366429Y-16951513D01*
X8366429Y-16951513D02*
X8385477Y-16941990D01*
X8452143Y-16894370D02*
X8528334Y-16894370D01*
X8480715Y-16827704D02*
X8480715Y-16999132D01*
X8480715Y-16999132D02*
X8490239Y-17018180D01*
X8490239Y-17018180D02*
X8509286Y-17027704D01*
X8509286Y-17027704D02*
X8528334Y-17027704D01*
X8671191Y-17018180D02*
X8652143Y-17027704D01*
X8652143Y-17027704D02*
X8614048Y-17027704D01*
X8614048Y-17027704D02*
X8595001Y-17018180D01*
X8595001Y-17018180D02*
X8585477Y-16999132D01*
X8585477Y-16999132D02*
X8585477Y-16922942D01*
X8585477Y-16922942D02*
X8595001Y-16903894D01*
X8595001Y-16903894D02*
X8614048Y-16894370D01*
X8614048Y-16894370D02*
X8652143Y-16894370D01*
X8652143Y-16894370D02*
X8671191Y-16903894D01*
X8671191Y-16903894D02*
X8680715Y-16922942D01*
X8680715Y-16922942D02*
X8680715Y-16941990D01*
X8680715Y-16941990D02*
X8585477Y-16961037D01*
X8852143Y-17027704D02*
X8852143Y-16827704D01*
X8852143Y-17018180D02*
X8833096Y-17027704D01*
X8833096Y-17027704D02*
X8795001Y-17027704D01*
X8795001Y-17027704D02*
X8775953Y-17018180D01*
X8775953Y-17018180D02*
X8766429Y-17008656D01*
X8766429Y-17008656D02*
X8756905Y-16989609D01*
X8756905Y-16989609D02*
X8756905Y-16932466D01*
X8756905Y-16932466D02*
X8766429Y-16913418D01*
X8766429Y-16913418D02*
X8775953Y-16903894D01*
X8775953Y-16903894D02*
X8795001Y-16894370D01*
X8795001Y-16894370D02*
X8833096Y-16894370D01*
X8833096Y-16894370D02*
X8852143Y-16903894D01*
X8928334Y-17103894D02*
X8937858Y-17094370D01*
X8937858Y-17094370D02*
X8956905Y-17065799D01*
X8956905Y-17065799D02*
X8966429Y-17046751D01*
X8966429Y-17046751D02*
X8975953Y-17018180D01*
X8975953Y-17018180D02*
X8985477Y-16970561D01*
X8985477Y-16970561D02*
X8985477Y-16932466D01*
X8985477Y-16932466D02*
X8975953Y-16884847D01*
X8975953Y-16884847D02*
X8966429Y-16856275D01*
X8966429Y-16856275D02*
X8956905Y-16837228D01*
X8956905Y-16837228D02*
X8937858Y-16808656D01*
X8937858Y-16808656D02*
X8928334Y-16799132D01*
X1895000Y-17155180D02*
X1895000Y-17355180D01*
X1795000Y-17255180D02*
X1995000Y-17255180D01*
X2223571Y-17147704D02*
X2347381Y-17147704D01*
X2347381Y-17147704D02*
X2280714Y-17223894D01*
X2280714Y-17223894D02*
X2309286Y-17223894D01*
X2309286Y-17223894D02*
X2328333Y-17233418D01*
X2328333Y-17233418D02*
X2337857Y-17242942D01*
X2337857Y-17242942D02*
X2347381Y-17261990D01*
X2347381Y-17261990D02*
X2347381Y-17309609D01*
X2347381Y-17309609D02*
X2337857Y-17328656D01*
X2337857Y-17328656D02*
X2328333Y-17338180D01*
X2328333Y-17338180D02*
X2309286Y-17347704D01*
X2309286Y-17347704D02*
X2252143Y-17347704D01*
X2252143Y-17347704D02*
X2233095Y-17338180D01*
X2233095Y-17338180D02*
X2223571Y-17328656D01*
X2433095Y-17328656D02*
X2442619Y-17338180D01*
X2442619Y-17338180D02*
X2433095Y-17347704D01*
X2433095Y-17347704D02*
X2423571Y-17338180D01*
X2423571Y-17338180D02*
X2433095Y-17328656D01*
X2433095Y-17328656D02*
X2433095Y-17347704D01*
X2537857Y-17347704D02*
X2575952Y-17347704D01*
X2575952Y-17347704D02*
X2595000Y-17338180D01*
X2595000Y-17338180D02*
X2604524Y-17328656D01*
X2604524Y-17328656D02*
X2623571Y-17300085D01*
X2623571Y-17300085D02*
X2633095Y-17261990D01*
X2633095Y-17261990D02*
X2633095Y-17185799D01*
X2633095Y-17185799D02*
X2623571Y-17166751D01*
X2623571Y-17166751D02*
X2614048Y-17157228D01*
X2614048Y-17157228D02*
X2595000Y-17147704D01*
X2595000Y-17147704D02*
X2556905Y-17147704D01*
X2556905Y-17147704D02*
X2537857Y-17157228D01*
X2537857Y-17157228D02*
X2528333Y-17166751D01*
X2528333Y-17166751D02*
X2518810Y-17185799D01*
X2518810Y-17185799D02*
X2518810Y-17233418D01*
X2518810Y-17233418D02*
X2528333Y-17252466D01*
X2528333Y-17252466D02*
X2537857Y-17261990D01*
X2537857Y-17261990D02*
X2556905Y-17271513D01*
X2556905Y-17271513D02*
X2595000Y-17271513D01*
X2595000Y-17271513D02*
X2614048Y-17261990D01*
X2614048Y-17261990D02*
X2623571Y-17252466D01*
X2623571Y-17252466D02*
X2633095Y-17233418D01*
X2747381Y-17233418D02*
X2728333Y-17223894D01*
X2728333Y-17223894D02*
X2718810Y-17214370D01*
X2718810Y-17214370D02*
X2709286Y-17195323D01*
X2709286Y-17195323D02*
X2709286Y-17185799D01*
X2709286Y-17185799D02*
X2718810Y-17166751D01*
X2718810Y-17166751D02*
X2728333Y-17157228D01*
X2728333Y-17157228D02*
X2747381Y-17147704D01*
X2747381Y-17147704D02*
X2785476Y-17147704D01*
X2785476Y-17147704D02*
X2804524Y-17157228D01*
X2804524Y-17157228D02*
X2814048Y-17166751D01*
X2814048Y-17166751D02*
X2823571Y-17185799D01*
X2823571Y-17185799D02*
X2823571Y-17195323D01*
X2823571Y-17195323D02*
X2814048Y-17214370D01*
X2814048Y-17214370D02*
X2804524Y-17223894D01*
X2804524Y-17223894D02*
X2785476Y-17233418D01*
X2785476Y-17233418D02*
X2747381Y-17233418D01*
X2747381Y-17233418D02*
X2728333Y-17242942D01*
X2728333Y-17242942D02*
X2718810Y-17252466D01*
X2718810Y-17252466D02*
X2709286Y-17271513D01*
X2709286Y-17271513D02*
X2709286Y-17309609D01*
X2709286Y-17309609D02*
X2718810Y-17328656D01*
X2718810Y-17328656D02*
X2728333Y-17338180D01*
X2728333Y-17338180D02*
X2747381Y-17347704D01*
X2747381Y-17347704D02*
X2785476Y-17347704D01*
X2785476Y-17347704D02*
X2804524Y-17338180D01*
X2804524Y-17338180D02*
X2814048Y-17328656D01*
X2814048Y-17328656D02*
X2823571Y-17309609D01*
X2823571Y-17309609D02*
X2823571Y-17271513D01*
X2823571Y-17271513D02*
X2814048Y-17252466D01*
X2814048Y-17252466D02*
X2804524Y-17242942D01*
X2804524Y-17242942D02*
X2785476Y-17233418D01*
X2937857Y-17233418D02*
X2918809Y-17223894D01*
X2918809Y-17223894D02*
X2909286Y-17214370D01*
X2909286Y-17214370D02*
X2899762Y-17195323D01*
X2899762Y-17195323D02*
X2899762Y-17185799D01*
X2899762Y-17185799D02*
X2909286Y-17166751D01*
X2909286Y-17166751D02*
X2918809Y-17157228D01*
X2918809Y-17157228D02*
X2937857Y-17147704D01*
X2937857Y-17147704D02*
X2975952Y-17147704D01*
X2975952Y-17147704D02*
X2995000Y-17157228D01*
X2995000Y-17157228D02*
X3004524Y-17166751D01*
X3004524Y-17166751D02*
X3014048Y-17185799D01*
X3014048Y-17185799D02*
X3014048Y-17195323D01*
X3014048Y-17195323D02*
X3004524Y-17214370D01*
X3004524Y-17214370D02*
X2995000Y-17223894D01*
X2995000Y-17223894D02*
X2975952Y-17233418D01*
X2975952Y-17233418D02*
X2937857Y-17233418D01*
X2937857Y-17233418D02*
X2918809Y-17242942D01*
X2918809Y-17242942D02*
X2909286Y-17252466D01*
X2909286Y-17252466D02*
X2899762Y-17271513D01*
X2899762Y-17271513D02*
X2899762Y-17309609D01*
X2899762Y-17309609D02*
X2909286Y-17328656D01*
X2909286Y-17328656D02*
X2918809Y-17338180D01*
X2918809Y-17338180D02*
X2937857Y-17347704D01*
X2937857Y-17347704D02*
X2975952Y-17347704D01*
X2975952Y-17347704D02*
X2995000Y-17338180D01*
X2995000Y-17338180D02*
X3004524Y-17328656D01*
X3004524Y-17328656D02*
X3014048Y-17309609D01*
X3014048Y-17309609D02*
X3014048Y-17271513D01*
X3014048Y-17271513D02*
X3004524Y-17252466D01*
X3004524Y-17252466D02*
X2995000Y-17242942D01*
X2995000Y-17242942D02*
X2975952Y-17233418D01*
X3099762Y-17347704D02*
X3099762Y-17214370D01*
X3099762Y-17233418D02*
X3109286Y-17223894D01*
X3109286Y-17223894D02*
X3128333Y-17214370D01*
X3128333Y-17214370D02*
X3156905Y-17214370D01*
X3156905Y-17214370D02*
X3175952Y-17223894D01*
X3175952Y-17223894D02*
X3185476Y-17242942D01*
X3185476Y-17242942D02*
X3185476Y-17347704D01*
X3185476Y-17242942D02*
X3195000Y-17223894D01*
X3195000Y-17223894D02*
X3214048Y-17214370D01*
X3214048Y-17214370D02*
X3242619Y-17214370D01*
X3242619Y-17214370D02*
X3261667Y-17223894D01*
X3261667Y-17223894D02*
X3271190Y-17242942D01*
X3271190Y-17242942D02*
X3271190Y-17347704D01*
X3366429Y-17347704D02*
X3366429Y-17214370D01*
X3366429Y-17233418D02*
X3375952Y-17223894D01*
X3375952Y-17223894D02*
X3395000Y-17214370D01*
X3395000Y-17214370D02*
X3423571Y-17214370D01*
X3423571Y-17214370D02*
X3442619Y-17223894D01*
X3442619Y-17223894D02*
X3452143Y-17242942D01*
X3452143Y-17242942D02*
X3452143Y-17347704D01*
X3452143Y-17242942D02*
X3461667Y-17223894D01*
X3461667Y-17223894D02*
X3480714Y-17214370D01*
X3480714Y-17214370D02*
X3509286Y-17214370D01*
X3509286Y-17214370D02*
X3528333Y-17223894D01*
X3528333Y-17223894D02*
X3537857Y-17242942D01*
X3537857Y-17242942D02*
X3537857Y-17347704D01*
X3928333Y-17138180D02*
X3756905Y-17395323D01*
X4185476Y-17147704D02*
X4204524Y-17147704D01*
X4204524Y-17147704D02*
X4223572Y-17157228D01*
X4223572Y-17157228D02*
X4233095Y-17166751D01*
X4233095Y-17166751D02*
X4242619Y-17185799D01*
X4242619Y-17185799D02*
X4252143Y-17223894D01*
X4252143Y-17223894D02*
X4252143Y-17271513D01*
X4252143Y-17271513D02*
X4242619Y-17309609D01*
X4242619Y-17309609D02*
X4233095Y-17328656D01*
X4233095Y-17328656D02*
X4223572Y-17338180D01*
X4223572Y-17338180D02*
X4204524Y-17347704D01*
X4204524Y-17347704D02*
X4185476Y-17347704D01*
X4185476Y-17347704D02*
X4166429Y-17338180D01*
X4166429Y-17338180D02*
X4156905Y-17328656D01*
X4156905Y-17328656D02*
X4147381Y-17309609D01*
X4147381Y-17309609D02*
X4137857Y-17271513D01*
X4137857Y-17271513D02*
X4137857Y-17223894D01*
X4137857Y-17223894D02*
X4147381Y-17185799D01*
X4147381Y-17185799D02*
X4156905Y-17166751D01*
X4156905Y-17166751D02*
X4166429Y-17157228D01*
X4166429Y-17157228D02*
X4185476Y-17147704D01*
X4337857Y-17328656D02*
X4347381Y-17338180D01*
X4347381Y-17338180D02*
X4337857Y-17347704D01*
X4337857Y-17347704D02*
X4328334Y-17338180D01*
X4328334Y-17338180D02*
X4337857Y-17328656D01*
X4337857Y-17328656D02*
X4337857Y-17347704D01*
X4537857Y-17347704D02*
X4423572Y-17347704D01*
X4480714Y-17347704D02*
X4480714Y-17147704D01*
X4480714Y-17147704D02*
X4461667Y-17176275D01*
X4461667Y-17176275D02*
X4442619Y-17195323D01*
X4442619Y-17195323D02*
X4423572Y-17204847D01*
X4718810Y-17147704D02*
X4623572Y-17147704D01*
X4623572Y-17147704D02*
X4614048Y-17242942D01*
X4614048Y-17242942D02*
X4623572Y-17233418D01*
X4623572Y-17233418D02*
X4642619Y-17223894D01*
X4642619Y-17223894D02*
X4690238Y-17223894D01*
X4690238Y-17223894D02*
X4709286Y-17233418D01*
X4709286Y-17233418D02*
X4718810Y-17242942D01*
X4718810Y-17242942D02*
X4728334Y-17261990D01*
X4728334Y-17261990D02*
X4728334Y-17309609D01*
X4728334Y-17309609D02*
X4718810Y-17328656D01*
X4718810Y-17328656D02*
X4709286Y-17338180D01*
X4709286Y-17338180D02*
X4690238Y-17347704D01*
X4690238Y-17347704D02*
X4642619Y-17347704D01*
X4642619Y-17347704D02*
X4623572Y-17338180D01*
X4623572Y-17338180D02*
X4614048Y-17328656D01*
X4795000Y-17147704D02*
X4928334Y-17147704D01*
X4928334Y-17147704D02*
X4842619Y-17347704D01*
X5042619Y-17147704D02*
X5061667Y-17147704D01*
X5061667Y-17147704D02*
X5080715Y-17157228D01*
X5080715Y-17157228D02*
X5090238Y-17166751D01*
X5090238Y-17166751D02*
X5099762Y-17185799D01*
X5099762Y-17185799D02*
X5109286Y-17223894D01*
X5109286Y-17223894D02*
X5109286Y-17271513D01*
X5109286Y-17271513D02*
X5099762Y-17309609D01*
X5099762Y-17309609D02*
X5090238Y-17328656D01*
X5090238Y-17328656D02*
X5080715Y-17338180D01*
X5080715Y-17338180D02*
X5061667Y-17347704D01*
X5061667Y-17347704D02*
X5042619Y-17347704D01*
X5042619Y-17347704D02*
X5023572Y-17338180D01*
X5023572Y-17338180D02*
X5014048Y-17328656D01*
X5014048Y-17328656D02*
X5004524Y-17309609D01*
X5004524Y-17309609D02*
X4995000Y-17271513D01*
X4995000Y-17271513D02*
X4995000Y-17223894D01*
X4995000Y-17223894D02*
X5004524Y-17185799D01*
X5004524Y-17185799D02*
X5014048Y-17166751D01*
X5014048Y-17166751D02*
X5023572Y-17157228D01*
X5023572Y-17157228D02*
X5042619Y-17147704D01*
X5185476Y-17147704D02*
X5185476Y-17185799D01*
X5261667Y-17147704D02*
X5261667Y-17185799D01*
X5556905Y-17423894D02*
X5547381Y-17414370D01*
X5547381Y-17414370D02*
X5528334Y-17385799D01*
X5528334Y-17385799D02*
X5518810Y-17366751D01*
X5518810Y-17366751D02*
X5509286Y-17338180D01*
X5509286Y-17338180D02*
X5499762Y-17290561D01*
X5499762Y-17290561D02*
X5499762Y-17252466D01*
X5499762Y-17252466D02*
X5509286Y-17204847D01*
X5509286Y-17204847D02*
X5518810Y-17176275D01*
X5518810Y-17176275D02*
X5528334Y-17157228D01*
X5528334Y-17157228D02*
X5547381Y-17128656D01*
X5547381Y-17128656D02*
X5556905Y-17119132D01*
X5737857Y-17347704D02*
X5623572Y-17347704D01*
X5680714Y-17347704D02*
X5680714Y-17147704D01*
X5680714Y-17147704D02*
X5661667Y-17176275D01*
X5661667Y-17176275D02*
X5642619Y-17195323D01*
X5642619Y-17195323D02*
X5623572Y-17204847D01*
X5814048Y-17166751D02*
X5823572Y-17157228D01*
X5823572Y-17157228D02*
X5842619Y-17147704D01*
X5842619Y-17147704D02*
X5890238Y-17147704D01*
X5890238Y-17147704D02*
X5909286Y-17157228D01*
X5909286Y-17157228D02*
X5918810Y-17166751D01*
X5918810Y-17166751D02*
X5928334Y-17185799D01*
X5928334Y-17185799D02*
X5928334Y-17204847D01*
X5928334Y-17204847D02*
X5918810Y-17233418D01*
X5918810Y-17233418D02*
X5804524Y-17347704D01*
X5804524Y-17347704D02*
X5928334Y-17347704D01*
X6166429Y-17347704D02*
X6166429Y-17147704D01*
X6252143Y-17347704D02*
X6252143Y-17242942D01*
X6252143Y-17242942D02*
X6242619Y-17223894D01*
X6242619Y-17223894D02*
X6223572Y-17214370D01*
X6223572Y-17214370D02*
X6195000Y-17214370D01*
X6195000Y-17214370D02*
X6175953Y-17223894D01*
X6175953Y-17223894D02*
X6166429Y-17233418D01*
X6375953Y-17347704D02*
X6356905Y-17338180D01*
X6356905Y-17338180D02*
X6347381Y-17328656D01*
X6347381Y-17328656D02*
X6337857Y-17309609D01*
X6337857Y-17309609D02*
X6337857Y-17252466D01*
X6337857Y-17252466D02*
X6347381Y-17233418D01*
X6347381Y-17233418D02*
X6356905Y-17223894D01*
X6356905Y-17223894D02*
X6375953Y-17214370D01*
X6375953Y-17214370D02*
X6404524Y-17214370D01*
X6404524Y-17214370D02*
X6423572Y-17223894D01*
X6423572Y-17223894D02*
X6433096Y-17233418D01*
X6433096Y-17233418D02*
X6442619Y-17252466D01*
X6442619Y-17252466D02*
X6442619Y-17309609D01*
X6442619Y-17309609D02*
X6433096Y-17328656D01*
X6433096Y-17328656D02*
X6423572Y-17338180D01*
X6423572Y-17338180D02*
X6404524Y-17347704D01*
X6404524Y-17347704D02*
X6375953Y-17347704D01*
X6556905Y-17347704D02*
X6537857Y-17338180D01*
X6537857Y-17338180D02*
X6528334Y-17319132D01*
X6528334Y-17319132D02*
X6528334Y-17147704D01*
X6709286Y-17338180D02*
X6690238Y-17347704D01*
X6690238Y-17347704D02*
X6652143Y-17347704D01*
X6652143Y-17347704D02*
X6633096Y-17338180D01*
X6633096Y-17338180D02*
X6623572Y-17319132D01*
X6623572Y-17319132D02*
X6623572Y-17242942D01*
X6623572Y-17242942D02*
X6633096Y-17223894D01*
X6633096Y-17223894D02*
X6652143Y-17214370D01*
X6652143Y-17214370D02*
X6690238Y-17214370D01*
X6690238Y-17214370D02*
X6709286Y-17223894D01*
X6709286Y-17223894D02*
X6718810Y-17242942D01*
X6718810Y-17242942D02*
X6718810Y-17261990D01*
X6718810Y-17261990D02*
X6623572Y-17281037D01*
X6795000Y-17338180D02*
X6814048Y-17347704D01*
X6814048Y-17347704D02*
X6852143Y-17347704D01*
X6852143Y-17347704D02*
X6871191Y-17338180D01*
X6871191Y-17338180D02*
X6880715Y-17319132D01*
X6880715Y-17319132D02*
X6880715Y-17309609D01*
X6880715Y-17309609D02*
X6871191Y-17290561D01*
X6871191Y-17290561D02*
X6852143Y-17281037D01*
X6852143Y-17281037D02*
X6823572Y-17281037D01*
X6823572Y-17281037D02*
X6804524Y-17271513D01*
X6804524Y-17271513D02*
X6795000Y-17252466D01*
X6795000Y-17252466D02*
X6795000Y-17242942D01*
X6795000Y-17242942D02*
X6804524Y-17223894D01*
X6804524Y-17223894D02*
X6823572Y-17214370D01*
X6823572Y-17214370D02*
X6852143Y-17214370D01*
X6852143Y-17214370D02*
X6871191Y-17223894D01*
X6947381Y-17423894D02*
X6956905Y-17414370D01*
X6956905Y-17414370D02*
X6975953Y-17385799D01*
X6975953Y-17385799D02*
X6985477Y-17366751D01*
X6985477Y-17366751D02*
X6995000Y-17338180D01*
X6995000Y-17338180D02*
X7004524Y-17290561D01*
X7004524Y-17290561D02*
X7004524Y-17252466D01*
X7004524Y-17252466D02*
X6995000Y-17204847D01*
X6995000Y-17204847D02*
X6985477Y-17176275D01*
X6985477Y-17176275D02*
X6975953Y-17157228D01*
X6975953Y-17157228D02*
X6956905Y-17128656D01*
X6956905Y-17128656D02*
X6947381Y-17119132D01*
X7309286Y-17423894D02*
X7299762Y-17414370D01*
X7299762Y-17414370D02*
X7280715Y-17385799D01*
X7280715Y-17385799D02*
X7271191Y-17366751D01*
X7271191Y-17366751D02*
X7261667Y-17338180D01*
X7261667Y-17338180D02*
X7252143Y-17290561D01*
X7252143Y-17290561D02*
X7252143Y-17252466D01*
X7252143Y-17252466D02*
X7261667Y-17204847D01*
X7261667Y-17204847D02*
X7271191Y-17176275D01*
X7271191Y-17176275D02*
X7280715Y-17157228D01*
X7280715Y-17157228D02*
X7299762Y-17128656D01*
X7299762Y-17128656D02*
X7309286Y-17119132D01*
X7385477Y-17214370D02*
X7385477Y-17347704D01*
X7385477Y-17233418D02*
X7395000Y-17223894D01*
X7395000Y-17223894D02*
X7414048Y-17214370D01*
X7414048Y-17214370D02*
X7442619Y-17214370D01*
X7442619Y-17214370D02*
X7461667Y-17223894D01*
X7461667Y-17223894D02*
X7471191Y-17242942D01*
X7471191Y-17242942D02*
X7471191Y-17347704D01*
X7595000Y-17347704D02*
X7575953Y-17338180D01*
X7575953Y-17338180D02*
X7566429Y-17328656D01*
X7566429Y-17328656D02*
X7556905Y-17309609D01*
X7556905Y-17309609D02*
X7556905Y-17252466D01*
X7556905Y-17252466D02*
X7566429Y-17233418D01*
X7566429Y-17233418D02*
X7575953Y-17223894D01*
X7575953Y-17223894D02*
X7595000Y-17214370D01*
X7595000Y-17214370D02*
X7623572Y-17214370D01*
X7623572Y-17214370D02*
X7642619Y-17223894D01*
X7642619Y-17223894D02*
X7652143Y-17233418D01*
X7652143Y-17233418D02*
X7661667Y-17252466D01*
X7661667Y-17252466D02*
X7661667Y-17309609D01*
X7661667Y-17309609D02*
X7652143Y-17328656D01*
X7652143Y-17328656D02*
X7642619Y-17338180D01*
X7642619Y-17338180D02*
X7623572Y-17347704D01*
X7623572Y-17347704D02*
X7595000Y-17347704D01*
X7718810Y-17214370D02*
X7795000Y-17214370D01*
X7747381Y-17147704D02*
X7747381Y-17319132D01*
X7747381Y-17319132D02*
X7756905Y-17338180D01*
X7756905Y-17338180D02*
X7775953Y-17347704D01*
X7775953Y-17347704D02*
X7795000Y-17347704D01*
X8014048Y-17214370D02*
X8014048Y-17414370D01*
X8014048Y-17223894D02*
X8033096Y-17214370D01*
X8033096Y-17214370D02*
X8071191Y-17214370D01*
X8071191Y-17214370D02*
X8090239Y-17223894D01*
X8090239Y-17223894D02*
X8099762Y-17233418D01*
X8099762Y-17233418D02*
X8109286Y-17252466D01*
X8109286Y-17252466D02*
X8109286Y-17309609D01*
X8109286Y-17309609D02*
X8099762Y-17328656D01*
X8099762Y-17328656D02*
X8090239Y-17338180D01*
X8090239Y-17338180D02*
X8071191Y-17347704D01*
X8071191Y-17347704D02*
X8033096Y-17347704D01*
X8033096Y-17347704D02*
X8014048Y-17338180D01*
X8223572Y-17347704D02*
X8204524Y-17338180D01*
X8204524Y-17338180D02*
X8195000Y-17319132D01*
X8195000Y-17319132D02*
X8195000Y-17147704D01*
X8385477Y-17347704D02*
X8385477Y-17242942D01*
X8385477Y-17242942D02*
X8375953Y-17223894D01*
X8375953Y-17223894D02*
X8356905Y-17214370D01*
X8356905Y-17214370D02*
X8318810Y-17214370D01*
X8318810Y-17214370D02*
X8299762Y-17223894D01*
X8385477Y-17338180D02*
X8366429Y-17347704D01*
X8366429Y-17347704D02*
X8318810Y-17347704D01*
X8318810Y-17347704D02*
X8299762Y-17338180D01*
X8299762Y-17338180D02*
X8290239Y-17319132D01*
X8290239Y-17319132D02*
X8290239Y-17300085D01*
X8290239Y-17300085D02*
X8299762Y-17281037D01*
X8299762Y-17281037D02*
X8318810Y-17271513D01*
X8318810Y-17271513D02*
X8366429Y-17271513D01*
X8366429Y-17271513D02*
X8385477Y-17261990D01*
X8452143Y-17214370D02*
X8528334Y-17214370D01*
X8480715Y-17147704D02*
X8480715Y-17319132D01*
X8480715Y-17319132D02*
X8490239Y-17338180D01*
X8490239Y-17338180D02*
X8509286Y-17347704D01*
X8509286Y-17347704D02*
X8528334Y-17347704D01*
X8671191Y-17338180D02*
X8652143Y-17347704D01*
X8652143Y-17347704D02*
X8614048Y-17347704D01*
X8614048Y-17347704D02*
X8595001Y-17338180D01*
X8595001Y-17338180D02*
X8585477Y-17319132D01*
X8585477Y-17319132D02*
X8585477Y-17242942D01*
X8585477Y-17242942D02*
X8595001Y-17223894D01*
X8595001Y-17223894D02*
X8614048Y-17214370D01*
X8614048Y-17214370D02*
X8652143Y-17214370D01*
X8652143Y-17214370D02*
X8671191Y-17223894D01*
X8671191Y-17223894D02*
X8680715Y-17242942D01*
X8680715Y-17242942D02*
X8680715Y-17261990D01*
X8680715Y-17261990D02*
X8585477Y-17281037D01*
X8852143Y-17347704D02*
X8852143Y-17147704D01*
X8852143Y-17338180D02*
X8833096Y-17347704D01*
X8833096Y-17347704D02*
X8795001Y-17347704D01*
X8795001Y-17347704D02*
X8775953Y-17338180D01*
X8775953Y-17338180D02*
X8766429Y-17328656D01*
X8766429Y-17328656D02*
X8756905Y-17309609D01*
X8756905Y-17309609D02*
X8756905Y-17252466D01*
X8756905Y-17252466D02*
X8766429Y-17233418D01*
X8766429Y-17233418D02*
X8775953Y-17223894D01*
X8775953Y-17223894D02*
X8795001Y-17214370D01*
X8795001Y-17214370D02*
X8833096Y-17214370D01*
X8833096Y-17214370D02*
X8852143Y-17223894D01*
X8928334Y-17423894D02*
X8937858Y-17414370D01*
X8937858Y-17414370D02*
X8956905Y-17385799D01*
X8956905Y-17385799D02*
X8966429Y-17366751D01*
X8966429Y-17366751D02*
X8975953Y-17338180D01*
X8975953Y-17338180D02*
X8985477Y-17290561D01*
X8985477Y-17290561D02*
X8985477Y-17252466D01*
X8985477Y-17252466D02*
X8975953Y-17204847D01*
X8975953Y-17204847D02*
X8966429Y-17176275D01*
X8966429Y-17176275D02*
X8956905Y-17157228D01*
X8956905Y-17157228D02*
X8937858Y-17128656D01*
X8937858Y-17128656D02*
X8928334Y-17119132D01*
M02*
