M48
; DRILL file {KiCad 7.0.2} date Tue Sep  5 17:50:12 2023
; FORMAT={-:-/ absolute / inch / decimal}
; #@! TF.CreationDate,2023-09-05T17:50:12-07:00
; #@! TF.GenerationSoftware,Kicad,Pcbnew,7.0.2
; #@! TF.FileFunction,NonPlated,1,2,NPTH
FMAT,2
INCH
; #@! TA.AperFunction,NonPlated,NPTH,ComponentDrill
T1C0.0670
; #@! TA.AperFunction,NonPlated,NPTH,ComponentDrill
T2C0.1181
; #@! TA.AperFunction,NonPlated,NPTH,ComponentDrill
T3C0.1570
%
G90
G05
T1
X1.5126Y-2.4016
X1.9126Y-2.4016
X2.6543Y-2.4016
X3.0543Y-2.4016
X3.6386Y-2.9528
X4.0386Y-2.9528
X4.2291Y-5.0394
X4.6291Y-5.0394
X5.0953Y-2.5197
X5.0953Y-3.6614
X5.4953Y-2.5197
X5.4953Y-3.6614
X6.0795Y-1.9685
X6.0795Y-3.1102
X6.4795Y-1.9685
X6.4795Y-3.1102
X7.2213Y-1.9685
X7.2213Y-3.1102
X7.6213Y-1.9685
X7.6213Y-3.1102
X8.3236Y-2.2441
X8.3236Y-3.3858
X8.7236Y-2.2441
X8.7236Y-3.3858
T2
X1.6126Y-2.6016
X1.8626Y-2.5016
X2.7543Y-2.6016
X3.0043Y-2.5016
X3.7386Y-3.1528
X3.9886Y-3.0528
X4.3291Y-5.2394
X4.5791Y-5.1394
X5.1953Y-2.7197
X5.1953Y-3.8614
X5.4453Y-2.6197
X5.4453Y-3.7614
X6.1795Y-2.1685
X6.1795Y-3.3102
X6.4295Y-2.0685
X6.4295Y-3.2102
X7.3213Y-2.1685
X7.3213Y-3.3102
X7.5713Y-2.0685
X7.5713Y-3.2102
X8.4236Y-2.4441
X8.4236Y-3.5858
X8.6736Y-2.3441
X8.6736Y-3.4858
T3
X1.7126Y-2.4016
X2.8543Y-2.4016
X3.8386Y-2.9528
X4.4291Y-5.0394
X5.2953Y-2.5197
X5.2953Y-3.6614
X6.2795Y-1.9685
X6.2795Y-3.1102
X7.4213Y-1.9685
X7.4213Y-3.1102
X8.5236Y-2.2441
X8.5236Y-3.3858
T0
M30
