%TF.GenerationSoftware,KiCad,Pcbnew,7.0.2*%
%TF.CreationDate,2023-09-05T17:50:18-07:00*%
%TF.ProjectId,takupcb-r2,74616b75-7063-4622-9d72-322e6b696361,rev?*%
%TF.SameCoordinates,Original*%
%TF.FileFunction,Legend,Bot*%
%TF.FilePolarity,Positive*%
%FSLAX46Y46*%
G04 Gerber Fmt 4.6, Leading zero omitted, Abs format (unit mm)*
G04 Created by KiCad (PCBNEW 7.0.2) date 2023-09-05 17:50:18*
%MOMM*%
%LPD*%
G01*
G04 APERTURE LIST*
%ADD10C,0.150000*%
%ADD11C,0.300000*%
G04 APERTURE END LIST*
D10*
%TO.C,\u2193*%
X76309999Y-68955714D02*
X76309999Y-69717619D01*
X76119523Y-69527142D02*
X76309999Y-69717619D01*
X76309999Y-69717619D02*
X76500475Y-69527142D01*
%TO.C,O*%
X163405237Y-86717619D02*
X163214761Y-86717619D01*
X163214761Y-86717619D02*
X163119523Y-86765238D01*
X163119523Y-86765238D02*
X163024285Y-86860476D01*
X163024285Y-86860476D02*
X162976666Y-87050952D01*
X162976666Y-87050952D02*
X162976666Y-87384285D01*
X162976666Y-87384285D02*
X163024285Y-87574761D01*
X163024285Y-87574761D02*
X163119523Y-87670000D01*
X163119523Y-87670000D02*
X163214761Y-87717619D01*
X163214761Y-87717619D02*
X163405237Y-87717619D01*
X163405237Y-87717619D02*
X163500475Y-87670000D01*
X163500475Y-87670000D02*
X163595713Y-87574761D01*
X163595713Y-87574761D02*
X163643332Y-87384285D01*
X163643332Y-87384285D02*
X163643332Y-87050952D01*
X163643332Y-87050952D02*
X163595713Y-86860476D01*
X163595713Y-86860476D02*
X163500475Y-86765238D01*
X163500475Y-86765238D02*
X163405237Y-86717619D01*
%TO.C,\u25A1*%
X138690951Y-71955714D02*
X137929047Y-71955714D01*
X137929047Y-71955714D02*
X137929047Y-72717619D01*
X137929047Y-72717619D02*
X138690951Y-72717619D01*
X138690951Y-72717619D02*
X138690951Y-71955714D01*
%TO.C,X*%
X138643332Y-100717619D02*
X137976666Y-101717619D01*
X137976666Y-100717619D02*
X138643332Y-101717619D01*
%TO.C,\u2190*%
X46929047Y-69336666D02*
X47690951Y-69336666D01*
X47500475Y-69527142D02*
X47690951Y-69336666D01*
X47690951Y-69336666D02*
X47500475Y-69146190D01*
%TO.C,L2*%
X192476666Y-87717619D02*
X192952856Y-87717619D01*
X192952856Y-87717619D02*
X192952856Y-86717619D01*
X192190951Y-86812857D02*
X192143332Y-86765238D01*
X192143332Y-86765238D02*
X192048094Y-86717619D01*
X192048094Y-86717619D02*
X191809999Y-86717619D01*
X191809999Y-86717619D02*
X191714761Y-86765238D01*
X191714761Y-86765238D02*
X191667142Y-86812857D01*
X191667142Y-86812857D02*
X191619523Y-86908095D01*
X191619523Y-86908095D02*
X191619523Y-87003333D01*
X191619523Y-87003333D02*
X191667142Y-87146190D01*
X191667142Y-87146190D02*
X192238570Y-87717619D01*
X192238570Y-87717619D02*
X191619523Y-87717619D01*
%TO.C,\u2191*%
X116309999Y-136717619D02*
X116309999Y-135955714D01*
X116500475Y-136146190D02*
X116309999Y-135955714D01*
X116309999Y-135955714D02*
X116119523Y-136146190D01*
%TO.C,\u2192*%
X101690951Y-83336666D02*
X100929047Y-83336666D01*
X101119523Y-83527142D02*
X100929047Y-83336666D01*
X100929047Y-83336666D02*
X101119523Y-83146190D01*
%TO.C,R1*%
X220626666Y-66002619D02*
X220959999Y-65526428D01*
X221198094Y-66002619D02*
X221198094Y-65002619D01*
X221198094Y-65002619D02*
X220817142Y-65002619D01*
X220817142Y-65002619D02*
X220721904Y-65050238D01*
X220721904Y-65050238D02*
X220674285Y-65097857D01*
X220674285Y-65097857D02*
X220626666Y-65193095D01*
X220626666Y-65193095D02*
X220626666Y-65335952D01*
X220626666Y-65335952D02*
X220674285Y-65431190D01*
X220674285Y-65431190D02*
X220721904Y-65478809D01*
X220721904Y-65478809D02*
X220817142Y-65526428D01*
X220817142Y-65526428D02*
X221198094Y-65526428D01*
X219674285Y-66002619D02*
X220245713Y-66002619D01*
X219959999Y-66002619D02*
X219959999Y-65002619D01*
X219959999Y-65002619D02*
X220055237Y-65145476D01*
X220055237Y-65145476D02*
X220150475Y-65240714D01*
X220150475Y-65240714D02*
X220245713Y-65288333D01*
%TO.C,L1*%
X192476666Y-58717619D02*
X192952856Y-58717619D01*
X192952856Y-58717619D02*
X192952856Y-57717619D01*
X191619523Y-58717619D02*
X192190951Y-58717619D01*
X191905237Y-58717619D02*
X191905237Y-57717619D01*
X191905237Y-57717619D02*
X192000475Y-57860476D01*
X192000475Y-57860476D02*
X192095713Y-57955714D01*
X192095713Y-57955714D02*
X192190951Y-58003333D01*
%TO.C,\u25B3*%
X163309999Y-57955714D02*
X162881427Y-58717619D01*
X162881427Y-58717619D02*
X163738570Y-58717619D01*
X163738570Y-58717619D02*
X163309999Y-57955714D01*
%TO.C,R2*%
X220476666Y-94717619D02*
X220809999Y-94241428D01*
X221048094Y-94717619D02*
X221048094Y-93717619D01*
X221048094Y-93717619D02*
X220667142Y-93717619D01*
X220667142Y-93717619D02*
X220571904Y-93765238D01*
X220571904Y-93765238D02*
X220524285Y-93812857D01*
X220524285Y-93812857D02*
X220476666Y-93908095D01*
X220476666Y-93908095D02*
X220476666Y-94050952D01*
X220476666Y-94050952D02*
X220524285Y-94146190D01*
X220524285Y-94146190D02*
X220571904Y-94193809D01*
X220571904Y-94193809D02*
X220667142Y-94241428D01*
X220667142Y-94241428D02*
X221048094Y-94241428D01*
X220095713Y-93812857D02*
X220048094Y-93765238D01*
X220048094Y-93765238D02*
X219952856Y-93717619D01*
X219952856Y-93717619D02*
X219714761Y-93717619D01*
X219714761Y-93717619D02*
X219619523Y-93765238D01*
X219619523Y-93765238D02*
X219571904Y-93812857D01*
X219571904Y-93812857D02*
X219524285Y-93908095D01*
X219524285Y-93908095D02*
X219524285Y-94003333D01*
X219524285Y-94003333D02*
X219571904Y-94146190D01*
X219571904Y-94146190D02*
X220143332Y-94717619D01*
X220143332Y-94717619D02*
X219524285Y-94717619D01*
D11*
%TO.C,G\u002A\u002A\u002A*%
X220321427Y-149265357D02*
X220464285Y-149193928D01*
X220464285Y-149193928D02*
X220678570Y-149193928D01*
X220678570Y-149193928D02*
X220892856Y-149265357D01*
X220892856Y-149265357D02*
X221035713Y-149408214D01*
X221035713Y-149408214D02*
X221107142Y-149551071D01*
X221107142Y-149551071D02*
X221178570Y-149836785D01*
X221178570Y-149836785D02*
X221178570Y-150051071D01*
X221178570Y-150051071D02*
X221107142Y-150336785D01*
X221107142Y-150336785D02*
X221035713Y-150479642D01*
X221035713Y-150479642D02*
X220892856Y-150622500D01*
X220892856Y-150622500D02*
X220678570Y-150693928D01*
X220678570Y-150693928D02*
X220535713Y-150693928D01*
X220535713Y-150693928D02*
X220321427Y-150622500D01*
X220321427Y-150622500D02*
X220249999Y-150551071D01*
X220249999Y-150551071D02*
X220249999Y-150051071D01*
X220249999Y-150051071D02*
X220535713Y-150051071D01*
X219392856Y-149193928D02*
X219392856Y-149551071D01*
X219749999Y-149408214D02*
X219392856Y-149551071D01*
X219392856Y-149551071D02*
X219035713Y-149408214D01*
X219607142Y-149836785D02*
X219392856Y-149551071D01*
X219392856Y-149551071D02*
X219178570Y-149836785D01*
X218249999Y-149193928D02*
X218249999Y-149551071D01*
X218607142Y-149408214D02*
X218249999Y-149551071D01*
X218249999Y-149551071D02*
X217892856Y-149408214D01*
X218464285Y-149836785D02*
X218249999Y-149551071D01*
X218249999Y-149551071D02*
X218035713Y-149836785D01*
X217107142Y-149193928D02*
X217107142Y-149551071D01*
X217464285Y-149408214D02*
X217107142Y-149551071D01*
X217107142Y-149551071D02*
X216749999Y-149408214D01*
X217321428Y-149836785D02*
X217107142Y-149551071D01*
X217107142Y-149551071D02*
X216892856Y-149836785D01*
D10*
%TO.C,\u2193*%
X67420000Y-63540000D02*
X67420000Y-64556000D01*
X67420000Y-67604000D02*
X67420000Y-67985000D01*
X67420000Y-67985000D02*
X76310000Y-67985000D01*
X72500000Y-63540000D02*
X67420000Y-63540000D01*
X76691000Y-61635000D02*
X75040000Y-61635000D01*
X78850000Y-61635000D02*
X78469000Y-61635000D01*
X78850000Y-62016000D02*
X78850000Y-61635000D01*
X78850000Y-65445000D02*
X78850000Y-65064000D01*
X72500000Y-63539999D02*
G75*
G03*
X74964161Y-61616040I0J2539999D01*
G01*
X76310000Y-67985000D02*
G75*
G03*
X78850000Y-65445000I0J2540000D01*
G01*
%TO.C,O*%
X163310000Y-85985000D02*
G75*
G03*
X165850000Y-83445000I0J2540000D01*
G01*
X159500000Y-81539999D02*
G75*
G03*
X161964161Y-79616040I0J2539999D01*
G01*
X165850000Y-83445000D02*
X165850000Y-83064000D01*
X165850000Y-80016000D02*
X165850000Y-79635000D01*
X165850000Y-79635000D02*
X165469000Y-79635000D01*
X163691000Y-79635000D02*
X162040000Y-79635000D01*
X159500000Y-81540000D02*
X154420000Y-81540000D01*
X154420000Y-85985000D02*
X163310000Y-85985000D01*
X154420000Y-85604000D02*
X154420000Y-85985000D01*
X154420000Y-81540000D02*
X154420000Y-82556000D01*
%TO.C,\u25A1*%
X129420000Y-66540000D02*
X129420000Y-67556000D01*
X129420000Y-70604000D02*
X129420000Y-70985000D01*
X129420000Y-70985000D02*
X138310000Y-70985000D01*
X134500000Y-66540000D02*
X129420000Y-66540000D01*
X138691000Y-64635000D02*
X137040000Y-64635000D01*
X140850000Y-64635000D02*
X140469000Y-64635000D01*
X140850000Y-65016000D02*
X140850000Y-64635000D01*
X140850000Y-68445000D02*
X140850000Y-68064000D01*
X134500000Y-66539999D02*
G75*
G03*
X136964161Y-64616040I0J2539999D01*
G01*
X138310000Y-70985000D02*
G75*
G03*
X140850000Y-68445000I0J2540000D01*
G01*
%TO.C,X*%
X129420000Y-95540000D02*
X129420000Y-96556000D01*
X129420000Y-99604000D02*
X129420000Y-99985000D01*
X129420000Y-99985000D02*
X138310000Y-99985000D01*
X134500000Y-95540000D02*
X129420000Y-95540000D01*
X138691000Y-93635000D02*
X137040000Y-93635000D01*
X140850000Y-93635000D02*
X140469000Y-93635000D01*
X140850000Y-94016000D02*
X140850000Y-93635000D01*
X140850000Y-97445000D02*
X140850000Y-97064000D01*
X134500000Y-95539999D02*
G75*
G03*
X136964161Y-93616040I0J2539999D01*
G01*
X138310000Y-99985000D02*
G75*
G03*
X140850000Y-97445000I0J2540000D01*
G01*
%TO.C,\u2190*%
X38420000Y-63540000D02*
X38420000Y-64556000D01*
X38420000Y-67604000D02*
X38420000Y-67985000D01*
X38420000Y-67985000D02*
X47310000Y-67985000D01*
X43500000Y-63540000D02*
X38420000Y-63540000D01*
X47691000Y-61635000D02*
X46040000Y-61635000D01*
X49850000Y-61635000D02*
X49469000Y-61635000D01*
X49850000Y-62016000D02*
X49850000Y-61635000D01*
X49850000Y-65445000D02*
X49850000Y-65064000D01*
X43500000Y-63539999D02*
G75*
G03*
X45964161Y-61616040I0J2539999D01*
G01*
X47310000Y-67985000D02*
G75*
G03*
X49850000Y-65445000I0J2540000D01*
G01*
%TO.C,L2*%
X183420000Y-81540000D02*
X183420000Y-82556000D01*
X183420000Y-85604000D02*
X183420000Y-85985000D01*
X183420000Y-85985000D02*
X192310000Y-85985000D01*
X188500000Y-81540000D02*
X183420000Y-81540000D01*
X192691000Y-79635000D02*
X191040000Y-79635000D01*
X194850000Y-79635000D02*
X194469000Y-79635000D01*
X194850000Y-80016000D02*
X194850000Y-79635000D01*
X194850000Y-83445000D02*
X194850000Y-83064000D01*
X188500000Y-81539999D02*
G75*
G03*
X190964161Y-79616040I0J2539999D01*
G01*
X192310000Y-85985000D02*
G75*
G03*
X194850000Y-83445000I0J2540000D01*
G01*
%TO.C,\u2191*%
X107420000Y-130540000D02*
X107420000Y-131556000D01*
X107420000Y-134604000D02*
X107420000Y-134985000D01*
X107420000Y-134985000D02*
X116310000Y-134985000D01*
X112500000Y-130540000D02*
X107420000Y-130540000D01*
X116691000Y-128635000D02*
X115040000Y-128635000D01*
X118850000Y-128635000D02*
X118469000Y-128635000D01*
X118850000Y-129016000D02*
X118850000Y-128635000D01*
X118850000Y-132445000D02*
X118850000Y-132064000D01*
X112500000Y-130539999D02*
G75*
G03*
X114964161Y-128616040I0J2539999D01*
G01*
X116310000Y-134985000D02*
G75*
G03*
X118850000Y-132445000I0J2540000D01*
G01*
%TO.C,\u2192*%
X92420000Y-77540000D02*
X92420000Y-78556000D01*
X92420000Y-81604000D02*
X92420000Y-81985000D01*
X92420000Y-81985000D02*
X101310000Y-81985000D01*
X97500000Y-77540000D02*
X92420000Y-77540000D01*
X101691000Y-75635000D02*
X100040000Y-75635000D01*
X103850000Y-75635000D02*
X103469000Y-75635000D01*
X103850000Y-76016000D02*
X103850000Y-75635000D01*
X103850000Y-79445000D02*
X103850000Y-79064000D01*
X97500000Y-77539999D02*
G75*
G03*
X99964161Y-75616040I0J2539999D01*
G01*
X101310000Y-81985000D02*
G75*
G03*
X103850000Y-79445000I0J2540000D01*
G01*
%TO.C,R1*%
X211420000Y-59540000D02*
X211420000Y-60556000D01*
X211420000Y-63604000D02*
X211420000Y-63985000D01*
X211420000Y-63985000D02*
X220310000Y-63985000D01*
X216500000Y-59540000D02*
X211420000Y-59540000D01*
X220691000Y-57635000D02*
X219040000Y-57635000D01*
X222850000Y-57635000D02*
X222469000Y-57635000D01*
X222850000Y-58016000D02*
X222850000Y-57635000D01*
X222850000Y-61445000D02*
X222850000Y-61064000D01*
X216500000Y-59539999D02*
G75*
G03*
X218964161Y-57616040I0J2539999D01*
G01*
X220310000Y-63985000D02*
G75*
G03*
X222850000Y-61445000I0J2540000D01*
G01*
%TO.C,L1*%
X183420000Y-52540000D02*
X183420000Y-53556000D01*
X183420000Y-56604000D02*
X183420000Y-56985000D01*
X183420000Y-56985000D02*
X192310000Y-56985000D01*
X188500000Y-52540000D02*
X183420000Y-52540000D01*
X192691000Y-50635000D02*
X191040000Y-50635000D01*
X194850000Y-50635000D02*
X194469000Y-50635000D01*
X194850000Y-51016000D02*
X194850000Y-50635000D01*
X194850000Y-54445000D02*
X194850000Y-54064000D01*
X188500000Y-52539999D02*
G75*
G03*
X190964161Y-50616040I0J2539999D01*
G01*
X192310000Y-56985000D02*
G75*
G03*
X194850000Y-54445000I0J2540000D01*
G01*
%TO.C,\u25B3*%
X154420000Y-52540000D02*
X154420000Y-53556000D01*
X154420000Y-56604000D02*
X154420000Y-56985000D01*
X154420000Y-56985000D02*
X163310000Y-56985000D01*
X159500000Y-52540000D02*
X154420000Y-52540000D01*
X163691000Y-50635000D02*
X162040000Y-50635000D01*
X165850000Y-50635000D02*
X165469000Y-50635000D01*
X165850000Y-51016000D02*
X165850000Y-50635000D01*
X165850000Y-54445000D02*
X165850000Y-54064000D01*
X159500000Y-52539999D02*
G75*
G03*
X161964161Y-50616040I0J2539999D01*
G01*
X163310000Y-56985000D02*
G75*
G03*
X165850000Y-54445000I0J2540000D01*
G01*
%TO.C,R2*%
X220310000Y-92985000D02*
G75*
G03*
X222850000Y-90445000I0J2540000D01*
G01*
X216500000Y-88539999D02*
G75*
G03*
X218964161Y-86616040I0J2539999D01*
G01*
X222850000Y-90445000D02*
X222850000Y-90064000D01*
X222850000Y-87016000D02*
X222850000Y-86635000D01*
X222850000Y-86635000D02*
X222469000Y-86635000D01*
X220691000Y-86635000D02*
X219040000Y-86635000D01*
X216500000Y-88540000D02*
X211420000Y-88540000D01*
X211420000Y-92985000D02*
X220310000Y-92985000D01*
X211420000Y-92604000D02*
X211420000Y-92985000D01*
X211420000Y-88540000D02*
X211420000Y-89556000D01*
%TO.C,G\u002A\u002A\u002A*%
G36*
X220155811Y-151278537D02*
G01*
X220167625Y-151281612D01*
X220175983Y-151287158D01*
X220183970Y-151296727D01*
X220188543Y-151308478D01*
X220190593Y-151317176D01*
X220198075Y-151330949D01*
X220206422Y-151349487D01*
X220203760Y-151370832D01*
X220188830Y-151392182D01*
X220184739Y-151396075D01*
X220171179Y-151406553D01*
X220161346Y-151410758D01*
X220148955Y-151408795D01*
X220127540Y-151402533D01*
X220102348Y-151393477D01*
X220077382Y-151383186D01*
X220056646Y-151373218D01*
X220044142Y-151365131D01*
X220040151Y-151360823D01*
X220030729Y-151340257D01*
X220031165Y-151317001D01*
X220041619Y-151295488D01*
X220044463Y-151292188D01*
X220052332Y-151285905D01*
X220063589Y-151282017D01*
X220081341Y-151279725D01*
X220108696Y-151278230D01*
X220109677Y-151278190D01*
X220137506Y-151277531D01*
X220155811Y-151278537D01*
G37*
G36*
X222058203Y-151845718D02*
G01*
X222071720Y-151853993D01*
X222087110Y-151871050D01*
X222093896Y-151890166D01*
X222091321Y-151908465D01*
X222078623Y-151923071D01*
X222074207Y-151925812D01*
X222060729Y-151930258D01*
X222046138Y-151926207D01*
X222044720Y-151925573D01*
X222033887Y-151922302D01*
X222024830Y-151924309D01*
X222015858Y-151933195D01*
X222005277Y-151950564D01*
X221991394Y-151978016D01*
X221985522Y-151990072D01*
X221972343Y-152017160D01*
X221956066Y-152050637D01*
X221938217Y-152087370D01*
X221920317Y-152124224D01*
X221910646Y-152144050D01*
X221894237Y-152176775D01*
X221880598Y-152201845D01*
X221868020Y-152221860D01*
X221854795Y-152239419D01*
X221839216Y-152257123D01*
X221819574Y-152277572D01*
X221805356Y-152291857D01*
X221781899Y-152313666D01*
X221760424Y-152330221D01*
X221736858Y-152344487D01*
X221707130Y-152359427D01*
X221703672Y-152361068D01*
X221667032Y-152377513D01*
X221635077Y-152389342D01*
X221604337Y-152397258D01*
X221571343Y-152401966D01*
X221532624Y-152404170D01*
X221484713Y-152404574D01*
X221456300Y-152404113D01*
X221405032Y-152401424D01*
X221353680Y-152396029D01*
X221300312Y-152387549D01*
X221242990Y-152375606D01*
X221179780Y-152359822D01*
X221108747Y-152339817D01*
X221027954Y-152315214D01*
X221012454Y-152310371D01*
X220971729Y-152297820D01*
X220936180Y-152287266D01*
X220903284Y-152278075D01*
X220870520Y-152269614D01*
X220835368Y-152261249D01*
X220795306Y-152252347D01*
X220747813Y-152242274D01*
X220690367Y-152230398D01*
X220686425Y-152229588D01*
X220620667Y-152215846D01*
X220564958Y-152203655D01*
X220516950Y-152192418D01*
X220474300Y-152181538D01*
X220434661Y-152170419D01*
X220395689Y-152158463D01*
X220355039Y-152145074D01*
X220340645Y-152140348D01*
X220300519Y-152129193D01*
X220260215Y-152121622D01*
X220213491Y-152116369D01*
X220137195Y-152109744D01*
X220059311Y-152165367D01*
X220052444Y-152170241D01*
X220019800Y-152192722D01*
X219986901Y-152214419D01*
X219957235Y-152233068D01*
X219934291Y-152246409D01*
X219933405Y-152246889D01*
X219899216Y-152268648D01*
X219859592Y-152299761D01*
X219813742Y-152340849D01*
X219790797Y-152361855D01*
X219735545Y-152408249D01*
X219679989Y-152449464D01*
X219626613Y-152483725D01*
X219577904Y-152509256D01*
X219551130Y-152519797D01*
X219509069Y-152532681D01*
X219463444Y-152543448D01*
X219419414Y-152550748D01*
X219416788Y-152551046D01*
X219389582Y-152552496D01*
X219353548Y-152552440D01*
X219312033Y-152551065D01*
X219268381Y-152548558D01*
X219225939Y-152545107D01*
X219188051Y-152540899D01*
X219158064Y-152536121D01*
X219138012Y-152531990D01*
X219112535Y-152526293D01*
X219087430Y-152519988D01*
X219061170Y-152512575D01*
X219032228Y-152503555D01*
X218999076Y-152492428D01*
X218960187Y-152478692D01*
X218914036Y-152461848D01*
X218859093Y-152441397D01*
X218793833Y-152416837D01*
X218784077Y-152413153D01*
X218722015Y-152389720D01*
X218653940Y-152364018D01*
X218583432Y-152337397D01*
X218514072Y-152311210D01*
X218449441Y-152286809D01*
X218393119Y-152265546D01*
X218371299Y-152257301D01*
X218308115Y-152233299D01*
X218254831Y-152212793D01*
X218209887Y-152195129D01*
X218171725Y-152179651D01*
X218138786Y-152165705D01*
X218109512Y-152152635D01*
X218082345Y-152139787D01*
X218055725Y-152126505D01*
X218028095Y-152112135D01*
X218021632Y-152108707D01*
X217981274Y-152086243D01*
X217951214Y-152066984D01*
X217930116Y-152049647D01*
X217916641Y-152032950D01*
X217909450Y-152015611D01*
X217907205Y-151996349D01*
X217907271Y-151993726D01*
X217913917Y-151972048D01*
X217928964Y-151952112D01*
X217948898Y-151937514D01*
X217970208Y-151931848D01*
X217989534Y-151934338D01*
X218018443Y-151947994D01*
X218043648Y-151972643D01*
X218054588Y-151984194D01*
X218079116Y-152003436D01*
X218112506Y-152025049D01*
X218152905Y-152047998D01*
X218198461Y-152071249D01*
X218247319Y-152093766D01*
X218297627Y-152114513D01*
X218355140Y-152136460D01*
X218427715Y-152163403D01*
X218503985Y-152191011D01*
X218582534Y-152218811D01*
X218661945Y-152246336D01*
X218740803Y-152273113D01*
X218817690Y-152298675D01*
X218891190Y-152322549D01*
X218959889Y-152344267D01*
X219022368Y-152363358D01*
X219077213Y-152379353D01*
X219123006Y-152391781D01*
X219158332Y-152400172D01*
X219179577Y-152404484D01*
X219215449Y-152410666D01*
X219248602Y-152414390D01*
X219284165Y-152416149D01*
X219327270Y-152416437D01*
X219382579Y-152414511D01*
X219436045Y-152408339D01*
X219485065Y-152397053D01*
X219531592Y-152379767D01*
X219577577Y-152355597D01*
X219624973Y-152323656D01*
X219675731Y-152283060D01*
X219731804Y-152232921D01*
X219750780Y-152215801D01*
X219799840Y-152176558D01*
X219845376Y-152147588D01*
X219851752Y-152144090D01*
X219883991Y-152125491D01*
X219918640Y-152104369D01*
X219949223Y-152084649D01*
X219955824Y-152080218D01*
X219987061Y-152059233D01*
X220019982Y-152037097D01*
X220048466Y-152017924D01*
X220096058Y-151985864D01*
X220146965Y-151986356D01*
X220160920Y-151986576D01*
X220224632Y-151990166D01*
X220285807Y-151998491D01*
X220348833Y-152012295D01*
X220418099Y-152032323D01*
X220443593Y-152040291D01*
X220469515Y-152048077D01*
X220495420Y-152055421D01*
X220522867Y-152062698D01*
X220553415Y-152070283D01*
X220588620Y-152078551D01*
X220630042Y-152087878D01*
X220679239Y-152098637D01*
X220737769Y-152111204D01*
X220807190Y-152125954D01*
X220823014Y-152129416D01*
X220871679Y-152141035D01*
X220924895Y-152154862D01*
X220977230Y-152169455D01*
X221023252Y-152183369D01*
X221041934Y-152189303D01*
X221122363Y-152214115D01*
X221193117Y-152234513D01*
X221255904Y-152250850D01*
X221312432Y-152263478D01*
X221364411Y-152272751D01*
X221413548Y-152279021D01*
X221461552Y-152282642D01*
X221510132Y-152283967D01*
X221518999Y-152284016D01*
X221553251Y-152284004D01*
X221578385Y-152283314D01*
X221597350Y-152281556D01*
X221613100Y-152278343D01*
X221628586Y-152273286D01*
X221646760Y-152265997D01*
X221651322Y-152264065D01*
X221673934Y-152253034D01*
X221694313Y-152239705D01*
X221715886Y-152221566D01*
X221742081Y-152196104D01*
X221762624Y-152174656D01*
X221781652Y-152152340D01*
X221798248Y-152129047D01*
X221814916Y-152101218D01*
X221834159Y-152065297D01*
X221835347Y-152063010D01*
X221870511Y-151998206D01*
X221902614Y-151945110D01*
X221932144Y-151903246D01*
X221959586Y-151872137D01*
X221985426Y-151851306D01*
X222010152Y-151840277D01*
X222034249Y-151838573D01*
X222058203Y-151845718D01*
G37*
G36*
X219165406Y-150923616D02*
G01*
X219148084Y-150962799D01*
X219119461Y-151001065D01*
X219092453Y-151026321D01*
X219055751Y-151050271D01*
X219010828Y-151069977D01*
X218955516Y-151086569D01*
X218936169Y-151091616D01*
X218904434Y-151100236D01*
X218866359Y-151110828D01*
X218861186Y-151112293D01*
X218825131Y-151122503D01*
X218783938Y-151134374D01*
X218754446Y-151142870D01*
X218680983Y-151163091D01*
X218615896Y-151179396D01*
X218556667Y-151192350D01*
X218500782Y-151202520D01*
X218445724Y-151210471D01*
X218439989Y-151211205D01*
X218402047Y-151216303D01*
X218357550Y-151222591D01*
X218311576Y-151229342D01*
X218269202Y-151235824D01*
X218251175Y-151238655D01*
X218216926Y-151244033D01*
X218187116Y-151248714D01*
X218164452Y-151252272D01*
X218151638Y-151254284D01*
X218149871Y-151254504D01*
X218134661Y-151255261D01*
X218108945Y-151255659D01*
X218074521Y-151255730D01*
X218033188Y-151255505D01*
X217986743Y-151255016D01*
X217936987Y-151254296D01*
X217885717Y-151253374D01*
X217834731Y-151252284D01*
X217785828Y-151251056D01*
X217740807Y-151249723D01*
X217701467Y-151248315D01*
X217669604Y-151246866D01*
X217647020Y-151245405D01*
X217627409Y-151243511D01*
X217551036Y-151230947D01*
X217481991Y-151211001D01*
X217421285Y-151184098D01*
X217369930Y-151150666D01*
X217328934Y-151111130D01*
X217315431Y-151094538D01*
X217282883Y-151049442D01*
X217254865Y-151001456D01*
X217228415Y-150945707D01*
X217216919Y-150916156D01*
X217207021Y-150875761D01*
X217337184Y-150875761D01*
X217366268Y-150927469D01*
X217392208Y-150969879D01*
X217415992Y-151003579D01*
X217439098Y-151030051D01*
X217463003Y-151050772D01*
X217489186Y-151067225D01*
X217519122Y-151080888D01*
X217554290Y-151093242D01*
X217563356Y-151096005D01*
X217578466Y-151099873D01*
X217595152Y-151102954D01*
X217615272Y-151105415D01*
X217640679Y-151107424D01*
X217673228Y-151109147D01*
X217714775Y-151110751D01*
X217767175Y-151112403D01*
X217797612Y-151113271D01*
X217850614Y-151114645D01*
X217903499Y-151115862D01*
X217953121Y-151116857D01*
X217996333Y-151117564D01*
X218029989Y-151117916D01*
X218062641Y-151117999D01*
X218089556Y-151117680D01*
X218107051Y-151116746D01*
X218116880Y-151115012D01*
X218120796Y-151112293D01*
X218120552Y-151108407D01*
X218120389Y-151107978D01*
X218112161Y-151081691D01*
X218103535Y-151046138D01*
X218095181Y-151004644D01*
X218087771Y-150960536D01*
X218081975Y-150917142D01*
X218081524Y-150913128D01*
X218078020Y-150879132D01*
X218074324Y-150839130D01*
X218070639Y-150795789D01*
X218067169Y-150751773D01*
X218064116Y-150709748D01*
X218061684Y-150672377D01*
X218060075Y-150642327D01*
X218059494Y-150622261D01*
X218059325Y-150615314D01*
X218056751Y-150607391D01*
X218048335Y-150604257D01*
X218030647Y-150603702D01*
X218161970Y-150603702D01*
X218164845Y-150624355D01*
X218165165Y-150626676D01*
X218167219Y-150641684D01*
X218170664Y-150666969D01*
X218175260Y-150700770D01*
X218180770Y-150741325D01*
X218186952Y-150786872D01*
X218193569Y-150835651D01*
X218195377Y-150848870D01*
X218202369Y-150897983D01*
X218209338Y-150944065D01*
X218215968Y-150985199D01*
X218221941Y-151019470D01*
X218226941Y-151044965D01*
X218230651Y-151059767D01*
X218236318Y-151076148D01*
X218242484Y-151091360D01*
X218246946Y-151097553D01*
X218250750Y-151096643D01*
X218251277Y-151096405D01*
X218260752Y-151094513D01*
X218280477Y-151091430D01*
X218308526Y-151087435D01*
X218342973Y-151082803D01*
X218381893Y-151077811D01*
X218425637Y-151072142D01*
X218475313Y-151064988D01*
X218520283Y-151057412D01*
X218563910Y-151048731D01*
X218609560Y-151038263D01*
X218660598Y-151025327D01*
X218720390Y-151009242D01*
X218721973Y-151008808D01*
X218763975Y-150997349D01*
X218810248Y-150984796D01*
X218855286Y-150972639D01*
X218893579Y-150962369D01*
X218932240Y-150951536D01*
X218972365Y-150938520D01*
X219001604Y-150926409D01*
X219020929Y-150914789D01*
X219031312Y-150903239D01*
X219032825Y-150897977D01*
X219030665Y-150890223D01*
X219022914Y-150879293D01*
X219008275Y-150863423D01*
X218985452Y-150840850D01*
X218965709Y-150822126D01*
X218922771Y-150785139D01*
X218882257Y-150756609D01*
X218841216Y-150734863D01*
X218796697Y-150718226D01*
X218745747Y-150705028D01*
X218721713Y-150699070D01*
X218685480Y-150688571D01*
X218646782Y-150676086D01*
X218610743Y-150663200D01*
X218579850Y-150652182D01*
X218545837Y-150641480D01*
X218515321Y-150633251D01*
X218492422Y-150628696D01*
X218476561Y-150626611D01*
X218446324Y-150622610D01*
X218411618Y-150617995D01*
X218377233Y-150613401D01*
X218358181Y-150611115D01*
X218315579Y-150607273D01*
X218271546Y-150604630D01*
X218233061Y-150603658D01*
X218161970Y-150603702D01*
X218030647Y-150603702D01*
X218007309Y-150604480D01*
X217964333Y-150608230D01*
X217913108Y-150614688D01*
X217856002Y-150623412D01*
X217795384Y-150633960D01*
X217733622Y-150645889D01*
X217673086Y-150658757D01*
X217616144Y-150672122D01*
X217565164Y-150685541D01*
X217522516Y-150698573D01*
X217511636Y-150702286D01*
X217476076Y-150715562D01*
X217451044Y-150727440D01*
X217435026Y-150738937D01*
X217426511Y-150751073D01*
X217423985Y-150764864D01*
X217420907Y-150779695D01*
X217408792Y-150802505D01*
X217389478Y-150826387D01*
X217365103Y-150848312D01*
X217351645Y-150859231D01*
X217340529Y-150869938D01*
X217337184Y-150875761D01*
X217207021Y-150875761D01*
X217206148Y-150872200D01*
X217205971Y-150835186D01*
X217216368Y-150805160D01*
X217237318Y-150782168D01*
X217268802Y-150766255D01*
X217310799Y-150757466D01*
X217350938Y-150753039D01*
X217354158Y-150716908D01*
X217360002Y-150688119D01*
X217375640Y-150657762D01*
X217401476Y-150631036D01*
X217438328Y-150607130D01*
X217487016Y-150585233D01*
X217509228Y-150577657D01*
X217542014Y-150567881D01*
X217582562Y-150556673D01*
X217628502Y-150544627D01*
X217677464Y-150532336D01*
X217727079Y-150520396D01*
X217774977Y-150509401D01*
X217818788Y-150499946D01*
X217856142Y-150492625D01*
X217871503Y-150490232D01*
X217906900Y-150486264D01*
X217951089Y-150482647D01*
X218001687Y-150479463D01*
X218056309Y-150476793D01*
X218112572Y-150474720D01*
X218168092Y-150473326D01*
X218220484Y-150472692D01*
X218267366Y-150472900D01*
X218306352Y-150474033D01*
X218335059Y-150476171D01*
X218360992Y-150479193D01*
X218400416Y-150483750D01*
X218442394Y-150488569D01*
X218481326Y-150493007D01*
X218507102Y-150496133D01*
X218541168Y-150501451D01*
X218570789Y-150508248D01*
X218601046Y-150517770D01*
X218637018Y-150531268D01*
X218663162Y-150540919D01*
X218701871Y-150553615D01*
X218739685Y-150564479D01*
X218771228Y-150571883D01*
X218781441Y-150573916D01*
X218844654Y-150590083D01*
X218900934Y-150611884D01*
X218954491Y-150641229D01*
X219009532Y-150680026D01*
X219018948Y-150687482D01*
X219046981Y-150711416D01*
X219075961Y-150738277D01*
X219103729Y-150765873D01*
X219128127Y-150792009D01*
X219146997Y-150814492D01*
X219158182Y-150831129D01*
X219165031Y-150847403D01*
X219171148Y-150884742D01*
X219169193Y-150897977D01*
X219165406Y-150923616D01*
G37*
G36*
X223279477Y-150591746D02*
G01*
X223276976Y-150621953D01*
X223272626Y-150634203D01*
X223254323Y-150660809D01*
X223226763Y-150681229D01*
X223191791Y-150694332D01*
X223151251Y-150698988D01*
X223124243Y-150699024D01*
X223124243Y-150731051D01*
X223121769Y-150758140D01*
X223111193Y-150787759D01*
X223091268Y-150814172D01*
X223060884Y-150838766D01*
X223027677Y-150857893D01*
X223018935Y-150862928D01*
X223008300Y-150868094D01*
X222986564Y-150877334D01*
X222960787Y-150886560D01*
X222929284Y-150896276D01*
X222890372Y-150906987D01*
X222842368Y-150919196D01*
X222783587Y-150933407D01*
X222768104Y-150937076D01*
X222707679Y-150951109D01*
X222656595Y-150962319D01*
X222612463Y-150971075D01*
X222572896Y-150977751D01*
X222535505Y-150982715D01*
X222497903Y-150986340D01*
X222457700Y-150988997D01*
X222412509Y-150991056D01*
X222392852Y-150991808D01*
X222327385Y-150994088D01*
X222271974Y-150995541D01*
X222224547Y-150996133D01*
X222183033Y-150995831D01*
X222145363Y-150994602D01*
X222109464Y-150992413D01*
X222073266Y-150989231D01*
X222034698Y-150985023D01*
X222030474Y-150984528D01*
X221977513Y-150978178D01*
X221934831Y-150972620D01*
X221900218Y-150967396D01*
X221871465Y-150962045D01*
X221846364Y-150956109D01*
X221822706Y-150949130D01*
X221798282Y-150940647D01*
X221770883Y-150930202D01*
X221746938Y-150921413D01*
X221706590Y-150908349D01*
X221665990Y-150896908D01*
X221631078Y-150888846D01*
X221563469Y-150871224D01*
X221487512Y-150839680D01*
X221417353Y-150797306D01*
X221397892Y-150782600D01*
X221368211Y-150757965D01*
X221336919Y-150730004D01*
X221306344Y-150700944D01*
X221278812Y-150673016D01*
X221256648Y-150648447D01*
X221242179Y-150629466D01*
X221241075Y-150627698D01*
X221227049Y-150593381D01*
X221224039Y-150556756D01*
X221363973Y-150556756D01*
X221366490Y-150561467D01*
X221377030Y-150573545D01*
X221393941Y-150590483D01*
X221415215Y-150610451D01*
X221438844Y-150631621D01*
X221462820Y-150652165D01*
X221485134Y-150670253D01*
X221503777Y-150684056D01*
X221504743Y-150684717D01*
X221532790Y-150702634D01*
X221560192Y-150717066D01*
X221590250Y-150729371D01*
X221626265Y-150740907D01*
X221671539Y-150753029D01*
X221704833Y-150762044D01*
X221746843Y-150774691D01*
X221787325Y-150788048D01*
X221820838Y-150800389D01*
X221835266Y-150806052D01*
X221858162Y-150814360D01*
X221879933Y-150820952D01*
X221903332Y-150826436D01*
X221931113Y-150831420D01*
X221966028Y-150836511D01*
X222010831Y-150842318D01*
X222046778Y-150846502D01*
X222092731Y-150851045D01*
X222137171Y-150854654D01*
X222176410Y-150857034D01*
X222206759Y-150857893D01*
X222278741Y-150857893D01*
X222275741Y-150840417D01*
X222275260Y-150837330D01*
X222273080Y-150821909D01*
X222269595Y-150796307D01*
X222265030Y-150762216D01*
X222259610Y-150721330D01*
X222253564Y-150675342D01*
X222247115Y-150625944D01*
X222244799Y-150608329D01*
X222234830Y-150536992D01*
X222225280Y-150475970D01*
X222216239Y-150425736D01*
X222207799Y-150386764D01*
X222200049Y-150359526D01*
X222193082Y-150344495D01*
X222187257Y-150344416D01*
X222172133Y-150346046D01*
X222151183Y-150349071D01*
X222150354Y-150349202D01*
X222127671Y-150352488D01*
X222096546Y-150356637D01*
X222060972Y-150361129D01*
X222024942Y-150365447D01*
X221989298Y-150369983D01*
X221947815Y-150376009D01*
X221908637Y-150382386D01*
X221876935Y-150388315D01*
X221872846Y-150389183D01*
X221849059Y-150394679D01*
X221816945Y-150402589D01*
X221778223Y-150412449D01*
X221734612Y-150423792D01*
X221687833Y-150436153D01*
X221639604Y-150449068D01*
X221591646Y-150462069D01*
X221545677Y-150474692D01*
X221503418Y-150486472D01*
X221466589Y-150496942D01*
X221436908Y-150505637D01*
X221416095Y-150512091D01*
X221405870Y-150515840D01*
X221397877Y-150520471D01*
X221381400Y-150533045D01*
X221368919Y-150546292D01*
X221363973Y-150556756D01*
X221224039Y-150556756D01*
X221223991Y-150556173D01*
X221231127Y-150517854D01*
X221247688Y-150480207D01*
X221272903Y-150445013D01*
X221305999Y-150414053D01*
X221346207Y-150389110D01*
X221352218Y-150386340D01*
X221376481Y-150376785D01*
X221408426Y-150365754D01*
X221444597Y-150354403D01*
X221481536Y-150343887D01*
X221485132Y-150342920D01*
X221528533Y-150331090D01*
X221552045Y-150324565D01*
X222319231Y-150324565D01*
X222334146Y-150376060D01*
X222338727Y-150393551D01*
X222346153Y-150427566D01*
X222353080Y-150465299D01*
X222358456Y-150501330D01*
X222358655Y-150502910D01*
X222361427Y-150527493D01*
X222364733Y-150560499D01*
X222368377Y-150599587D01*
X222372166Y-150642413D01*
X222375906Y-150686637D01*
X222379403Y-150729918D01*
X222382463Y-150769913D01*
X222384892Y-150804282D01*
X222386495Y-150830682D01*
X222387079Y-150846772D01*
X222388161Y-150851864D01*
X222393873Y-150855579D01*
X222406924Y-150857154D01*
X222429985Y-150857239D01*
X222434277Y-150857153D01*
X222473678Y-150854879D01*
X222519547Y-150850051D01*
X222570422Y-150843006D01*
X222624835Y-150834085D01*
X222681322Y-150823623D01*
X222738419Y-150811961D01*
X222794661Y-150799437D01*
X222848582Y-150786388D01*
X222898717Y-150773153D01*
X222943602Y-150760071D01*
X222981772Y-150747480D01*
X223011762Y-150735718D01*
X223032106Y-150725123D01*
X223041340Y-150716035D01*
X223042256Y-150713580D01*
X223047765Y-150696730D01*
X223053505Y-150676782D01*
X223063182Y-150653687D01*
X223084780Y-150625511D01*
X223117995Y-150596234D01*
X223140130Y-150579234D01*
X223115234Y-150531273D01*
X223098307Y-150501276D01*
X223077742Y-150468539D01*
X223058041Y-150440242D01*
X223042776Y-150420831D01*
X223025082Y-150402496D01*
X223005287Y-150388092D01*
X222978632Y-150373624D01*
X222964161Y-150366519D01*
X222943973Y-150357347D01*
X222924311Y-150349787D01*
X222903705Y-150343638D01*
X222880684Y-150338698D01*
X222853778Y-150334768D01*
X222821517Y-150331645D01*
X222782430Y-150329130D01*
X222735046Y-150327022D01*
X222677895Y-150325119D01*
X222609507Y-150323222D01*
X222607827Y-150323178D01*
X222552968Y-150321858D01*
X222501227Y-150320839D01*
X222454203Y-150320133D01*
X222413492Y-150319757D01*
X222380693Y-150319726D01*
X222357402Y-150320054D01*
X222345217Y-150320756D01*
X222319231Y-150324565D01*
X221552045Y-150324565D01*
X221576292Y-150317836D01*
X221622861Y-150304709D01*
X221662687Y-150293261D01*
X221749248Y-150269444D01*
X221835844Y-150249122D01*
X221922614Y-150232727D01*
X222015336Y-150219045D01*
X222038507Y-150215964D01*
X222085346Y-150209454D01*
X222132891Y-150202535D01*
X222176700Y-150195861D01*
X222212334Y-150190085D01*
X222231131Y-150187122D01*
X222272701Y-150182069D01*
X222319148Y-150178413D01*
X222371767Y-150176126D01*
X222431854Y-150175179D01*
X222500704Y-150175545D01*
X222579613Y-150177194D01*
X222669877Y-150180100D01*
X222732981Y-150182847D01*
X222797657Y-150187031D01*
X222853087Y-150192553D01*
X222901142Y-150199761D01*
X222943691Y-150209005D01*
X222982602Y-150220635D01*
X223019747Y-150234999D01*
X223056992Y-150252447D01*
X223089869Y-150273503D01*
X223123514Y-150303202D01*
X223156554Y-150339537D01*
X223187871Y-150380631D01*
X223216347Y-150424605D01*
X223240863Y-150469581D01*
X223260303Y-150513682D01*
X223273546Y-150555030D01*
X223277456Y-150579234D01*
X223279477Y-150591746D01*
G37*
G36*
X216087040Y-149177057D02*
G01*
X216088417Y-149181286D01*
X216117591Y-149270911D01*
X216143178Y-149349646D01*
X216165539Y-149418628D01*
X216185031Y-149478993D01*
X216202013Y-149531878D01*
X216216844Y-149578419D01*
X216229883Y-149619754D01*
X216241487Y-149657018D01*
X216252016Y-149691349D01*
X216261828Y-149723882D01*
X216271282Y-149755755D01*
X216280736Y-149788104D01*
X216290549Y-149822066D01*
X216305006Y-149873560D01*
X216323225Y-149941051D01*
X216343555Y-150018658D01*
X216365693Y-150105175D01*
X216389337Y-150199393D01*
X216414183Y-150300105D01*
X216439929Y-150406102D01*
X216466273Y-150516177D01*
X216492910Y-150629121D01*
X216493040Y-150629680D01*
X216507425Y-150691009D01*
X216523384Y-150758864D01*
X216540027Y-150829466D01*
X216556461Y-150899033D01*
X216571793Y-150963785D01*
X216585133Y-151019939D01*
X216590552Y-151042720D01*
X216605284Y-151105036D01*
X216617180Y-151156533D01*
X216626357Y-151198371D01*
X216632931Y-151231708D01*
X216637021Y-151257703D01*
X216638744Y-151277512D01*
X216638216Y-151292295D01*
X216635555Y-151303210D01*
X216630879Y-151311414D01*
X216624305Y-151318067D01*
X216615949Y-151324327D01*
X216605661Y-151330197D01*
X216583305Y-151333708D01*
X216561044Y-151324510D01*
X216554205Y-151318169D01*
X216541924Y-151301577D01*
X216529726Y-151280382D01*
X216519462Y-151258300D01*
X216512985Y-151239050D01*
X216512147Y-151226350D01*
X216512326Y-151225218D01*
X216511094Y-151213244D01*
X216506853Y-151191555D01*
X216500068Y-151162187D01*
X216491203Y-151127172D01*
X216480720Y-151088544D01*
X216478875Y-151081909D01*
X216468901Y-151044907D01*
X216456702Y-150998203D01*
X216442832Y-150943990D01*
X216427842Y-150884456D01*
X216412286Y-150821794D01*
X216396715Y-150758194D01*
X216381683Y-150695846D01*
X216368405Y-150640490D01*
X216348222Y-150556950D01*
X216326728Y-150468599D01*
X216304252Y-150376759D01*
X216281124Y-150282749D01*
X216257673Y-150187891D01*
X216234230Y-150093505D01*
X216211123Y-150000911D01*
X216188684Y-149911430D01*
X216167241Y-149826382D01*
X216147125Y-149747088D01*
X216128664Y-149674868D01*
X216112190Y-149611043D01*
X216098031Y-149556934D01*
X216086518Y-149513860D01*
X216078804Y-149485694D01*
X216064616Y-149434960D01*
X216050291Y-149384960D01*
X216036269Y-149337131D01*
X216022992Y-149292916D01*
X216010900Y-149253752D01*
X216000434Y-149221079D01*
X215992035Y-149196337D01*
X215986142Y-149180965D01*
X215983198Y-149176404D01*
X215983006Y-149176591D01*
X215982592Y-149177233D01*
X215982408Y-149178727D01*
X215982594Y-149181849D01*
X215983292Y-149187376D01*
X215984646Y-149196082D01*
X215986797Y-149208743D01*
X215989886Y-149226135D01*
X215994056Y-149249035D01*
X215999450Y-149278216D01*
X216006208Y-149314457D01*
X216014473Y-149358531D01*
X216024387Y-149411216D01*
X216036092Y-149473286D01*
X216049731Y-149545517D01*
X216065444Y-149628686D01*
X216083374Y-149723567D01*
X216090462Y-149761048D01*
X216106858Y-149847524D01*
X216121283Y-149923159D01*
X216133980Y-149989140D01*
X216145192Y-150046654D01*
X216155162Y-150096888D01*
X216164135Y-150141028D01*
X216172352Y-150180262D01*
X216180058Y-150215776D01*
X216187496Y-150248757D01*
X216194909Y-150280393D01*
X216202540Y-150311869D01*
X216210633Y-150344374D01*
X216212121Y-150350322D01*
X216221997Y-150392887D01*
X216227680Y-150425693D01*
X216229131Y-150450747D01*
X216226312Y-150470058D01*
X216219186Y-150485634D01*
X216207715Y-150499484D01*
X216205765Y-150501418D01*
X216190666Y-150514081D01*
X216175759Y-150519772D01*
X216154653Y-150521090D01*
X216150134Y-150520987D01*
X216117921Y-150513799D01*
X216086682Y-150494938D01*
X216055540Y-150463896D01*
X216049437Y-150456212D01*
X216033921Y-150432847D01*
X216017708Y-150402860D01*
X216000567Y-150365610D01*
X215982270Y-150320453D01*
X215962586Y-150266747D01*
X215941286Y-150203849D01*
X215918140Y-150131117D01*
X215892919Y-150047907D01*
X215865393Y-149953577D01*
X215835333Y-149847485D01*
X215829352Y-149826128D01*
X215800382Y-149722916D01*
X215774411Y-149630889D01*
X215751166Y-149549141D01*
X215730371Y-149476765D01*
X215711754Y-149412855D01*
X215695039Y-149356506D01*
X215679951Y-149306810D01*
X215666217Y-149262862D01*
X215653562Y-149223755D01*
X215641712Y-149188584D01*
X215630392Y-149156443D01*
X215619327Y-149126424D01*
X215608244Y-149097623D01*
X215595353Y-149065951D01*
X215576448Y-149022581D01*
X215556097Y-148978697D01*
X215535209Y-148936047D01*
X215514695Y-148896377D01*
X215495464Y-148861435D01*
X215478426Y-148832969D01*
X215464491Y-148812725D01*
X215454567Y-148802452D01*
X215451809Y-148802474D01*
X215448711Y-148811685D01*
X215447833Y-148831705D01*
X215449092Y-148861459D01*
X215452408Y-148899873D01*
X215457698Y-148945870D01*
X215464881Y-148998376D01*
X215473875Y-149056317D01*
X215476093Y-149069673D01*
X215482214Y-149102881D01*
X215488649Y-149129330D01*
X215496811Y-149153409D01*
X215508111Y-149179505D01*
X215523960Y-149212009D01*
X215526811Y-149217736D01*
X215547075Y-149259700D01*
X215570740Y-149310442D01*
X215596654Y-149367364D01*
X215623665Y-149427864D01*
X215650620Y-149489344D01*
X215676370Y-149549204D01*
X215699761Y-149604844D01*
X215719641Y-149653665D01*
X215779899Y-149811467D01*
X215850134Y-150013092D01*
X215917511Y-150226636D01*
X215982068Y-150452223D01*
X216043843Y-150689977D01*
X216099220Y-150924556D01*
X216102872Y-150940025D01*
X216108415Y-150965007D01*
X216122137Y-151031327D01*
X216131856Y-151086568D01*
X216137649Y-151131439D01*
X216139592Y-151166648D01*
X216137762Y-151192905D01*
X216132237Y-151210920D01*
X216129850Y-151215286D01*
X216109065Y-151241404D01*
X216083318Y-151257931D01*
X216054851Y-151263869D01*
X216025909Y-151258218D01*
X216018448Y-151254615D01*
X215999588Y-151238897D01*
X215984555Y-151214189D01*
X215972116Y-151178668D01*
X215971782Y-151177478D01*
X215963788Y-151151698D01*
X215953224Y-151120948D01*
X215942285Y-151091626D01*
X215923022Y-151042571D01*
X215898491Y-151055086D01*
X215890161Y-151058915D01*
X215854972Y-151067591D01*
X215813858Y-151066972D01*
X215766600Y-151056953D01*
X215712976Y-151037431D01*
X215652768Y-151008304D01*
X215585754Y-150969467D01*
X215511716Y-150920817D01*
X215430432Y-150862252D01*
X215341682Y-150793667D01*
X215261239Y-150725805D01*
X215172389Y-150642705D01*
X215081697Y-150550029D01*
X214990227Y-150449080D01*
X214899042Y-150341161D01*
X214809204Y-150227575D01*
X214721777Y-150109626D01*
X214637822Y-149988617D01*
X214558403Y-149865851D01*
X214484582Y-149742632D01*
X214455228Y-149690434D01*
X214409040Y-149604112D01*
X214363205Y-149513675D01*
X214318677Y-149421224D01*
X214276407Y-149328860D01*
X214237348Y-149238684D01*
X214202453Y-149152798D01*
X214172674Y-149073304D01*
X214148965Y-149002301D01*
X214128175Y-148932720D01*
X214095654Y-148813452D01*
X214068176Y-148698230D01*
X214045804Y-148587788D01*
X214028602Y-148482856D01*
X214016635Y-148384168D01*
X214009966Y-148292455D01*
X214009248Y-148246314D01*
X214171135Y-148246314D01*
X214173872Y-148311729D01*
X214179919Y-148382376D01*
X214199470Y-148525858D01*
X214228830Y-148678941D01*
X214267053Y-148836717D01*
X214313546Y-148997617D01*
X214367716Y-149160069D01*
X214428970Y-149322503D01*
X214496715Y-149483349D01*
X214570357Y-149641036D01*
X214649305Y-149793993D01*
X214732964Y-149940649D01*
X214820742Y-150079434D01*
X214830274Y-150093663D01*
X214928653Y-150234068D01*
X215027339Y-150363247D01*
X215126110Y-150480962D01*
X215224743Y-150586971D01*
X215323016Y-150681034D01*
X215420705Y-150762910D01*
X215517588Y-150832359D01*
X215566818Y-150863391D01*
X215609681Y-150887542D01*
X215648687Y-150906080D01*
X215686631Y-150920463D01*
X215704066Y-150925432D01*
X215733536Y-150931251D01*
X215765173Y-150935180D01*
X215796528Y-150937163D01*
X215825156Y-150937147D01*
X215848609Y-150935077D01*
X215864441Y-150930898D01*
X215870205Y-150924556D01*
X215869830Y-150922717D01*
X215865919Y-150910797D01*
X215858436Y-150890266D01*
X215848221Y-150863400D01*
X215836118Y-150832474D01*
X215820351Y-150792239D01*
X215789578Y-150711475D01*
X215756879Y-150623124D01*
X215722998Y-150529339D01*
X215688677Y-150432272D01*
X215654657Y-150334076D01*
X215621682Y-150236904D01*
X215590493Y-150142908D01*
X215561833Y-150054240D01*
X215536445Y-149973054D01*
X215515069Y-149901501D01*
X215510981Y-149887345D01*
X215477328Y-149767581D01*
X215445118Y-149647284D01*
X215414853Y-149528525D01*
X215387036Y-149413378D01*
X215362170Y-149303915D01*
X215340756Y-149202209D01*
X215323297Y-149110332D01*
X215301300Y-148986414D01*
X215256180Y-148903802D01*
X215254612Y-148900937D01*
X215185977Y-148784682D01*
X215109994Y-148672345D01*
X215027726Y-148565018D01*
X214940237Y-148463794D01*
X214848590Y-148369764D01*
X214753847Y-148284021D01*
X214657073Y-148207658D01*
X214559329Y-148141767D01*
X214461680Y-148087440D01*
X214425747Y-148070352D01*
X214370489Y-148047159D01*
X214321011Y-148030354D01*
X214278415Y-148020238D01*
X214243806Y-148017111D01*
X214218287Y-148021274D01*
X214218083Y-148021353D01*
X214203261Y-148033754D01*
X214191092Y-148057565D01*
X214181686Y-148091756D01*
X214175151Y-148135298D01*
X214171597Y-148187160D01*
X214171135Y-148246314D01*
X214009248Y-148246314D01*
X214008659Y-148208451D01*
X214012778Y-148132886D01*
X214022387Y-148066493D01*
X214037550Y-148010005D01*
X214058331Y-147964153D01*
X214070748Y-147945835D01*
X214099078Y-147915288D01*
X214132010Y-147890154D01*
X214165504Y-147873838D01*
X214204664Y-147865763D01*
X214255312Y-147866276D01*
X214311815Y-147876874D01*
X214373531Y-147897299D01*
X214439818Y-147927293D01*
X214510036Y-147966601D01*
X214583542Y-148014963D01*
X214659694Y-148072122D01*
X214663183Y-148074931D01*
X214689331Y-148097374D01*
X214721976Y-148127194D01*
X214759360Y-148162640D01*
X214799723Y-148201963D01*
X214841303Y-148243410D01*
X214882342Y-148285230D01*
X214921080Y-148325673D01*
X214955756Y-148362987D01*
X214984611Y-148395421D01*
X215009934Y-148425133D01*
X215047682Y-148470460D01*
X215086669Y-148518313D01*
X215125300Y-148566669D01*
X215161981Y-148613508D01*
X215195117Y-148656810D01*
X215223114Y-148694552D01*
X215244378Y-148724713D01*
X215260059Y-148747428D01*
X215274533Y-148767391D01*
X215285176Y-148780952D01*
X215290405Y-148786005D01*
X215290847Y-148785936D01*
X215293915Y-148779317D01*
X215295171Y-148765151D01*
X215295178Y-148763755D01*
X215300292Y-148725997D01*
X215313761Y-148690296D01*
X215333886Y-148659290D01*
X215358970Y-148635620D01*
X215387315Y-148621923D01*
X215414607Y-148618128D01*
X215442867Y-148622331D01*
X215471284Y-148635566D01*
X215500627Y-148658442D01*
X215531666Y-148691563D01*
X215565169Y-148735535D01*
X215601906Y-148790963D01*
X215605025Y-148795953D01*
X215635541Y-148847616D01*
X215668206Y-148907364D01*
X215701245Y-148971646D01*
X215732877Y-149036911D01*
X215761325Y-149099610D01*
X215784811Y-149156192D01*
X215790527Y-149170770D01*
X215801884Y-149199248D01*
X215811196Y-149221933D01*
X215817624Y-149236803D01*
X215820328Y-149241834D01*
X215820250Y-149239773D01*
X215818533Y-149227285D01*
X215815027Y-149205034D01*
X215810022Y-149174797D01*
X215808241Y-149164348D01*
X215975131Y-149164348D01*
X215978308Y-149167525D01*
X215981486Y-149164348D01*
X215978308Y-149161170D01*
X215975131Y-149164348D01*
X215808241Y-149164348D01*
X215803810Y-149138352D01*
X215796683Y-149097476D01*
X215785879Y-149035355D01*
X215770352Y-148942226D01*
X215757684Y-148860520D01*
X215747817Y-148789652D01*
X215740695Y-148729037D01*
X215736261Y-148678089D01*
X215734458Y-148636223D01*
X215735228Y-148602854D01*
X215738515Y-148577397D01*
X215744262Y-148559266D01*
X215746564Y-148554709D01*
X215765834Y-148530679D01*
X215791904Y-148517340D01*
X215824413Y-148514895D01*
X215827372Y-148515187D01*
X215856345Y-148523254D01*
X215879505Y-148541132D01*
X215898676Y-148570177D01*
X215902406Y-148579360D01*
X215909538Y-148600119D01*
X215918966Y-148629616D01*
X215930089Y-148665926D01*
X215942311Y-148707125D01*
X215955032Y-148751288D01*
X215957178Y-148758813D01*
X215970101Y-148802978D01*
X215986137Y-148856329D01*
X216004546Y-148916473D01*
X216024583Y-148981013D01*
X216045506Y-149047554D01*
X216066573Y-149113701D01*
X216082934Y-149164348D01*
X216087040Y-149177057D01*
G37*
G36*
X223978550Y-151327828D02*
G01*
X223978811Y-151328122D01*
X223987832Y-151344643D01*
X223989244Y-151367313D01*
X223987493Y-151372922D01*
X223978426Y-151388983D01*
X223962679Y-151412035D01*
X223941408Y-151440547D01*
X223915769Y-151472991D01*
X223886918Y-151507837D01*
X223856010Y-151543557D01*
X223835126Y-151568276D01*
X223805997Y-151605692D01*
X223778452Y-151644012D01*
X223756173Y-151678270D01*
X223736527Y-151710158D01*
X223710272Y-151749395D01*
X223684625Y-151782447D01*
X223656799Y-151812507D01*
X223624011Y-151842773D01*
X223583476Y-151876440D01*
X223564122Y-151892340D01*
X223529578Y-151921813D01*
X223491638Y-151955202D01*
X223453706Y-151989497D01*
X223419187Y-152021690D01*
X223409889Y-152030475D01*
X223324537Y-152105265D01*
X223238080Y-152170278D01*
X223222808Y-152180944D01*
X223184587Y-152208254D01*
X223145460Y-152236937D01*
X223109246Y-152264172D01*
X223079764Y-152287142D01*
X223062611Y-152300759D01*
X223021760Y-152331935D01*
X222982739Y-152359485D01*
X222942830Y-152385103D01*
X222899318Y-152410481D01*
X222849486Y-152437311D01*
X222790618Y-152467285D01*
X222745534Y-152489559D01*
X222693908Y-152514326D01*
X222642780Y-152537915D01*
X222589661Y-152561422D01*
X222532059Y-152585948D01*
X222467484Y-152612591D01*
X222393445Y-152642449D01*
X222368218Y-152652609D01*
X222322928Y-152671128D01*
X222276950Y-152690221D01*
X222234458Y-152708150D01*
X222199624Y-152723177D01*
X222172256Y-152735119D01*
X222132872Y-152751931D01*
X222096589Y-152766782D01*
X222061220Y-152780455D01*
X222024577Y-152793732D01*
X221984473Y-152807398D01*
X221938720Y-152822236D01*
X221885130Y-152839029D01*
X221821516Y-152858560D01*
X221769861Y-152874306D01*
X221702809Y-152894646D01*
X221645295Y-152911861D01*
X221595764Y-152926320D01*
X221552663Y-152938391D01*
X221514437Y-152948441D01*
X221479531Y-152956839D01*
X221446391Y-152963951D01*
X221413462Y-152970146D01*
X221379189Y-152975792D01*
X221342018Y-152981256D01*
X221300395Y-152986906D01*
X221252764Y-152993109D01*
X221250129Y-152993450D01*
X221194531Y-153000930D01*
X221131896Y-153009804D01*
X221067138Y-153019349D01*
X221005172Y-153028840D01*
X220950913Y-153037555D01*
X220948212Y-153038003D01*
X220891219Y-153047308D01*
X220841859Y-153054976D01*
X220797589Y-153061273D01*
X220755868Y-153066467D01*
X220714155Y-153070823D01*
X220669908Y-153074609D01*
X220620585Y-153078091D01*
X220563645Y-153081534D01*
X220496547Y-153085207D01*
X220493946Y-153085345D01*
X220446399Y-153087943D01*
X220401921Y-153090501D01*
X220362437Y-153092897D01*
X220329871Y-153095011D01*
X220306149Y-153096724D01*
X220293194Y-153097914D01*
X220292158Y-153098049D01*
X220277787Y-153099980D01*
X220252960Y-153103376D01*
X220219556Y-153107976D01*
X220179453Y-153113523D01*
X220134530Y-153119757D01*
X220086665Y-153126418D01*
X220018927Y-153135625D01*
X219954211Y-153143792D01*
X219893690Y-153150611D01*
X219833983Y-153156408D01*
X219771709Y-153161511D01*
X219703490Y-153166245D01*
X219625944Y-153170938D01*
X219605214Y-153172003D01*
X219530287Y-153174233D01*
X219447340Y-153174590D01*
X219359849Y-153173156D01*
X219271287Y-153170009D01*
X219185130Y-153165232D01*
X219104853Y-153158903D01*
X219073360Y-153156193D01*
X219020426Y-153152258D01*
X218961035Y-153148409D01*
X218898852Y-153144863D01*
X218837539Y-153141841D01*
X218780760Y-153139560D01*
X218717543Y-153137064D01*
X218641540Y-153132955D01*
X218568738Y-153127533D01*
X218493917Y-153120396D01*
X218411857Y-153111141D01*
X218359520Y-153104772D01*
X218299030Y-153096945D01*
X218247617Y-153089539D01*
X218203232Y-153082138D01*
X218163827Y-153074326D01*
X218127351Y-153065688D01*
X218091756Y-153055807D01*
X218054992Y-153044269D01*
X218015011Y-153030657D01*
X217997795Y-153024674D01*
X217959488Y-153011522D01*
X217913892Y-152996017D01*
X217864071Y-152979196D01*
X217813086Y-152962095D01*
X217763998Y-152945748D01*
X217740086Y-152937776D01*
X217679404Y-152916971D01*
X217627261Y-152897956D01*
X217580914Y-152879551D01*
X217537618Y-152860572D01*
X217494629Y-152839838D01*
X217449204Y-152816169D01*
X217398599Y-152788380D01*
X217392838Y-152785169D01*
X217355092Y-152764451D01*
X217315100Y-152742955D01*
X217277288Y-152723041D01*
X217246084Y-152707071D01*
X217231194Y-152699572D01*
X217196160Y-152681157D01*
X217167148Y-152664142D01*
X217141205Y-152646402D01*
X217115379Y-152625812D01*
X217086716Y-152600247D01*
X217052264Y-152567582D01*
X217047882Y-152563368D01*
X217017208Y-152534174D01*
X216984829Y-152503798D01*
X216954345Y-152475594D01*
X216929352Y-152452919D01*
X216908420Y-152433377D01*
X216878671Y-152403730D01*
X216848330Y-152371832D01*
X216821483Y-152341888D01*
X216797416Y-152314235D01*
X216766272Y-152278985D01*
X216734255Y-152243195D01*
X216705452Y-152211458D01*
X216698396Y-152203723D01*
X216676332Y-152179021D01*
X216657538Y-152157226D01*
X216643817Y-152140461D01*
X216636976Y-152130853D01*
X216633062Y-152121450D01*
X216630346Y-152094218D01*
X216638355Y-152066572D01*
X216641366Y-152058232D01*
X216762136Y-152058232D01*
X216840155Y-152145966D01*
X216868369Y-152177013D01*
X216904351Y-152215333D01*
X216944451Y-152257025D01*
X216987071Y-152300502D01*
X217030618Y-152344179D01*
X217073496Y-152386470D01*
X217114109Y-152425788D01*
X217150862Y-152460549D01*
X217182161Y-152489166D01*
X217206409Y-152510052D01*
X217211132Y-152513830D01*
X217240390Y-152534910D01*
X217272644Y-152555220D01*
X217301730Y-152570832D01*
X217317307Y-152578428D01*
X217345739Y-152592956D01*
X217380009Y-152610981D01*
X217417120Y-152630922D01*
X217454074Y-152651198D01*
X217494892Y-152673575D01*
X217538116Y-152696323D01*
X217578419Y-152716154D01*
X217618322Y-152734144D01*
X217660348Y-152751368D01*
X217707016Y-152768903D01*
X217760849Y-152787825D01*
X217824368Y-152809208D01*
X217839699Y-152814305D01*
X217890023Y-152831120D01*
X217942247Y-152848678D01*
X217992876Y-152865800D01*
X218038418Y-152881307D01*
X218075381Y-152894017D01*
X218096458Y-152901245D01*
X218127556Y-152911456D01*
X218156475Y-152920120D01*
X218185067Y-152927600D01*
X218215186Y-152934256D01*
X218248683Y-152940451D01*
X218287410Y-152946546D01*
X218333218Y-152952903D01*
X218387961Y-152959883D01*
X218453490Y-152967848D01*
X218483584Y-152971355D01*
X218560071Y-152979222D01*
X218635820Y-152985331D01*
X218715305Y-152990012D01*
X218803002Y-152993594D01*
X218849493Y-152995405D01*
X218907776Y-152998244D01*
X218966334Y-153001636D01*
X219021922Y-153005375D01*
X219071296Y-153009256D01*
X219111208Y-153013074D01*
X219146145Y-153016325D01*
X219193921Y-153019689D01*
X219248371Y-153022679D01*
X219307078Y-153025227D01*
X219367621Y-153027264D01*
X219427583Y-153028721D01*
X219484544Y-153029529D01*
X219536085Y-153029619D01*
X219579788Y-153028922D01*
X219613235Y-153027370D01*
X219625407Y-153026540D01*
X219650187Y-153024956D01*
X219682654Y-153022951D01*
X219719993Y-153020697D01*
X219759394Y-153018367D01*
X219763444Y-153018121D01*
X219801449Y-153015192D01*
X219848780Y-153010704D01*
X219902566Y-153004976D01*
X219959937Y-152998325D01*
X220018024Y-152991070D01*
X220073955Y-152983529D01*
X220123282Y-152976755D01*
X220205154Y-152966417D01*
X220278634Y-152958477D01*
X220346306Y-152952666D01*
X220410758Y-152948718D01*
X220467428Y-152945873D01*
X220540037Y-152941893D01*
X220603111Y-152937940D01*
X220658527Y-152933859D01*
X220708160Y-152929495D01*
X220753888Y-152924693D01*
X220797586Y-152919299D01*
X220841130Y-152913156D01*
X220908760Y-152903155D01*
X221043880Y-152883669D01*
X221170747Y-152866098D01*
X221292215Y-152850041D01*
X221335951Y-152844156D01*
X221376920Y-152837968D01*
X221415697Y-152831192D01*
X221454326Y-152823356D01*
X221494845Y-152813986D01*
X221539298Y-152802609D01*
X221589724Y-152788754D01*
X221648165Y-152771946D01*
X221716662Y-152751714D01*
X221735311Y-152746156D01*
X221803768Y-152725672D01*
X221861895Y-152708095D01*
X221911197Y-152692921D01*
X221953182Y-152679648D01*
X221989355Y-152667772D01*
X222021222Y-152656791D01*
X222050291Y-152646202D01*
X222078067Y-152635501D01*
X222106056Y-152624185D01*
X222135766Y-152611752D01*
X222149887Y-152605791D01*
X222196131Y-152586471D01*
X222246154Y-152565811D01*
X222294807Y-152545931D01*
X222336935Y-152528952D01*
X222373838Y-152514175D01*
X222469958Y-152475050D01*
X222555586Y-152439100D01*
X222631892Y-152405739D01*
X222700043Y-152374384D01*
X222761209Y-152344449D01*
X222816557Y-152315349D01*
X222867256Y-152286501D01*
X222914474Y-152257320D01*
X222959379Y-152227221D01*
X223003141Y-152195619D01*
X223016005Y-152186078D01*
X223056357Y-152156737D01*
X223101076Y-152124896D01*
X223145573Y-152093799D01*
X223185262Y-152066696D01*
X223244011Y-152025010D01*
X223301980Y-151979582D01*
X223353014Y-151935093D01*
X223359133Y-151929437D01*
X223393675Y-151898439D01*
X223433047Y-151864306D01*
X223472855Y-151830801D01*
X223508706Y-151801691D01*
X223515213Y-151796533D01*
X223547951Y-151770175D01*
X223573746Y-151748110D01*
X223594869Y-151727823D01*
X223613593Y-151706795D01*
X223632191Y-151682512D01*
X223652934Y-151652456D01*
X223678096Y-151614110D01*
X223697985Y-151585125D01*
X223725465Y-151548352D01*
X223753967Y-151512999D01*
X223779766Y-151483837D01*
X223797544Y-151464716D01*
X223825924Y-151433068D01*
X223853478Y-151401213D01*
X223876156Y-151373777D01*
X223918318Y-151320910D01*
X223905834Y-151303875D01*
X223904883Y-151302441D01*
X223898051Y-151289142D01*
X223887894Y-151266454D01*
X223875294Y-151236463D01*
X223861131Y-151201257D01*
X223846288Y-151162922D01*
X223819958Y-151094327D01*
X223793681Y-151027986D01*
X223769562Y-150969973D01*
X223746650Y-150918313D01*
X223723998Y-150871036D01*
X223700657Y-150826170D01*
X223675678Y-150781742D01*
X223648112Y-150735781D01*
X223617012Y-150686314D01*
X223598369Y-150657127D01*
X223570937Y-150613901D01*
X223548420Y-150577899D01*
X223529530Y-150546960D01*
X223512977Y-150518923D01*
X223497470Y-150491624D01*
X223481720Y-150462902D01*
X223464436Y-150430595D01*
X223459625Y-150421559D01*
X223445430Y-150395635D01*
X223435278Y-150379011D01*
X223427906Y-150370057D01*
X223422051Y-150367142D01*
X223416450Y-150368636D01*
X223405287Y-150373494D01*
X223392251Y-150372909D01*
X223378433Y-150362221D01*
X223370270Y-150349788D01*
X223365724Y-150328048D01*
X223365717Y-150327217D01*
X223362653Y-150310070D01*
X223355706Y-150298270D01*
X223349474Y-150289075D01*
X223349290Y-150270485D01*
X223349834Y-150266606D01*
X223349981Y-150261571D01*
X223349492Y-150254809D01*
X223348172Y-150245505D01*
X223345827Y-150232847D01*
X223342263Y-150216018D01*
X223337284Y-150194207D01*
X223330698Y-150166598D01*
X223322309Y-150132378D01*
X223311922Y-150090732D01*
X223299344Y-150040847D01*
X223284381Y-149981908D01*
X223266837Y-149913102D01*
X223246518Y-149833615D01*
X223223230Y-149742632D01*
X223210587Y-149693337D01*
X223189702Y-149612465D01*
X223170753Y-149540152D01*
X223153214Y-149474692D01*
X223136561Y-149414376D01*
X223120269Y-149357496D01*
X223103811Y-149302343D01*
X223086664Y-149247211D01*
X223068301Y-149190391D01*
X223048198Y-149130174D01*
X223025829Y-149064854D01*
X223000669Y-148992722D01*
X222972193Y-148912070D01*
X222939875Y-148821190D01*
X222933113Y-148802213D01*
X222912501Y-148744424D01*
X222894277Y-148693612D01*
X222877880Y-148648461D01*
X222862749Y-148607650D01*
X222848323Y-148569864D01*
X222834041Y-148533783D01*
X222819342Y-148498090D01*
X222803665Y-148461467D01*
X222786448Y-148422596D01*
X222767132Y-148380159D01*
X222745154Y-148332838D01*
X222719954Y-148279314D01*
X222690971Y-148218271D01*
X222657643Y-148148390D01*
X222619410Y-148068352D01*
X222565776Y-147957901D01*
X222503700Y-147835042D01*
X222444534Y-147723659D01*
X222388052Y-147623317D01*
X222384105Y-147616437D01*
X222367165Y-147585578D01*
X222347616Y-147548382D01*
X222327576Y-147508931D01*
X222309164Y-147471305D01*
X222305601Y-147463928D01*
X222285231Y-147423885D01*
X222262351Y-147381699D01*
X222239509Y-147341960D01*
X222219250Y-147309258D01*
X222201369Y-147281500D01*
X222178855Y-147245540D01*
X222157635Y-147210689D01*
X222140614Y-147181661D01*
X222134066Y-147170270D01*
X222110684Y-147131355D01*
X222086151Y-147092830D01*
X222061714Y-147056468D01*
X222038624Y-147024037D01*
X222018128Y-146997309D01*
X222001476Y-146978054D01*
X221989917Y-146968043D01*
X221985175Y-146965424D01*
X221964093Y-146955425D01*
X221948508Y-146953069D01*
X221934304Y-146958593D01*
X221917363Y-146972234D01*
X221909187Y-146979989D01*
X221888655Y-147002377D01*
X221865386Y-147031705D01*
X221838589Y-147069053D01*
X221807477Y-147115501D01*
X221771258Y-147172129D01*
X221764481Y-147182830D01*
X221737988Y-147223626D01*
X221708782Y-147267329D01*
X221679960Y-147309346D01*
X221654620Y-147345083D01*
X221635442Y-147372209D01*
X221596980Y-147430466D01*
X221558772Y-147492934D01*
X221522826Y-147556151D01*
X221491149Y-147616653D01*
X221465747Y-147670978D01*
X221454455Y-147696909D01*
X221431176Y-147749303D01*
X221404654Y-147807946D01*
X221376270Y-147869852D01*
X221347405Y-147932036D01*
X221319441Y-147991511D01*
X221293759Y-148045292D01*
X221271739Y-148090392D01*
X221271386Y-148091103D01*
X221250197Y-148136378D01*
X221227986Y-148188023D01*
X221207141Y-148240280D01*
X221190050Y-148287390D01*
X221182696Y-148308981D01*
X221170080Y-148345413D01*
X221158307Y-148378714D01*
X221148434Y-148405907D01*
X221141517Y-148424018D01*
X221132710Y-148446486D01*
X221119228Y-148482305D01*
X221103529Y-148525099D01*
X221086602Y-148572094D01*
X221069438Y-148620516D01*
X221053027Y-148667590D01*
X221038357Y-148710543D01*
X221026419Y-148746602D01*
X221015171Y-148780883D01*
X221002004Y-148818799D01*
X220990102Y-148849548D01*
X220978227Y-148876051D01*
X220965142Y-148901228D01*
X220949612Y-148927999D01*
X220937974Y-148949028D01*
X220926223Y-148975966D01*
X220915822Y-149007937D01*
X220905380Y-149048739D01*
X220897936Y-149078853D01*
X220888978Y-149112042D01*
X220880454Y-149140815D01*
X220873500Y-149161170D01*
X220862312Y-149186188D01*
X220846801Y-149213439D01*
X220830523Y-149235799D01*
X220815218Y-149250929D01*
X220802623Y-149256491D01*
X220794855Y-149255220D01*
X220776026Y-149250877D01*
X220748331Y-149243896D01*
X220713566Y-149234742D01*
X220673523Y-149223879D01*
X220629997Y-149211773D01*
X220606051Y-149205074D01*
X220514080Y-149180341D01*
X220431150Y-149160033D01*
X220355034Y-149143920D01*
X220283508Y-149131775D01*
X220214347Y-149123372D01*
X220145324Y-149118481D01*
X220074216Y-149116875D01*
X219998795Y-149118326D01*
X219916838Y-149122607D01*
X219826119Y-149129490D01*
X219789009Y-149132473D01*
X219733293Y-149136571D01*
X219671464Y-149140788D01*
X219607205Y-149144882D01*
X219544201Y-149148611D01*
X219486139Y-149151736D01*
X219441102Y-149154054D01*
X219369868Y-149158019D01*
X219308844Y-149161960D01*
X219256428Y-149166094D01*
X219211022Y-149170642D01*
X219171028Y-149175821D01*
X219134847Y-149181852D01*
X219100878Y-149188954D01*
X219067525Y-149197345D01*
X219033187Y-149207245D01*
X218996266Y-149218873D01*
X218952712Y-149232096D01*
X218917993Y-149240174D01*
X218890850Y-149242868D01*
X218869298Y-149240175D01*
X218851352Y-149232093D01*
X218835029Y-149218617D01*
X218831674Y-149214682D01*
X218823473Y-149194810D01*
X218823068Y-149171817D01*
X218830820Y-149151464D01*
X218833120Y-149147423D01*
X218834428Y-149140310D01*
X218832664Y-149130019D01*
X218827197Y-149114491D01*
X218817397Y-149091669D01*
X218802633Y-149059494D01*
X218797240Y-149047869D01*
X218786527Y-149024501D01*
X218776541Y-149002168D01*
X218766705Y-148979434D01*
X218756440Y-148954862D01*
X218745171Y-148927013D01*
X218732320Y-148894452D01*
X218717309Y-148855740D01*
X218699561Y-148809442D01*
X218678499Y-148754120D01*
X218653547Y-148688337D01*
X218597643Y-148543525D01*
X218531103Y-148378076D01*
X218464491Y-148219787D01*
X218398162Y-148069418D01*
X218332468Y-147927730D01*
X218267763Y-147795481D01*
X218204402Y-147673432D01*
X218142739Y-147562343D01*
X218083126Y-147462974D01*
X218080301Y-147458467D01*
X218056537Y-147420472D01*
X218030767Y-147379154D01*
X218005915Y-147339205D01*
X217984906Y-147305321D01*
X217960821Y-147268289D01*
X217932364Y-147230522D01*
X217907379Y-147204855D01*
X217896243Y-147194879D01*
X217880623Y-147177138D01*
X217875109Y-147163807D01*
X217874158Y-147154576D01*
X217869855Y-147141761D01*
X217869559Y-147141377D01*
X217863849Y-147143330D01*
X217854017Y-147155552D01*
X217840716Y-147176684D01*
X217824597Y-147205365D01*
X217806312Y-147240236D01*
X217786513Y-147279936D01*
X217765853Y-147323106D01*
X217744983Y-147368386D01*
X217724556Y-147414416D01*
X217705223Y-147459835D01*
X217687636Y-147503285D01*
X217672447Y-147543404D01*
X217660309Y-147578834D01*
X217657693Y-147587043D01*
X217649416Y-147613011D01*
X217638219Y-147648129D01*
X217624752Y-147690361D01*
X217609665Y-147737670D01*
X217593606Y-147788022D01*
X217577225Y-147839379D01*
X217576166Y-147842704D01*
X217543800Y-147946578D01*
X217509874Y-148059597D01*
X217475293Y-148178554D01*
X217440963Y-148300242D01*
X217407788Y-148421453D01*
X217376674Y-148538978D01*
X217348526Y-148649612D01*
X217339966Y-148686274D01*
X217328198Y-148742340D01*
X217315434Y-148808616D01*
X217301901Y-148883760D01*
X217287828Y-148966427D01*
X217273441Y-149055274D01*
X217258969Y-149148957D01*
X217244639Y-149246133D01*
X217230677Y-149345459D01*
X217229350Y-149355286D01*
X217221817Y-149415904D01*
X217214032Y-149485904D01*
X217206249Y-149562485D01*
X217198723Y-149642843D01*
X217191707Y-149724175D01*
X217185456Y-149803678D01*
X217180223Y-149878548D01*
X217176263Y-149945984D01*
X217174186Y-149982451D01*
X217170914Y-150031390D01*
X217167208Y-150079813D01*
X217163384Y-150123660D01*
X217159755Y-150158869D01*
X217159097Y-150164868D01*
X217156233Y-150198390D01*
X217153442Y-150242569D01*
X217150801Y-150295739D01*
X217148386Y-150356229D01*
X217146272Y-150422370D01*
X217144537Y-150492494D01*
X217143052Y-150556750D01*
X217141292Y-150618734D01*
X217139409Y-150669833D01*
X217137355Y-150711020D01*
X217135079Y-150743265D01*
X217132532Y-150767539D01*
X217129666Y-150784813D01*
X217124568Y-150809076D01*
X217119540Y-150834258D01*
X217116132Y-150852744D01*
X217111270Y-150867828D01*
X217096972Y-150888283D01*
X217077516Y-150903043D01*
X217056542Y-150908692D01*
X217040820Y-150906358D01*
X217022186Y-150899592D01*
X217021630Y-150899305D01*
X217008992Y-150894418D01*
X217002368Y-150894866D01*
X216999698Y-150901688D01*
X216994072Y-150921041D01*
X216986398Y-150950914D01*
X216976915Y-150990175D01*
X216965861Y-151037697D01*
X216953473Y-151092350D01*
X216939991Y-151153003D01*
X216925651Y-151218529D01*
X216910691Y-151287797D01*
X216895351Y-151359677D01*
X216879867Y-151433042D01*
X216864479Y-151506760D01*
X216849422Y-151579703D01*
X216834937Y-151650742D01*
X216821261Y-151718746D01*
X216808631Y-151782586D01*
X216797286Y-151841134D01*
X216787465Y-151893259D01*
X216779404Y-151937833D01*
X216773341Y-151973725D01*
X216769516Y-151999806D01*
X216762136Y-152058232D01*
X216641366Y-152058232D01*
X216642716Y-152054491D01*
X216647790Y-152032670D01*
X216651483Y-152008106D01*
X216656200Y-151971048D01*
X216664053Y-151920085D01*
X216674396Y-151859774D01*
X216686899Y-151791668D01*
X216701229Y-151717321D01*
X216717055Y-151638285D01*
X216734048Y-151556114D01*
X216751875Y-151472362D01*
X216770206Y-151388581D01*
X216788710Y-151306324D01*
X216807055Y-151227146D01*
X216824911Y-151152599D01*
X216841947Y-151084237D01*
X216857831Y-151023612D01*
X216872233Y-150972279D01*
X216887206Y-150922965D01*
X216904154Y-150872399D01*
X216920050Y-150831702D01*
X216935535Y-150799414D01*
X216951249Y-150774072D01*
X216967833Y-150754218D01*
X216998248Y-150723155D01*
X216998274Y-150556987D01*
X216998309Y-150536048D01*
X216999314Y-150446780D01*
X217001857Y-150365584D01*
X217006136Y-150288708D01*
X217012348Y-150212398D01*
X217020694Y-150132904D01*
X217023807Y-150102119D01*
X217027268Y-150061046D01*
X217030678Y-150014471D01*
X217033770Y-149966072D01*
X217036275Y-149919524D01*
X217036486Y-149915176D01*
X217039502Y-149861834D01*
X217043616Y-149800499D01*
X217048606Y-149733756D01*
X217054246Y-149664191D01*
X217060314Y-149594389D01*
X217066584Y-149526936D01*
X217072833Y-149464417D01*
X217078837Y-149409417D01*
X217084372Y-149364523D01*
X217086965Y-149345879D01*
X217092867Y-149306131D01*
X217100353Y-149258036D01*
X217109124Y-149203334D01*
X217118885Y-149143768D01*
X217129335Y-149081079D01*
X217140179Y-149017009D01*
X217151117Y-148953300D01*
X217161853Y-148891694D01*
X217172088Y-148833932D01*
X217181525Y-148781755D01*
X217189865Y-148736906D01*
X217196811Y-148701127D01*
X217202066Y-148676159D01*
X217209219Y-148645837D01*
X217220039Y-148602097D01*
X217233330Y-148549885D01*
X217248562Y-148491183D01*
X217265206Y-148427971D01*
X217282735Y-148362231D01*
X217300619Y-148295945D01*
X217318330Y-148231095D01*
X217335338Y-148169662D01*
X217351116Y-148113627D01*
X217365134Y-148064973D01*
X217373816Y-148035872D01*
X217389092Y-147986499D01*
X217406697Y-147931292D01*
X217426071Y-147871882D01*
X217446652Y-147809902D01*
X217467881Y-147746982D01*
X217489196Y-147684756D01*
X217510039Y-147624855D01*
X217529847Y-147568911D01*
X217548062Y-147518557D01*
X217564121Y-147475423D01*
X217577466Y-147441142D01*
X217587535Y-147417346D01*
X217610282Y-147369250D01*
X217639673Y-147311019D01*
X217670001Y-147254698D01*
X217700291Y-147201922D01*
X217729566Y-147154325D01*
X217756851Y-147113543D01*
X217781168Y-147081210D01*
X217801541Y-147058961D01*
X217807446Y-147053715D01*
X217835449Y-147034996D01*
X217862635Y-147028006D01*
X217890767Y-147032216D01*
X217905759Y-147040030D01*
X217918484Y-147055948D01*
X217920657Y-147075218D01*
X217924480Y-147080932D01*
X217938791Y-147083162D01*
X217938949Y-147083162D01*
X217965599Y-147088055D01*
X217991721Y-147103296D01*
X218019049Y-147129896D01*
X218029195Y-147142776D01*
X218046470Y-147167238D01*
X218068335Y-147199986D01*
X218093862Y-147239508D01*
X218122125Y-147284291D01*
X218152194Y-147332825D01*
X218183143Y-147383595D01*
X218214043Y-147435091D01*
X218243966Y-147485801D01*
X218271985Y-147534211D01*
X218297172Y-147578810D01*
X218318599Y-147618086D01*
X218345475Y-147669320D01*
X218408962Y-147796193D01*
X218473074Y-147932032D01*
X218536766Y-148074342D01*
X218598992Y-148220632D01*
X218658709Y-148368406D01*
X218714869Y-148515174D01*
X218766429Y-148658440D01*
X218812342Y-148795713D01*
X218813251Y-148798549D01*
X218827264Y-148841894D01*
X218841925Y-148886612D01*
X218856660Y-148931021D01*
X218870899Y-148973438D01*
X218884070Y-149012181D01*
X218895600Y-149045567D01*
X218904918Y-149071913D01*
X218911453Y-149089537D01*
X218914632Y-149096756D01*
X218916386Y-149097018D01*
X218927926Y-149096026D01*
X218947660Y-149093229D01*
X218972655Y-149089019D01*
X218982755Y-149087263D01*
X219013077Y-149082651D01*
X219047227Y-149078441D01*
X219086472Y-149074538D01*
X219132081Y-149070845D01*
X219185323Y-149067266D01*
X219247465Y-149063703D01*
X219319777Y-149060061D01*
X219403527Y-149056243D01*
X219423693Y-149055343D01*
X219482658Y-149052550D01*
X219542575Y-149049496D01*
X219600713Y-149046335D01*
X219654342Y-149043217D01*
X219700732Y-149040294D01*
X219737152Y-149037718D01*
X219843859Y-149030436D01*
X219951564Y-149025544D01*
X220050312Y-149024129D01*
X220141866Y-149026363D01*
X220227986Y-149032419D01*
X220310435Y-149042469D01*
X220390974Y-149056686D01*
X220471366Y-149075242D01*
X220553371Y-149098311D01*
X220638753Y-149126065D01*
X220650351Y-149130034D01*
X220679405Y-149139772D01*
X220702992Y-149147386D01*
X220718937Y-149152183D01*
X220725062Y-149153474D01*
X220728114Y-149147883D01*
X220735349Y-149129833D01*
X220744243Y-149103591D01*
X220753962Y-149071816D01*
X220763670Y-149037167D01*
X220772534Y-149002301D01*
X220784946Y-148955806D01*
X220801282Y-148908868D01*
X220821115Y-148865761D01*
X220823961Y-148860071D01*
X220836343Y-148832371D01*
X220851323Y-148795261D01*
X220868075Y-148750907D01*
X220885773Y-148701477D01*
X220903594Y-148649136D01*
X220912895Y-148621330D01*
X220930150Y-148570752D01*
X220947809Y-148520089D01*
X220964795Y-148472385D01*
X220980031Y-148430685D01*
X220992439Y-148398035D01*
X220993854Y-148394420D01*
X221009832Y-148352727D01*
X221026912Y-148306853D01*
X221043135Y-148262118D01*
X221056544Y-148223842D01*
X221062101Y-148208221D01*
X221077323Y-148169037D01*
X221095768Y-148124983D01*
X221115596Y-148080381D01*
X221134968Y-148039554D01*
X221143044Y-148023147D01*
X221164599Y-147978861D01*
X221187152Y-147931953D01*
X221208469Y-147887083D01*
X221226318Y-147848911D01*
X221242215Y-147814521D01*
X221272284Y-147749604D01*
X221297898Y-147694554D01*
X221319615Y-147648222D01*
X221337993Y-147609455D01*
X221353590Y-147577102D01*
X221366964Y-147550012D01*
X221378673Y-147527034D01*
X221389276Y-147507016D01*
X221399329Y-147488808D01*
X221409393Y-147471258D01*
X221486997Y-147346890D01*
X221573574Y-147226144D01*
X221579771Y-147217981D01*
X221603032Y-147186508D01*
X221629589Y-147149612D01*
X221656626Y-147111233D01*
X221681326Y-147075315D01*
X221721929Y-147017681D01*
X221761230Y-146967470D01*
X221797646Y-146927448D01*
X221832041Y-146896756D01*
X221865281Y-146874536D01*
X221898229Y-146859929D01*
X221898384Y-146859877D01*
X221918051Y-146850784D01*
X221934825Y-146839212D01*
X221935896Y-146838281D01*
X221956127Y-146828989D01*
X221983076Y-146827265D01*
X222014028Y-146832418D01*
X222046269Y-146843757D01*
X222077084Y-146860591D01*
X222103758Y-146882228D01*
X222104882Y-146883374D01*
X222121346Y-146902485D01*
X222142520Y-146930226D01*
X222166903Y-146964394D01*
X222192996Y-147002787D01*
X222219300Y-147043203D01*
X222244314Y-147083438D01*
X222266539Y-147121291D01*
X222276348Y-147138316D01*
X222297624Y-147173996D01*
X222320568Y-147211256D01*
X222341670Y-147244347D01*
X222349894Y-147257437D01*
X222368821Y-147290088D01*
X222389714Y-147328736D01*
X222410563Y-147369608D01*
X222429358Y-147408933D01*
X222442421Y-147437204D01*
X222456743Y-147467662D01*
X222468749Y-147492604D01*
X222477462Y-147510010D01*
X222481909Y-147517858D01*
X222486172Y-147524196D01*
X222496312Y-147541491D01*
X222510818Y-147567511D01*
X222528904Y-147600759D01*
X222549787Y-147639740D01*
X222572681Y-147682957D01*
X222596803Y-147728915D01*
X222621367Y-147776115D01*
X222645590Y-147823064D01*
X222668686Y-147868263D01*
X222689872Y-147910217D01*
X222708362Y-147947430D01*
X222723373Y-147978405D01*
X222723671Y-147979030D01*
X222771325Y-148079921D01*
X222813847Y-148171522D01*
X222852042Y-148255769D01*
X222886713Y-148334597D01*
X222918665Y-148409941D01*
X222948702Y-148483736D01*
X222977629Y-148557917D01*
X223006250Y-148634419D01*
X223035369Y-148715177D01*
X223065791Y-148802126D01*
X223077227Y-148835293D01*
X223114730Y-148945419D01*
X223148295Y-149046503D01*
X223178539Y-149140690D01*
X223206078Y-149230125D01*
X223231530Y-149316955D01*
X223255512Y-149403325D01*
X223278640Y-149491380D01*
X223301533Y-149583267D01*
X223324807Y-149681130D01*
X223349079Y-149787115D01*
X223357641Y-149824772D01*
X223369084Y-149874359D01*
X223380672Y-149923899D01*
X223391442Y-149969271D01*
X223400428Y-150006354D01*
X223401271Y-150009799D01*
X223410631Y-150050809D01*
X223419633Y-150094672D01*
X223427289Y-150136349D01*
X223432612Y-150170797D01*
X223442107Y-150243096D01*
X223475506Y-150279170D01*
X223481594Y-150286147D01*
X223498948Y-150308489D01*
X223519618Y-150337547D01*
X223541520Y-150370335D01*
X223562570Y-150403869D01*
X223566549Y-150410417D01*
X223587943Y-150445138D01*
X223613859Y-150486592D01*
X223642293Y-150531603D01*
X223671240Y-150576994D01*
X223698696Y-150619589D01*
X223728602Y-150666834D01*
X223789898Y-150772114D01*
X223846410Y-150881917D01*
X223899493Y-150998965D01*
X223950499Y-151125980D01*
X223953322Y-151133431D01*
X223970583Y-151179590D01*
X223983406Y-151215708D01*
X223992059Y-151243318D01*
X223996809Y-151263951D01*
X223997924Y-151279142D01*
X223995670Y-151290423D01*
X223990316Y-151299327D01*
X223982127Y-151307386D01*
X223977870Y-151311249D01*
X223973440Y-151319213D01*
X223974447Y-151320910D01*
X223978550Y-151327828D01*
G37*
%TD*%
M02*
