%TF.GenerationSoftware,KiCad,Pcbnew,7.0.2*%
%TF.CreationDate,2023-09-05T17:50:13-07:00*%
%TF.ProjectId,takupcb-r2,74616b75-7063-4622-9d72-322e6b696361,rev?*%
%TF.SameCoordinates,Original*%
%TF.FileFunction,Drillmap*%
%TF.FilePolarity,Positive*%
%FSLAX45Y45*%
G04 Gerber Fmt 4.5, Leading zero omitted, Abs format (unit mm)*
G04 Created by KiCad (PCBNEW 7.0.2) date 2023-09-05 17:50:13*
%MOMM*%
%LPD*%
G01*
G04 APERTURE LIST*
%ADD10C,0.150000*%
%ADD11C,0.100000*%
%ADD12C,0.200000*%
%ADD13C,0.080000*%
%ADD14C,0.110000*%
%ADD15C,0.149860*%
G04 APERTURE END LIST*
D10*
X23350000Y-3000000D02*
G75*
G03*
X23350000Y-3000000I-350000J0D01*
G01*
X3350000Y-15000000D02*
G75*
G03*
X3350000Y-15000000I-350000J0D01*
G01*
D11*
X2000000Y-15000000D02*
G75*
G03*
X3000000Y-16000000I1000000J0D01*
G01*
X24000000Y-3000000D02*
G75*
G03*
X23000000Y-2000000I-1000000J0D01*
G01*
X23000000Y-2000000D02*
X3000000Y-2000000D01*
D10*
X23350000Y-15000000D02*
G75*
G03*
X23350000Y-15000000I-350000J0D01*
G01*
D11*
X2000000Y-3000000D02*
X2000000Y-15000000D01*
X24000000Y-15000000D02*
X24000000Y-3000000D01*
X3000000Y-2000000D02*
G75*
G03*
X2000000Y-3000000I0J-1000000D01*
G01*
X3350000Y-3000000D02*
G75*
G03*
X3350000Y-3000000I-350000J0D01*
G01*
X23000000Y-16000000D02*
G75*
G03*
X24000000Y-15000000I0J1000000D01*
G01*
X3000000Y-16000000D02*
X23000000Y-16000000D01*
D12*
D13*
X3802000Y-7260000D02*
X3882000Y-7340000D01*
X3882000Y-7260000D02*
X3802000Y-7340000D01*
X4818000Y-7260000D02*
X4898000Y-7340000D01*
X4898000Y-7260000D02*
X4818000Y-7340000D01*
X6702000Y-7260000D02*
X6782000Y-7340000D01*
X6782000Y-7260000D02*
X6702000Y-7340000D01*
X7718000Y-7260000D02*
X7798000Y-7340000D01*
X7798000Y-7260000D02*
X7718000Y-7340000D01*
X9202000Y-8660000D02*
X9282000Y-8740000D01*
X9282000Y-8660000D02*
X9202000Y-8740000D01*
X10218000Y-8660000D02*
X10298000Y-8740000D01*
X10298000Y-8660000D02*
X10218000Y-8740000D01*
X10702000Y-13960000D02*
X10782000Y-14040000D01*
X10782000Y-13960000D02*
X10702000Y-14040000D01*
X11718000Y-13960000D02*
X11798000Y-14040000D01*
X11798000Y-13960000D02*
X11718000Y-14040000D01*
D11*
X13342000Y-3000000D02*
G75*
G03*
X13342000Y-3000000I-50000J0D01*
G01*
X13596000Y-3000000D02*
G75*
G03*
X13596000Y-3000000I-50000J0D01*
G01*
X13850000Y-3000000D02*
G75*
G03*
X13850000Y-3000000I-50000J0D01*
G01*
X14104000Y-3000000D02*
G75*
G03*
X14104000Y-3000000I-50000J0D01*
G01*
X14358000Y-3000000D02*
G75*
G03*
X14358000Y-3000000I-50000J0D01*
G01*
X14612000Y-3000000D02*
G75*
G03*
X14612000Y-3000000I-50000J0D01*
G01*
X15050000Y-3000000D02*
G75*
G03*
X15050000Y-3000000I-50000J0D01*
G01*
X15304000Y-3000000D02*
G75*
G03*
X15304000Y-3000000I-50000J0D01*
G01*
X15558000Y-3000000D02*
G75*
G03*
X15558000Y-3000000I-50000J0D01*
G01*
X15812000Y-3000000D02*
G75*
G03*
X15812000Y-3000000I-50000J0D01*
G01*
X16250000Y-3000000D02*
G75*
G03*
X16250000Y-3000000I-50000J0D01*
G01*
X16504000Y-3000000D02*
G75*
G03*
X16504000Y-3000000I-50000J0D01*
G01*
X16758000Y-3000000D02*
G75*
G03*
X16758000Y-3000000I-50000J0D01*
G01*
X17012000Y-3000000D02*
G75*
G03*
X17012000Y-3000000I-50000J0D01*
G01*
X17450000Y-3000000D02*
G75*
G03*
X17450000Y-3000000I-50000J0D01*
G01*
X17704000Y-3000000D02*
G75*
G03*
X17704000Y-3000000I-50000J0D01*
G01*
X17958000Y-3000000D02*
G75*
G03*
X17958000Y-3000000I-50000J0D01*
G01*
X18212000Y-3000000D02*
G75*
G03*
X18212000Y-3000000I-50000J0D01*
G01*
X22050000Y-14000000D02*
G75*
G03*
X22050000Y-14000000I-50000J0D01*
G01*
X22050000Y-14254000D02*
G75*
G03*
X22050000Y-14254000I-50000J0D01*
G01*
D14*
X4400000Y-2945000D02*
X4400000Y-3055000D01*
X4345000Y-3000000D02*
X4455000Y-3000000D01*
X4400000Y-3395000D02*
X4400000Y-3505000D01*
X4345000Y-3450000D02*
X4455000Y-3450000D01*
X5050000Y-2945000D02*
X5050000Y-3055000D01*
X4995000Y-3000000D02*
X5105000Y-3000000D01*
X5050000Y-3395000D02*
X5050000Y-3505000D01*
X4995000Y-3450000D02*
X5105000Y-3450000D01*
X5600000Y-2945000D02*
X5600000Y-3055000D01*
X5545000Y-3000000D02*
X5655000Y-3000000D01*
X5600000Y-3395000D02*
X5600000Y-3505000D01*
X5545000Y-3450000D02*
X5655000Y-3450000D01*
X6250000Y-2945000D02*
X6250000Y-3055000D01*
X6195000Y-3000000D02*
X6305000Y-3000000D01*
X6250000Y-3395000D02*
X6250000Y-3505000D01*
X6195000Y-3450000D02*
X6305000Y-3450000D01*
X6800000Y-2945000D02*
X6800000Y-3055000D01*
X6745000Y-3000000D02*
X6855000Y-3000000D01*
X6800000Y-3395000D02*
X6800000Y-3505000D01*
X6745000Y-3450000D02*
X6855000Y-3450000D01*
X7450000Y-2945000D02*
X7450000Y-3055000D01*
X7395000Y-3000000D02*
X7505000Y-3000000D01*
X7450000Y-3395000D02*
X7450000Y-3505000D01*
X7395000Y-3450000D02*
X7505000Y-3450000D01*
X8000000Y-2945000D02*
X8000000Y-3055000D01*
X7945000Y-3000000D02*
X8055000Y-3000000D01*
X8000000Y-3395000D02*
X8000000Y-3505000D01*
X7945000Y-3450000D02*
X8055000Y-3450000D01*
X8650000Y-2945000D02*
X8650000Y-3055000D01*
X8595000Y-3000000D02*
X8705000Y-3000000D01*
X8650000Y-3395000D02*
X8650000Y-3505000D01*
X8595000Y-3450000D02*
X8705000Y-3450000D01*
X9200000Y-2945000D02*
X9200000Y-3055000D01*
X9145000Y-3000000D02*
X9255000Y-3000000D01*
X9200000Y-3395000D02*
X9200000Y-3505000D01*
X9145000Y-3450000D02*
X9255000Y-3450000D01*
X9850000Y-2945000D02*
X9850000Y-3055000D01*
X9795000Y-3000000D02*
X9905000Y-3000000D01*
X9850000Y-3395000D02*
X9850000Y-3505000D01*
X9795000Y-3450000D02*
X9905000Y-3450000D01*
X10400000Y-2945000D02*
X10400000Y-3055000D01*
X10345000Y-3000000D02*
X10455000Y-3000000D01*
X10400000Y-3395000D02*
X10400000Y-3505000D01*
X10345000Y-3450000D02*
X10455000Y-3450000D01*
X11050000Y-2945000D02*
X11050000Y-3055000D01*
X10995000Y-3000000D02*
X11105000Y-3000000D01*
X11050000Y-3395000D02*
X11050000Y-3505000D01*
X10995000Y-3450000D02*
X11105000Y-3450000D01*
D15*
X4021984Y-5898984D02*
X4021984Y-5793016D01*
X3916016Y-5793016D01*
X3916016Y-5898984D01*
X4021984Y-5898984D01*
X4656984Y-5644984D02*
X4656984Y-5539016D01*
X4551016Y-5539016D01*
X4551016Y-5644984D01*
X4656984Y-5644984D01*
X6921984Y-5898984D02*
X6921984Y-5793016D01*
X6816016Y-5793016D01*
X6816016Y-5898984D01*
X6921984Y-5898984D01*
X7556984Y-5644984D02*
X7556984Y-5539016D01*
X7451016Y-5539016D01*
X7451016Y-5644984D01*
X7556984Y-5644984D01*
X9421984Y-7298984D02*
X9421984Y-7193016D01*
X9316016Y-7193016D01*
X9316016Y-7298984D01*
X9421984Y-7298984D01*
X10056984Y-7044984D02*
X10056984Y-6939016D01*
X9951016Y-6939016D01*
X9951016Y-7044984D01*
X10056984Y-7044984D01*
X10921984Y-12598984D02*
X10921984Y-12493016D01*
X10816016Y-12493016D01*
X10816016Y-12598984D01*
X10921984Y-12598984D01*
X11556984Y-12344984D02*
X11556984Y-12239016D01*
X11451016Y-12239016D01*
X11451016Y-12344984D01*
X11556984Y-12344984D01*
X13121984Y-6198984D02*
X13121984Y-6093016D01*
X13016016Y-6093016D01*
X13016016Y-6198984D01*
X13121984Y-6198984D01*
X13121984Y-9098984D02*
X13121984Y-8993016D01*
X13016016Y-8993016D01*
X13016016Y-9098984D01*
X13121984Y-9098984D01*
X13756984Y-5944984D02*
X13756984Y-5839016D01*
X13651016Y-5839016D01*
X13651016Y-5944984D01*
X13756984Y-5944984D01*
X13756984Y-8844984D02*
X13756984Y-8739016D01*
X13651016Y-8739016D01*
X13651016Y-8844984D01*
X13756984Y-8844984D01*
X15621984Y-4798984D02*
X15621984Y-4693016D01*
X15516016Y-4693016D01*
X15516016Y-4798984D01*
X15621984Y-4798984D01*
X15621984Y-7698984D02*
X15621984Y-7593016D01*
X15516016Y-7593016D01*
X15516016Y-7698984D01*
X15621984Y-7698984D01*
X16256984Y-4544984D02*
X16256984Y-4439016D01*
X16151016Y-4439016D01*
X16151016Y-4544984D01*
X16256984Y-4544984D01*
X16256984Y-7444984D02*
X16256984Y-7339016D01*
X16151016Y-7339016D01*
X16151016Y-7444984D01*
X16256984Y-7444984D01*
X18521984Y-4798984D02*
X18521984Y-4693016D01*
X18416016Y-4693016D01*
X18416016Y-4798984D01*
X18521984Y-4798984D01*
X18521984Y-7698984D02*
X18521984Y-7593016D01*
X18416016Y-7593016D01*
X18416016Y-7698984D01*
X18521984Y-7698984D01*
X19156984Y-4544984D02*
X19156984Y-4439016D01*
X19051016Y-4439016D01*
X19051016Y-4544984D01*
X19156984Y-4544984D01*
X19156984Y-7444984D02*
X19156984Y-7339016D01*
X19051016Y-7339016D01*
X19051016Y-7444984D01*
X19156984Y-7444984D01*
X21321984Y-5498984D02*
X21321984Y-5393016D01*
X21216016Y-5393016D01*
X21216016Y-5498984D01*
X21321984Y-5498984D01*
X21321984Y-8398984D02*
X21321984Y-8293016D01*
X21216016Y-8293016D01*
X21216016Y-8398984D01*
X21321984Y-8398984D01*
X21956984Y-5244984D02*
X21956984Y-5139016D01*
X21851016Y-5139016D01*
X21851016Y-5244984D01*
X21956984Y-5244984D01*
X21956984Y-8144984D02*
X21956984Y-8039016D01*
X21851016Y-8039016D01*
X21851016Y-8144984D01*
X21956984Y-8144984D01*
D12*
X2242619Y-16317524D02*
X2242619Y-16117524D01*
X2242619Y-16117524D02*
X2290238Y-16117524D01*
X2290238Y-16117524D02*
X2318810Y-16127048D01*
X2318810Y-16127048D02*
X2337857Y-16146095D01*
X2337857Y-16146095D02*
X2347381Y-16165143D01*
X2347381Y-16165143D02*
X2356905Y-16203238D01*
X2356905Y-16203238D02*
X2356905Y-16231809D01*
X2356905Y-16231809D02*
X2347381Y-16269905D01*
X2347381Y-16269905D02*
X2337857Y-16288952D01*
X2337857Y-16288952D02*
X2318810Y-16308000D01*
X2318810Y-16308000D02*
X2290238Y-16317524D01*
X2290238Y-16317524D02*
X2242619Y-16317524D01*
X2442619Y-16317524D02*
X2442619Y-16184190D01*
X2442619Y-16222286D02*
X2452143Y-16203238D01*
X2452143Y-16203238D02*
X2461667Y-16193714D01*
X2461667Y-16193714D02*
X2480714Y-16184190D01*
X2480714Y-16184190D02*
X2499762Y-16184190D01*
X2566429Y-16317524D02*
X2566429Y-16184190D01*
X2566429Y-16117524D02*
X2556905Y-16127048D01*
X2556905Y-16127048D02*
X2566429Y-16136571D01*
X2566429Y-16136571D02*
X2575952Y-16127048D01*
X2575952Y-16127048D02*
X2566429Y-16117524D01*
X2566429Y-16117524D02*
X2566429Y-16136571D01*
X2690238Y-16317524D02*
X2671190Y-16308000D01*
X2671190Y-16308000D02*
X2661667Y-16288952D01*
X2661667Y-16288952D02*
X2661667Y-16117524D01*
X2795000Y-16317524D02*
X2775952Y-16308000D01*
X2775952Y-16308000D02*
X2766429Y-16288952D01*
X2766429Y-16288952D02*
X2766429Y-16117524D01*
X3023571Y-16317524D02*
X3023571Y-16117524D01*
X3023571Y-16117524D02*
X3090238Y-16260381D01*
X3090238Y-16260381D02*
X3156905Y-16117524D01*
X3156905Y-16117524D02*
X3156905Y-16317524D01*
X3337857Y-16317524D02*
X3337857Y-16212762D01*
X3337857Y-16212762D02*
X3328333Y-16193714D01*
X3328333Y-16193714D02*
X3309286Y-16184190D01*
X3309286Y-16184190D02*
X3271190Y-16184190D01*
X3271190Y-16184190D02*
X3252143Y-16193714D01*
X3337857Y-16308000D02*
X3318809Y-16317524D01*
X3318809Y-16317524D02*
X3271190Y-16317524D01*
X3271190Y-16317524D02*
X3252143Y-16308000D01*
X3252143Y-16308000D02*
X3242619Y-16288952D01*
X3242619Y-16288952D02*
X3242619Y-16269905D01*
X3242619Y-16269905D02*
X3252143Y-16250857D01*
X3252143Y-16250857D02*
X3271190Y-16241333D01*
X3271190Y-16241333D02*
X3318809Y-16241333D01*
X3318809Y-16241333D02*
X3337857Y-16231809D01*
X3433095Y-16184190D02*
X3433095Y-16384190D01*
X3433095Y-16193714D02*
X3452143Y-16184190D01*
X3452143Y-16184190D02*
X3490238Y-16184190D01*
X3490238Y-16184190D02*
X3509286Y-16193714D01*
X3509286Y-16193714D02*
X3518809Y-16203238D01*
X3518809Y-16203238D02*
X3528333Y-16222286D01*
X3528333Y-16222286D02*
X3528333Y-16279428D01*
X3528333Y-16279428D02*
X3518809Y-16298476D01*
X3518809Y-16298476D02*
X3509286Y-16308000D01*
X3509286Y-16308000D02*
X3490238Y-16317524D01*
X3490238Y-16317524D02*
X3452143Y-16317524D01*
X3452143Y-16317524D02*
X3433095Y-16308000D01*
X3614048Y-16298476D02*
X3623571Y-16308000D01*
X3623571Y-16308000D02*
X3614048Y-16317524D01*
X3614048Y-16317524D02*
X3604524Y-16308000D01*
X3604524Y-16308000D02*
X3614048Y-16298476D01*
X3614048Y-16298476D02*
X3614048Y-16317524D01*
X3614048Y-16193714D02*
X3623571Y-16203238D01*
X3623571Y-16203238D02*
X3614048Y-16212762D01*
X3614048Y-16212762D02*
X3604524Y-16203238D01*
X3604524Y-16203238D02*
X3614048Y-16193714D01*
X3614048Y-16193714D02*
X3614048Y-16212762D01*
D13*
X1915000Y-16605000D02*
X1995000Y-16685000D01*
X1995000Y-16605000D02*
X1915000Y-16685000D01*
D12*
X2280714Y-16537524D02*
X2299762Y-16537524D01*
X2299762Y-16537524D02*
X2318810Y-16547048D01*
X2318810Y-16547048D02*
X2328333Y-16556571D01*
X2328333Y-16556571D02*
X2337857Y-16575619D01*
X2337857Y-16575619D02*
X2347381Y-16613714D01*
X2347381Y-16613714D02*
X2347381Y-16661333D01*
X2347381Y-16661333D02*
X2337857Y-16699428D01*
X2337857Y-16699428D02*
X2328333Y-16718476D01*
X2328333Y-16718476D02*
X2318810Y-16728000D01*
X2318810Y-16728000D02*
X2299762Y-16737524D01*
X2299762Y-16737524D02*
X2280714Y-16737524D01*
X2280714Y-16737524D02*
X2261667Y-16728000D01*
X2261667Y-16728000D02*
X2252143Y-16718476D01*
X2252143Y-16718476D02*
X2242619Y-16699428D01*
X2242619Y-16699428D02*
X2233095Y-16661333D01*
X2233095Y-16661333D02*
X2233095Y-16613714D01*
X2233095Y-16613714D02*
X2242619Y-16575619D01*
X2242619Y-16575619D02*
X2252143Y-16556571D01*
X2252143Y-16556571D02*
X2261667Y-16547048D01*
X2261667Y-16547048D02*
X2280714Y-16537524D01*
X2433095Y-16718476D02*
X2442619Y-16728000D01*
X2442619Y-16728000D02*
X2433095Y-16737524D01*
X2433095Y-16737524D02*
X2423571Y-16728000D01*
X2423571Y-16728000D02*
X2433095Y-16718476D01*
X2433095Y-16718476D02*
X2433095Y-16737524D01*
X2556905Y-16623238D02*
X2537857Y-16613714D01*
X2537857Y-16613714D02*
X2528333Y-16604190D01*
X2528333Y-16604190D02*
X2518810Y-16585143D01*
X2518810Y-16585143D02*
X2518810Y-16575619D01*
X2518810Y-16575619D02*
X2528333Y-16556571D01*
X2528333Y-16556571D02*
X2537857Y-16547048D01*
X2537857Y-16547048D02*
X2556905Y-16537524D01*
X2556905Y-16537524D02*
X2595000Y-16537524D01*
X2595000Y-16537524D02*
X2614048Y-16547048D01*
X2614048Y-16547048D02*
X2623571Y-16556571D01*
X2623571Y-16556571D02*
X2633095Y-16575619D01*
X2633095Y-16575619D02*
X2633095Y-16585143D01*
X2633095Y-16585143D02*
X2623571Y-16604190D01*
X2623571Y-16604190D02*
X2614048Y-16613714D01*
X2614048Y-16613714D02*
X2595000Y-16623238D01*
X2595000Y-16623238D02*
X2556905Y-16623238D01*
X2556905Y-16623238D02*
X2537857Y-16632762D01*
X2537857Y-16632762D02*
X2528333Y-16642286D01*
X2528333Y-16642286D02*
X2518810Y-16661333D01*
X2518810Y-16661333D02*
X2518810Y-16699428D01*
X2518810Y-16699428D02*
X2528333Y-16718476D01*
X2528333Y-16718476D02*
X2537857Y-16728000D01*
X2537857Y-16728000D02*
X2556905Y-16737524D01*
X2556905Y-16737524D02*
X2595000Y-16737524D01*
X2595000Y-16737524D02*
X2614048Y-16728000D01*
X2614048Y-16728000D02*
X2623571Y-16718476D01*
X2623571Y-16718476D02*
X2633095Y-16699428D01*
X2633095Y-16699428D02*
X2633095Y-16661333D01*
X2633095Y-16661333D02*
X2623571Y-16642286D01*
X2623571Y-16642286D02*
X2614048Y-16632762D01*
X2614048Y-16632762D02*
X2595000Y-16623238D01*
X2756905Y-16537524D02*
X2775952Y-16537524D01*
X2775952Y-16537524D02*
X2795000Y-16547048D01*
X2795000Y-16547048D02*
X2804524Y-16556571D01*
X2804524Y-16556571D02*
X2814048Y-16575619D01*
X2814048Y-16575619D02*
X2823571Y-16613714D01*
X2823571Y-16613714D02*
X2823571Y-16661333D01*
X2823571Y-16661333D02*
X2814048Y-16699428D01*
X2814048Y-16699428D02*
X2804524Y-16718476D01*
X2804524Y-16718476D02*
X2795000Y-16728000D01*
X2795000Y-16728000D02*
X2775952Y-16737524D01*
X2775952Y-16737524D02*
X2756905Y-16737524D01*
X2756905Y-16737524D02*
X2737857Y-16728000D01*
X2737857Y-16728000D02*
X2728333Y-16718476D01*
X2728333Y-16718476D02*
X2718810Y-16699428D01*
X2718810Y-16699428D02*
X2709286Y-16661333D01*
X2709286Y-16661333D02*
X2709286Y-16613714D01*
X2709286Y-16613714D02*
X2718810Y-16575619D01*
X2718810Y-16575619D02*
X2728333Y-16556571D01*
X2728333Y-16556571D02*
X2737857Y-16547048D01*
X2737857Y-16547048D02*
X2756905Y-16537524D01*
X2947381Y-16537524D02*
X2966429Y-16537524D01*
X2966429Y-16537524D02*
X2985476Y-16547048D01*
X2985476Y-16547048D02*
X2995000Y-16556571D01*
X2995000Y-16556571D02*
X3004524Y-16575619D01*
X3004524Y-16575619D02*
X3014048Y-16613714D01*
X3014048Y-16613714D02*
X3014048Y-16661333D01*
X3014048Y-16661333D02*
X3004524Y-16699428D01*
X3004524Y-16699428D02*
X2995000Y-16718476D01*
X2995000Y-16718476D02*
X2985476Y-16728000D01*
X2985476Y-16728000D02*
X2966429Y-16737524D01*
X2966429Y-16737524D02*
X2947381Y-16737524D01*
X2947381Y-16737524D02*
X2928333Y-16728000D01*
X2928333Y-16728000D02*
X2918809Y-16718476D01*
X2918809Y-16718476D02*
X2909286Y-16699428D01*
X2909286Y-16699428D02*
X2899762Y-16661333D01*
X2899762Y-16661333D02*
X2899762Y-16613714D01*
X2899762Y-16613714D02*
X2909286Y-16575619D01*
X2909286Y-16575619D02*
X2918809Y-16556571D01*
X2918809Y-16556571D02*
X2928333Y-16547048D01*
X2928333Y-16547048D02*
X2947381Y-16537524D01*
X3099762Y-16737524D02*
X3099762Y-16604190D01*
X3099762Y-16623238D02*
X3109286Y-16613714D01*
X3109286Y-16613714D02*
X3128333Y-16604190D01*
X3128333Y-16604190D02*
X3156905Y-16604190D01*
X3156905Y-16604190D02*
X3175952Y-16613714D01*
X3175952Y-16613714D02*
X3185476Y-16632762D01*
X3185476Y-16632762D02*
X3185476Y-16737524D01*
X3185476Y-16632762D02*
X3195000Y-16613714D01*
X3195000Y-16613714D02*
X3214048Y-16604190D01*
X3214048Y-16604190D02*
X3242619Y-16604190D01*
X3242619Y-16604190D02*
X3261667Y-16613714D01*
X3261667Y-16613714D02*
X3271190Y-16632762D01*
X3271190Y-16632762D02*
X3271190Y-16737524D01*
X3366429Y-16737524D02*
X3366429Y-16604190D01*
X3366429Y-16623238D02*
X3375952Y-16613714D01*
X3375952Y-16613714D02*
X3395000Y-16604190D01*
X3395000Y-16604190D02*
X3423571Y-16604190D01*
X3423571Y-16604190D02*
X3442619Y-16613714D01*
X3442619Y-16613714D02*
X3452143Y-16632762D01*
X3452143Y-16632762D02*
X3452143Y-16737524D01*
X3452143Y-16632762D02*
X3461667Y-16613714D01*
X3461667Y-16613714D02*
X3480714Y-16604190D01*
X3480714Y-16604190D02*
X3509286Y-16604190D01*
X3509286Y-16604190D02*
X3528333Y-16613714D01*
X3528333Y-16613714D02*
X3537857Y-16632762D01*
X3537857Y-16632762D02*
X3537857Y-16737524D01*
X3928333Y-16528000D02*
X3756905Y-16785143D01*
X4185476Y-16537524D02*
X4204524Y-16537524D01*
X4204524Y-16537524D02*
X4223572Y-16547048D01*
X4223572Y-16547048D02*
X4233095Y-16556571D01*
X4233095Y-16556571D02*
X4242619Y-16575619D01*
X4242619Y-16575619D02*
X4252143Y-16613714D01*
X4252143Y-16613714D02*
X4252143Y-16661333D01*
X4252143Y-16661333D02*
X4242619Y-16699428D01*
X4242619Y-16699428D02*
X4233095Y-16718476D01*
X4233095Y-16718476D02*
X4223572Y-16728000D01*
X4223572Y-16728000D02*
X4204524Y-16737524D01*
X4204524Y-16737524D02*
X4185476Y-16737524D01*
X4185476Y-16737524D02*
X4166429Y-16728000D01*
X4166429Y-16728000D02*
X4156905Y-16718476D01*
X4156905Y-16718476D02*
X4147381Y-16699428D01*
X4147381Y-16699428D02*
X4137857Y-16661333D01*
X4137857Y-16661333D02*
X4137857Y-16613714D01*
X4137857Y-16613714D02*
X4147381Y-16575619D01*
X4147381Y-16575619D02*
X4156905Y-16556571D01*
X4156905Y-16556571D02*
X4166429Y-16547048D01*
X4166429Y-16547048D02*
X4185476Y-16537524D01*
X4337857Y-16718476D02*
X4347381Y-16728000D01*
X4347381Y-16728000D02*
X4337857Y-16737524D01*
X4337857Y-16737524D02*
X4328334Y-16728000D01*
X4328334Y-16728000D02*
X4337857Y-16718476D01*
X4337857Y-16718476D02*
X4337857Y-16737524D01*
X4471191Y-16537524D02*
X4490238Y-16537524D01*
X4490238Y-16537524D02*
X4509286Y-16547048D01*
X4509286Y-16547048D02*
X4518810Y-16556571D01*
X4518810Y-16556571D02*
X4528334Y-16575619D01*
X4528334Y-16575619D02*
X4537857Y-16613714D01*
X4537857Y-16613714D02*
X4537857Y-16661333D01*
X4537857Y-16661333D02*
X4528334Y-16699428D01*
X4528334Y-16699428D02*
X4518810Y-16718476D01*
X4518810Y-16718476D02*
X4509286Y-16728000D01*
X4509286Y-16728000D02*
X4490238Y-16737524D01*
X4490238Y-16737524D02*
X4471191Y-16737524D01*
X4471191Y-16737524D02*
X4452143Y-16728000D01*
X4452143Y-16728000D02*
X4442619Y-16718476D01*
X4442619Y-16718476D02*
X4433095Y-16699428D01*
X4433095Y-16699428D02*
X4423572Y-16661333D01*
X4423572Y-16661333D02*
X4423572Y-16613714D01*
X4423572Y-16613714D02*
X4433095Y-16575619D01*
X4433095Y-16575619D02*
X4442619Y-16556571D01*
X4442619Y-16556571D02*
X4452143Y-16547048D01*
X4452143Y-16547048D02*
X4471191Y-16537524D01*
X4604524Y-16537524D02*
X4728334Y-16537524D01*
X4728334Y-16537524D02*
X4661667Y-16613714D01*
X4661667Y-16613714D02*
X4690238Y-16613714D01*
X4690238Y-16613714D02*
X4709286Y-16623238D01*
X4709286Y-16623238D02*
X4718810Y-16632762D01*
X4718810Y-16632762D02*
X4728334Y-16651809D01*
X4728334Y-16651809D02*
X4728334Y-16699428D01*
X4728334Y-16699428D02*
X4718810Y-16718476D01*
X4718810Y-16718476D02*
X4709286Y-16728000D01*
X4709286Y-16728000D02*
X4690238Y-16737524D01*
X4690238Y-16737524D02*
X4633095Y-16737524D01*
X4633095Y-16737524D02*
X4614048Y-16728000D01*
X4614048Y-16728000D02*
X4604524Y-16718476D01*
X4918810Y-16737524D02*
X4804524Y-16737524D01*
X4861667Y-16737524D02*
X4861667Y-16537524D01*
X4861667Y-16537524D02*
X4842619Y-16566095D01*
X4842619Y-16566095D02*
X4823572Y-16585143D01*
X4823572Y-16585143D02*
X4804524Y-16594667D01*
X5099762Y-16537524D02*
X5004524Y-16537524D01*
X5004524Y-16537524D02*
X4995000Y-16632762D01*
X4995000Y-16632762D02*
X5004524Y-16623238D01*
X5004524Y-16623238D02*
X5023572Y-16613714D01*
X5023572Y-16613714D02*
X5071191Y-16613714D01*
X5071191Y-16613714D02*
X5090238Y-16623238D01*
X5090238Y-16623238D02*
X5099762Y-16632762D01*
X5099762Y-16632762D02*
X5109286Y-16651809D01*
X5109286Y-16651809D02*
X5109286Y-16699428D01*
X5109286Y-16699428D02*
X5099762Y-16718476D01*
X5099762Y-16718476D02*
X5090238Y-16728000D01*
X5090238Y-16728000D02*
X5071191Y-16737524D01*
X5071191Y-16737524D02*
X5023572Y-16737524D01*
X5023572Y-16737524D02*
X5004524Y-16728000D01*
X5004524Y-16728000D02*
X4995000Y-16718476D01*
X5185476Y-16537524D02*
X5185476Y-16575619D01*
X5261667Y-16537524D02*
X5261667Y-16575619D01*
X5556905Y-16813714D02*
X5547381Y-16804190D01*
X5547381Y-16804190D02*
X5528334Y-16775619D01*
X5528334Y-16775619D02*
X5518810Y-16756571D01*
X5518810Y-16756571D02*
X5509286Y-16728000D01*
X5509286Y-16728000D02*
X5499762Y-16680381D01*
X5499762Y-16680381D02*
X5499762Y-16642286D01*
X5499762Y-16642286D02*
X5509286Y-16594667D01*
X5509286Y-16594667D02*
X5518810Y-16566095D01*
X5518810Y-16566095D02*
X5528334Y-16547048D01*
X5528334Y-16547048D02*
X5547381Y-16518476D01*
X5547381Y-16518476D02*
X5556905Y-16508952D01*
X5661667Y-16623238D02*
X5642619Y-16613714D01*
X5642619Y-16613714D02*
X5633095Y-16604190D01*
X5633095Y-16604190D02*
X5623572Y-16585143D01*
X5623572Y-16585143D02*
X5623572Y-16575619D01*
X5623572Y-16575619D02*
X5633095Y-16556571D01*
X5633095Y-16556571D02*
X5642619Y-16547048D01*
X5642619Y-16547048D02*
X5661667Y-16537524D01*
X5661667Y-16537524D02*
X5699762Y-16537524D01*
X5699762Y-16537524D02*
X5718810Y-16547048D01*
X5718810Y-16547048D02*
X5728334Y-16556571D01*
X5728334Y-16556571D02*
X5737857Y-16575619D01*
X5737857Y-16575619D02*
X5737857Y-16585143D01*
X5737857Y-16585143D02*
X5728334Y-16604190D01*
X5728334Y-16604190D02*
X5718810Y-16613714D01*
X5718810Y-16613714D02*
X5699762Y-16623238D01*
X5699762Y-16623238D02*
X5661667Y-16623238D01*
X5661667Y-16623238D02*
X5642619Y-16632762D01*
X5642619Y-16632762D02*
X5633095Y-16642286D01*
X5633095Y-16642286D02*
X5623572Y-16661333D01*
X5623572Y-16661333D02*
X5623572Y-16699428D01*
X5623572Y-16699428D02*
X5633095Y-16718476D01*
X5633095Y-16718476D02*
X5642619Y-16728000D01*
X5642619Y-16728000D02*
X5661667Y-16737524D01*
X5661667Y-16737524D02*
X5699762Y-16737524D01*
X5699762Y-16737524D02*
X5718810Y-16728000D01*
X5718810Y-16728000D02*
X5728334Y-16718476D01*
X5728334Y-16718476D02*
X5737857Y-16699428D01*
X5737857Y-16699428D02*
X5737857Y-16661333D01*
X5737857Y-16661333D02*
X5728334Y-16642286D01*
X5728334Y-16642286D02*
X5718810Y-16632762D01*
X5718810Y-16632762D02*
X5699762Y-16623238D01*
X5975953Y-16737524D02*
X5975953Y-16537524D01*
X6061667Y-16737524D02*
X6061667Y-16632762D01*
X6061667Y-16632762D02*
X6052143Y-16613714D01*
X6052143Y-16613714D02*
X6033096Y-16604190D01*
X6033096Y-16604190D02*
X6004524Y-16604190D01*
X6004524Y-16604190D02*
X5985476Y-16613714D01*
X5985476Y-16613714D02*
X5975953Y-16623238D01*
X6185476Y-16737524D02*
X6166429Y-16728000D01*
X6166429Y-16728000D02*
X6156905Y-16718476D01*
X6156905Y-16718476D02*
X6147381Y-16699428D01*
X6147381Y-16699428D02*
X6147381Y-16642286D01*
X6147381Y-16642286D02*
X6156905Y-16623238D01*
X6156905Y-16623238D02*
X6166429Y-16613714D01*
X6166429Y-16613714D02*
X6185476Y-16604190D01*
X6185476Y-16604190D02*
X6214048Y-16604190D01*
X6214048Y-16604190D02*
X6233096Y-16613714D01*
X6233096Y-16613714D02*
X6242619Y-16623238D01*
X6242619Y-16623238D02*
X6252143Y-16642286D01*
X6252143Y-16642286D02*
X6252143Y-16699428D01*
X6252143Y-16699428D02*
X6242619Y-16718476D01*
X6242619Y-16718476D02*
X6233096Y-16728000D01*
X6233096Y-16728000D02*
X6214048Y-16737524D01*
X6214048Y-16737524D02*
X6185476Y-16737524D01*
X6366429Y-16737524D02*
X6347381Y-16728000D01*
X6347381Y-16728000D02*
X6337857Y-16708952D01*
X6337857Y-16708952D02*
X6337857Y-16537524D01*
X6518810Y-16728000D02*
X6499762Y-16737524D01*
X6499762Y-16737524D02*
X6461667Y-16737524D01*
X6461667Y-16737524D02*
X6442619Y-16728000D01*
X6442619Y-16728000D02*
X6433096Y-16708952D01*
X6433096Y-16708952D02*
X6433096Y-16632762D01*
X6433096Y-16632762D02*
X6442619Y-16613714D01*
X6442619Y-16613714D02*
X6461667Y-16604190D01*
X6461667Y-16604190D02*
X6499762Y-16604190D01*
X6499762Y-16604190D02*
X6518810Y-16613714D01*
X6518810Y-16613714D02*
X6528334Y-16632762D01*
X6528334Y-16632762D02*
X6528334Y-16651809D01*
X6528334Y-16651809D02*
X6433096Y-16670857D01*
X6604524Y-16728000D02*
X6623572Y-16737524D01*
X6623572Y-16737524D02*
X6661667Y-16737524D01*
X6661667Y-16737524D02*
X6680715Y-16728000D01*
X6680715Y-16728000D02*
X6690238Y-16708952D01*
X6690238Y-16708952D02*
X6690238Y-16699428D01*
X6690238Y-16699428D02*
X6680715Y-16680381D01*
X6680715Y-16680381D02*
X6661667Y-16670857D01*
X6661667Y-16670857D02*
X6633096Y-16670857D01*
X6633096Y-16670857D02*
X6614048Y-16661333D01*
X6614048Y-16661333D02*
X6604524Y-16642286D01*
X6604524Y-16642286D02*
X6604524Y-16632762D01*
X6604524Y-16632762D02*
X6614048Y-16613714D01*
X6614048Y-16613714D02*
X6633096Y-16604190D01*
X6633096Y-16604190D02*
X6661667Y-16604190D01*
X6661667Y-16604190D02*
X6680715Y-16613714D01*
X6756905Y-16813714D02*
X6766429Y-16804190D01*
X6766429Y-16804190D02*
X6785477Y-16775619D01*
X6785477Y-16775619D02*
X6795000Y-16756571D01*
X6795000Y-16756571D02*
X6804524Y-16728000D01*
X6804524Y-16728000D02*
X6814048Y-16680381D01*
X6814048Y-16680381D02*
X6814048Y-16642286D01*
X6814048Y-16642286D02*
X6804524Y-16594667D01*
X6804524Y-16594667D02*
X6795000Y-16566095D01*
X6795000Y-16566095D02*
X6785477Y-16547048D01*
X6785477Y-16547048D02*
X6766429Y-16518476D01*
X6766429Y-16518476D02*
X6756905Y-16508952D01*
D11*
X1995000Y-16909000D02*
G75*
G03*
X1995000Y-16909000I-50000J0D01*
G01*
D12*
X2347381Y-17001524D02*
X2233095Y-17001524D01*
X2290238Y-17001524D02*
X2290238Y-16801524D01*
X2290238Y-16801524D02*
X2271190Y-16830095D01*
X2271190Y-16830095D02*
X2252143Y-16849143D01*
X2252143Y-16849143D02*
X2233095Y-16858667D01*
X2433095Y-16982476D02*
X2442619Y-16992000D01*
X2442619Y-16992000D02*
X2433095Y-17001524D01*
X2433095Y-17001524D02*
X2423571Y-16992000D01*
X2423571Y-16992000D02*
X2433095Y-16982476D01*
X2433095Y-16982476D02*
X2433095Y-17001524D01*
X2566429Y-16801524D02*
X2585476Y-16801524D01*
X2585476Y-16801524D02*
X2604524Y-16811048D01*
X2604524Y-16811048D02*
X2614048Y-16820571D01*
X2614048Y-16820571D02*
X2623571Y-16839619D01*
X2623571Y-16839619D02*
X2633095Y-16877714D01*
X2633095Y-16877714D02*
X2633095Y-16925333D01*
X2633095Y-16925333D02*
X2623571Y-16963429D01*
X2623571Y-16963429D02*
X2614048Y-16982476D01*
X2614048Y-16982476D02*
X2604524Y-16992000D01*
X2604524Y-16992000D02*
X2585476Y-17001524D01*
X2585476Y-17001524D02*
X2566429Y-17001524D01*
X2566429Y-17001524D02*
X2547381Y-16992000D01*
X2547381Y-16992000D02*
X2537857Y-16982476D01*
X2537857Y-16982476D02*
X2528333Y-16963429D01*
X2528333Y-16963429D02*
X2518810Y-16925333D01*
X2518810Y-16925333D02*
X2518810Y-16877714D01*
X2518810Y-16877714D02*
X2528333Y-16839619D01*
X2528333Y-16839619D02*
X2537857Y-16820571D01*
X2537857Y-16820571D02*
X2547381Y-16811048D01*
X2547381Y-16811048D02*
X2566429Y-16801524D01*
X2756905Y-16801524D02*
X2775952Y-16801524D01*
X2775952Y-16801524D02*
X2795000Y-16811048D01*
X2795000Y-16811048D02*
X2804524Y-16820571D01*
X2804524Y-16820571D02*
X2814048Y-16839619D01*
X2814048Y-16839619D02*
X2823571Y-16877714D01*
X2823571Y-16877714D02*
X2823571Y-16925333D01*
X2823571Y-16925333D02*
X2814048Y-16963429D01*
X2814048Y-16963429D02*
X2804524Y-16982476D01*
X2804524Y-16982476D02*
X2795000Y-16992000D01*
X2795000Y-16992000D02*
X2775952Y-17001524D01*
X2775952Y-17001524D02*
X2756905Y-17001524D01*
X2756905Y-17001524D02*
X2737857Y-16992000D01*
X2737857Y-16992000D02*
X2728333Y-16982476D01*
X2728333Y-16982476D02*
X2718810Y-16963429D01*
X2718810Y-16963429D02*
X2709286Y-16925333D01*
X2709286Y-16925333D02*
X2709286Y-16877714D01*
X2709286Y-16877714D02*
X2718810Y-16839619D01*
X2718810Y-16839619D02*
X2728333Y-16820571D01*
X2728333Y-16820571D02*
X2737857Y-16811048D01*
X2737857Y-16811048D02*
X2756905Y-16801524D01*
X2947381Y-16801524D02*
X2966429Y-16801524D01*
X2966429Y-16801524D02*
X2985476Y-16811048D01*
X2985476Y-16811048D02*
X2995000Y-16820571D01*
X2995000Y-16820571D02*
X3004524Y-16839619D01*
X3004524Y-16839619D02*
X3014048Y-16877714D01*
X3014048Y-16877714D02*
X3014048Y-16925333D01*
X3014048Y-16925333D02*
X3004524Y-16963429D01*
X3004524Y-16963429D02*
X2995000Y-16982476D01*
X2995000Y-16982476D02*
X2985476Y-16992000D01*
X2985476Y-16992000D02*
X2966429Y-17001524D01*
X2966429Y-17001524D02*
X2947381Y-17001524D01*
X2947381Y-17001524D02*
X2928333Y-16992000D01*
X2928333Y-16992000D02*
X2918809Y-16982476D01*
X2918809Y-16982476D02*
X2909286Y-16963429D01*
X2909286Y-16963429D02*
X2899762Y-16925333D01*
X2899762Y-16925333D02*
X2899762Y-16877714D01*
X2899762Y-16877714D02*
X2909286Y-16839619D01*
X2909286Y-16839619D02*
X2918809Y-16820571D01*
X2918809Y-16820571D02*
X2928333Y-16811048D01*
X2928333Y-16811048D02*
X2947381Y-16801524D01*
X3099762Y-17001524D02*
X3099762Y-16868190D01*
X3099762Y-16887238D02*
X3109286Y-16877714D01*
X3109286Y-16877714D02*
X3128333Y-16868190D01*
X3128333Y-16868190D02*
X3156905Y-16868190D01*
X3156905Y-16868190D02*
X3175952Y-16877714D01*
X3175952Y-16877714D02*
X3185476Y-16896762D01*
X3185476Y-16896762D02*
X3185476Y-17001524D01*
X3185476Y-16896762D02*
X3195000Y-16877714D01*
X3195000Y-16877714D02*
X3214048Y-16868190D01*
X3214048Y-16868190D02*
X3242619Y-16868190D01*
X3242619Y-16868190D02*
X3261667Y-16877714D01*
X3261667Y-16877714D02*
X3271190Y-16896762D01*
X3271190Y-16896762D02*
X3271190Y-17001524D01*
X3366429Y-17001524D02*
X3366429Y-16868190D01*
X3366429Y-16887238D02*
X3375952Y-16877714D01*
X3375952Y-16877714D02*
X3395000Y-16868190D01*
X3395000Y-16868190D02*
X3423571Y-16868190D01*
X3423571Y-16868190D02*
X3442619Y-16877714D01*
X3442619Y-16877714D02*
X3452143Y-16896762D01*
X3452143Y-16896762D02*
X3452143Y-17001524D01*
X3452143Y-16896762D02*
X3461667Y-16877714D01*
X3461667Y-16877714D02*
X3480714Y-16868190D01*
X3480714Y-16868190D02*
X3509286Y-16868190D01*
X3509286Y-16868190D02*
X3528333Y-16877714D01*
X3528333Y-16877714D02*
X3537857Y-16896762D01*
X3537857Y-16896762D02*
X3537857Y-17001524D01*
X3928333Y-16792000D02*
X3756905Y-17049143D01*
X4185476Y-16801524D02*
X4204524Y-16801524D01*
X4204524Y-16801524D02*
X4223572Y-16811048D01*
X4223572Y-16811048D02*
X4233095Y-16820571D01*
X4233095Y-16820571D02*
X4242619Y-16839619D01*
X4242619Y-16839619D02*
X4252143Y-16877714D01*
X4252143Y-16877714D02*
X4252143Y-16925333D01*
X4252143Y-16925333D02*
X4242619Y-16963429D01*
X4242619Y-16963429D02*
X4233095Y-16982476D01*
X4233095Y-16982476D02*
X4223572Y-16992000D01*
X4223572Y-16992000D02*
X4204524Y-17001524D01*
X4204524Y-17001524D02*
X4185476Y-17001524D01*
X4185476Y-17001524D02*
X4166429Y-16992000D01*
X4166429Y-16992000D02*
X4156905Y-16982476D01*
X4156905Y-16982476D02*
X4147381Y-16963429D01*
X4147381Y-16963429D02*
X4137857Y-16925333D01*
X4137857Y-16925333D02*
X4137857Y-16877714D01*
X4137857Y-16877714D02*
X4147381Y-16839619D01*
X4147381Y-16839619D02*
X4156905Y-16820571D01*
X4156905Y-16820571D02*
X4166429Y-16811048D01*
X4166429Y-16811048D02*
X4185476Y-16801524D01*
X4337857Y-16982476D02*
X4347381Y-16992000D01*
X4347381Y-16992000D02*
X4337857Y-17001524D01*
X4337857Y-17001524D02*
X4328334Y-16992000D01*
X4328334Y-16992000D02*
X4337857Y-16982476D01*
X4337857Y-16982476D02*
X4337857Y-17001524D01*
X4471191Y-16801524D02*
X4490238Y-16801524D01*
X4490238Y-16801524D02*
X4509286Y-16811048D01*
X4509286Y-16811048D02*
X4518810Y-16820571D01*
X4518810Y-16820571D02*
X4528334Y-16839619D01*
X4528334Y-16839619D02*
X4537857Y-16877714D01*
X4537857Y-16877714D02*
X4537857Y-16925333D01*
X4537857Y-16925333D02*
X4528334Y-16963429D01*
X4528334Y-16963429D02*
X4518810Y-16982476D01*
X4518810Y-16982476D02*
X4509286Y-16992000D01*
X4509286Y-16992000D02*
X4490238Y-17001524D01*
X4490238Y-17001524D02*
X4471191Y-17001524D01*
X4471191Y-17001524D02*
X4452143Y-16992000D01*
X4452143Y-16992000D02*
X4442619Y-16982476D01*
X4442619Y-16982476D02*
X4433095Y-16963429D01*
X4433095Y-16963429D02*
X4423572Y-16925333D01*
X4423572Y-16925333D02*
X4423572Y-16877714D01*
X4423572Y-16877714D02*
X4433095Y-16839619D01*
X4433095Y-16839619D02*
X4442619Y-16820571D01*
X4442619Y-16820571D02*
X4452143Y-16811048D01*
X4452143Y-16811048D02*
X4471191Y-16801524D01*
X4604524Y-16801524D02*
X4728334Y-16801524D01*
X4728334Y-16801524D02*
X4661667Y-16877714D01*
X4661667Y-16877714D02*
X4690238Y-16877714D01*
X4690238Y-16877714D02*
X4709286Y-16887238D01*
X4709286Y-16887238D02*
X4718810Y-16896762D01*
X4718810Y-16896762D02*
X4728334Y-16915810D01*
X4728334Y-16915810D02*
X4728334Y-16963429D01*
X4728334Y-16963429D02*
X4718810Y-16982476D01*
X4718810Y-16982476D02*
X4709286Y-16992000D01*
X4709286Y-16992000D02*
X4690238Y-17001524D01*
X4690238Y-17001524D02*
X4633095Y-17001524D01*
X4633095Y-17001524D02*
X4614048Y-16992000D01*
X4614048Y-16992000D02*
X4604524Y-16982476D01*
X4823572Y-17001524D02*
X4861667Y-17001524D01*
X4861667Y-17001524D02*
X4880715Y-16992000D01*
X4880715Y-16992000D02*
X4890238Y-16982476D01*
X4890238Y-16982476D02*
X4909286Y-16953905D01*
X4909286Y-16953905D02*
X4918810Y-16915810D01*
X4918810Y-16915810D02*
X4918810Y-16839619D01*
X4918810Y-16839619D02*
X4909286Y-16820571D01*
X4909286Y-16820571D02*
X4899762Y-16811048D01*
X4899762Y-16811048D02*
X4880715Y-16801524D01*
X4880715Y-16801524D02*
X4842619Y-16801524D01*
X4842619Y-16801524D02*
X4823572Y-16811048D01*
X4823572Y-16811048D02*
X4814048Y-16820571D01*
X4814048Y-16820571D02*
X4804524Y-16839619D01*
X4804524Y-16839619D02*
X4804524Y-16887238D01*
X4804524Y-16887238D02*
X4814048Y-16906286D01*
X4814048Y-16906286D02*
X4823572Y-16915810D01*
X4823572Y-16915810D02*
X4842619Y-16925333D01*
X4842619Y-16925333D02*
X4880715Y-16925333D01*
X4880715Y-16925333D02*
X4899762Y-16915810D01*
X4899762Y-16915810D02*
X4909286Y-16906286D01*
X4909286Y-16906286D02*
X4918810Y-16887238D01*
X5090238Y-16868190D02*
X5090238Y-17001524D01*
X5042619Y-16792000D02*
X4995000Y-16934857D01*
X4995000Y-16934857D02*
X5118810Y-16934857D01*
X5185476Y-16801524D02*
X5185476Y-16839619D01*
X5261667Y-16801524D02*
X5261667Y-16839619D01*
X5556905Y-17077714D02*
X5547381Y-17068190D01*
X5547381Y-17068190D02*
X5528334Y-17039619D01*
X5528334Y-17039619D02*
X5518810Y-17020571D01*
X5518810Y-17020571D02*
X5509286Y-16992000D01*
X5509286Y-16992000D02*
X5499762Y-16944381D01*
X5499762Y-16944381D02*
X5499762Y-16906286D01*
X5499762Y-16906286D02*
X5509286Y-16858667D01*
X5509286Y-16858667D02*
X5518810Y-16830095D01*
X5518810Y-16830095D02*
X5528334Y-16811048D01*
X5528334Y-16811048D02*
X5547381Y-16782476D01*
X5547381Y-16782476D02*
X5556905Y-16772952D01*
X5623572Y-16820571D02*
X5633095Y-16811048D01*
X5633095Y-16811048D02*
X5652143Y-16801524D01*
X5652143Y-16801524D02*
X5699762Y-16801524D01*
X5699762Y-16801524D02*
X5718810Y-16811048D01*
X5718810Y-16811048D02*
X5728334Y-16820571D01*
X5728334Y-16820571D02*
X5737857Y-16839619D01*
X5737857Y-16839619D02*
X5737857Y-16858667D01*
X5737857Y-16858667D02*
X5728334Y-16887238D01*
X5728334Y-16887238D02*
X5614048Y-17001524D01*
X5614048Y-17001524D02*
X5737857Y-17001524D01*
X5861667Y-16801524D02*
X5880715Y-16801524D01*
X5880715Y-16801524D02*
X5899762Y-16811048D01*
X5899762Y-16811048D02*
X5909286Y-16820571D01*
X5909286Y-16820571D02*
X5918810Y-16839619D01*
X5918810Y-16839619D02*
X5928334Y-16877714D01*
X5928334Y-16877714D02*
X5928334Y-16925333D01*
X5928334Y-16925333D02*
X5918810Y-16963429D01*
X5918810Y-16963429D02*
X5909286Y-16982476D01*
X5909286Y-16982476D02*
X5899762Y-16992000D01*
X5899762Y-16992000D02*
X5880715Y-17001524D01*
X5880715Y-17001524D02*
X5861667Y-17001524D01*
X5861667Y-17001524D02*
X5842619Y-16992000D01*
X5842619Y-16992000D02*
X5833095Y-16982476D01*
X5833095Y-16982476D02*
X5823572Y-16963429D01*
X5823572Y-16963429D02*
X5814048Y-16925333D01*
X5814048Y-16925333D02*
X5814048Y-16877714D01*
X5814048Y-16877714D02*
X5823572Y-16839619D01*
X5823572Y-16839619D02*
X5833095Y-16820571D01*
X5833095Y-16820571D02*
X5842619Y-16811048D01*
X5842619Y-16811048D02*
X5861667Y-16801524D01*
X6166429Y-17001524D02*
X6166429Y-16801524D01*
X6252143Y-17001524D02*
X6252143Y-16896762D01*
X6252143Y-16896762D02*
X6242619Y-16877714D01*
X6242619Y-16877714D02*
X6223572Y-16868190D01*
X6223572Y-16868190D02*
X6195000Y-16868190D01*
X6195000Y-16868190D02*
X6175953Y-16877714D01*
X6175953Y-16877714D02*
X6166429Y-16887238D01*
X6375953Y-17001524D02*
X6356905Y-16992000D01*
X6356905Y-16992000D02*
X6347381Y-16982476D01*
X6347381Y-16982476D02*
X6337857Y-16963429D01*
X6337857Y-16963429D02*
X6337857Y-16906286D01*
X6337857Y-16906286D02*
X6347381Y-16887238D01*
X6347381Y-16887238D02*
X6356905Y-16877714D01*
X6356905Y-16877714D02*
X6375953Y-16868190D01*
X6375953Y-16868190D02*
X6404524Y-16868190D01*
X6404524Y-16868190D02*
X6423572Y-16877714D01*
X6423572Y-16877714D02*
X6433096Y-16887238D01*
X6433096Y-16887238D02*
X6442619Y-16906286D01*
X6442619Y-16906286D02*
X6442619Y-16963429D01*
X6442619Y-16963429D02*
X6433096Y-16982476D01*
X6433096Y-16982476D02*
X6423572Y-16992000D01*
X6423572Y-16992000D02*
X6404524Y-17001524D01*
X6404524Y-17001524D02*
X6375953Y-17001524D01*
X6556905Y-17001524D02*
X6537857Y-16992000D01*
X6537857Y-16992000D02*
X6528334Y-16972952D01*
X6528334Y-16972952D02*
X6528334Y-16801524D01*
X6709286Y-16992000D02*
X6690238Y-17001524D01*
X6690238Y-17001524D02*
X6652143Y-17001524D01*
X6652143Y-17001524D02*
X6633096Y-16992000D01*
X6633096Y-16992000D02*
X6623572Y-16972952D01*
X6623572Y-16972952D02*
X6623572Y-16896762D01*
X6623572Y-16896762D02*
X6633096Y-16877714D01*
X6633096Y-16877714D02*
X6652143Y-16868190D01*
X6652143Y-16868190D02*
X6690238Y-16868190D01*
X6690238Y-16868190D02*
X6709286Y-16877714D01*
X6709286Y-16877714D02*
X6718810Y-16896762D01*
X6718810Y-16896762D02*
X6718810Y-16915810D01*
X6718810Y-16915810D02*
X6623572Y-16934857D01*
X6795000Y-16992000D02*
X6814048Y-17001524D01*
X6814048Y-17001524D02*
X6852143Y-17001524D01*
X6852143Y-17001524D02*
X6871191Y-16992000D01*
X6871191Y-16992000D02*
X6880715Y-16972952D01*
X6880715Y-16972952D02*
X6880715Y-16963429D01*
X6880715Y-16963429D02*
X6871191Y-16944381D01*
X6871191Y-16944381D02*
X6852143Y-16934857D01*
X6852143Y-16934857D02*
X6823572Y-16934857D01*
X6823572Y-16934857D02*
X6804524Y-16925333D01*
X6804524Y-16925333D02*
X6795000Y-16906286D01*
X6795000Y-16906286D02*
X6795000Y-16896762D01*
X6795000Y-16896762D02*
X6804524Y-16877714D01*
X6804524Y-16877714D02*
X6823572Y-16868190D01*
X6823572Y-16868190D02*
X6852143Y-16868190D01*
X6852143Y-16868190D02*
X6871191Y-16877714D01*
X6947381Y-17077714D02*
X6956905Y-17068190D01*
X6956905Y-17068190D02*
X6975953Y-17039619D01*
X6975953Y-17039619D02*
X6985477Y-17020571D01*
X6985477Y-17020571D02*
X6995000Y-16992000D01*
X6995000Y-16992000D02*
X7004524Y-16944381D01*
X7004524Y-16944381D02*
X7004524Y-16906286D01*
X7004524Y-16906286D02*
X6995000Y-16858667D01*
X6995000Y-16858667D02*
X6985477Y-16830095D01*
X6985477Y-16830095D02*
X6975953Y-16811048D01*
X6975953Y-16811048D02*
X6956905Y-16782476D01*
X6956905Y-16782476D02*
X6947381Y-16772952D01*
D14*
X1940000Y-17118000D02*
X1940000Y-17228000D01*
X1885000Y-17173000D02*
X1995000Y-17173000D01*
D12*
X2347381Y-17265524D02*
X2233095Y-17265524D01*
X2290238Y-17265524D02*
X2290238Y-17065524D01*
X2290238Y-17065524D02*
X2271190Y-17094095D01*
X2271190Y-17094095D02*
X2252143Y-17113143D01*
X2252143Y-17113143D02*
X2233095Y-17122667D01*
X2433095Y-17246476D02*
X2442619Y-17256000D01*
X2442619Y-17256000D02*
X2433095Y-17265524D01*
X2433095Y-17265524D02*
X2423571Y-17256000D01*
X2423571Y-17256000D02*
X2433095Y-17246476D01*
X2433095Y-17246476D02*
X2433095Y-17265524D01*
X2633095Y-17265524D02*
X2518810Y-17265524D01*
X2575952Y-17265524D02*
X2575952Y-17065524D01*
X2575952Y-17065524D02*
X2556905Y-17094095D01*
X2556905Y-17094095D02*
X2537857Y-17113143D01*
X2537857Y-17113143D02*
X2518810Y-17122667D01*
X2756905Y-17065524D02*
X2775952Y-17065524D01*
X2775952Y-17065524D02*
X2795000Y-17075048D01*
X2795000Y-17075048D02*
X2804524Y-17084571D01*
X2804524Y-17084571D02*
X2814048Y-17103619D01*
X2814048Y-17103619D02*
X2823571Y-17141714D01*
X2823571Y-17141714D02*
X2823571Y-17189333D01*
X2823571Y-17189333D02*
X2814048Y-17227429D01*
X2814048Y-17227429D02*
X2804524Y-17246476D01*
X2804524Y-17246476D02*
X2795000Y-17256000D01*
X2795000Y-17256000D02*
X2775952Y-17265524D01*
X2775952Y-17265524D02*
X2756905Y-17265524D01*
X2756905Y-17265524D02*
X2737857Y-17256000D01*
X2737857Y-17256000D02*
X2728333Y-17246476D01*
X2728333Y-17246476D02*
X2718810Y-17227429D01*
X2718810Y-17227429D02*
X2709286Y-17189333D01*
X2709286Y-17189333D02*
X2709286Y-17141714D01*
X2709286Y-17141714D02*
X2718810Y-17103619D01*
X2718810Y-17103619D02*
X2728333Y-17084571D01*
X2728333Y-17084571D02*
X2737857Y-17075048D01*
X2737857Y-17075048D02*
X2756905Y-17065524D01*
X2947381Y-17065524D02*
X2966429Y-17065524D01*
X2966429Y-17065524D02*
X2985476Y-17075048D01*
X2985476Y-17075048D02*
X2995000Y-17084571D01*
X2995000Y-17084571D02*
X3004524Y-17103619D01*
X3004524Y-17103619D02*
X3014048Y-17141714D01*
X3014048Y-17141714D02*
X3014048Y-17189333D01*
X3014048Y-17189333D02*
X3004524Y-17227429D01*
X3004524Y-17227429D02*
X2995000Y-17246476D01*
X2995000Y-17246476D02*
X2985476Y-17256000D01*
X2985476Y-17256000D02*
X2966429Y-17265524D01*
X2966429Y-17265524D02*
X2947381Y-17265524D01*
X2947381Y-17265524D02*
X2928333Y-17256000D01*
X2928333Y-17256000D02*
X2918809Y-17246476D01*
X2918809Y-17246476D02*
X2909286Y-17227429D01*
X2909286Y-17227429D02*
X2899762Y-17189333D01*
X2899762Y-17189333D02*
X2899762Y-17141714D01*
X2899762Y-17141714D02*
X2909286Y-17103619D01*
X2909286Y-17103619D02*
X2918809Y-17084571D01*
X2918809Y-17084571D02*
X2928333Y-17075048D01*
X2928333Y-17075048D02*
X2947381Y-17065524D01*
X3099762Y-17265524D02*
X3099762Y-17132190D01*
X3099762Y-17151238D02*
X3109286Y-17141714D01*
X3109286Y-17141714D02*
X3128333Y-17132190D01*
X3128333Y-17132190D02*
X3156905Y-17132190D01*
X3156905Y-17132190D02*
X3175952Y-17141714D01*
X3175952Y-17141714D02*
X3185476Y-17160762D01*
X3185476Y-17160762D02*
X3185476Y-17265524D01*
X3185476Y-17160762D02*
X3195000Y-17141714D01*
X3195000Y-17141714D02*
X3214048Y-17132190D01*
X3214048Y-17132190D02*
X3242619Y-17132190D01*
X3242619Y-17132190D02*
X3261667Y-17141714D01*
X3261667Y-17141714D02*
X3271190Y-17160762D01*
X3271190Y-17160762D02*
X3271190Y-17265524D01*
X3366429Y-17265524D02*
X3366429Y-17132190D01*
X3366429Y-17151238D02*
X3375952Y-17141714D01*
X3375952Y-17141714D02*
X3395000Y-17132190D01*
X3395000Y-17132190D02*
X3423571Y-17132190D01*
X3423571Y-17132190D02*
X3442619Y-17141714D01*
X3442619Y-17141714D02*
X3452143Y-17160762D01*
X3452143Y-17160762D02*
X3452143Y-17265524D01*
X3452143Y-17160762D02*
X3461667Y-17141714D01*
X3461667Y-17141714D02*
X3480714Y-17132190D01*
X3480714Y-17132190D02*
X3509286Y-17132190D01*
X3509286Y-17132190D02*
X3528333Y-17141714D01*
X3528333Y-17141714D02*
X3537857Y-17160762D01*
X3537857Y-17160762D02*
X3537857Y-17265524D01*
X3928333Y-17056000D02*
X3756905Y-17313143D01*
X4185476Y-17065524D02*
X4204524Y-17065524D01*
X4204524Y-17065524D02*
X4223572Y-17075048D01*
X4223572Y-17075048D02*
X4233095Y-17084571D01*
X4233095Y-17084571D02*
X4242619Y-17103619D01*
X4242619Y-17103619D02*
X4252143Y-17141714D01*
X4252143Y-17141714D02*
X4252143Y-17189333D01*
X4252143Y-17189333D02*
X4242619Y-17227429D01*
X4242619Y-17227429D02*
X4233095Y-17246476D01*
X4233095Y-17246476D02*
X4223572Y-17256000D01*
X4223572Y-17256000D02*
X4204524Y-17265524D01*
X4204524Y-17265524D02*
X4185476Y-17265524D01*
X4185476Y-17265524D02*
X4166429Y-17256000D01*
X4166429Y-17256000D02*
X4156905Y-17246476D01*
X4156905Y-17246476D02*
X4147381Y-17227429D01*
X4147381Y-17227429D02*
X4137857Y-17189333D01*
X4137857Y-17189333D02*
X4137857Y-17141714D01*
X4137857Y-17141714D02*
X4147381Y-17103619D01*
X4147381Y-17103619D02*
X4156905Y-17084571D01*
X4156905Y-17084571D02*
X4166429Y-17075048D01*
X4166429Y-17075048D02*
X4185476Y-17065524D01*
X4337857Y-17246476D02*
X4347381Y-17256000D01*
X4347381Y-17256000D02*
X4337857Y-17265524D01*
X4337857Y-17265524D02*
X4328334Y-17256000D01*
X4328334Y-17256000D02*
X4337857Y-17246476D01*
X4337857Y-17246476D02*
X4337857Y-17265524D01*
X4471191Y-17065524D02*
X4490238Y-17065524D01*
X4490238Y-17065524D02*
X4509286Y-17075048D01*
X4509286Y-17075048D02*
X4518810Y-17084571D01*
X4518810Y-17084571D02*
X4528334Y-17103619D01*
X4528334Y-17103619D02*
X4537857Y-17141714D01*
X4537857Y-17141714D02*
X4537857Y-17189333D01*
X4537857Y-17189333D02*
X4528334Y-17227429D01*
X4528334Y-17227429D02*
X4518810Y-17246476D01*
X4518810Y-17246476D02*
X4509286Y-17256000D01*
X4509286Y-17256000D02*
X4490238Y-17265524D01*
X4490238Y-17265524D02*
X4471191Y-17265524D01*
X4471191Y-17265524D02*
X4452143Y-17256000D01*
X4452143Y-17256000D02*
X4442619Y-17246476D01*
X4442619Y-17246476D02*
X4433095Y-17227429D01*
X4433095Y-17227429D02*
X4423572Y-17189333D01*
X4423572Y-17189333D02*
X4423572Y-17141714D01*
X4423572Y-17141714D02*
X4433095Y-17103619D01*
X4433095Y-17103619D02*
X4442619Y-17084571D01*
X4442619Y-17084571D02*
X4452143Y-17075048D01*
X4452143Y-17075048D02*
X4471191Y-17065524D01*
X4709286Y-17132190D02*
X4709286Y-17265524D01*
X4661667Y-17056000D02*
X4614048Y-17198857D01*
X4614048Y-17198857D02*
X4737857Y-17198857D01*
X4795000Y-17065524D02*
X4918810Y-17065524D01*
X4918810Y-17065524D02*
X4852143Y-17141714D01*
X4852143Y-17141714D02*
X4880715Y-17141714D01*
X4880715Y-17141714D02*
X4899762Y-17151238D01*
X4899762Y-17151238D02*
X4909286Y-17160762D01*
X4909286Y-17160762D02*
X4918810Y-17179810D01*
X4918810Y-17179810D02*
X4918810Y-17227429D01*
X4918810Y-17227429D02*
X4909286Y-17246476D01*
X4909286Y-17246476D02*
X4899762Y-17256000D01*
X4899762Y-17256000D02*
X4880715Y-17265524D01*
X4880715Y-17265524D02*
X4823572Y-17265524D01*
X4823572Y-17265524D02*
X4804524Y-17256000D01*
X4804524Y-17256000D02*
X4795000Y-17246476D01*
X4985476Y-17065524D02*
X5109286Y-17065524D01*
X5109286Y-17065524D02*
X5042619Y-17141714D01*
X5042619Y-17141714D02*
X5071191Y-17141714D01*
X5071191Y-17141714D02*
X5090238Y-17151238D01*
X5090238Y-17151238D02*
X5099762Y-17160762D01*
X5099762Y-17160762D02*
X5109286Y-17179810D01*
X5109286Y-17179810D02*
X5109286Y-17227429D01*
X5109286Y-17227429D02*
X5099762Y-17246476D01*
X5099762Y-17246476D02*
X5090238Y-17256000D01*
X5090238Y-17256000D02*
X5071191Y-17265524D01*
X5071191Y-17265524D02*
X5014048Y-17265524D01*
X5014048Y-17265524D02*
X4995000Y-17256000D01*
X4995000Y-17256000D02*
X4985476Y-17246476D01*
X5185476Y-17065524D02*
X5185476Y-17103619D01*
X5261667Y-17065524D02*
X5261667Y-17103619D01*
X5556905Y-17341714D02*
X5547381Y-17332190D01*
X5547381Y-17332190D02*
X5528334Y-17303619D01*
X5528334Y-17303619D02*
X5518810Y-17284571D01*
X5518810Y-17284571D02*
X5509286Y-17256000D01*
X5509286Y-17256000D02*
X5499762Y-17208381D01*
X5499762Y-17208381D02*
X5499762Y-17170286D01*
X5499762Y-17170286D02*
X5509286Y-17122667D01*
X5509286Y-17122667D02*
X5518810Y-17094095D01*
X5518810Y-17094095D02*
X5528334Y-17075048D01*
X5528334Y-17075048D02*
X5547381Y-17046476D01*
X5547381Y-17046476D02*
X5556905Y-17036952D01*
X5623572Y-17084571D02*
X5633095Y-17075048D01*
X5633095Y-17075048D02*
X5652143Y-17065524D01*
X5652143Y-17065524D02*
X5699762Y-17065524D01*
X5699762Y-17065524D02*
X5718810Y-17075048D01*
X5718810Y-17075048D02*
X5728334Y-17084571D01*
X5728334Y-17084571D02*
X5737857Y-17103619D01*
X5737857Y-17103619D02*
X5737857Y-17122667D01*
X5737857Y-17122667D02*
X5728334Y-17151238D01*
X5728334Y-17151238D02*
X5614048Y-17265524D01*
X5614048Y-17265524D02*
X5737857Y-17265524D01*
X5909286Y-17132190D02*
X5909286Y-17265524D01*
X5861667Y-17056000D02*
X5814048Y-17198857D01*
X5814048Y-17198857D02*
X5937857Y-17198857D01*
X6166429Y-17265524D02*
X6166429Y-17065524D01*
X6252143Y-17265524D02*
X6252143Y-17160762D01*
X6252143Y-17160762D02*
X6242619Y-17141714D01*
X6242619Y-17141714D02*
X6223572Y-17132190D01*
X6223572Y-17132190D02*
X6195000Y-17132190D01*
X6195000Y-17132190D02*
X6175953Y-17141714D01*
X6175953Y-17141714D02*
X6166429Y-17151238D01*
X6375953Y-17265524D02*
X6356905Y-17256000D01*
X6356905Y-17256000D02*
X6347381Y-17246476D01*
X6347381Y-17246476D02*
X6337857Y-17227429D01*
X6337857Y-17227429D02*
X6337857Y-17170286D01*
X6337857Y-17170286D02*
X6347381Y-17151238D01*
X6347381Y-17151238D02*
X6356905Y-17141714D01*
X6356905Y-17141714D02*
X6375953Y-17132190D01*
X6375953Y-17132190D02*
X6404524Y-17132190D01*
X6404524Y-17132190D02*
X6423572Y-17141714D01*
X6423572Y-17141714D02*
X6433096Y-17151238D01*
X6433096Y-17151238D02*
X6442619Y-17170286D01*
X6442619Y-17170286D02*
X6442619Y-17227429D01*
X6442619Y-17227429D02*
X6433096Y-17246476D01*
X6433096Y-17246476D02*
X6423572Y-17256000D01*
X6423572Y-17256000D02*
X6404524Y-17265524D01*
X6404524Y-17265524D02*
X6375953Y-17265524D01*
X6556905Y-17265524D02*
X6537857Y-17256000D01*
X6537857Y-17256000D02*
X6528334Y-17236952D01*
X6528334Y-17236952D02*
X6528334Y-17065524D01*
X6709286Y-17256000D02*
X6690238Y-17265524D01*
X6690238Y-17265524D02*
X6652143Y-17265524D01*
X6652143Y-17265524D02*
X6633096Y-17256000D01*
X6633096Y-17256000D02*
X6623572Y-17236952D01*
X6623572Y-17236952D02*
X6623572Y-17160762D01*
X6623572Y-17160762D02*
X6633096Y-17141714D01*
X6633096Y-17141714D02*
X6652143Y-17132190D01*
X6652143Y-17132190D02*
X6690238Y-17132190D01*
X6690238Y-17132190D02*
X6709286Y-17141714D01*
X6709286Y-17141714D02*
X6718810Y-17160762D01*
X6718810Y-17160762D02*
X6718810Y-17179810D01*
X6718810Y-17179810D02*
X6623572Y-17198857D01*
X6795000Y-17256000D02*
X6814048Y-17265524D01*
X6814048Y-17265524D02*
X6852143Y-17265524D01*
X6852143Y-17265524D02*
X6871191Y-17256000D01*
X6871191Y-17256000D02*
X6880715Y-17236952D01*
X6880715Y-17236952D02*
X6880715Y-17227429D01*
X6880715Y-17227429D02*
X6871191Y-17208381D01*
X6871191Y-17208381D02*
X6852143Y-17198857D01*
X6852143Y-17198857D02*
X6823572Y-17198857D01*
X6823572Y-17198857D02*
X6804524Y-17189333D01*
X6804524Y-17189333D02*
X6795000Y-17170286D01*
X6795000Y-17170286D02*
X6795000Y-17160762D01*
X6795000Y-17160762D02*
X6804524Y-17141714D01*
X6804524Y-17141714D02*
X6823572Y-17132190D01*
X6823572Y-17132190D02*
X6852143Y-17132190D01*
X6852143Y-17132190D02*
X6871191Y-17141714D01*
X6947381Y-17341714D02*
X6956905Y-17332190D01*
X6956905Y-17332190D02*
X6975953Y-17303619D01*
X6975953Y-17303619D02*
X6985477Y-17284571D01*
X6985477Y-17284571D02*
X6995000Y-17256000D01*
X6995000Y-17256000D02*
X7004524Y-17208381D01*
X7004524Y-17208381D02*
X7004524Y-17170286D01*
X7004524Y-17170286D02*
X6995000Y-17122667D01*
X6995000Y-17122667D02*
X6985477Y-17094095D01*
X6985477Y-17094095D02*
X6975953Y-17075048D01*
X6975953Y-17075048D02*
X6956905Y-17046476D01*
X6956905Y-17046476D02*
X6947381Y-17036952D01*
D15*
X1973054Y-17489984D02*
X1973054Y-17384016D01*
X1867086Y-17384016D01*
X1867086Y-17489984D01*
X1973054Y-17489984D01*
D12*
X2347381Y-17529524D02*
X2233095Y-17529524D01*
X2290238Y-17529524D02*
X2290238Y-17329524D01*
X2290238Y-17329524D02*
X2271190Y-17358095D01*
X2271190Y-17358095D02*
X2252143Y-17377143D01*
X2252143Y-17377143D02*
X2233095Y-17386667D01*
X2433095Y-17510476D02*
X2442619Y-17520000D01*
X2442619Y-17520000D02*
X2433095Y-17529524D01*
X2433095Y-17529524D02*
X2423571Y-17520000D01*
X2423571Y-17520000D02*
X2433095Y-17510476D01*
X2433095Y-17510476D02*
X2433095Y-17529524D01*
X2614048Y-17396190D02*
X2614048Y-17529524D01*
X2566429Y-17320000D02*
X2518810Y-17462857D01*
X2518810Y-17462857D02*
X2642619Y-17462857D01*
X2728333Y-17529524D02*
X2766429Y-17529524D01*
X2766429Y-17529524D02*
X2785476Y-17520000D01*
X2785476Y-17520000D02*
X2795000Y-17510476D01*
X2795000Y-17510476D02*
X2814048Y-17481905D01*
X2814048Y-17481905D02*
X2823571Y-17443810D01*
X2823571Y-17443810D02*
X2823571Y-17367619D01*
X2823571Y-17367619D02*
X2814048Y-17348571D01*
X2814048Y-17348571D02*
X2804524Y-17339048D01*
X2804524Y-17339048D02*
X2785476Y-17329524D01*
X2785476Y-17329524D02*
X2747381Y-17329524D01*
X2747381Y-17329524D02*
X2728333Y-17339048D01*
X2728333Y-17339048D02*
X2718810Y-17348571D01*
X2718810Y-17348571D02*
X2709286Y-17367619D01*
X2709286Y-17367619D02*
X2709286Y-17415238D01*
X2709286Y-17415238D02*
X2718810Y-17434286D01*
X2718810Y-17434286D02*
X2728333Y-17443810D01*
X2728333Y-17443810D02*
X2747381Y-17453333D01*
X2747381Y-17453333D02*
X2785476Y-17453333D01*
X2785476Y-17453333D02*
X2804524Y-17443810D01*
X2804524Y-17443810D02*
X2814048Y-17434286D01*
X2814048Y-17434286D02*
X2823571Y-17415238D01*
X2918809Y-17529524D02*
X2956905Y-17529524D01*
X2956905Y-17529524D02*
X2975952Y-17520000D01*
X2975952Y-17520000D02*
X2985476Y-17510476D01*
X2985476Y-17510476D02*
X3004524Y-17481905D01*
X3004524Y-17481905D02*
X3014048Y-17443810D01*
X3014048Y-17443810D02*
X3014048Y-17367619D01*
X3014048Y-17367619D02*
X3004524Y-17348571D01*
X3004524Y-17348571D02*
X2995000Y-17339048D01*
X2995000Y-17339048D02*
X2975952Y-17329524D01*
X2975952Y-17329524D02*
X2937857Y-17329524D01*
X2937857Y-17329524D02*
X2918809Y-17339048D01*
X2918809Y-17339048D02*
X2909286Y-17348571D01*
X2909286Y-17348571D02*
X2899762Y-17367619D01*
X2899762Y-17367619D02*
X2899762Y-17415238D01*
X2899762Y-17415238D02*
X2909286Y-17434286D01*
X2909286Y-17434286D02*
X2918809Y-17443810D01*
X2918809Y-17443810D02*
X2937857Y-17453333D01*
X2937857Y-17453333D02*
X2975952Y-17453333D01*
X2975952Y-17453333D02*
X2995000Y-17443810D01*
X2995000Y-17443810D02*
X3004524Y-17434286D01*
X3004524Y-17434286D02*
X3014048Y-17415238D01*
X3099762Y-17529524D02*
X3099762Y-17396190D01*
X3099762Y-17415238D02*
X3109286Y-17405714D01*
X3109286Y-17405714D02*
X3128333Y-17396190D01*
X3128333Y-17396190D02*
X3156905Y-17396190D01*
X3156905Y-17396190D02*
X3175952Y-17405714D01*
X3175952Y-17405714D02*
X3185476Y-17424762D01*
X3185476Y-17424762D02*
X3185476Y-17529524D01*
X3185476Y-17424762D02*
X3195000Y-17405714D01*
X3195000Y-17405714D02*
X3214048Y-17396190D01*
X3214048Y-17396190D02*
X3242619Y-17396190D01*
X3242619Y-17396190D02*
X3261667Y-17405714D01*
X3261667Y-17405714D02*
X3271190Y-17424762D01*
X3271190Y-17424762D02*
X3271190Y-17529524D01*
X3366429Y-17529524D02*
X3366429Y-17396190D01*
X3366429Y-17415238D02*
X3375952Y-17405714D01*
X3375952Y-17405714D02*
X3395000Y-17396190D01*
X3395000Y-17396190D02*
X3423571Y-17396190D01*
X3423571Y-17396190D02*
X3442619Y-17405714D01*
X3442619Y-17405714D02*
X3452143Y-17424762D01*
X3452143Y-17424762D02*
X3452143Y-17529524D01*
X3452143Y-17424762D02*
X3461667Y-17405714D01*
X3461667Y-17405714D02*
X3480714Y-17396190D01*
X3480714Y-17396190D02*
X3509286Y-17396190D01*
X3509286Y-17396190D02*
X3528333Y-17405714D01*
X3528333Y-17405714D02*
X3537857Y-17424762D01*
X3537857Y-17424762D02*
X3537857Y-17529524D01*
X3928333Y-17320000D02*
X3756905Y-17577143D01*
X4185476Y-17329524D02*
X4204524Y-17329524D01*
X4204524Y-17329524D02*
X4223572Y-17339048D01*
X4223572Y-17339048D02*
X4233095Y-17348571D01*
X4233095Y-17348571D02*
X4242619Y-17367619D01*
X4242619Y-17367619D02*
X4252143Y-17405714D01*
X4252143Y-17405714D02*
X4252143Y-17453333D01*
X4252143Y-17453333D02*
X4242619Y-17491429D01*
X4242619Y-17491429D02*
X4233095Y-17510476D01*
X4233095Y-17510476D02*
X4223572Y-17520000D01*
X4223572Y-17520000D02*
X4204524Y-17529524D01*
X4204524Y-17529524D02*
X4185476Y-17529524D01*
X4185476Y-17529524D02*
X4166429Y-17520000D01*
X4166429Y-17520000D02*
X4156905Y-17510476D01*
X4156905Y-17510476D02*
X4147381Y-17491429D01*
X4147381Y-17491429D02*
X4137857Y-17453333D01*
X4137857Y-17453333D02*
X4137857Y-17405714D01*
X4137857Y-17405714D02*
X4147381Y-17367619D01*
X4147381Y-17367619D02*
X4156905Y-17348571D01*
X4156905Y-17348571D02*
X4166429Y-17339048D01*
X4166429Y-17339048D02*
X4185476Y-17329524D01*
X4337857Y-17510476D02*
X4347381Y-17520000D01*
X4347381Y-17520000D02*
X4337857Y-17529524D01*
X4337857Y-17529524D02*
X4328334Y-17520000D01*
X4328334Y-17520000D02*
X4337857Y-17510476D01*
X4337857Y-17510476D02*
X4337857Y-17529524D01*
X4471191Y-17329524D02*
X4490238Y-17329524D01*
X4490238Y-17329524D02*
X4509286Y-17339048D01*
X4509286Y-17339048D02*
X4518810Y-17348571D01*
X4518810Y-17348571D02*
X4528334Y-17367619D01*
X4528334Y-17367619D02*
X4537857Y-17405714D01*
X4537857Y-17405714D02*
X4537857Y-17453333D01*
X4537857Y-17453333D02*
X4528334Y-17491429D01*
X4528334Y-17491429D02*
X4518810Y-17510476D01*
X4518810Y-17510476D02*
X4509286Y-17520000D01*
X4509286Y-17520000D02*
X4490238Y-17529524D01*
X4490238Y-17529524D02*
X4471191Y-17529524D01*
X4471191Y-17529524D02*
X4452143Y-17520000D01*
X4452143Y-17520000D02*
X4442619Y-17510476D01*
X4442619Y-17510476D02*
X4433095Y-17491429D01*
X4433095Y-17491429D02*
X4423572Y-17453333D01*
X4423572Y-17453333D02*
X4423572Y-17405714D01*
X4423572Y-17405714D02*
X4433095Y-17367619D01*
X4433095Y-17367619D02*
X4442619Y-17348571D01*
X4442619Y-17348571D02*
X4452143Y-17339048D01*
X4452143Y-17339048D02*
X4471191Y-17329524D01*
X4718810Y-17329524D02*
X4623572Y-17329524D01*
X4623572Y-17329524D02*
X4614048Y-17424762D01*
X4614048Y-17424762D02*
X4623572Y-17415238D01*
X4623572Y-17415238D02*
X4642619Y-17405714D01*
X4642619Y-17405714D02*
X4690238Y-17405714D01*
X4690238Y-17405714D02*
X4709286Y-17415238D01*
X4709286Y-17415238D02*
X4718810Y-17424762D01*
X4718810Y-17424762D02*
X4728334Y-17443810D01*
X4728334Y-17443810D02*
X4728334Y-17491429D01*
X4728334Y-17491429D02*
X4718810Y-17510476D01*
X4718810Y-17510476D02*
X4709286Y-17520000D01*
X4709286Y-17520000D02*
X4690238Y-17529524D01*
X4690238Y-17529524D02*
X4642619Y-17529524D01*
X4642619Y-17529524D02*
X4623572Y-17520000D01*
X4623572Y-17520000D02*
X4614048Y-17510476D01*
X4823572Y-17529524D02*
X4861667Y-17529524D01*
X4861667Y-17529524D02*
X4880715Y-17520000D01*
X4880715Y-17520000D02*
X4890238Y-17510476D01*
X4890238Y-17510476D02*
X4909286Y-17481905D01*
X4909286Y-17481905D02*
X4918810Y-17443810D01*
X4918810Y-17443810D02*
X4918810Y-17367619D01*
X4918810Y-17367619D02*
X4909286Y-17348571D01*
X4909286Y-17348571D02*
X4899762Y-17339048D01*
X4899762Y-17339048D02*
X4880715Y-17329524D01*
X4880715Y-17329524D02*
X4842619Y-17329524D01*
X4842619Y-17329524D02*
X4823572Y-17339048D01*
X4823572Y-17339048D02*
X4814048Y-17348571D01*
X4814048Y-17348571D02*
X4804524Y-17367619D01*
X4804524Y-17367619D02*
X4804524Y-17415238D01*
X4804524Y-17415238D02*
X4814048Y-17434286D01*
X4814048Y-17434286D02*
X4823572Y-17443810D01*
X4823572Y-17443810D02*
X4842619Y-17453333D01*
X4842619Y-17453333D02*
X4880715Y-17453333D01*
X4880715Y-17453333D02*
X4899762Y-17443810D01*
X4899762Y-17443810D02*
X4909286Y-17434286D01*
X4909286Y-17434286D02*
X4918810Y-17415238D01*
X5042619Y-17329524D02*
X5061667Y-17329524D01*
X5061667Y-17329524D02*
X5080715Y-17339048D01*
X5080715Y-17339048D02*
X5090238Y-17348571D01*
X5090238Y-17348571D02*
X5099762Y-17367619D01*
X5099762Y-17367619D02*
X5109286Y-17405714D01*
X5109286Y-17405714D02*
X5109286Y-17453333D01*
X5109286Y-17453333D02*
X5099762Y-17491429D01*
X5099762Y-17491429D02*
X5090238Y-17510476D01*
X5090238Y-17510476D02*
X5080715Y-17520000D01*
X5080715Y-17520000D02*
X5061667Y-17529524D01*
X5061667Y-17529524D02*
X5042619Y-17529524D01*
X5042619Y-17529524D02*
X5023572Y-17520000D01*
X5023572Y-17520000D02*
X5014048Y-17510476D01*
X5014048Y-17510476D02*
X5004524Y-17491429D01*
X5004524Y-17491429D02*
X4995000Y-17453333D01*
X4995000Y-17453333D02*
X4995000Y-17405714D01*
X4995000Y-17405714D02*
X5004524Y-17367619D01*
X5004524Y-17367619D02*
X5014048Y-17348571D01*
X5014048Y-17348571D02*
X5023572Y-17339048D01*
X5023572Y-17339048D02*
X5042619Y-17329524D01*
X5185476Y-17329524D02*
X5185476Y-17367619D01*
X5261667Y-17329524D02*
X5261667Y-17367619D01*
X5556905Y-17605714D02*
X5547381Y-17596190D01*
X5547381Y-17596190D02*
X5528334Y-17567619D01*
X5528334Y-17567619D02*
X5518810Y-17548571D01*
X5518810Y-17548571D02*
X5509286Y-17520000D01*
X5509286Y-17520000D02*
X5499762Y-17472381D01*
X5499762Y-17472381D02*
X5499762Y-17434286D01*
X5499762Y-17434286D02*
X5509286Y-17386667D01*
X5509286Y-17386667D02*
X5518810Y-17358095D01*
X5518810Y-17358095D02*
X5528334Y-17339048D01*
X5528334Y-17339048D02*
X5547381Y-17310476D01*
X5547381Y-17310476D02*
X5556905Y-17300952D01*
X5623572Y-17348571D02*
X5633095Y-17339048D01*
X5633095Y-17339048D02*
X5652143Y-17329524D01*
X5652143Y-17329524D02*
X5699762Y-17329524D01*
X5699762Y-17329524D02*
X5718810Y-17339048D01*
X5718810Y-17339048D02*
X5728334Y-17348571D01*
X5728334Y-17348571D02*
X5737857Y-17367619D01*
X5737857Y-17367619D02*
X5737857Y-17386667D01*
X5737857Y-17386667D02*
X5728334Y-17415238D01*
X5728334Y-17415238D02*
X5614048Y-17529524D01*
X5614048Y-17529524D02*
X5737857Y-17529524D01*
X5909286Y-17396190D02*
X5909286Y-17529524D01*
X5861667Y-17320000D02*
X5814048Y-17462857D01*
X5814048Y-17462857D02*
X5937857Y-17462857D01*
X6166429Y-17529524D02*
X6166429Y-17329524D01*
X6252143Y-17529524D02*
X6252143Y-17424762D01*
X6252143Y-17424762D02*
X6242619Y-17405714D01*
X6242619Y-17405714D02*
X6223572Y-17396190D01*
X6223572Y-17396190D02*
X6195000Y-17396190D01*
X6195000Y-17396190D02*
X6175953Y-17405714D01*
X6175953Y-17405714D02*
X6166429Y-17415238D01*
X6375953Y-17529524D02*
X6356905Y-17520000D01*
X6356905Y-17520000D02*
X6347381Y-17510476D01*
X6347381Y-17510476D02*
X6337857Y-17491429D01*
X6337857Y-17491429D02*
X6337857Y-17434286D01*
X6337857Y-17434286D02*
X6347381Y-17415238D01*
X6347381Y-17415238D02*
X6356905Y-17405714D01*
X6356905Y-17405714D02*
X6375953Y-17396190D01*
X6375953Y-17396190D02*
X6404524Y-17396190D01*
X6404524Y-17396190D02*
X6423572Y-17405714D01*
X6423572Y-17405714D02*
X6433096Y-17415238D01*
X6433096Y-17415238D02*
X6442619Y-17434286D01*
X6442619Y-17434286D02*
X6442619Y-17491429D01*
X6442619Y-17491429D02*
X6433096Y-17510476D01*
X6433096Y-17510476D02*
X6423572Y-17520000D01*
X6423572Y-17520000D02*
X6404524Y-17529524D01*
X6404524Y-17529524D02*
X6375953Y-17529524D01*
X6556905Y-17529524D02*
X6537857Y-17520000D01*
X6537857Y-17520000D02*
X6528334Y-17500952D01*
X6528334Y-17500952D02*
X6528334Y-17329524D01*
X6709286Y-17520000D02*
X6690238Y-17529524D01*
X6690238Y-17529524D02*
X6652143Y-17529524D01*
X6652143Y-17529524D02*
X6633096Y-17520000D01*
X6633096Y-17520000D02*
X6623572Y-17500952D01*
X6623572Y-17500952D02*
X6623572Y-17424762D01*
X6623572Y-17424762D02*
X6633096Y-17405714D01*
X6633096Y-17405714D02*
X6652143Y-17396190D01*
X6652143Y-17396190D02*
X6690238Y-17396190D01*
X6690238Y-17396190D02*
X6709286Y-17405714D01*
X6709286Y-17405714D02*
X6718810Y-17424762D01*
X6718810Y-17424762D02*
X6718810Y-17443810D01*
X6718810Y-17443810D02*
X6623572Y-17462857D01*
X6795000Y-17520000D02*
X6814048Y-17529524D01*
X6814048Y-17529524D02*
X6852143Y-17529524D01*
X6852143Y-17529524D02*
X6871191Y-17520000D01*
X6871191Y-17520000D02*
X6880715Y-17500952D01*
X6880715Y-17500952D02*
X6880715Y-17491429D01*
X6880715Y-17491429D02*
X6871191Y-17472381D01*
X6871191Y-17472381D02*
X6852143Y-17462857D01*
X6852143Y-17462857D02*
X6823572Y-17462857D01*
X6823572Y-17462857D02*
X6804524Y-17453333D01*
X6804524Y-17453333D02*
X6795000Y-17434286D01*
X6795000Y-17434286D02*
X6795000Y-17424762D01*
X6795000Y-17424762D02*
X6804524Y-17405714D01*
X6804524Y-17405714D02*
X6823572Y-17396190D01*
X6823572Y-17396190D02*
X6852143Y-17396190D01*
X6852143Y-17396190D02*
X6871191Y-17405714D01*
X6947381Y-17605714D02*
X6956905Y-17596190D01*
X6956905Y-17596190D02*
X6975953Y-17567619D01*
X6975953Y-17567619D02*
X6985477Y-17548571D01*
X6985477Y-17548571D02*
X6995000Y-17520000D01*
X6995000Y-17520000D02*
X7004524Y-17472381D01*
X7004524Y-17472381D02*
X7004524Y-17434286D01*
X7004524Y-17434286D02*
X6995000Y-17386667D01*
X6995000Y-17386667D02*
X6985477Y-17358095D01*
X6985477Y-17358095D02*
X6975953Y-17339048D01*
X6975953Y-17339048D02*
X6956905Y-17310476D01*
X6956905Y-17310476D02*
X6947381Y-17300952D01*
M02*
