%TF.GenerationSoftware,KiCad,Pcbnew,7.0.2*%
%TF.CreationDate,2023-09-05T17:50:18-07:00*%
%TF.ProjectId,takupcb-r2,74616b75-7063-4622-9d72-322e6b696361,rev?*%
%TF.SameCoordinates,Original*%
%TF.FileFunction,Legend,Top*%
%TF.FilePolarity,Positive*%
%FSLAX46Y46*%
G04 Gerber Fmt 4.6, Leading zero omitted, Abs format (unit mm)*
G04 Created by KiCad (PCBNEW 7.0.2) date 2023-09-05 17:50:18*
%MOMM*%
%LPD*%
G01*
G04 APERTURE LIST*
%ADD10C,0.300000*%
%ADD11C,0.150000*%
%ADD12C,0.120000*%
%ADD13C,0.152400*%
G04 APERTURE END LIST*
D10*
%TO.C,G\u002A\u002A\u002A*%
X173678572Y-123265357D02*
X173535715Y-123193928D01*
X173535715Y-123193928D02*
X173321429Y-123193928D01*
X173321429Y-123193928D02*
X173107143Y-123265357D01*
X173107143Y-123265357D02*
X172964286Y-123408214D01*
X172964286Y-123408214D02*
X172892857Y-123551071D01*
X172892857Y-123551071D02*
X172821429Y-123836785D01*
X172821429Y-123836785D02*
X172821429Y-124051071D01*
X172821429Y-124051071D02*
X172892857Y-124336785D01*
X172892857Y-124336785D02*
X172964286Y-124479642D01*
X172964286Y-124479642D02*
X173107143Y-124622500D01*
X173107143Y-124622500D02*
X173321429Y-124693928D01*
X173321429Y-124693928D02*
X173464286Y-124693928D01*
X173464286Y-124693928D02*
X173678572Y-124622500D01*
X173678572Y-124622500D02*
X173750000Y-124551071D01*
X173750000Y-124551071D02*
X173750000Y-124051071D01*
X173750000Y-124051071D02*
X173464286Y-124051071D01*
X174607143Y-123193928D02*
X174607143Y-123551071D01*
X174250000Y-123408214D02*
X174607143Y-123551071D01*
X174607143Y-123551071D02*
X174964286Y-123408214D01*
X174392857Y-123836785D02*
X174607143Y-123551071D01*
X174607143Y-123551071D02*
X174821429Y-123836785D01*
X175750000Y-123193928D02*
X175750000Y-123551071D01*
X175392857Y-123408214D02*
X175750000Y-123551071D01*
X175750000Y-123551071D02*
X176107143Y-123408214D01*
X175535714Y-123836785D02*
X175750000Y-123551071D01*
X175750000Y-123551071D02*
X175964286Y-123836785D01*
X176892857Y-123193928D02*
X176892857Y-123551071D01*
X176535714Y-123408214D02*
X176892857Y-123551071D01*
X176892857Y-123551071D02*
X177250000Y-123408214D01*
X176678571Y-123836785D02*
X176892857Y-123551071D01*
X176892857Y-123551071D02*
X177107143Y-123836785D01*
D11*
%TO.C,\u2193*%
X72500000Y-50401428D02*
X72500000Y-51925238D01*
X72880952Y-51544285D02*
X72500000Y-51925238D01*
X72500000Y-51925238D02*
X72119047Y-51544285D01*
%TO.C,O*%
X159357143Y-68193928D02*
X159642857Y-68193928D01*
X159642857Y-68193928D02*
X159785714Y-68265357D01*
X159785714Y-68265357D02*
X159928571Y-68408214D01*
X159928571Y-68408214D02*
X160000000Y-68693928D01*
X160000000Y-68693928D02*
X160000000Y-69193928D01*
X160000000Y-69193928D02*
X159928571Y-69479642D01*
X159928571Y-69479642D02*
X159785714Y-69622500D01*
X159785714Y-69622500D02*
X159642857Y-69693928D01*
X159642857Y-69693928D02*
X159357143Y-69693928D01*
X159357143Y-69693928D02*
X159214286Y-69622500D01*
X159214286Y-69622500D02*
X159071428Y-69479642D01*
X159071428Y-69479642D02*
X159000000Y-69193928D01*
X159000000Y-69193928D02*
X159000000Y-68693928D01*
X159000000Y-68693928D02*
X159071428Y-68408214D01*
X159071428Y-68408214D02*
X159214286Y-68265357D01*
X159214286Y-68265357D02*
X159357143Y-68193928D01*
%TO.C,L3*%
X83083333Y-28462619D02*
X82607143Y-28462619D01*
X82607143Y-28462619D02*
X82607143Y-27462619D01*
X83321429Y-27462619D02*
X83940476Y-27462619D01*
X83940476Y-27462619D02*
X83607143Y-27843571D01*
X83607143Y-27843571D02*
X83750000Y-27843571D01*
X83750000Y-27843571D02*
X83845238Y-27891190D01*
X83845238Y-27891190D02*
X83892857Y-27938809D01*
X83892857Y-27938809D02*
X83940476Y-28034047D01*
X83940476Y-28034047D02*
X83940476Y-28272142D01*
X83940476Y-28272142D02*
X83892857Y-28367380D01*
X83892857Y-28367380D02*
X83845238Y-28415000D01*
X83845238Y-28415000D02*
X83750000Y-28462619D01*
X83750000Y-28462619D02*
X83464286Y-28462619D01*
X83464286Y-28462619D02*
X83369048Y-28415000D01*
X83369048Y-28415000D02*
X83321429Y-28367380D01*
%TO.C,R3*%
X95083333Y-28462619D02*
X94750000Y-27986428D01*
X94511905Y-28462619D02*
X94511905Y-27462619D01*
X94511905Y-27462619D02*
X94892857Y-27462619D01*
X94892857Y-27462619D02*
X94988095Y-27510238D01*
X94988095Y-27510238D02*
X95035714Y-27557857D01*
X95035714Y-27557857D02*
X95083333Y-27653095D01*
X95083333Y-27653095D02*
X95083333Y-27795952D01*
X95083333Y-27795952D02*
X95035714Y-27891190D01*
X95035714Y-27891190D02*
X94988095Y-27938809D01*
X94988095Y-27938809D02*
X94892857Y-27986428D01*
X94892857Y-27986428D02*
X94511905Y-27986428D01*
X95416667Y-27462619D02*
X96035714Y-27462619D01*
X96035714Y-27462619D02*
X95702381Y-27843571D01*
X95702381Y-27843571D02*
X95845238Y-27843571D01*
X95845238Y-27843571D02*
X95940476Y-27891190D01*
X95940476Y-27891190D02*
X95988095Y-27938809D01*
X95988095Y-27938809D02*
X96035714Y-28034047D01*
X96035714Y-28034047D02*
X96035714Y-28272142D01*
X96035714Y-28272142D02*
X95988095Y-28367380D01*
X95988095Y-28367380D02*
X95940476Y-28415000D01*
X95940476Y-28415000D02*
X95845238Y-28462619D01*
X95845238Y-28462619D02*
X95559524Y-28462619D01*
X95559524Y-28462619D02*
X95464286Y-28415000D01*
X95464286Y-28415000D02*
X95416667Y-28367380D01*
%TO.C,SIDE*%
X131273810Y-27415000D02*
X131416667Y-27462619D01*
X131416667Y-27462619D02*
X131654762Y-27462619D01*
X131654762Y-27462619D02*
X131750000Y-27415000D01*
X131750000Y-27415000D02*
X131797619Y-27367380D01*
X131797619Y-27367380D02*
X131845238Y-27272142D01*
X131845238Y-27272142D02*
X131845238Y-27176904D01*
X131845238Y-27176904D02*
X131797619Y-27081666D01*
X131797619Y-27081666D02*
X131750000Y-27034047D01*
X131750000Y-27034047D02*
X131654762Y-26986428D01*
X131654762Y-26986428D02*
X131464286Y-26938809D01*
X131464286Y-26938809D02*
X131369048Y-26891190D01*
X131369048Y-26891190D02*
X131321429Y-26843571D01*
X131321429Y-26843571D02*
X131273810Y-26748333D01*
X131273810Y-26748333D02*
X131273810Y-26653095D01*
X131273810Y-26653095D02*
X131321429Y-26557857D01*
X131321429Y-26557857D02*
X131369048Y-26510238D01*
X131369048Y-26510238D02*
X131464286Y-26462619D01*
X131464286Y-26462619D02*
X131702381Y-26462619D01*
X131702381Y-26462619D02*
X131845238Y-26510238D01*
X132273810Y-27462619D02*
X132273810Y-26462619D01*
X132750000Y-27462619D02*
X132750000Y-26462619D01*
X132750000Y-26462619D02*
X132988095Y-26462619D01*
X132988095Y-26462619D02*
X133130952Y-26510238D01*
X133130952Y-26510238D02*
X133226190Y-26605476D01*
X133226190Y-26605476D02*
X133273809Y-26700714D01*
X133273809Y-26700714D02*
X133321428Y-26891190D01*
X133321428Y-26891190D02*
X133321428Y-27034047D01*
X133321428Y-27034047D02*
X133273809Y-27224523D01*
X133273809Y-27224523D02*
X133226190Y-27319761D01*
X133226190Y-27319761D02*
X133130952Y-27415000D01*
X133130952Y-27415000D02*
X132988095Y-27462619D01*
X132988095Y-27462619D02*
X132750000Y-27462619D01*
X133750000Y-26938809D02*
X134083333Y-26938809D01*
X134226190Y-27462619D02*
X133750000Y-27462619D01*
X133750000Y-27462619D02*
X133750000Y-26462619D01*
X133750000Y-26462619D02*
X134226190Y-26462619D01*
%TO.C,PS*%
X46511905Y-28462619D02*
X46511905Y-27462619D01*
X46511905Y-27462619D02*
X46892857Y-27462619D01*
X46892857Y-27462619D02*
X46988095Y-27510238D01*
X46988095Y-27510238D02*
X47035714Y-27557857D01*
X47035714Y-27557857D02*
X47083333Y-27653095D01*
X47083333Y-27653095D02*
X47083333Y-27795952D01*
X47083333Y-27795952D02*
X47035714Y-27891190D01*
X47035714Y-27891190D02*
X46988095Y-27938809D01*
X46988095Y-27938809D02*
X46892857Y-27986428D01*
X46892857Y-27986428D02*
X46511905Y-27986428D01*
X47464286Y-28415000D02*
X47607143Y-28462619D01*
X47607143Y-28462619D02*
X47845238Y-28462619D01*
X47845238Y-28462619D02*
X47940476Y-28415000D01*
X47940476Y-28415000D02*
X47988095Y-28367380D01*
X47988095Y-28367380D02*
X48035714Y-28272142D01*
X48035714Y-28272142D02*
X48035714Y-28176904D01*
X48035714Y-28176904D02*
X47988095Y-28081666D01*
X47988095Y-28081666D02*
X47940476Y-28034047D01*
X47940476Y-28034047D02*
X47845238Y-27986428D01*
X47845238Y-27986428D02*
X47654762Y-27938809D01*
X47654762Y-27938809D02*
X47559524Y-27891190D01*
X47559524Y-27891190D02*
X47511905Y-27843571D01*
X47511905Y-27843571D02*
X47464286Y-27748333D01*
X47464286Y-27748333D02*
X47464286Y-27653095D01*
X47464286Y-27653095D02*
X47511905Y-27557857D01*
X47511905Y-27557857D02*
X47559524Y-27510238D01*
X47559524Y-27510238D02*
X47654762Y-27462619D01*
X47654762Y-27462619D02*
X47892857Y-27462619D01*
X47892857Y-27462619D02*
X48035714Y-27510238D01*
%TO.C,U+D = N*%
X69227876Y-103712619D02*
X69227876Y-104522142D01*
X69227876Y-104522142D02*
X69275495Y-104617380D01*
X69275495Y-104617380D02*
X69323114Y-104665000D01*
X69323114Y-104665000D02*
X69418352Y-104712619D01*
X69418352Y-104712619D02*
X69608828Y-104712619D01*
X69608828Y-104712619D02*
X69704066Y-104665000D01*
X69704066Y-104665000D02*
X69751685Y-104617380D01*
X69751685Y-104617380D02*
X69799304Y-104522142D01*
X69799304Y-104522142D02*
X69799304Y-103712619D01*
X70275495Y-104331666D02*
X71037400Y-104331666D01*
X70656447Y-104712619D02*
X70656447Y-103950714D01*
X71513590Y-104712619D02*
X71513590Y-103712619D01*
X71513590Y-103712619D02*
X71751685Y-103712619D01*
X71751685Y-103712619D02*
X71894542Y-103760238D01*
X71894542Y-103760238D02*
X71989780Y-103855476D01*
X71989780Y-103855476D02*
X72037399Y-103950714D01*
X72037399Y-103950714D02*
X72085018Y-104141190D01*
X72085018Y-104141190D02*
X72085018Y-104284047D01*
X72085018Y-104284047D02*
X72037399Y-104474523D01*
X72037399Y-104474523D02*
X71989780Y-104569761D01*
X71989780Y-104569761D02*
X71894542Y-104665000D01*
X71894542Y-104665000D02*
X71751685Y-104712619D01*
X71751685Y-104712619D02*
X71513590Y-104712619D01*
X73275495Y-104188809D02*
X74037400Y-104188809D01*
X74037400Y-104474523D02*
X73275495Y-104474523D01*
X75275495Y-104712619D02*
X75275495Y-103712619D01*
X75275495Y-103712619D02*
X75846923Y-104712619D01*
X75846923Y-104712619D02*
X75846923Y-103712619D01*
X65462619Y-106967799D02*
X65700714Y-106967799D01*
X65605476Y-107205894D02*
X65700714Y-106967799D01*
X65700714Y-106967799D02*
X65605476Y-106729704D01*
X65891190Y-107110656D02*
X65700714Y-106967799D01*
X65700714Y-106967799D02*
X65891190Y-106824942D01*
%TO.C,\u25A1*%
X133738095Y-53146428D02*
X135261905Y-53146428D01*
X135261905Y-53146428D02*
X135261905Y-54670238D01*
X135261905Y-54670238D02*
X133738095Y-54670238D01*
X133738095Y-54670238D02*
X133738095Y-53146428D01*
%TO.C,X*%
X134000000Y-82193928D02*
X135000000Y-83693928D01*
X135000000Y-82193928D02*
X134000000Y-83693928D01*
%TO.C,\u2190*%
X44261905Y-51163333D02*
X42738095Y-51163333D01*
X43119047Y-51544285D02*
X42738095Y-51163333D01*
X42738095Y-51163333D02*
X43119047Y-50782380D01*
%TO.C,SHOULDER*%
X172285714Y-27415000D02*
X172428571Y-27462619D01*
X172428571Y-27462619D02*
X172666666Y-27462619D01*
X172666666Y-27462619D02*
X172761904Y-27415000D01*
X172761904Y-27415000D02*
X172809523Y-27367380D01*
X172809523Y-27367380D02*
X172857142Y-27272142D01*
X172857142Y-27272142D02*
X172857142Y-27176904D01*
X172857142Y-27176904D02*
X172809523Y-27081666D01*
X172809523Y-27081666D02*
X172761904Y-27034047D01*
X172761904Y-27034047D02*
X172666666Y-26986428D01*
X172666666Y-26986428D02*
X172476190Y-26938809D01*
X172476190Y-26938809D02*
X172380952Y-26891190D01*
X172380952Y-26891190D02*
X172333333Y-26843571D01*
X172333333Y-26843571D02*
X172285714Y-26748333D01*
X172285714Y-26748333D02*
X172285714Y-26653095D01*
X172285714Y-26653095D02*
X172333333Y-26557857D01*
X172333333Y-26557857D02*
X172380952Y-26510238D01*
X172380952Y-26510238D02*
X172476190Y-26462619D01*
X172476190Y-26462619D02*
X172714285Y-26462619D01*
X172714285Y-26462619D02*
X172857142Y-26510238D01*
X173285714Y-27462619D02*
X173285714Y-26462619D01*
X173285714Y-26938809D02*
X173857142Y-26938809D01*
X173857142Y-27462619D02*
X173857142Y-26462619D01*
X174523809Y-26462619D02*
X174714285Y-26462619D01*
X174714285Y-26462619D02*
X174809523Y-26510238D01*
X174809523Y-26510238D02*
X174904761Y-26605476D01*
X174904761Y-26605476D02*
X174952380Y-26795952D01*
X174952380Y-26795952D02*
X174952380Y-27129285D01*
X174952380Y-27129285D02*
X174904761Y-27319761D01*
X174904761Y-27319761D02*
X174809523Y-27415000D01*
X174809523Y-27415000D02*
X174714285Y-27462619D01*
X174714285Y-27462619D02*
X174523809Y-27462619D01*
X174523809Y-27462619D02*
X174428571Y-27415000D01*
X174428571Y-27415000D02*
X174333333Y-27319761D01*
X174333333Y-27319761D02*
X174285714Y-27129285D01*
X174285714Y-27129285D02*
X174285714Y-26795952D01*
X174285714Y-26795952D02*
X174333333Y-26605476D01*
X174333333Y-26605476D02*
X174428571Y-26510238D01*
X174428571Y-26510238D02*
X174523809Y-26462619D01*
X175380952Y-26462619D02*
X175380952Y-27272142D01*
X175380952Y-27272142D02*
X175428571Y-27367380D01*
X175428571Y-27367380D02*
X175476190Y-27415000D01*
X175476190Y-27415000D02*
X175571428Y-27462619D01*
X175571428Y-27462619D02*
X175761904Y-27462619D01*
X175761904Y-27462619D02*
X175857142Y-27415000D01*
X175857142Y-27415000D02*
X175904761Y-27367380D01*
X175904761Y-27367380D02*
X175952380Y-27272142D01*
X175952380Y-27272142D02*
X175952380Y-26462619D01*
X176904761Y-27462619D02*
X176428571Y-27462619D01*
X176428571Y-27462619D02*
X176428571Y-26462619D01*
X177238095Y-27462619D02*
X177238095Y-26462619D01*
X177238095Y-26462619D02*
X177476190Y-26462619D01*
X177476190Y-26462619D02*
X177619047Y-26510238D01*
X177619047Y-26510238D02*
X177714285Y-26605476D01*
X177714285Y-26605476D02*
X177761904Y-26700714D01*
X177761904Y-26700714D02*
X177809523Y-26891190D01*
X177809523Y-26891190D02*
X177809523Y-27034047D01*
X177809523Y-27034047D02*
X177761904Y-27224523D01*
X177761904Y-27224523D02*
X177714285Y-27319761D01*
X177714285Y-27319761D02*
X177619047Y-27415000D01*
X177619047Y-27415000D02*
X177476190Y-27462619D01*
X177476190Y-27462619D02*
X177238095Y-27462619D01*
X178238095Y-26938809D02*
X178571428Y-26938809D01*
X178714285Y-27462619D02*
X178238095Y-27462619D01*
X178238095Y-27462619D02*
X178238095Y-26462619D01*
X178238095Y-26462619D02*
X178714285Y-26462619D01*
X179714285Y-27462619D02*
X179380952Y-26986428D01*
X179142857Y-27462619D02*
X179142857Y-26462619D01*
X179142857Y-26462619D02*
X179523809Y-26462619D01*
X179523809Y-26462619D02*
X179619047Y-26510238D01*
X179619047Y-26510238D02*
X179666666Y-26557857D01*
X179666666Y-26557857D02*
X179714285Y-26653095D01*
X179714285Y-26653095D02*
X179714285Y-26795952D01*
X179714285Y-26795952D02*
X179666666Y-26891190D01*
X179666666Y-26891190D02*
X179619047Y-26938809D01*
X179619047Y-26938809D02*
X179523809Y-26986428D01*
X179523809Y-26986428D02*
X179142857Y-26986428D01*
%TO.C,L2*%
X188250000Y-69438928D02*
X187535714Y-69438928D01*
X187535714Y-69438928D02*
X187535714Y-67938928D01*
X188678572Y-68081785D02*
X188750000Y-68010357D01*
X188750000Y-68010357D02*
X188892858Y-67938928D01*
X188892858Y-67938928D02*
X189250000Y-67938928D01*
X189250000Y-67938928D02*
X189392858Y-68010357D01*
X189392858Y-68010357D02*
X189464286Y-68081785D01*
X189464286Y-68081785D02*
X189535715Y-68224642D01*
X189535715Y-68224642D02*
X189535715Y-68367500D01*
X189535715Y-68367500D02*
X189464286Y-68581785D01*
X189464286Y-68581785D02*
X188607143Y-69438928D01*
X188607143Y-69438928D02*
X189535715Y-69438928D01*
%TO.C,TOUCH*%
X104892857Y-27462619D02*
X105464285Y-27462619D01*
X105178571Y-28462619D02*
X105178571Y-27462619D01*
X105988095Y-27462619D02*
X106178571Y-27462619D01*
X106178571Y-27462619D02*
X106273809Y-27510238D01*
X106273809Y-27510238D02*
X106369047Y-27605476D01*
X106369047Y-27605476D02*
X106416666Y-27795952D01*
X106416666Y-27795952D02*
X106416666Y-28129285D01*
X106416666Y-28129285D02*
X106369047Y-28319761D01*
X106369047Y-28319761D02*
X106273809Y-28415000D01*
X106273809Y-28415000D02*
X106178571Y-28462619D01*
X106178571Y-28462619D02*
X105988095Y-28462619D01*
X105988095Y-28462619D02*
X105892857Y-28415000D01*
X105892857Y-28415000D02*
X105797619Y-28319761D01*
X105797619Y-28319761D02*
X105750000Y-28129285D01*
X105750000Y-28129285D02*
X105750000Y-27795952D01*
X105750000Y-27795952D02*
X105797619Y-27605476D01*
X105797619Y-27605476D02*
X105892857Y-27510238D01*
X105892857Y-27510238D02*
X105988095Y-27462619D01*
X106845238Y-27462619D02*
X106845238Y-28272142D01*
X106845238Y-28272142D02*
X106892857Y-28367380D01*
X106892857Y-28367380D02*
X106940476Y-28415000D01*
X106940476Y-28415000D02*
X107035714Y-28462619D01*
X107035714Y-28462619D02*
X107226190Y-28462619D01*
X107226190Y-28462619D02*
X107321428Y-28415000D01*
X107321428Y-28415000D02*
X107369047Y-28367380D01*
X107369047Y-28367380D02*
X107416666Y-28272142D01*
X107416666Y-28272142D02*
X107416666Y-27462619D01*
X108464285Y-28367380D02*
X108416666Y-28415000D01*
X108416666Y-28415000D02*
X108273809Y-28462619D01*
X108273809Y-28462619D02*
X108178571Y-28462619D01*
X108178571Y-28462619D02*
X108035714Y-28415000D01*
X108035714Y-28415000D02*
X107940476Y-28319761D01*
X107940476Y-28319761D02*
X107892857Y-28224523D01*
X107892857Y-28224523D02*
X107845238Y-28034047D01*
X107845238Y-28034047D02*
X107845238Y-27891190D01*
X107845238Y-27891190D02*
X107892857Y-27700714D01*
X107892857Y-27700714D02*
X107940476Y-27605476D01*
X107940476Y-27605476D02*
X108035714Y-27510238D01*
X108035714Y-27510238D02*
X108178571Y-27462619D01*
X108178571Y-27462619D02*
X108273809Y-27462619D01*
X108273809Y-27462619D02*
X108416666Y-27510238D01*
X108416666Y-27510238D02*
X108464285Y-27557857D01*
X108892857Y-28462619D02*
X108892857Y-27462619D01*
X108892857Y-27938809D02*
X109464285Y-27938809D01*
X109464285Y-28462619D02*
X109464285Y-27462619D01*
%TO.C,\u2191*%
X112500000Y-118925238D02*
X112500000Y-117401428D01*
X112119047Y-117782380D02*
X112500000Y-117401428D01*
X112500000Y-117401428D02*
X112880952Y-117782380D01*
%TO.C,\u2192*%
X96738095Y-65163333D02*
X98261905Y-65163333D01*
X97880952Y-65544285D02*
X98261905Y-65163333D01*
X98261905Y-65163333D02*
X97880952Y-64782380D01*
%TO.C,R1*%
X216250000Y-47438928D02*
X215750000Y-46724642D01*
X215392857Y-47438928D02*
X215392857Y-45938928D01*
X215392857Y-45938928D02*
X215964286Y-45938928D01*
X215964286Y-45938928D02*
X216107143Y-46010357D01*
X216107143Y-46010357D02*
X216178572Y-46081785D01*
X216178572Y-46081785D02*
X216250000Y-46224642D01*
X216250000Y-46224642D02*
X216250000Y-46438928D01*
X216250000Y-46438928D02*
X216178572Y-46581785D01*
X216178572Y-46581785D02*
X216107143Y-46653214D01*
X216107143Y-46653214D02*
X215964286Y-46724642D01*
X215964286Y-46724642D02*
X215392857Y-46724642D01*
X217678572Y-47438928D02*
X216821429Y-47438928D01*
X217250000Y-47438928D02*
X217250000Y-45938928D01*
X217250000Y-45938928D02*
X217107143Y-46153214D01*
X217107143Y-46153214D02*
X216964286Y-46296071D01*
X216964286Y-46296071D02*
X216821429Y-46367500D01*
%TO.C,OPTION*%
X68988095Y-27462619D02*
X69178571Y-27462619D01*
X69178571Y-27462619D02*
X69273809Y-27510238D01*
X69273809Y-27510238D02*
X69369047Y-27605476D01*
X69369047Y-27605476D02*
X69416666Y-27795952D01*
X69416666Y-27795952D02*
X69416666Y-28129285D01*
X69416666Y-28129285D02*
X69369047Y-28319761D01*
X69369047Y-28319761D02*
X69273809Y-28415000D01*
X69273809Y-28415000D02*
X69178571Y-28462619D01*
X69178571Y-28462619D02*
X68988095Y-28462619D01*
X68988095Y-28462619D02*
X68892857Y-28415000D01*
X68892857Y-28415000D02*
X68797619Y-28319761D01*
X68797619Y-28319761D02*
X68750000Y-28129285D01*
X68750000Y-28129285D02*
X68750000Y-27795952D01*
X68750000Y-27795952D02*
X68797619Y-27605476D01*
X68797619Y-27605476D02*
X68892857Y-27510238D01*
X68892857Y-27510238D02*
X68988095Y-27462619D01*
X69845238Y-28462619D02*
X69845238Y-27462619D01*
X69845238Y-27462619D02*
X70226190Y-27462619D01*
X70226190Y-27462619D02*
X70321428Y-27510238D01*
X70321428Y-27510238D02*
X70369047Y-27557857D01*
X70369047Y-27557857D02*
X70416666Y-27653095D01*
X70416666Y-27653095D02*
X70416666Y-27795952D01*
X70416666Y-27795952D02*
X70369047Y-27891190D01*
X70369047Y-27891190D02*
X70321428Y-27938809D01*
X70321428Y-27938809D02*
X70226190Y-27986428D01*
X70226190Y-27986428D02*
X69845238Y-27986428D01*
X70702381Y-27462619D02*
X71273809Y-27462619D01*
X70988095Y-28462619D02*
X70988095Y-27462619D01*
X71607143Y-28462619D02*
X71607143Y-27462619D01*
X72273809Y-27462619D02*
X72464285Y-27462619D01*
X72464285Y-27462619D02*
X72559523Y-27510238D01*
X72559523Y-27510238D02*
X72654761Y-27605476D01*
X72654761Y-27605476D02*
X72702380Y-27795952D01*
X72702380Y-27795952D02*
X72702380Y-28129285D01*
X72702380Y-28129285D02*
X72654761Y-28319761D01*
X72654761Y-28319761D02*
X72559523Y-28415000D01*
X72559523Y-28415000D02*
X72464285Y-28462619D01*
X72464285Y-28462619D02*
X72273809Y-28462619D01*
X72273809Y-28462619D02*
X72178571Y-28415000D01*
X72178571Y-28415000D02*
X72083333Y-28319761D01*
X72083333Y-28319761D02*
X72035714Y-28129285D01*
X72035714Y-28129285D02*
X72035714Y-27795952D01*
X72035714Y-27795952D02*
X72083333Y-27605476D01*
X72083333Y-27605476D02*
X72178571Y-27510238D01*
X72178571Y-27510238D02*
X72273809Y-27462619D01*
X73130952Y-28462619D02*
X73130952Y-27462619D01*
X73130952Y-27462619D02*
X73702380Y-28462619D01*
X73702380Y-28462619D02*
X73702380Y-27462619D01*
%TO.C,L1*%
X188250000Y-40438928D02*
X187535714Y-40438928D01*
X187535714Y-40438928D02*
X187535714Y-38938928D01*
X189535715Y-40438928D02*
X188678572Y-40438928D01*
X189107143Y-40438928D02*
X189107143Y-38938928D01*
X189107143Y-38938928D02*
X188964286Y-39153214D01*
X188964286Y-39153214D02*
X188821429Y-39296071D01*
X188821429Y-39296071D02*
X188678572Y-39367500D01*
%TO.C,\u25B3*%
X159500000Y-39146428D02*
X160357143Y-40670238D01*
X160357143Y-40670238D02*
X158642857Y-40670238D01*
X158642857Y-40670238D02*
X159500000Y-39146428D01*
%TO.C,R2*%
X216250000Y-76438928D02*
X215750000Y-75724642D01*
X215392857Y-76438928D02*
X215392857Y-74938928D01*
X215392857Y-74938928D02*
X215964286Y-74938928D01*
X215964286Y-74938928D02*
X216107143Y-75010357D01*
X216107143Y-75010357D02*
X216178572Y-75081785D01*
X216178572Y-75081785D02*
X216250000Y-75224642D01*
X216250000Y-75224642D02*
X216250000Y-75438928D01*
X216250000Y-75438928D02*
X216178572Y-75581785D01*
X216178572Y-75581785D02*
X216107143Y-75653214D01*
X216107143Y-75653214D02*
X215964286Y-75724642D01*
X215964286Y-75724642D02*
X215392857Y-75724642D01*
X216821429Y-75081785D02*
X216892857Y-75010357D01*
X216892857Y-75010357D02*
X217035715Y-74938928D01*
X217035715Y-74938928D02*
X217392857Y-74938928D01*
X217392857Y-74938928D02*
X217535715Y-75010357D01*
X217535715Y-75010357D02*
X217607143Y-75081785D01*
X217607143Y-75081785D02*
X217678572Y-75224642D01*
X217678572Y-75224642D02*
X217678572Y-75367500D01*
X217678572Y-75367500D02*
X217607143Y-75581785D01*
X217607143Y-75581785D02*
X216750000Y-76438928D01*
X216750000Y-76438928D02*
X217678572Y-76438928D01*
%TO.C,FACE*%
X160761904Y-26938809D02*
X160428571Y-26938809D01*
X160428571Y-27462619D02*
X160428571Y-26462619D01*
X160428571Y-26462619D02*
X160904761Y-26462619D01*
X161238095Y-27176904D02*
X161714285Y-27176904D01*
X161142857Y-27462619D02*
X161476190Y-26462619D01*
X161476190Y-26462619D02*
X161809523Y-27462619D01*
X162714285Y-27367380D02*
X162666666Y-27415000D01*
X162666666Y-27415000D02*
X162523809Y-27462619D01*
X162523809Y-27462619D02*
X162428571Y-27462619D01*
X162428571Y-27462619D02*
X162285714Y-27415000D01*
X162285714Y-27415000D02*
X162190476Y-27319761D01*
X162190476Y-27319761D02*
X162142857Y-27224523D01*
X162142857Y-27224523D02*
X162095238Y-27034047D01*
X162095238Y-27034047D02*
X162095238Y-26891190D01*
X162095238Y-26891190D02*
X162142857Y-26700714D01*
X162142857Y-26700714D02*
X162190476Y-26605476D01*
X162190476Y-26605476D02*
X162285714Y-26510238D01*
X162285714Y-26510238D02*
X162428571Y-26462619D01*
X162428571Y-26462619D02*
X162523809Y-26462619D01*
X162523809Y-26462619D02*
X162666666Y-26510238D01*
X162666666Y-26510238D02*
X162714285Y-26557857D01*
X163142857Y-26938809D02*
X163476190Y-26938809D01*
X163619047Y-27462619D02*
X163142857Y-27462619D01*
X163142857Y-27462619D02*
X163142857Y-26462619D01*
X163142857Y-26462619D02*
X163619047Y-26462619D01*
%TO.C,10K*%
X111809523Y-140462619D02*
X111238095Y-140462619D01*
X111523809Y-140462619D02*
X111523809Y-139462619D01*
X111523809Y-139462619D02*
X111428571Y-139605476D01*
X111428571Y-139605476D02*
X111333333Y-139700714D01*
X111333333Y-139700714D02*
X111238095Y-139748333D01*
X112428571Y-139462619D02*
X112523809Y-139462619D01*
X112523809Y-139462619D02*
X112619047Y-139510238D01*
X112619047Y-139510238D02*
X112666666Y-139557857D01*
X112666666Y-139557857D02*
X112714285Y-139653095D01*
X112714285Y-139653095D02*
X112761904Y-139843571D01*
X112761904Y-139843571D02*
X112761904Y-140081666D01*
X112761904Y-140081666D02*
X112714285Y-140272142D01*
X112714285Y-140272142D02*
X112666666Y-140367380D01*
X112666666Y-140367380D02*
X112619047Y-140415000D01*
X112619047Y-140415000D02*
X112523809Y-140462619D01*
X112523809Y-140462619D02*
X112428571Y-140462619D01*
X112428571Y-140462619D02*
X112333333Y-140415000D01*
X112333333Y-140415000D02*
X112285714Y-140367380D01*
X112285714Y-140367380D02*
X112238095Y-140272142D01*
X112238095Y-140272142D02*
X112190476Y-140081666D01*
X112190476Y-140081666D02*
X112190476Y-139843571D01*
X112190476Y-139843571D02*
X112238095Y-139653095D01*
X112238095Y-139653095D02*
X112285714Y-139557857D01*
X112285714Y-139557857D02*
X112333333Y-139510238D01*
X112333333Y-139510238D02*
X112428571Y-139462619D01*
X113190476Y-140462619D02*
X113190476Y-139462619D01*
X113761904Y-140462619D02*
X113333333Y-139891190D01*
X113761904Y-139462619D02*
X113190476Y-140034047D01*
X42809523Y-73462619D02*
X42238095Y-73462619D01*
X42523809Y-73462619D02*
X42523809Y-72462619D01*
X42523809Y-72462619D02*
X42428571Y-72605476D01*
X42428571Y-72605476D02*
X42333333Y-72700714D01*
X42333333Y-72700714D02*
X42238095Y-72748333D01*
X43428571Y-72462619D02*
X43523809Y-72462619D01*
X43523809Y-72462619D02*
X43619047Y-72510238D01*
X43619047Y-72510238D02*
X43666666Y-72557857D01*
X43666666Y-72557857D02*
X43714285Y-72653095D01*
X43714285Y-72653095D02*
X43761904Y-72843571D01*
X43761904Y-72843571D02*
X43761904Y-73081666D01*
X43761904Y-73081666D02*
X43714285Y-73272142D01*
X43714285Y-73272142D02*
X43666666Y-73367380D01*
X43666666Y-73367380D02*
X43619047Y-73415000D01*
X43619047Y-73415000D02*
X43523809Y-73462619D01*
X43523809Y-73462619D02*
X43428571Y-73462619D01*
X43428571Y-73462619D02*
X43333333Y-73415000D01*
X43333333Y-73415000D02*
X43285714Y-73367380D01*
X43285714Y-73367380D02*
X43238095Y-73272142D01*
X43238095Y-73272142D02*
X43190476Y-73081666D01*
X43190476Y-73081666D02*
X43190476Y-72843571D01*
X43190476Y-72843571D02*
X43238095Y-72653095D01*
X43238095Y-72653095D02*
X43285714Y-72557857D01*
X43285714Y-72557857D02*
X43333333Y-72510238D01*
X43333333Y-72510238D02*
X43428571Y-72462619D01*
X44190476Y-73462619D02*
X44190476Y-72462619D01*
X44761904Y-73462619D02*
X44333333Y-72891190D01*
X44761904Y-72462619D02*
X44190476Y-73034047D01*
%TO.C,L+R = N*%
X69785714Y-91462619D02*
X69309524Y-91462619D01*
X69309524Y-91462619D02*
X69309524Y-90462619D01*
X70119048Y-91081666D02*
X70880953Y-91081666D01*
X70500000Y-91462619D02*
X70500000Y-90700714D01*
X71928571Y-91462619D02*
X71595238Y-90986428D01*
X71357143Y-91462619D02*
X71357143Y-90462619D01*
X71357143Y-90462619D02*
X71738095Y-90462619D01*
X71738095Y-90462619D02*
X71833333Y-90510238D01*
X71833333Y-90510238D02*
X71880952Y-90557857D01*
X71880952Y-90557857D02*
X71928571Y-90653095D01*
X71928571Y-90653095D02*
X71928571Y-90795952D01*
X71928571Y-90795952D02*
X71880952Y-90891190D01*
X71880952Y-90891190D02*
X71833333Y-90938809D01*
X71833333Y-90938809D02*
X71738095Y-90986428D01*
X71738095Y-90986428D02*
X71357143Y-90986428D01*
X73119048Y-90938809D02*
X73880953Y-90938809D01*
X73880953Y-91224523D02*
X73119048Y-91224523D01*
X75119048Y-91462619D02*
X75119048Y-90462619D01*
X75119048Y-90462619D02*
X75690476Y-91462619D01*
X75690476Y-91462619D02*
X75690476Y-90462619D01*
X65462619Y-93717799D02*
X65700714Y-93717799D01*
X65605476Y-93955894D02*
X65700714Y-93717799D01*
X65700714Y-93717799D02*
X65605476Y-93479704D01*
X65891190Y-93860656D02*
X65700714Y-93717799D01*
X65700714Y-93717799D02*
X65891190Y-93574942D01*
X65462619Y-93717799D02*
X65700714Y-93717799D01*
X65605476Y-93955894D02*
X65700714Y-93717799D01*
X65700714Y-93717799D02*
X65605476Y-93479704D01*
X65891190Y-93860656D02*
X65700714Y-93717799D01*
X65700714Y-93717799D02*
X65891190Y-93574942D01*
%TO.C,10K*%
X96809523Y-87462619D02*
X96238095Y-87462619D01*
X96523809Y-87462619D02*
X96523809Y-86462619D01*
X96523809Y-86462619D02*
X96428571Y-86605476D01*
X96428571Y-86605476D02*
X96333333Y-86700714D01*
X96333333Y-86700714D02*
X96238095Y-86748333D01*
X97428571Y-86462619D02*
X97523809Y-86462619D01*
X97523809Y-86462619D02*
X97619047Y-86510238D01*
X97619047Y-86510238D02*
X97666666Y-86557857D01*
X97666666Y-86557857D02*
X97714285Y-86653095D01*
X97714285Y-86653095D02*
X97761904Y-86843571D01*
X97761904Y-86843571D02*
X97761904Y-87081666D01*
X97761904Y-87081666D02*
X97714285Y-87272142D01*
X97714285Y-87272142D02*
X97666666Y-87367380D01*
X97666666Y-87367380D02*
X97619047Y-87415000D01*
X97619047Y-87415000D02*
X97523809Y-87462619D01*
X97523809Y-87462619D02*
X97428571Y-87462619D01*
X97428571Y-87462619D02*
X97333333Y-87415000D01*
X97333333Y-87415000D02*
X97285714Y-87367380D01*
X97285714Y-87367380D02*
X97238095Y-87272142D01*
X97238095Y-87272142D02*
X97190476Y-87081666D01*
X97190476Y-87081666D02*
X97190476Y-86843571D01*
X97190476Y-86843571D02*
X97238095Y-86653095D01*
X97238095Y-86653095D02*
X97285714Y-86557857D01*
X97285714Y-86557857D02*
X97333333Y-86510238D01*
X97333333Y-86510238D02*
X97428571Y-86462619D01*
X98190476Y-87462619D02*
X98190476Y-86462619D01*
X98761904Y-87462619D02*
X98333333Y-86891190D01*
X98761904Y-86462619D02*
X98190476Y-87034047D01*
%TO.C,1.8V/GND*%
X217135238Y-137462619D02*
X216563810Y-137462619D01*
X216849524Y-137462619D02*
X216849524Y-136462619D01*
X216849524Y-136462619D02*
X216754286Y-136605476D01*
X216754286Y-136605476D02*
X216659048Y-136700714D01*
X216659048Y-136700714D02*
X216563810Y-136748333D01*
X217563810Y-137367380D02*
X217611429Y-137415000D01*
X217611429Y-137415000D02*
X217563810Y-137462619D01*
X217563810Y-137462619D02*
X217516191Y-137415000D01*
X217516191Y-137415000D02*
X217563810Y-137367380D01*
X217563810Y-137367380D02*
X217563810Y-137462619D01*
X218182857Y-136891190D02*
X218087619Y-136843571D01*
X218087619Y-136843571D02*
X218040000Y-136795952D01*
X218040000Y-136795952D02*
X217992381Y-136700714D01*
X217992381Y-136700714D02*
X217992381Y-136653095D01*
X217992381Y-136653095D02*
X218040000Y-136557857D01*
X218040000Y-136557857D02*
X218087619Y-136510238D01*
X218087619Y-136510238D02*
X218182857Y-136462619D01*
X218182857Y-136462619D02*
X218373333Y-136462619D01*
X218373333Y-136462619D02*
X218468571Y-136510238D01*
X218468571Y-136510238D02*
X218516190Y-136557857D01*
X218516190Y-136557857D02*
X218563809Y-136653095D01*
X218563809Y-136653095D02*
X218563809Y-136700714D01*
X218563809Y-136700714D02*
X218516190Y-136795952D01*
X218516190Y-136795952D02*
X218468571Y-136843571D01*
X218468571Y-136843571D02*
X218373333Y-136891190D01*
X218373333Y-136891190D02*
X218182857Y-136891190D01*
X218182857Y-136891190D02*
X218087619Y-136938809D01*
X218087619Y-136938809D02*
X218040000Y-136986428D01*
X218040000Y-136986428D02*
X217992381Y-137081666D01*
X217992381Y-137081666D02*
X217992381Y-137272142D01*
X217992381Y-137272142D02*
X218040000Y-137367380D01*
X218040000Y-137367380D02*
X218087619Y-137415000D01*
X218087619Y-137415000D02*
X218182857Y-137462619D01*
X218182857Y-137462619D02*
X218373333Y-137462619D01*
X218373333Y-137462619D02*
X218468571Y-137415000D01*
X218468571Y-137415000D02*
X218516190Y-137367380D01*
X218516190Y-137367380D02*
X218563809Y-137272142D01*
X218563809Y-137272142D02*
X218563809Y-137081666D01*
X218563809Y-137081666D02*
X218516190Y-136986428D01*
X218516190Y-136986428D02*
X218468571Y-136938809D01*
X218468571Y-136938809D02*
X218373333Y-136891190D01*
X218849524Y-136462619D02*
X219182857Y-137462619D01*
X219182857Y-137462619D02*
X219516190Y-136462619D01*
X220563809Y-136415000D02*
X219706667Y-137700714D01*
X221420952Y-136510238D02*
X221325714Y-136462619D01*
X221325714Y-136462619D02*
X221182857Y-136462619D01*
X221182857Y-136462619D02*
X221040000Y-136510238D01*
X221040000Y-136510238D02*
X220944762Y-136605476D01*
X220944762Y-136605476D02*
X220897143Y-136700714D01*
X220897143Y-136700714D02*
X220849524Y-136891190D01*
X220849524Y-136891190D02*
X220849524Y-137034047D01*
X220849524Y-137034047D02*
X220897143Y-137224523D01*
X220897143Y-137224523D02*
X220944762Y-137319761D01*
X220944762Y-137319761D02*
X221040000Y-137415000D01*
X221040000Y-137415000D02*
X221182857Y-137462619D01*
X221182857Y-137462619D02*
X221278095Y-137462619D01*
X221278095Y-137462619D02*
X221420952Y-137415000D01*
X221420952Y-137415000D02*
X221468571Y-137367380D01*
X221468571Y-137367380D02*
X221468571Y-137034047D01*
X221468571Y-137034047D02*
X221278095Y-137034047D01*
X221897143Y-137462619D02*
X221897143Y-136462619D01*
X221897143Y-136462619D02*
X222468571Y-137462619D01*
X222468571Y-137462619D02*
X222468571Y-136462619D01*
X222944762Y-137462619D02*
X222944762Y-136462619D01*
X222944762Y-136462619D02*
X223182857Y-136462619D01*
X223182857Y-136462619D02*
X223325714Y-136510238D01*
X223325714Y-136510238D02*
X223420952Y-136605476D01*
X223420952Y-136605476D02*
X223468571Y-136700714D01*
X223468571Y-136700714D02*
X223516190Y-136891190D01*
X223516190Y-136891190D02*
X223516190Y-137034047D01*
X223516190Y-137034047D02*
X223468571Y-137224523D01*
X223468571Y-137224523D02*
X223420952Y-137319761D01*
X223420952Y-137319761D02*
X223325714Y-137415000D01*
X223325714Y-137415000D02*
X223182857Y-137462619D01*
X223182857Y-137462619D02*
X222944762Y-137462619D01*
%TO.C,DPAD*%
X148309524Y-27462619D02*
X148309524Y-26462619D01*
X148309524Y-26462619D02*
X148547619Y-26462619D01*
X148547619Y-26462619D02*
X148690476Y-26510238D01*
X148690476Y-26510238D02*
X148785714Y-26605476D01*
X148785714Y-26605476D02*
X148833333Y-26700714D01*
X148833333Y-26700714D02*
X148880952Y-26891190D01*
X148880952Y-26891190D02*
X148880952Y-27034047D01*
X148880952Y-27034047D02*
X148833333Y-27224523D01*
X148833333Y-27224523D02*
X148785714Y-27319761D01*
X148785714Y-27319761D02*
X148690476Y-27415000D01*
X148690476Y-27415000D02*
X148547619Y-27462619D01*
X148547619Y-27462619D02*
X148309524Y-27462619D01*
X149309524Y-27462619D02*
X149309524Y-26462619D01*
X149309524Y-26462619D02*
X149690476Y-26462619D01*
X149690476Y-26462619D02*
X149785714Y-26510238D01*
X149785714Y-26510238D02*
X149833333Y-26557857D01*
X149833333Y-26557857D02*
X149880952Y-26653095D01*
X149880952Y-26653095D02*
X149880952Y-26795952D01*
X149880952Y-26795952D02*
X149833333Y-26891190D01*
X149833333Y-26891190D02*
X149785714Y-26938809D01*
X149785714Y-26938809D02*
X149690476Y-26986428D01*
X149690476Y-26986428D02*
X149309524Y-26986428D01*
X150261905Y-27176904D02*
X150738095Y-27176904D01*
X150166667Y-27462619D02*
X150500000Y-26462619D01*
X150500000Y-26462619D02*
X150833333Y-27462619D01*
X151166667Y-27462619D02*
X151166667Y-26462619D01*
X151166667Y-26462619D02*
X151404762Y-26462619D01*
X151404762Y-26462619D02*
X151547619Y-26510238D01*
X151547619Y-26510238D02*
X151642857Y-26605476D01*
X151642857Y-26605476D02*
X151690476Y-26700714D01*
X151690476Y-26700714D02*
X151738095Y-26891190D01*
X151738095Y-26891190D02*
X151738095Y-27034047D01*
X151738095Y-27034047D02*
X151690476Y-27224523D01*
X151690476Y-27224523D02*
X151642857Y-27319761D01*
X151642857Y-27319761D02*
X151547619Y-27415000D01*
X151547619Y-27415000D02*
X151404762Y-27462619D01*
X151404762Y-27462619D02*
X151166667Y-27462619D01*
%TO.C,10K*%
X71809523Y-73462619D02*
X71238095Y-73462619D01*
X71523809Y-73462619D02*
X71523809Y-72462619D01*
X71523809Y-72462619D02*
X71428571Y-72605476D01*
X71428571Y-72605476D02*
X71333333Y-72700714D01*
X71333333Y-72700714D02*
X71238095Y-72748333D01*
X72428571Y-72462619D02*
X72523809Y-72462619D01*
X72523809Y-72462619D02*
X72619047Y-72510238D01*
X72619047Y-72510238D02*
X72666666Y-72557857D01*
X72666666Y-72557857D02*
X72714285Y-72653095D01*
X72714285Y-72653095D02*
X72761904Y-72843571D01*
X72761904Y-72843571D02*
X72761904Y-73081666D01*
X72761904Y-73081666D02*
X72714285Y-73272142D01*
X72714285Y-73272142D02*
X72666666Y-73367380D01*
X72666666Y-73367380D02*
X72619047Y-73415000D01*
X72619047Y-73415000D02*
X72523809Y-73462619D01*
X72523809Y-73462619D02*
X72428571Y-73462619D01*
X72428571Y-73462619D02*
X72333333Y-73415000D01*
X72333333Y-73415000D02*
X72285714Y-73367380D01*
X72285714Y-73367380D02*
X72238095Y-73272142D01*
X72238095Y-73272142D02*
X72190476Y-73081666D01*
X72190476Y-73081666D02*
X72190476Y-72843571D01*
X72190476Y-72843571D02*
X72238095Y-72653095D01*
X72238095Y-72653095D02*
X72285714Y-72557857D01*
X72285714Y-72557857D02*
X72333333Y-72510238D01*
X72333333Y-72510238D02*
X72428571Y-72462619D01*
X73190476Y-73462619D02*
X73190476Y-72462619D01*
X73761904Y-73462619D02*
X73333333Y-72891190D01*
X73761904Y-72462619D02*
X73190476Y-73034047D01*
%TO.C,SHARE*%
X57059524Y-28415000D02*
X57202381Y-28462619D01*
X57202381Y-28462619D02*
X57440476Y-28462619D01*
X57440476Y-28462619D02*
X57535714Y-28415000D01*
X57535714Y-28415000D02*
X57583333Y-28367380D01*
X57583333Y-28367380D02*
X57630952Y-28272142D01*
X57630952Y-28272142D02*
X57630952Y-28176904D01*
X57630952Y-28176904D02*
X57583333Y-28081666D01*
X57583333Y-28081666D02*
X57535714Y-28034047D01*
X57535714Y-28034047D02*
X57440476Y-27986428D01*
X57440476Y-27986428D02*
X57250000Y-27938809D01*
X57250000Y-27938809D02*
X57154762Y-27891190D01*
X57154762Y-27891190D02*
X57107143Y-27843571D01*
X57107143Y-27843571D02*
X57059524Y-27748333D01*
X57059524Y-27748333D02*
X57059524Y-27653095D01*
X57059524Y-27653095D02*
X57107143Y-27557857D01*
X57107143Y-27557857D02*
X57154762Y-27510238D01*
X57154762Y-27510238D02*
X57250000Y-27462619D01*
X57250000Y-27462619D02*
X57488095Y-27462619D01*
X57488095Y-27462619D02*
X57630952Y-27510238D01*
X58059524Y-28462619D02*
X58059524Y-27462619D01*
X58059524Y-27938809D02*
X58630952Y-27938809D01*
X58630952Y-28462619D02*
X58630952Y-27462619D01*
X59059524Y-28176904D02*
X59535714Y-28176904D01*
X58964286Y-28462619D02*
X59297619Y-27462619D01*
X59297619Y-27462619D02*
X59630952Y-28462619D01*
X60535714Y-28462619D02*
X60202381Y-27986428D01*
X59964286Y-28462619D02*
X59964286Y-27462619D01*
X59964286Y-27462619D02*
X60345238Y-27462619D01*
X60345238Y-27462619D02*
X60440476Y-27510238D01*
X60440476Y-27510238D02*
X60488095Y-27557857D01*
X60488095Y-27557857D02*
X60535714Y-27653095D01*
X60535714Y-27653095D02*
X60535714Y-27795952D01*
X60535714Y-27795952D02*
X60488095Y-27891190D01*
X60488095Y-27891190D02*
X60440476Y-27938809D01*
X60440476Y-27938809D02*
X60345238Y-27986428D01*
X60345238Y-27986428D02*
X59964286Y-27986428D01*
X60964286Y-27938809D02*
X61297619Y-27938809D01*
X61440476Y-28462619D02*
X60964286Y-28462619D01*
X60964286Y-28462619D02*
X60964286Y-27462619D01*
X60964286Y-27462619D02*
X61440476Y-27462619D01*
%TO.C,G\u002A\u002A\u002A*%
G36*
X176335702Y-95094823D02*
G01*
X178125449Y-95187073D01*
X179743977Y-95359864D01*
X180634990Y-95511375D01*
X183806460Y-96330932D01*
X186816816Y-97460913D01*
X189649343Y-98884795D01*
X192287327Y-100586052D01*
X194714053Y-102548160D01*
X196912808Y-104754593D01*
X198866878Y-107188826D01*
X200559548Y-109834335D01*
X201974104Y-112674594D01*
X203093832Y-115693079D01*
X203809177Y-118423248D01*
X204009888Y-119625794D01*
X204163284Y-121078275D01*
X204265414Y-122675518D01*
X204312333Y-124312350D01*
X204300090Y-125883597D01*
X204224739Y-127284088D01*
X204163927Y-127873370D01*
X203596547Y-131008568D01*
X202700323Y-134028712D01*
X201491483Y-136913132D01*
X199986253Y-139641160D01*
X198200861Y-142192126D01*
X196151534Y-144545361D01*
X193854500Y-146680195D01*
X191325986Y-148575959D01*
X188582219Y-150211984D01*
X185639426Y-151567601D01*
X185526860Y-151612140D01*
X183263784Y-152361353D01*
X180779592Y-152932025D01*
X178170212Y-153311338D01*
X175531571Y-153486477D01*
X172959600Y-153444627D01*
X172227464Y-153388946D01*
X171228481Y-153261420D01*
X170015829Y-153050174D01*
X168716540Y-152780603D01*
X167457647Y-152478100D01*
X166861267Y-152316244D01*
X163979953Y-151312585D01*
X161619087Y-150179458D01*
X163409180Y-150179458D01*
X163439838Y-150205486D01*
X163872241Y-150444482D01*
X164576909Y-150740129D01*
X165477984Y-151066663D01*
X166499606Y-151398322D01*
X167565916Y-151709342D01*
X168601055Y-151973960D01*
X168744564Y-152007063D01*
X171683771Y-152535361D01*
X174514593Y-152754051D01*
X177300312Y-152667396D01*
X177818199Y-152617980D01*
X181006154Y-152109436D01*
X184072097Y-151275205D01*
X186995600Y-150127698D01*
X189756233Y-148679327D01*
X192333567Y-146942503D01*
X194707173Y-144929637D01*
X196856620Y-142653140D01*
X198761479Y-140125423D01*
X199014834Y-139740845D01*
X200504670Y-137173365D01*
X201691486Y-134522806D01*
X202606692Y-131712690D01*
X203027366Y-129970551D01*
X203201032Y-129125418D01*
X203328843Y-128396280D01*
X203417808Y-127699797D01*
X203474936Y-126952626D01*
X203507234Y-126071429D01*
X203521712Y-124972864D01*
X203524962Y-124053623D01*
X203518846Y-122646927D01*
X203493047Y-121577666D01*
X203443376Y-120825863D01*
X203365642Y-120371544D01*
X203255658Y-120194731D01*
X203109233Y-120275450D01*
X202922179Y-120593724D01*
X202837766Y-120776893D01*
X202652130Y-121257633D01*
X202631315Y-121565184D01*
X202766865Y-121839341D01*
X202772961Y-121848085D01*
X202904864Y-122242169D01*
X202920840Y-122792406D01*
X202841358Y-123393219D01*
X202686886Y-123939029D01*
X202477893Y-124324258D01*
X202269172Y-124446626D01*
X202073318Y-124485734D01*
X201976018Y-124657807D01*
X201952785Y-125046176D01*
X201966769Y-125475704D01*
X201966003Y-126027650D01*
X201916416Y-126400964D01*
X201850079Y-126504225D01*
X201695172Y-126646475D01*
X201396619Y-127033057D01*
X200998422Y-127603721D01*
X200576351Y-128248239D01*
X200088195Y-128995865D01*
X199623466Y-129674459D01*
X199240651Y-130200438D01*
X199029825Y-130458240D01*
X198749529Y-130808750D01*
X198629737Y-131061571D01*
X198631027Y-131084297D01*
X198597647Y-131370358D01*
X198535260Y-131546529D01*
X198505609Y-131945532D01*
X198581535Y-132168687D01*
X198719264Y-132349835D01*
X198843271Y-132264275D01*
X198991389Y-131955960D01*
X199224277Y-131518112D01*
X199618325Y-130876548D01*
X200118156Y-130112323D01*
X200668392Y-129306490D01*
X201213653Y-128540102D01*
X201698563Y-127894214D01*
X202067743Y-127449878D01*
X202076539Y-127440416D01*
X202450508Y-126951463D01*
X202597190Y-126453548D01*
X202609053Y-126098866D01*
X202616422Y-125713349D01*
X202650141Y-125596193D01*
X202674133Y-125656767D01*
X202818816Y-125867719D01*
X202935012Y-125859141D01*
X203013752Y-125956207D01*
X203037726Y-126332135D01*
X203013323Y-126913304D01*
X202946934Y-127626095D01*
X202844947Y-128396888D01*
X202713753Y-129152065D01*
X202607336Y-129634507D01*
X202378333Y-130350197D01*
X202070981Y-131030478D01*
X201732791Y-131593359D01*
X201411275Y-131956846D01*
X201208042Y-132049295D01*
X200950349Y-132164485D01*
X200589653Y-132450435D01*
X200214422Y-132817721D01*
X199913121Y-133176918D01*
X199774220Y-133438599D01*
X199781035Y-133491755D01*
X199773265Y-133716097D01*
X199631630Y-134013574D01*
X199441679Y-134246478D01*
X199291487Y-134279750D01*
X199120926Y-134319059D01*
X198972601Y-134459761D01*
X198672971Y-134689198D01*
X198509689Y-134732394D01*
X198268692Y-134877464D01*
X198039690Y-135207796D01*
X197745536Y-135627980D01*
X197448591Y-135878571D01*
X197095943Y-136103384D01*
X196611945Y-136449345D01*
X196375352Y-136628879D01*
X195817260Y-137030041D01*
X195258210Y-137383916D01*
X195078521Y-137483120D01*
X194697513Y-137712548D01*
X194503456Y-137894464D01*
X194497183Y-137917490D01*
X194348545Y-138067798D01*
X193989553Y-138244116D01*
X193975793Y-138249357D01*
X193541849Y-138540159D01*
X193394455Y-138842968D01*
X193199684Y-139188098D01*
X192702683Y-139455261D01*
X192638644Y-139477857D01*
X192130343Y-139699904D01*
X191539970Y-140027768D01*
X190951315Y-140404971D01*
X190448170Y-140775037D01*
X190114325Y-141081488D01*
X190025352Y-141239281D01*
X189885941Y-141416641D01*
X189453563Y-141632617D01*
X188706995Y-141896174D01*
X187887949Y-142141962D01*
X187398501Y-142319117D01*
X187079371Y-142504490D01*
X187023395Y-142575588D01*
X186809549Y-142762655D01*
X186694165Y-142781690D01*
X186307595Y-142869872D01*
X185832074Y-143088261D01*
X185384349Y-143367622D01*
X185081166Y-143638719D01*
X185016901Y-143776371D01*
X184916126Y-144094330D01*
X184669161Y-144516940D01*
X184625516Y-144577665D01*
X184328664Y-144908977D01*
X183990431Y-145064548D01*
X183463520Y-145106654D01*
X183373403Y-145107042D01*
X182861190Y-145147618D01*
X182561707Y-145245894D01*
X182517932Y-145366693D01*
X182772846Y-145474836D01*
X182896873Y-145497066D01*
X183256006Y-145646976D01*
X183516394Y-146022275D01*
X183661932Y-146417163D01*
X183767995Y-146638285D01*
X183935531Y-146567173D01*
X184045361Y-146461882D01*
X184346416Y-146233095D01*
X184546325Y-146190843D01*
X184562734Y-146328757D01*
X184451945Y-146493309D01*
X184223103Y-146905457D01*
X184270514Y-147207932D01*
X184579778Y-147328975D01*
X184619548Y-147328533D01*
X184908974Y-147380269D01*
X184973578Y-147633791D01*
X184959127Y-147775716D01*
X184901101Y-148029309D01*
X184755029Y-148169258D01*
X184433259Y-148231247D01*
X183848140Y-148250961D01*
X183789865Y-148251747D01*
X183035372Y-148302044D01*
X182501693Y-148450952D01*
X182150406Y-148659567D01*
X181811071Y-148870290D01*
X181628436Y-148905508D01*
X181618309Y-148879291D01*
X181748592Y-148631653D01*
X181797183Y-148595070D01*
X181973557Y-148369861D01*
X181841303Y-148190573D01*
X181606256Y-148147887D01*
X181338901Y-148076516D01*
X181345414Y-147804835D01*
X181350000Y-147790140D01*
X181401062Y-147501352D01*
X181259985Y-147462332D01*
X180890466Y-147655986D01*
X180586496Y-147782746D01*
X180393550Y-147641820D01*
X180342998Y-147558709D01*
X180048698Y-147326346D01*
X179834243Y-147341477D01*
X179486606Y-147292086D01*
X179091044Y-146916555D01*
X179087307Y-146911824D01*
X178471725Y-146407230D01*
X177861971Y-146171625D01*
X177482647Y-146083676D01*
X177177422Y-146066478D01*
X176859424Y-146146584D01*
X176441784Y-146350545D01*
X175837628Y-146704915D01*
X175552787Y-146877428D01*
X174891439Y-147267868D01*
X174335193Y-147576224D01*
X173960220Y-147761317D01*
X173853492Y-147796091D01*
X173582125Y-147908343D01*
X173234483Y-148159369D01*
X172947514Y-148437751D01*
X172853521Y-148609657D01*
X172745771Y-148834994D01*
X172567688Y-149061615D01*
X172389850Y-149375865D01*
X172399372Y-149567601D01*
X172629854Y-149708585D01*
X172979695Y-149753386D01*
X173285897Y-149700151D01*
X173390140Y-149578873D01*
X173545576Y-149453280D01*
X173920084Y-149400013D01*
X173926760Y-149400000D01*
X174319188Y-149455932D01*
X174457619Y-149664813D01*
X174463380Y-149759860D01*
X174509370Y-149989379D01*
X174712872Y-150061730D01*
X175134155Y-150020821D01*
X175817819Y-150026888D01*
X176694056Y-150196045D01*
X176967605Y-150273345D01*
X177557609Y-150457293D01*
X177835227Y-150566930D01*
X177832345Y-150625211D01*
X177580847Y-150655087D01*
X177504225Y-150659634D01*
X176826652Y-150670888D01*
X176438781Y-150603960D01*
X176281924Y-150456854D01*
X176047410Y-150315243D01*
X175530825Y-150320763D01*
X174773935Y-150468515D01*
X173854269Y-150741549D01*
X172981487Y-151004755D01*
X172295409Y-151153042D01*
X171829695Y-151186079D01*
X171618003Y-151103535D01*
X171693991Y-150905078D01*
X171851656Y-150761268D01*
X172103775Y-150433679D01*
X172221456Y-150160211D01*
X172258841Y-149870696D01*
X172070529Y-149767381D01*
X171843773Y-149757746D01*
X171289575Y-149932488D01*
X170950704Y-150249647D01*
X170653216Y-150561805D01*
X170442668Y-150601978D01*
X170326872Y-150517957D01*
X169956368Y-150306451D01*
X169661393Y-150370476D01*
X169514465Y-150627827D01*
X169588099Y-150996300D01*
X169729268Y-151195394D01*
X169919381Y-151430576D01*
X169865845Y-151526936D01*
X169515821Y-151546372D01*
X169429559Y-151546478D01*
X168831478Y-151494630D01*
X167992204Y-151353956D01*
X167010592Y-151146764D01*
X165985497Y-150895361D01*
X165015773Y-150622054D01*
X164322074Y-150393944D01*
X163787870Y-150216982D01*
X163465253Y-150141573D01*
X163409180Y-150179458D01*
X161619087Y-150179458D01*
X161221933Y-149988839D01*
X158612179Y-148368888D01*
X156175667Y-146476615D01*
X154780583Y-145142354D01*
X159851099Y-145142354D01*
X159974287Y-145400439D01*
X160176146Y-145455488D01*
X160358769Y-145261032D01*
X160745414Y-145261032D01*
X160747575Y-145587054D01*
X160815371Y-146031472D01*
X161005696Y-146460042D01*
X161369082Y-146959517D01*
X161885986Y-147541504D01*
X162106064Y-147855701D01*
X162118768Y-148057892D01*
X162106659Y-148067391D01*
X161972720Y-148237779D01*
X162144728Y-148360211D01*
X162571993Y-148414888D01*
X162969031Y-148404253D01*
X163521233Y-148365917D01*
X163937158Y-148339890D01*
X164041843Y-148334717D01*
X164194010Y-148167260D01*
X164212300Y-147745422D01*
X164123851Y-147334528D01*
X163929950Y-147210170D01*
X163856725Y-147216644D01*
X163599247Y-147173818D01*
X163552112Y-147082489D01*
X163693708Y-146905250D01*
X163775704Y-146890085D01*
X163845721Y-146806582D01*
X163683160Y-146644502D01*
X163467833Y-146332593D01*
X163475060Y-146123072D01*
X163458713Y-145934786D01*
X163210560Y-145765144D01*
X162673517Y-145577431D01*
X162587107Y-145551994D01*
X162029885Y-145367903D01*
X161625138Y-145193122D01*
X161487820Y-145095310D01*
X161241491Y-144953318D01*
X161050046Y-144928169D01*
X160827415Y-144995943D01*
X160745414Y-145261032D01*
X160358769Y-145261032D01*
X160377540Y-145241045D01*
X160402693Y-145181849D01*
X160506987Y-144703385D01*
X160396172Y-144431462D01*
X160255011Y-144391549D01*
X159999655Y-144540473D01*
X159885719Y-144747695D01*
X159851099Y-145142354D01*
X154780583Y-145142354D01*
X153937369Y-144335903D01*
X152513174Y-142664231D01*
X156397183Y-142664231D01*
X156556687Y-142972267D01*
X156984152Y-143124574D01*
X156991636Y-143125315D01*
X157087744Y-142995304D01*
X157079019Y-142828462D01*
X156921513Y-142569629D01*
X156665003Y-142453253D01*
X156449295Y-142513008D01*
X156397183Y-142664231D01*
X152513174Y-142664231D01*
X151922260Y-141970636D01*
X150155313Y-139404695D01*
X148806938Y-136928993D01*
X152878737Y-136928993D01*
X152909155Y-137057746D01*
X153133989Y-137348305D01*
X153339680Y-137415493D01*
X153646976Y-137562879D01*
X153849041Y-137837723D01*
X154072899Y-138122645D01*
X154485657Y-138493183D01*
X155003099Y-138890215D01*
X155541007Y-139254616D01*
X156015165Y-139527265D01*
X156341356Y-139649039D01*
X156415979Y-139639792D01*
X156559659Y-139394266D01*
X156576056Y-139261203D01*
X156619459Y-139079351D01*
X156807144Y-139174210D01*
X156858891Y-139216279D01*
X157172941Y-139358502D01*
X157476654Y-139241845D01*
X157808400Y-139146800D01*
X157953814Y-139331043D01*
X157899048Y-139635266D01*
X157914197Y-139876085D01*
X158071727Y-139919718D01*
X158270617Y-140033525D01*
X158255710Y-140174713D01*
X158312514Y-140452486D01*
X158601903Y-140718131D01*
X159004214Y-140897047D01*
X159399780Y-140914639D01*
X159429270Y-140906300D01*
X159687222Y-140875968D01*
X159784722Y-141069214D01*
X159795774Y-141328093D01*
X159741825Y-141745662D01*
X159616901Y-141976760D01*
X159433913Y-142186025D01*
X159569059Y-142348029D01*
X159982799Y-142422730D01*
X160058470Y-142423943D01*
X160472855Y-142388188D01*
X160598600Y-142258812D01*
X160575952Y-142155633D01*
X160605542Y-141926144D01*
X160754826Y-141887324D01*
X160953892Y-141773489D01*
X160940821Y-141637573D01*
X161006446Y-141381718D01*
X161275522Y-141088224D01*
X161625921Y-140867715D01*
X161847899Y-140815903D01*
X162023787Y-140966962D01*
X162246696Y-141344096D01*
X162328106Y-141523602D01*
X162624522Y-142229482D01*
X162104514Y-142125480D01*
X161716820Y-142098748D01*
X161586046Y-142246625D01*
X161584507Y-142279332D01*
X161753276Y-142474912D01*
X162265572Y-142659785D01*
X162722897Y-142763461D01*
X163413911Y-142936479D01*
X164036758Y-143152693D01*
X164377474Y-143319821D01*
X164779950Y-143566433D01*
X165013092Y-143645136D01*
X165207838Y-143582496D01*
X165323417Y-143511739D01*
X165520255Y-143232617D01*
X165634940Y-142798985D01*
X165633273Y-142401943D01*
X165478814Y-142254528D01*
X165373527Y-142245070D01*
X164985600Y-142136645D01*
X164704258Y-141964363D01*
X164570544Y-141835799D01*
X164593700Y-141760990D01*
X164824813Y-141733031D01*
X165314972Y-141745015D01*
X166031442Y-141784946D01*
X166846309Y-141825291D01*
X167414611Y-141818528D01*
X167846067Y-141749857D01*
X168250398Y-141604477D01*
X168596398Y-141438936D01*
X169115547Y-141210719D01*
X169513845Y-141094508D01*
X169661716Y-141099645D01*
X169888394Y-141060835D01*
X170074907Y-140881584D01*
X170285044Y-140669144D01*
X170534213Y-140686053D01*
X170778229Y-140804317D01*
X171195347Y-140963326D01*
X171357256Y-140892442D01*
X171242282Y-140632783D01*
X171003388Y-140377218D01*
X170685289Y-140010798D01*
X170530930Y-139692348D01*
X170528169Y-139659949D01*
X170432424Y-139412698D01*
X170173550Y-139457103D01*
X169903523Y-139675551D01*
X169612213Y-139867345D01*
X169279409Y-139789215D01*
X169213110Y-139755022D01*
X168819989Y-139663844D01*
X168368789Y-139709024D01*
X167997742Y-139858062D01*
X167845070Y-140076666D01*
X167688414Y-140248012D01*
X167299864Y-140427232D01*
X166801547Y-140570707D01*
X166315590Y-140634817D01*
X166281209Y-140635211D01*
X165880453Y-140766318D01*
X165750419Y-140992957D01*
X165608839Y-141282934D01*
X165498856Y-141350704D01*
X165375978Y-141241578D01*
X165380623Y-141216549D01*
X165321070Y-140945359D01*
X165096249Y-140603565D01*
X164809916Y-140315385D01*
X164565827Y-140205040D01*
X164540682Y-140210950D01*
X164261302Y-140158436D01*
X163945181Y-139916424D01*
X163631945Y-139659144D01*
X163341003Y-139670059D01*
X163215092Y-139729752D01*
X162746612Y-139845465D01*
X162415927Y-139820947D01*
X162077380Y-139805868D01*
X161907484Y-140047765D01*
X161875806Y-140160115D01*
X161639807Y-140506566D01*
X161223935Y-140733002D01*
X160772967Y-140789065D01*
X160457813Y-140653306D01*
X160132267Y-140495693D01*
X159843143Y-140456338D01*
X159552337Y-140413696D01*
X159553527Y-140225543D01*
X159609341Y-140112718D01*
X159681312Y-139870536D01*
X159541095Y-139675867D01*
X159127045Y-139443562D01*
X159123733Y-139441943D01*
X158955564Y-139343714D01*
X172138028Y-139343714D01*
X172279898Y-139499513D01*
X172633778Y-139751228D01*
X173092071Y-140034043D01*
X173547183Y-140283140D01*
X173891517Y-140433705D01*
X173977772Y-140451986D01*
X174013588Y-140324748D01*
X173914586Y-140075843D01*
X173802694Y-139746165D01*
X173942416Y-139552309D01*
X173945898Y-139550144D01*
X174074172Y-139385617D01*
X173935819Y-139136309D01*
X173874929Y-139066906D01*
X173636672Y-138686076D01*
X173569014Y-138415023D01*
X173469309Y-138188575D01*
X173345422Y-138180050D01*
X173160368Y-138400536D01*
X173145009Y-138542713D01*
X173007117Y-138804415D01*
X172653108Y-139006057D01*
X172290634Y-139178460D01*
X172138043Y-139342500D01*
X172138028Y-139343714D01*
X158955564Y-139343714D01*
X158690606Y-139188950D01*
X158516502Y-138933252D01*
X158511744Y-138622887D01*
X158510653Y-138603345D01*
X168055034Y-138603345D01*
X168115770Y-138850346D01*
X168368358Y-138967269D01*
X168829485Y-138989504D01*
X169366264Y-138929183D01*
X169845809Y-138798439D01*
X170076498Y-138671329D01*
X170286777Y-138349104D01*
X170306939Y-138151842D01*
X170376371Y-137935368D01*
X170528169Y-137934094D01*
X171161027Y-138081813D01*
X171534268Y-138091997D01*
X171726038Y-137944999D01*
X171814484Y-137621173D01*
X171816097Y-137610305D01*
X171847655Y-137197325D01*
X171810995Y-136969363D01*
X171809076Y-136967292D01*
X171587263Y-136901765D01*
X171185494Y-136878258D01*
X170735126Y-136892235D01*
X170367520Y-136939163D01*
X170214034Y-137014509D01*
X170215140Y-137022305D01*
X170118285Y-137212595D01*
X169821629Y-137539895D01*
X169589084Y-137756328D01*
X169199443Y-138146451D01*
X168957473Y-138479321D01*
X168918309Y-138598214D01*
X168863027Y-138755680D01*
X168638443Y-138673584D01*
X168568698Y-138631174D01*
X168229825Y-138508714D01*
X168055034Y-138603345D01*
X158510653Y-138603345D01*
X158490601Y-138244126D01*
X158288153Y-138130986D01*
X158042885Y-138268596D01*
X158007042Y-138399295D01*
X157933207Y-138633221D01*
X157686090Y-138605122D01*
X157334465Y-138391335D01*
X156939529Y-138214354D01*
X156579171Y-138308191D01*
X156293836Y-138541454D01*
X156218309Y-138708087D01*
X156132591Y-138747242D01*
X155955688Y-138567638D01*
X155741383Y-138121833D01*
X155687379Y-137817957D01*
X155611385Y-137503744D01*
X155491856Y-137415493D01*
X155385221Y-137251230D01*
X155399678Y-136776469D01*
X155418441Y-136639163D01*
X155429290Y-136500246D01*
X171849725Y-136500246D01*
X172046131Y-136706450D01*
X172308179Y-136820827D01*
X172714238Y-137056789D01*
X172850766Y-137406273D01*
X172853521Y-137489392D01*
X172912874Y-137832912D01*
X173032394Y-137952112D01*
X173203140Y-137813679D01*
X173211267Y-137755076D01*
X173345763Y-137724609D01*
X173690224Y-137860881D01*
X173971478Y-138016406D01*
X174530639Y-138333236D01*
X174878909Y-138448241D01*
X175100838Y-138361332D01*
X175280976Y-138072424D01*
X175308056Y-138015028D01*
X175435822Y-137595871D01*
X175392618Y-137336723D01*
X175391466Y-137336612D01*
X175715493Y-137336612D01*
X175802209Y-137521757D01*
X175894366Y-137504929D01*
X176066416Y-137276247D01*
X176073239Y-137226063D01*
X175936805Y-137062564D01*
X175894366Y-137057746D01*
X175737384Y-137203342D01*
X175715493Y-137336612D01*
X175391466Y-137336612D01*
X175196633Y-137317845D01*
X175155242Y-137340661D01*
X174894261Y-137322336D01*
X174591209Y-137087298D01*
X174354129Y-136743564D01*
X174284507Y-136470140D01*
X174242623Y-136256090D01*
X174055289Y-136173336D01*
X173629976Y-136191356D01*
X173486302Y-136206823D01*
X172955981Y-136236061D01*
X172644385Y-136146197D01*
X172432616Y-135917058D01*
X172335738Y-135805633D01*
X172942957Y-135805633D01*
X172997726Y-135946423D01*
X173200711Y-135984507D01*
X173497058Y-135911527D01*
X173569014Y-135805633D01*
X173424899Y-135645198D01*
X173311260Y-135626760D01*
X173006720Y-135735775D01*
X172942957Y-135805633D01*
X172335738Y-135805633D01*
X172203042Y-135653013D01*
X172039870Y-135701247D01*
X171897151Y-136082289D01*
X171875535Y-136165957D01*
X171849725Y-136500246D01*
X155429290Y-136500246D01*
X155461338Y-136089891D01*
X155353809Y-135703752D01*
X155105211Y-135363338D01*
X154802808Y-135048264D01*
X154543068Y-134957228D01*
X154161098Y-135050725D01*
X154015950Y-135102362D01*
X153521568Y-135365957D01*
X153356338Y-135662694D01*
X153279497Y-135933336D01*
X153189518Y-135984507D01*
X152997050Y-136138059D01*
X152880757Y-136501497D01*
X152878737Y-136928993D01*
X148806938Y-136928993D01*
X148661502Y-136661964D01*
X148307851Y-135805633D01*
X151746478Y-135805633D01*
X151882597Y-135979309D01*
X151925352Y-135984507D01*
X152099027Y-135848389D01*
X152104225Y-135805633D01*
X151968107Y-135631958D01*
X151925352Y-135626760D01*
X151751676Y-135762878D01*
X151746478Y-135805633D01*
X148307851Y-135805633D01*
X147716878Y-134374647D01*
X149957746Y-134374647D01*
X150032654Y-134665311D01*
X150136619Y-134732394D01*
X150281951Y-134582579D01*
X150315493Y-134374647D01*
X150240585Y-134083984D01*
X150136619Y-134016901D01*
X149991288Y-134166716D01*
X149957746Y-134374647D01*
X147716878Y-134374647D01*
X147466633Y-133768704D01*
X147452265Y-133718779D01*
X153594835Y-133718779D01*
X153619389Y-133825119D01*
X153714084Y-133838028D01*
X153861317Y-133772581D01*
X153833333Y-133718779D01*
X153621052Y-133697371D01*
X153594835Y-133718779D01*
X147452265Y-133718779D01*
X147060937Y-132359057D01*
X167060022Y-132359057D01*
X167262477Y-132571641D01*
X167778026Y-132687500D01*
X168011806Y-132707730D01*
X168689719Y-132913585D01*
X169080980Y-133203899D01*
X169460506Y-133536262D01*
X169692065Y-133647573D01*
X169733237Y-133527277D01*
X169652561Y-133346126D01*
X169253869Y-132772854D01*
X170654858Y-132772854D01*
X170685470Y-133436686D01*
X170819273Y-133892102D01*
X171069159Y-134251778D01*
X171447191Y-134606600D01*
X171695608Y-134630833D01*
X171739116Y-134534327D01*
X172885711Y-134534327D01*
X172944039Y-134725059D01*
X173248687Y-134776940D01*
X173584528Y-134700182D01*
X174159107Y-134594814D01*
X174744187Y-134610335D01*
X175434259Y-134594550D01*
X175850584Y-134454092D01*
X176270494Y-134270205D01*
X176565140Y-134196876D01*
X176768435Y-134298196D01*
X176733829Y-134508626D01*
X176520422Y-134667709D01*
X176253446Y-134840264D01*
X176291058Y-134987595D01*
X176581168Y-135056856D01*
X176882177Y-135034703D01*
X177283460Y-134999732D01*
X177399985Y-135100921D01*
X177241792Y-135381126D01*
X177025322Y-135645831D01*
X176877574Y-135905643D01*
X177021639Y-136128179D01*
X177086020Y-136182451D01*
X177304659Y-136336274D01*
X177314917Y-136231359D01*
X177277218Y-136124390D01*
X177249645Y-135805257D01*
X177455440Y-135713399D01*
X177844440Y-135857932D01*
X178042065Y-135985376D01*
X178427045Y-136341397D01*
X178565651Y-136649265D01*
X178443149Y-136843739D01*
X178243841Y-136878873D01*
X177854446Y-136992482D01*
X177427020Y-137266800D01*
X177089299Y-137602062D01*
X176967605Y-137875658D01*
X177103357Y-138090349D01*
X177455821Y-138102935D01*
X177889051Y-137937620D01*
X178238726Y-137811115D01*
X178338905Y-137933834D01*
X178188792Y-138297841D01*
X177960932Y-138653862D01*
X177657786Y-139186221D01*
X177598718Y-139534249D01*
X177782428Y-139666876D01*
X178001855Y-139632210D01*
X178083825Y-139641147D01*
X177887572Y-139783532D01*
X177826760Y-139819627D01*
X177505527Y-140069794D01*
X177379727Y-140406408D01*
X177372782Y-140812667D01*
X177322700Y-141448543D01*
X177123244Y-141797568D01*
X176792923Y-141837094D01*
X176607821Y-141748690D01*
X176254965Y-141559831D01*
X176101542Y-141614292D01*
X176060667Y-141932042D01*
X176040280Y-142209061D01*
X175975486Y-142142430D01*
X175908371Y-141976760D01*
X175805975Y-141798288D01*
X175682852Y-141851424D01*
X175485932Y-142176206D01*
X175384323Y-142372099D01*
X175151565Y-142900395D01*
X175014998Y-143349982D01*
X175000000Y-143476347D01*
X175028450Y-143702274D01*
X175179501Y-143721743D01*
X175519169Y-143568514D01*
X175913824Y-143309552D01*
X176138724Y-143047876D01*
X176139611Y-143045604D01*
X176377890Y-142836261D01*
X176742181Y-142789828D01*
X177033666Y-142926533D01*
X177052214Y-142952751D01*
X177285743Y-143053785D01*
X177401768Y-143030245D01*
X177683868Y-143007888D01*
X178085518Y-143065406D01*
X178504240Y-143173063D01*
X178837556Y-143301126D01*
X178982989Y-143419858D01*
X178935211Y-143475189D01*
X178697706Y-143716062D01*
X178666901Y-143851895D01*
X178501016Y-144065128D01*
X178048138Y-144216598D01*
X177375430Y-144295090D01*
X176550055Y-144289392D01*
X176207394Y-144262529D01*
X175628877Y-144216065D01*
X175320898Y-144237256D01*
X175199081Y-144348809D01*
X175178873Y-144539327D01*
X175094570Y-144816669D01*
X174934071Y-144823001D01*
X174696908Y-144889078D01*
X174593070Y-145096925D01*
X174560695Y-145317525D01*
X174644880Y-145428003D01*
X174901360Y-145428257D01*
X175247579Y-145349600D01*
X178405346Y-145349600D01*
X178550987Y-145594679D01*
X178890691Y-145973453D01*
X179440338Y-146478886D01*
X179901061Y-146793561D01*
X180224967Y-146893348D01*
X180364165Y-146754115D01*
X180366197Y-146716901D01*
X180253833Y-146543003D01*
X180219520Y-146538028D01*
X180011655Y-146430300D01*
X179635194Y-146153630D01*
X179341438Y-145911971D01*
X178825280Y-145504876D01*
X178505013Y-145318542D01*
X178405346Y-145349600D01*
X175247579Y-145349600D01*
X175385869Y-145318182D01*
X176154142Y-145097674D01*
X176166547Y-145093990D01*
X177231317Y-144806153D01*
X178014109Y-144664635D01*
X178557491Y-144665245D01*
X178904029Y-144803794D01*
X178926349Y-144822301D01*
X179321142Y-145069206D01*
X179633044Y-145195963D01*
X179934919Y-145252365D01*
X179980455Y-145123968D01*
X179953884Y-145043976D01*
X179904009Y-144739754D01*
X180029506Y-144671304D01*
X180251156Y-144823068D01*
X180472974Y-145145912D01*
X180724291Y-145570025D01*
X180947335Y-145842592D01*
X180972493Y-145861521D01*
X181183014Y-145915053D01*
X181202648Y-145695240D01*
X181036344Y-145228120D01*
X181022712Y-145200753D01*
X181266800Y-145200753D01*
X181382675Y-145423697D01*
X181653589Y-145763333D01*
X181741212Y-145857465D01*
X182138912Y-146179547D01*
X182520702Y-146346291D01*
X182793397Y-146331424D01*
X182870422Y-146175854D01*
X182721562Y-145988159D01*
X182378848Y-145805657D01*
X181897194Y-145565162D01*
X181573918Y-145335178D01*
X181324402Y-145152060D01*
X181266800Y-145200753D01*
X181022712Y-145200753D01*
X180738289Y-144629775D01*
X180450026Y-144049053D01*
X180250598Y-143554586D01*
X180187324Y-143286545D01*
X180047210Y-143013490D01*
X179784859Y-142954874D01*
X179255698Y-142818165D01*
X178770546Y-142395053D01*
X178498733Y-142021478D01*
X178304226Y-141684580D01*
X178320107Y-141548813D01*
X178448318Y-141529577D01*
X178740019Y-141674726D01*
X178825756Y-141810220D01*
X179054526Y-141983445D01*
X179452372Y-141939363D01*
X179917286Y-141694115D01*
X180008450Y-141623083D01*
X180487384Y-141351411D01*
X180934467Y-141300779D01*
X181238122Y-141482114D01*
X181249845Y-141501495D01*
X181448902Y-141686558D01*
X181608876Y-141597701D01*
X181666155Y-141317909D01*
X181605385Y-141037676D01*
X181382328Y-140696788D01*
X181131050Y-140669428D01*
X180992658Y-140813428D01*
X180761002Y-140870259D01*
X180350197Y-140716374D01*
X180004512Y-140453090D01*
X179956397Y-140233560D01*
X180189091Y-140137498D01*
X180464185Y-140174191D01*
X180822375Y-140195085D01*
X180982064Y-140115077D01*
X181209697Y-140053899D01*
X181619083Y-140153636D01*
X182022380Y-140393183D01*
X182153444Y-140753104D01*
X182154929Y-140813499D01*
X182053231Y-141309691D01*
X181802333Y-141757626D01*
X181483528Y-142032361D01*
X181339857Y-142066197D01*
X181108401Y-142166070D01*
X181081690Y-142245070D01*
X181223384Y-142410457D01*
X181310199Y-142423943D01*
X181781612Y-142255542D01*
X182219460Y-141790904D01*
X182568471Y-141090882D01*
X182597572Y-141006627D01*
X182715326Y-140711683D01*
X183585915Y-140711683D01*
X183710509Y-140975162D01*
X184012695Y-141288725D01*
X184385080Y-141569521D01*
X184720273Y-141734695D01*
X184895780Y-141722247D01*
X184991614Y-141442886D01*
X184987327Y-141147743D01*
X184854078Y-140827395D01*
X184540846Y-140777925D01*
X184183584Y-140744720D01*
X184038388Y-140643770D01*
X183809258Y-140464813D01*
X183619683Y-140558747D01*
X183585915Y-140711683D01*
X182715326Y-140711683D01*
X182818376Y-140453568D01*
X183054414Y-140027501D01*
X183164687Y-139898177D01*
X183337938Y-139697473D01*
X183226570Y-139512942D01*
X183110166Y-139419822D01*
X182924169Y-139258660D01*
X183005635Y-139225399D01*
X183353054Y-139288433D01*
X183729035Y-139349300D01*
X183867216Y-139256924D01*
X183846293Y-138924092D01*
X183821551Y-138769218D01*
X183784372Y-138332129D01*
X183880540Y-138151447D01*
X183994788Y-138130986D01*
X184287153Y-138254839D01*
X184352486Y-138354577D01*
X184469952Y-138380968D01*
X184649554Y-138117426D01*
X184662989Y-138089396D01*
X184840074Y-137770961D01*
X184979748Y-137748395D01*
X185106407Y-137893021D01*
X185283520Y-138071112D01*
X185474761Y-138012987D01*
X185705177Y-137800456D01*
X186048000Y-137544130D01*
X186384848Y-137413402D01*
X186600230Y-137443703D01*
X186626760Y-137517706D01*
X186515462Y-137711758D01*
X186358450Y-137888229D01*
X186136651Y-138222211D01*
X186090140Y-138412072D01*
X186229988Y-138605432D01*
X186547333Y-138664990D01*
X186888875Y-138593165D01*
X187099910Y-138396128D01*
X187339204Y-138184338D01*
X187496761Y-138172536D01*
X187715390Y-138057008D01*
X187852814Y-137712813D01*
X187854038Y-137690482D01*
X188985187Y-137690482D01*
X189041549Y-137952112D01*
X189262934Y-138103240D01*
X189533099Y-138113824D01*
X189667564Y-137977412D01*
X189667605Y-137974014D01*
X189545557Y-137738456D01*
X189415220Y-137607582D01*
X189141869Y-137526079D01*
X188985187Y-137690482D01*
X187854038Y-137690482D01*
X187877332Y-137265586D01*
X187805997Y-136946965D01*
X187805351Y-136946052D01*
X189390415Y-136946052D01*
X189436569Y-137124832D01*
X189645639Y-137155306D01*
X189816016Y-136948627D01*
X189846478Y-136778880D01*
X189756980Y-136547546D01*
X189686743Y-136521126D01*
X189491479Y-136663661D01*
X189390415Y-136946052D01*
X187805351Y-136946052D01*
X187691532Y-136785080D01*
X187476778Y-136844415D01*
X187299025Y-136954481D01*
X186864008Y-137117502D01*
X186639960Y-137065904D01*
X186274325Y-137005266D01*
X185945901Y-137078582D01*
X185454281Y-137148776D01*
X185125443Y-136916728D01*
X184953799Y-136374196D01*
X184930493Y-135580431D01*
X184985539Y-134992037D01*
X185080030Y-134566787D01*
X185176900Y-134410751D01*
X185370518Y-134198902D01*
X185380598Y-134136150D01*
X185516442Y-133796300D01*
X185822528Y-133428970D01*
X186170718Y-133169832D01*
X186337932Y-133122535D01*
X186525700Y-133209514D01*
X186535126Y-133524014D01*
X186513791Y-133642660D01*
X186498728Y-134069683D01*
X186708960Y-134320913D01*
X186763054Y-134351860D01*
X187097994Y-134451569D01*
X187257797Y-134413072D01*
X187325432Y-134438318D01*
X187286001Y-134600660D01*
X187333955Y-134985893D01*
X187688176Y-135492972D01*
X188021121Y-135842591D01*
X188233051Y-135952821D01*
X188432715Y-135858482D01*
X188539735Y-135765637D01*
X188999355Y-135549282D01*
X189271737Y-135564963D01*
X189583903Y-135576016D01*
X189667605Y-135474363D01*
X189795911Y-135353121D01*
X189912851Y-135374351D01*
X190257941Y-135346401D01*
X190538300Y-135030302D01*
X190709299Y-134495089D01*
X190740845Y-134093561D01*
X190699711Y-133590223D01*
X190591210Y-133322844D01*
X190541109Y-133301408D01*
X190417871Y-133160228D01*
X190433299Y-132949884D01*
X190393151Y-132618690D01*
X190179583Y-132488657D01*
X189956607Y-132393569D01*
X189999453Y-132267062D01*
X190242674Y-132072848D01*
X190683406Y-131789712D01*
X191159664Y-131550582D01*
X191558073Y-131405478D01*
X191763082Y-131402050D01*
X191692861Y-131535236D01*
X191471657Y-131683350D01*
X191177023Y-131985062D01*
X191098591Y-132253853D01*
X191158808Y-132513875D01*
X191407410Y-132542919D01*
X191545774Y-132512462D01*
X191884935Y-132487279D01*
X191992957Y-132582507D01*
X192131415Y-132756314D01*
X192190968Y-132764788D01*
X192314982Y-132636397D01*
X192293788Y-132516724D01*
X192315875Y-132341384D01*
X192532775Y-132356050D01*
X192754623Y-132492477D01*
X192817430Y-132808169D01*
X192798008Y-133096015D01*
X192749906Y-133557357D01*
X192720744Y-133848269D01*
X192718756Y-133870305D01*
X192558024Y-133987246D01*
X192305986Y-134049179D01*
X191990824Y-134203555D01*
X191952968Y-134405811D01*
X191850658Y-134702828D01*
X191684658Y-134808951D01*
X191449620Y-135019108D01*
X191221236Y-135427762D01*
X191036372Y-135923455D01*
X190931896Y-136394729D01*
X190944673Y-136730127D01*
X191020010Y-136818353D01*
X191402716Y-136875380D01*
X191832572Y-136827280D01*
X192164235Y-136702941D01*
X192261267Y-136571644D01*
X192410566Y-136225201D01*
X192816781Y-135787471D01*
X193311232Y-135399976D01*
X193625614Y-135080399D01*
X193666277Y-134818638D01*
X193679618Y-134638967D01*
X193947630Y-134562577D01*
X194221789Y-134553521D01*
X194647665Y-134578023D01*
X194798992Y-134687433D01*
X194765493Y-134911267D01*
X194754076Y-135203957D01*
X194919535Y-135269014D01*
X195251937Y-135146640D01*
X195579686Y-134869824D01*
X195747308Y-134574023D01*
X195749295Y-134546085D01*
X195890908Y-134368079D01*
X196248618Y-134104854D01*
X196451818Y-133981009D01*
X196898435Y-133657553D01*
X197188748Y-133323528D01*
X197233745Y-133215457D01*
X197368149Y-132746665D01*
X197444726Y-132541197D01*
X197485633Y-132274793D01*
X197327694Y-132231021D01*
X197034731Y-132389642D01*
X196670569Y-132730415D01*
X196603755Y-132807894D01*
X196293050Y-133143225D01*
X196141991Y-133198867D01*
X196111854Y-133077817D01*
X196045054Y-132812898D01*
X195839750Y-132828390D01*
X195470014Y-133131454D01*
X195302112Y-133301408D01*
X194898330Y-133642036D01*
X194528434Y-133826966D01*
X194449505Y-133838028D01*
X194227426Y-133783981D01*
X194180474Y-133555709D01*
X194228015Y-133256690D01*
X194371113Y-132607922D01*
X194494976Y-132239654D01*
X194632630Y-132078476D01*
X194771253Y-132049295D01*
X195101987Y-131895967D01*
X195270400Y-131476453D01*
X195262600Y-131028798D01*
X195897140Y-131028798D01*
X195944823Y-131186047D01*
X196172840Y-131416297D01*
X196373390Y-131330993D01*
X196464569Y-130968163D01*
X196464788Y-130944637D01*
X196547976Y-130671883D01*
X196797129Y-130663494D01*
X197184365Y-130660157D01*
X197543664Y-130513124D01*
X197715953Y-130290011D01*
X197716901Y-130272527D01*
X197563265Y-130134378D01*
X197225000Y-130026948D01*
X196753313Y-130063717D01*
X196313811Y-130298146D01*
X195997937Y-130647439D01*
X195897140Y-131028798D01*
X195262600Y-131028798D01*
X195259510Y-130851459D01*
X195195206Y-130533597D01*
X195053270Y-130041204D01*
X194886393Y-129804390D01*
X194590960Y-129729747D01*
X194297075Y-129723943D01*
X193856940Y-129764747D01*
X193617433Y-129866331D01*
X193602817Y-129902817D01*
X193527231Y-130087451D01*
X193369542Y-130025707D01*
X193233350Y-129776976D01*
X193212793Y-129679225D01*
X193089300Y-129382613D01*
X192771408Y-129331388D01*
X192708450Y-129339094D01*
X192310162Y-129479418D01*
X192118224Y-129652122D01*
X191882059Y-129874974D01*
X191774562Y-129902817D01*
X191445563Y-129766141D01*
X191113487Y-129454320D01*
X190926629Y-129114662D01*
X190919718Y-129053659D01*
X190815523Y-128740083D01*
X190564780Y-128345341D01*
X190562860Y-128342896D01*
X190408931Y-128102132D01*
X194702387Y-128102132D01*
X194896595Y-128305294D01*
X194989084Y-128336353D01*
X195321668Y-128365223D01*
X195382800Y-128201251D01*
X195329824Y-128032362D01*
X195092742Y-127789616D01*
X194949980Y-127756338D01*
X194716749Y-127868240D01*
X194702387Y-128102132D01*
X190408931Y-128102132D01*
X190371081Y-128042930D01*
X190281742Y-127699052D01*
X190278035Y-127197157D01*
X190301083Y-126901565D01*
X194268614Y-126901565D01*
X194348383Y-127166518D01*
X194633966Y-127384264D01*
X194816433Y-127276223D01*
X194854929Y-127034551D01*
X194937589Y-126675855D01*
X197895774Y-126675855D01*
X197981614Y-126849474D01*
X198247566Y-126734374D01*
X198555020Y-126473045D01*
X198822839Y-126125196D01*
X198962993Y-125762100D01*
X198946221Y-125497217D01*
X198823779Y-125430986D01*
X198625402Y-125566218D01*
X198345202Y-125888682D01*
X198076252Y-126273528D01*
X197911621Y-126595906D01*
X197895774Y-126675855D01*
X194937589Y-126675855D01*
X194951343Y-126616170D01*
X195142906Y-126231003D01*
X195321394Y-125793578D01*
X195284438Y-125443252D01*
X195055001Y-125277472D01*
X194919669Y-125283611D01*
X194677117Y-125487627D01*
X194460596Y-125914810D01*
X194310848Y-126430882D01*
X194268614Y-126901565D01*
X190301083Y-126901565D01*
X190318215Y-126681848D01*
X190343168Y-126301386D01*
X192529577Y-126301386D01*
X192589068Y-126611441D01*
X192788291Y-126638116D01*
X193158372Y-126379137D01*
X193308387Y-126244456D01*
X193674215Y-125798069D01*
X193776738Y-125413888D01*
X193626805Y-125177501D01*
X193553729Y-124986496D01*
X198092153Y-124986496D01*
X198104953Y-125182348D01*
X198336895Y-125178557D01*
X198387676Y-125158811D01*
X198826444Y-125010682D01*
X199101084Y-124940346D01*
X199372813Y-124816746D01*
X199403556Y-124695039D01*
X199469898Y-124570682D01*
X199680243Y-124536619D01*
X200104483Y-124439962D01*
X200504914Y-124241719D01*
X200884722Y-124058441D01*
X201134899Y-124128423D01*
X201160452Y-124152283D01*
X201500665Y-124338271D01*
X201633539Y-124357746D01*
X201706326Y-124253701D01*
X201495177Y-123947727D01*
X201319051Y-123757158D01*
X201167253Y-123600542D01*
X202084832Y-123600542D01*
X202108737Y-123657531D01*
X202325894Y-123746153D01*
X202382883Y-123722248D01*
X202471505Y-123505091D01*
X202447600Y-123448102D01*
X202230443Y-123359480D01*
X202173454Y-123383385D01*
X202084832Y-123600542D01*
X201167253Y-123600542D01*
X200736938Y-123156570D01*
X201127176Y-122407884D01*
X201218827Y-122195869D01*
X201586676Y-122195869D01*
X201666778Y-122417543D01*
X201900459Y-122694734D01*
X202107296Y-122716578D01*
X202188732Y-122494207D01*
X202251479Y-122100859D01*
X202297306Y-121957587D01*
X202277664Y-121729770D01*
X202058464Y-121680388D01*
X201758455Y-121824588D01*
X201696259Y-121880923D01*
X201586676Y-122195869D01*
X201218827Y-122195869D01*
X201341353Y-121912430D01*
X201399509Y-121586836D01*
X201304825Y-121484420D01*
X201081189Y-121637402D01*
X200881694Y-121906476D01*
X200596957Y-122369325D01*
X200413395Y-122696483D01*
X200068453Y-123223663D01*
X199732606Y-123551563D01*
X199595070Y-123612334D01*
X199248191Y-123771673D01*
X198808055Y-124094240D01*
X198655986Y-124230995D01*
X198281497Y-124649784D01*
X198092153Y-124986496D01*
X193553729Y-124986496D01*
X193539842Y-124950197D01*
X193558221Y-124630325D01*
X193557978Y-124264681D01*
X193365686Y-124199008D01*
X193146925Y-124315767D01*
X192975228Y-124575776D01*
X192788916Y-125056101D01*
X192629346Y-125623719D01*
X192537879Y-126145605D01*
X192529577Y-126301386D01*
X190343168Y-126301386D01*
X190364140Y-125981626D01*
X190328668Y-125492284D01*
X190189750Y-125071915D01*
X190016079Y-124737235D01*
X189743865Y-124303041D01*
X189523451Y-124038131D01*
X189455794Y-124000000D01*
X189323069Y-124064458D01*
X189395111Y-124298288D01*
X189591965Y-124622008D01*
X189783952Y-125086766D01*
X189815556Y-125465362D01*
X189715341Y-125744863D01*
X189449763Y-125860564D01*
X189101266Y-125878169D01*
X188554396Y-125919814D01*
X188304023Y-126091321D01*
X188301450Y-126462548D01*
X188415493Y-126861971D01*
X188557883Y-127417125D01*
X188512639Y-127672212D01*
X188272300Y-127636227D01*
X187953607Y-127418983D01*
X187454550Y-127107571D01*
X187125474Y-127081226D01*
X186987455Y-127340129D01*
X186984507Y-127410645D01*
X187050071Y-127674541D01*
X187309747Y-127676243D01*
X187366610Y-127659170D01*
X187634499Y-127613783D01*
X187679495Y-127784649D01*
X187636649Y-127984396D01*
X187633861Y-128427896D01*
X187754691Y-128621867D01*
X188151033Y-128768430D01*
X188661693Y-128761598D01*
X189073793Y-128607508D01*
X189302445Y-128592273D01*
X189485201Y-128800276D01*
X189550947Y-129097901D01*
X189456609Y-129326771D01*
X189310322Y-129641509D01*
X189448297Y-129899830D01*
X189798808Y-130009864D01*
X189976706Y-129992929D01*
X190306075Y-129935289D01*
X190306531Y-129976511D01*
X190070070Y-130105306D01*
X189791614Y-130359420D01*
X189671095Y-130673568D01*
X189734136Y-130921397D01*
X189891197Y-130987394D01*
X189925230Y-131047857D01*
X189710729Y-131161093D01*
X189273494Y-131250337D01*
X188695140Y-131268336D01*
X188551245Y-131259407D01*
X187959533Y-131257696D01*
X187445008Y-131334088D01*
X187357273Y-131362096D01*
X186944670Y-131415180D01*
X186476401Y-131341509D01*
X186087260Y-131179316D01*
X185912041Y-130966832D01*
X185911267Y-130951954D01*
X186053734Y-130907470D01*
X186405550Y-131000868D01*
X186497155Y-131037181D01*
X187124108Y-131184805D01*
X187480958Y-131134782D01*
X187781258Y-130947176D01*
X187878726Y-130741632D01*
X187734685Y-130622561D01*
X187672276Y-130618309D01*
X188057746Y-130618309D01*
X188193864Y-130791985D01*
X188236619Y-130797183D01*
X188410295Y-130661065D01*
X188415493Y-130618309D01*
X188279375Y-130444634D01*
X188236619Y-130439436D01*
X188062944Y-130575554D01*
X188057746Y-130618309D01*
X187672276Y-130618309D01*
X187615545Y-130512485D01*
X187779236Y-130271834D01*
X187976177Y-129952581D01*
X187982070Y-129746208D01*
X188019571Y-129526114D01*
X188165893Y-129402222D01*
X188324810Y-129271927D01*
X188185597Y-129174307D01*
X187982556Y-129117446D01*
X187484987Y-129062501D01*
X187268322Y-129209865D01*
X187345279Y-129550633D01*
X187350323Y-129560149D01*
X187435186Y-129921332D01*
X187274661Y-130174836D01*
X186970354Y-130331142D01*
X186670446Y-130300615D01*
X186508531Y-130120006D01*
X186527044Y-129969171D01*
X186687034Y-129574905D01*
X186735334Y-129455633D01*
X186715092Y-129225543D01*
X186578363Y-129187324D01*
X186247500Y-129314323D01*
X186090140Y-129455633D01*
X185736971Y-129685237D01*
X185531619Y-129723943D01*
X185253841Y-129605975D01*
X185195774Y-129455633D01*
X185355247Y-129242316D01*
X185721837Y-129187324D01*
X186133115Y-129134684D01*
X186353622Y-129016262D01*
X186585889Y-128920497D01*
X186731011Y-128949450D01*
X186868175Y-128969593D01*
X186921622Y-128859343D01*
X186884741Y-128566234D01*
X186750916Y-128037799D01*
X186513537Y-127221574D01*
X186512984Y-127219718D01*
X186380121Y-126710343D01*
X186376188Y-126422731D01*
X186504787Y-126243570D01*
X186545020Y-126212052D01*
X186716630Y-126004096D01*
X186672350Y-125704543D01*
X186598580Y-125530006D01*
X186449511Y-125262988D01*
X186246314Y-125125100D01*
X185885766Y-125081225D01*
X185317164Y-125094081D01*
X184602290Y-125085896D01*
X184181391Y-124983541D01*
X184054180Y-124881761D01*
X183742717Y-124711165D01*
X183195943Y-124613936D01*
X183004577Y-124603839D01*
X182481487Y-124612330D01*
X182227221Y-124694190D01*
X182155402Y-124880169D01*
X182154929Y-124906311D01*
X182233346Y-125233120D01*
X182316040Y-125330571D01*
X182411710Y-125566488D01*
X182418959Y-125996344D01*
X182351808Y-126471312D01*
X182224276Y-126842565D01*
X182166091Y-126922359D01*
X182036980Y-126940602D01*
X181980518Y-126641017D01*
X181976056Y-126435657D01*
X181927482Y-125966809D01*
X181786193Y-125824138D01*
X181765244Y-125829191D01*
X181633260Y-125892233D01*
X181511188Y-126032034D01*
X181347824Y-126328613D01*
X181091960Y-126861992D01*
X181057701Y-126934868D01*
X180793595Y-127325867D01*
X180501031Y-127536889D01*
X180500352Y-127537069D01*
X180234598Y-127719675D01*
X180187324Y-127857748D01*
X180048606Y-128141674D01*
X179909532Y-128251768D01*
X179707799Y-128519352D01*
X179563608Y-128982012D01*
X179547006Y-129090400D01*
X179438718Y-129706767D01*
X179300034Y-129997265D01*
X179125630Y-129999389D01*
X178914010Y-130048315D01*
X178679155Y-130247023D01*
X178489914Y-130535024D01*
X178584641Y-130712064D01*
X178592948Y-130717315D01*
X178861905Y-130699095D01*
X179069188Y-130511482D01*
X179239854Y-130309878D01*
X179275500Y-130382392D01*
X179214821Y-130715549D01*
X179196282Y-131175953D01*
X179417672Y-131549196D01*
X179542242Y-131673675D01*
X179817773Y-132028135D01*
X179888553Y-132329335D01*
X179883003Y-132346945D01*
X179772514Y-132465859D01*
X179616443Y-132269091D01*
X179578403Y-132195333D01*
X179299906Y-131855050D01*
X179043689Y-131720656D01*
X178818388Y-131741394D01*
X178835147Y-131853227D01*
X178799026Y-132012402D01*
X178601470Y-132049295D01*
X178365824Y-132107446D01*
X178289042Y-132347415D01*
X178304802Y-132675352D01*
X178323412Y-133147929D01*
X178261780Y-133275708D01*
X178123337Y-133056366D01*
X178040845Y-132854225D01*
X177822984Y-132521161D01*
X177598089Y-132407042D01*
X177377481Y-132376276D01*
X177374148Y-132243565D01*
X177604656Y-131948294D01*
X177774311Y-131762165D01*
X178080904Y-131375361D01*
X178099700Y-131197393D01*
X177838366Y-131235395D01*
X177420305Y-131432777D01*
X176912740Y-131761411D01*
X176733400Y-132068358D01*
X176866189Y-132429022D01*
X177137932Y-132755640D01*
X177404125Y-133085817D01*
X177478901Y-133279859D01*
X177441836Y-133301416D01*
X177212852Y-133176561D01*
X176859043Y-132858445D01*
X176646611Y-132630641D01*
X176057306Y-131959859D01*
X176163940Y-132518517D01*
X176187682Y-132960881D01*
X176021029Y-133172021D01*
X175995859Y-133182594D01*
X175652762Y-133166138D01*
X175156196Y-132981754D01*
X174631753Y-132685361D01*
X174300653Y-132427804D01*
X174052712Y-132317706D01*
X173930411Y-132447582D01*
X173995831Y-132705347D01*
X174085510Y-132816214D01*
X174277644Y-133130263D01*
X174234657Y-133363494D01*
X173982246Y-133407316D01*
X173947943Y-133397568D01*
X173613993Y-133423040D01*
X173502023Y-133575725D01*
X173330412Y-133768399D01*
X173224890Y-133757011D01*
X172994003Y-133778685D01*
X172944761Y-133835110D01*
X172989659Y-133985566D01*
X173145462Y-134016901D01*
X173353227Y-134037889D01*
X173272129Y-134149980D01*
X173128691Y-134258075D01*
X172885711Y-134534327D01*
X171739116Y-134534327D01*
X171836756Y-134317752D01*
X171876006Y-134009059D01*
X171855962Y-133559859D01*
X171742483Y-133281102D01*
X171723507Y-133266416D01*
X171573085Y-133106121D01*
X171693955Y-133027923D01*
X172004609Y-133054632D01*
X172231784Y-133124177D01*
X172669088Y-133205449D01*
X172950991Y-133105809D01*
X172993830Y-132865673D01*
X172950488Y-132776973D01*
X172731964Y-132590926D01*
X172299651Y-132322509D01*
X171934862Y-132126422D01*
X171416912Y-131839187D01*
X171158832Y-131605566D01*
X171088392Y-131346159D01*
X171097873Y-131206346D01*
X171093435Y-131155351D01*
X172980455Y-131155351D01*
X173028994Y-131537531D01*
X173183185Y-131681388D01*
X173448497Y-131706716D01*
X173570171Y-131473810D01*
X173505126Y-131067762D01*
X173500319Y-131055044D01*
X173306425Y-130815411D01*
X173095057Y-130901846D01*
X172980455Y-131155351D01*
X171093435Y-131155351D01*
X171065246Y-130831460D01*
X170930633Y-130663729D01*
X170823182Y-130659238D01*
X170749555Y-130767764D01*
X170702555Y-131044354D01*
X170674984Y-131544052D01*
X170659646Y-132321903D01*
X170654858Y-132772854D01*
X169253869Y-132772854D01*
X169202327Y-132698742D01*
X168674907Y-132194422D01*
X168133699Y-131866471D01*
X167642098Y-131748195D01*
X167263500Y-131872899D01*
X167141531Y-132026959D01*
X167060022Y-132359057D01*
X147060937Y-132359057D01*
X146654113Y-130945492D01*
X152390495Y-130945492D01*
X152491001Y-131214785D01*
X152515504Y-131242576D01*
X152777988Y-131407761D01*
X152940481Y-131233238D01*
X152998506Y-130724062D01*
X152998591Y-130697190D01*
X152953173Y-130230903D01*
X152824444Y-130109442D01*
X152623686Y-130336310D01*
X152515504Y-130547253D01*
X152390495Y-130945492D01*
X146654113Y-130945492D01*
X146607863Y-130784789D01*
X146436541Y-129783568D01*
X171303286Y-129783568D01*
X171327840Y-129889908D01*
X171422535Y-129902817D01*
X171569768Y-129837370D01*
X171541784Y-129783568D01*
X171329503Y-129762160D01*
X171303286Y-129783568D01*
X146436541Y-129783568D01*
X146176378Y-128263145D01*
X157470422Y-128263145D01*
X157609102Y-128539778D01*
X157930149Y-128579543D01*
X157967610Y-128566830D01*
X158306615Y-128478751D01*
X158389974Y-128471831D01*
X158483144Y-128361380D01*
X158454225Y-128292957D01*
X158232600Y-128164246D01*
X157885391Y-128117385D01*
X157577661Y-128157377D01*
X157470422Y-128263145D01*
X146176378Y-128263145D01*
X146083568Y-127720754D01*
X146038380Y-126995093D01*
X155608090Y-126995093D01*
X155631531Y-127371785D01*
X155714665Y-127527761D01*
X155925217Y-127685618D01*
X156065107Y-127533936D01*
X156155622Y-127049292D01*
X156156474Y-127041550D01*
X156136010Y-126623618D01*
X155969356Y-126504225D01*
X155733798Y-126653264D01*
X155608090Y-126995093D01*
X146038380Y-126995093D01*
X145890056Y-124613212D01*
X146023637Y-121498777D01*
X146480620Y-118414061D01*
X146524937Y-118241838D01*
X150175686Y-118241838D01*
X150296204Y-118544690D01*
X150333008Y-118611294D01*
X150649725Y-118971359D01*
X150992245Y-119138145D01*
X151311226Y-119300877D01*
X151388732Y-119628638D01*
X151496694Y-119990069D01*
X151867960Y-120289254D01*
X152035653Y-120376409D01*
X152592467Y-120779562D01*
X152910710Y-121366764D01*
X153169741Y-121871764D01*
X153592763Y-122450119D01*
X153918366Y-122805588D01*
X154473198Y-123380117D01*
X155028904Y-124004458D01*
X155285492Y-124316300D01*
X155646137Y-124705549D01*
X156161728Y-125177625D01*
X156754674Y-125671403D01*
X157347383Y-126125760D01*
X157862266Y-126479571D01*
X158221730Y-126671711D01*
X158298067Y-126689531D01*
X158527607Y-126797902D01*
X158894126Y-127057009D01*
X158973917Y-127120874D01*
X159375243Y-127391831D01*
X159667399Y-127417653D01*
X159801074Y-127353770D01*
X160043915Y-127284211D01*
X160348642Y-127400949D01*
X160804083Y-127739635D01*
X160843299Y-127772074D01*
X161255123Y-128136829D01*
X161523200Y-128417735D01*
X161581282Y-128516549D01*
X161723538Y-128645764D01*
X161774713Y-128650704D01*
X161890969Y-128495964D01*
X161901927Y-128292957D01*
X175894366Y-128292957D01*
X175959813Y-128440190D01*
X176013615Y-128412206D01*
X176035022Y-128199925D01*
X176013615Y-128173709D01*
X175907275Y-128198262D01*
X175894366Y-128292957D01*
X161901927Y-128292957D01*
X161911470Y-128116153D01*
X161908868Y-128087683D01*
X161790766Y-127722555D01*
X161483157Y-127385883D01*
X160939444Y-127044033D01*
X160113026Y-126663373D01*
X159706338Y-126498047D01*
X159501941Y-126409487D01*
X178831448Y-126409487D01*
X178845774Y-126504225D01*
X178998775Y-126674681D01*
X179024647Y-126683098D01*
X179166860Y-126558342D01*
X179203521Y-126504225D01*
X179161044Y-126352684D01*
X179024647Y-126325352D01*
X178831448Y-126409487D01*
X159501941Y-126409487D01*
X158996567Y-126190522D01*
X158254063Y-125826975D01*
X157583209Y-125462550D01*
X157088386Y-125152395D01*
X156943305Y-125038311D01*
X156582444Y-124651978D01*
X156107559Y-124071194D01*
X155614602Y-123423091D01*
X175010215Y-123423091D01*
X175211340Y-123633996D01*
X175402464Y-123694890D01*
X175735112Y-123764963D01*
X175849647Y-123796767D01*
X175885867Y-123667934D01*
X175894366Y-123463380D01*
X175789559Y-123182849D01*
X175447183Y-123105633D01*
X175091965Y-123205655D01*
X175010215Y-123423091D01*
X155614602Y-123423091D01*
X155598628Y-123402089D01*
X155135627Y-122750790D01*
X154845213Y-122296456D01*
X160095923Y-122296456D01*
X160237533Y-122623709D01*
X160274833Y-122664773D01*
X160580419Y-122837332D01*
X160772526Y-122729453D01*
X160777583Y-122416215D01*
X160700418Y-122230471D01*
X160487310Y-121938322D01*
X160345238Y-121853521D01*
X160136191Y-121989412D01*
X160095923Y-122296456D01*
X154845213Y-122296456D01*
X154798532Y-122223426D01*
X154735860Y-122109051D01*
X154603433Y-121714647D01*
X162478873Y-121714647D01*
X162610912Y-121813645D01*
X162761812Y-121783222D01*
X163164759Y-121684855D01*
X163298432Y-121674647D01*
X163519447Y-121530024D01*
X163552112Y-121391432D01*
X163502441Y-121298859D01*
X169354342Y-121298859D01*
X169643772Y-121477784D01*
X170039348Y-121440632D01*
X170345157Y-121232451D01*
X170461522Y-120971682D01*
X170291018Y-120696892D01*
X170264136Y-120669568D01*
X170026862Y-120479390D01*
X169823012Y-120530085D01*
X169598609Y-120735976D01*
X169373122Y-121058760D01*
X169354342Y-121298859D01*
X163502441Y-121298859D01*
X163447869Y-121197151D01*
X163328521Y-121212443D01*
X162965756Y-121362756D01*
X162791901Y-121427085D01*
X162527881Y-121602486D01*
X162478873Y-121714647D01*
X154603433Y-121714647D01*
X154590217Y-121675287D01*
X154452929Y-121008393D01*
X154348143Y-120232635D01*
X154327465Y-120007290D01*
X154252376Y-119312761D01*
X154158976Y-118778707D01*
X154063047Y-118486229D01*
X154025330Y-118454929D01*
X153974020Y-118346641D01*
X154071831Y-118186619D01*
X154398820Y-117965449D01*
X154585634Y-117932431D01*
X154744405Y-117977295D01*
X154653169Y-118036774D01*
X154454093Y-118271767D01*
X154429577Y-118410211D01*
X154485013Y-118596274D01*
X154545256Y-118577748D01*
X154676429Y-118658195D01*
X154890803Y-118988232D01*
X155057138Y-119317232D01*
X155432983Y-120068310D01*
X155822341Y-120746597D01*
X156180493Y-121283073D01*
X156462718Y-121608723D01*
X156584593Y-121674647D01*
X156675478Y-121552441D01*
X156604460Y-121361619D01*
X156502757Y-121028366D01*
X156396977Y-120464760D01*
X156315620Y-119841197D01*
X156257593Y-119200495D01*
X156260024Y-118837197D01*
X156336051Y-118674104D01*
X156498808Y-118634018D01*
X156521064Y-118633802D01*
X156856852Y-118525122D01*
X157305617Y-118252253D01*
X157474385Y-118122476D01*
X157948516Y-117776246D01*
X158380076Y-117530238D01*
X158485840Y-117488525D01*
X158750414Y-117431344D01*
X158773278Y-117561532D01*
X158666984Y-117807108D01*
X158313490Y-118198297D01*
X157964595Y-118347151D01*
X157595308Y-118489347D01*
X157478602Y-118665658D01*
X157638781Y-118793150D01*
X157828169Y-118812676D01*
X158084702Y-118891765D01*
X158179814Y-119191272D01*
X158185915Y-119378354D01*
X158267460Y-119765504D01*
X158475609Y-120283901D01*
X158755636Y-120832468D01*
X159052814Y-121310130D01*
X159312416Y-121615812D01*
X159429235Y-121674647D01*
X159623043Y-121559812D01*
X159973630Y-121266038D01*
X160222898Y-121032814D01*
X160641503Y-120659922D01*
X160913554Y-120524512D01*
X161120978Y-120588788D01*
X161144703Y-120607533D01*
X161355090Y-120734051D01*
X161405633Y-120604173D01*
X161534042Y-120466310D01*
X161690082Y-120493413D01*
X161987909Y-120479915D01*
X162400725Y-120335470D01*
X162786723Y-120126405D01*
X163004095Y-119919050D01*
X163015493Y-119873468D01*
X162905163Y-119679586D01*
X162633157Y-119347968D01*
X162567448Y-119275833D01*
X162263449Y-118856971D01*
X162215003Y-118465367D01*
X162247583Y-118310629D01*
X162345128Y-117898001D01*
X162382600Y-117664906D01*
X162482024Y-117445664D01*
X162699279Y-117491603D01*
X162958329Y-117767241D01*
X163086011Y-117993143D01*
X163376259Y-118515285D01*
X163658273Y-118754611D01*
X164022545Y-118772158D01*
X164188335Y-118736671D01*
X164552890Y-118572969D01*
X164564234Y-118354096D01*
X164222490Y-118080900D01*
X164082884Y-118004722D01*
X163750758Y-117771062D01*
X163644339Y-117564136D01*
X163653959Y-117540483D01*
X163603833Y-117320370D01*
X163342706Y-116986770D01*
X163204178Y-116853831D01*
X162862251Y-116522312D01*
X162764469Y-116311113D01*
X162873773Y-116119403D01*
X162917610Y-116074140D01*
X163168122Y-115716105D01*
X163101217Y-115485922D01*
X162776184Y-115414084D01*
X162519598Y-115453187D01*
X162389387Y-115632443D01*
X162335810Y-116044775D01*
X162326208Y-116254674D01*
X162282569Y-116760543D01*
X162163132Y-117180534D01*
X161919184Y-117611296D01*
X161502010Y-118149474D01*
X161181486Y-118525804D01*
X160776530Y-118924530D01*
X160455489Y-119127311D01*
X160271231Y-119133238D01*
X160276623Y-118941401D01*
X160524532Y-118550892D01*
X160535618Y-118536913D01*
X160976052Y-117948376D01*
X161200003Y-117519590D01*
X161238379Y-117151887D01*
X161122086Y-116746596D01*
X161107571Y-116710915D01*
X160907869Y-116323932D01*
X160730773Y-116133641D01*
X160710490Y-116129577D01*
X160533989Y-115978311D01*
X160439163Y-115626683D01*
X160453481Y-115227948D01*
X160515513Y-115049292D01*
X161866809Y-115049292D01*
X161893826Y-115188142D01*
X162009535Y-115343081D01*
X162208015Y-115223258D01*
X162272075Y-115160922D01*
X162403107Y-114966901D01*
X163373239Y-114966901D01*
X163451566Y-115321183D01*
X163635030Y-115411185D01*
X163810446Y-115251353D01*
X163841595Y-114964351D01*
X163721883Y-114656146D01*
X163532975Y-114519718D01*
X163412863Y-114672906D01*
X163373239Y-114966901D01*
X162403107Y-114966901D01*
X162451576Y-114895133D01*
X162337938Y-114665065D01*
X162329603Y-114656646D01*
X162109168Y-114529516D01*
X161951354Y-114683865D01*
X161866809Y-115049292D01*
X160515513Y-115049292D01*
X160516391Y-115046763D01*
X160555674Y-114693583D01*
X160435380Y-114247256D01*
X160215858Y-113847381D01*
X159957456Y-113633561D01*
X159901922Y-113625352D01*
X159590475Y-113723370D01*
X159580860Y-114008238D01*
X159672147Y-114186714D01*
X159757775Y-114529555D01*
X159537119Y-114739399D01*
X159042952Y-114797367D01*
X158677817Y-114759496D01*
X158007042Y-114652868D01*
X158007042Y-115301786D01*
X157971894Y-115784215D01*
X157853937Y-115928465D01*
X157634405Y-115748325D01*
X157549485Y-115637957D01*
X157305843Y-115440713D01*
X157155108Y-115519711D01*
X157172603Y-115793880D01*
X157253602Y-115956412D01*
X157441476Y-116308070D01*
X157389274Y-116457455D01*
X157100916Y-116487324D01*
X156635382Y-116572675D01*
X156370103Y-116680689D01*
X156049299Y-116800618D01*
X155877401Y-116684153D01*
X155802931Y-116279075D01*
X155791927Y-116094210D01*
X155743559Y-115735584D01*
X155581325Y-115507059D01*
X155215802Y-115321425D01*
X154873303Y-115198322D01*
X154022178Y-114970637D01*
X153266601Y-114886734D01*
X152680431Y-114946839D01*
X152337532Y-115151180D01*
X152313562Y-115190493D01*
X152212457Y-115550919D01*
X152227274Y-115710720D01*
X152173507Y-115981989D01*
X152113667Y-116034305D01*
X151983604Y-116277799D01*
X151925555Y-116708991D01*
X151925352Y-116736378D01*
X151880260Y-117256595D01*
X151724072Y-117465520D01*
X151425415Y-117400609D01*
X151386076Y-117380268D01*
X151088885Y-117332414D01*
X150733162Y-117535484D01*
X150571484Y-117677081D01*
X150255029Y-118001280D01*
X150175686Y-118241838D01*
X146524937Y-118241838D01*
X147257314Y-115395679D01*
X147652669Y-114340845D01*
X152640845Y-114340845D01*
X152793921Y-114475308D01*
X153088028Y-114519718D01*
X153453508Y-114421894D01*
X153535211Y-114232271D01*
X153428534Y-114030246D01*
X153252271Y-114053397D01*
X152911490Y-114149917D01*
X152805088Y-114161971D01*
X152645519Y-114298523D01*
X152640845Y-114340845D01*
X147652669Y-114340845D01*
X148350029Y-112480243D01*
X149268175Y-110666306D01*
X152998591Y-110666306D01*
X153145433Y-110799646D01*
X153457227Y-110946607D01*
X153776528Y-111134633D01*
X153872431Y-111447082D01*
X153859691Y-111702391D01*
X153855126Y-112105067D01*
X154015276Y-112278512D01*
X154374620Y-112339090D01*
X154902935Y-112307862D01*
X155559460Y-112152044D01*
X155805923Y-112066504D01*
X162121482Y-112066504D01*
X162200799Y-112360284D01*
X162502799Y-112484128D01*
X162664972Y-112500732D01*
X163105398Y-112454874D01*
X163367446Y-112181524D01*
X163413803Y-112087333D01*
X163646096Y-111762084D01*
X163973119Y-111725681D01*
X164022027Y-111736905D01*
X164382405Y-111734727D01*
X164573599Y-111577561D01*
X164517147Y-111354810D01*
X164424677Y-111278102D01*
X164082633Y-111203367D01*
X163546329Y-111224315D01*
X162961160Y-111324305D01*
X162472521Y-111486694D01*
X162434155Y-111505939D01*
X162181484Y-111801977D01*
X162121482Y-112066504D01*
X155805923Y-112066504D01*
X156268564Y-111905935D01*
X156954616Y-111603833D01*
X157541986Y-111280035D01*
X157955045Y-110968841D01*
X158118161Y-110704547D01*
X158109420Y-110645367D01*
X158175913Y-110405919D01*
X158431939Y-110018745D01*
X158657199Y-109751001D01*
X158979690Y-109414810D01*
X159155285Y-109267132D01*
X159160826Y-109304871D01*
X159158253Y-109479585D01*
X159372126Y-109476891D01*
X159641954Y-109275344D01*
X159678764Y-109085570D01*
X159738475Y-108853839D01*
X160027203Y-108861346D01*
X160440377Y-108854393D01*
X160649747Y-108755072D01*
X160898415Y-108643928D01*
X161020926Y-108752151D01*
X161265427Y-108865755D01*
X161756863Y-108920362D01*
X162080704Y-108919523D01*
X162596678Y-108928908D01*
X162909373Y-108990747D01*
X162959534Y-109053598D01*
X162796471Y-109258746D01*
X162448533Y-109584312D01*
X162249591Y-109751023D01*
X161814138Y-110066580D01*
X161533605Y-110154712D01*
X161338924Y-110066749D01*
X161190864Y-109997365D01*
X161098742Y-110134183D01*
X161038864Y-110536722D01*
X161011309Y-110889747D01*
X160984175Y-111462866D01*
X160986849Y-111875913D01*
X161009519Y-112015493D01*
X161156861Y-111956227D01*
X161430138Y-111694715D01*
X161484223Y-111633354D01*
X161879170Y-111268818D01*
X162271389Y-111040879D01*
X162281411Y-111037590D01*
X162456073Y-110913748D01*
X165340845Y-110913748D01*
X165473559Y-111008343D01*
X165765162Y-110973999D01*
X166055844Y-110844298D01*
X166159118Y-110741789D01*
X166120007Y-110596498D01*
X166047757Y-110584507D01*
X165919151Y-110454824D01*
X165942150Y-110316197D01*
X165948844Y-110085718D01*
X165878144Y-110047887D01*
X165673385Y-110191839D01*
X165462173Y-110516366D01*
X165344412Y-110860470D01*
X165340845Y-110913748D01*
X162456073Y-110913748D01*
X162574053Y-110830096D01*
X162579868Y-110614799D01*
X162573136Y-110319768D01*
X162676074Y-110043768D01*
X162823855Y-109897774D01*
X162948250Y-109984180D01*
X163166985Y-110117467D01*
X163426534Y-110116351D01*
X163645672Y-110098155D01*
X163596831Y-110150246D01*
X163391025Y-110330892D01*
X163373239Y-110392226D01*
X163523556Y-110508944D01*
X163884476Y-110665360D01*
X164320953Y-110815060D01*
X164697939Y-110911632D01*
X164879565Y-110909933D01*
X165355627Y-110213920D01*
X165622048Y-109760253D01*
X165698591Y-109527907D01*
X165820942Y-109321460D01*
X166127866Y-108974184D01*
X166529167Y-108574351D01*
X166934651Y-108210229D01*
X167254125Y-107970088D01*
X167330093Y-107931220D01*
X167486701Y-107953068D01*
X167430684Y-108185286D01*
X167185836Y-108569756D01*
X166950704Y-108857882D01*
X166622964Y-109298341D01*
X166433098Y-109683546D01*
X166414084Y-109789653D01*
X166445741Y-109974522D01*
X166588749Y-109929720D01*
X166860562Y-109690803D01*
X167231313Y-109410522D01*
X167416488Y-109423387D01*
X167407474Y-109711633D01*
X167195658Y-110257494D01*
X167165639Y-110320121D01*
X166949721Y-110800865D01*
X166901158Y-111043304D01*
X167009376Y-111119496D01*
X167048079Y-111121126D01*
X167344444Y-110976452D01*
X167422638Y-110852817D01*
X167636906Y-110674104D01*
X168013718Y-110587982D01*
X168411642Y-110598293D01*
X168689247Y-110708880D01*
X168739436Y-110817042D01*
X168580121Y-111200477D01*
X168126412Y-111426112D01*
X167618368Y-111478873D01*
X167177284Y-111499966D01*
X167011185Y-111599057D01*
X167038132Y-111829863D01*
X167045745Y-111854278D01*
X167087080Y-112123406D01*
X166899065Y-112142422D01*
X166789489Y-112110534D01*
X166496939Y-112078535D01*
X166414084Y-112153600D01*
X166563535Y-112354857D01*
X166898896Y-112528392D01*
X167250683Y-112605543D01*
X167420663Y-112561374D01*
X167695558Y-112412876D01*
X168073200Y-112305709D01*
X168409510Y-112268606D01*
X168560407Y-112330299D01*
X168560563Y-112334056D01*
X168448281Y-112573377D01*
X168336971Y-112704367D01*
X168312849Y-112829820D01*
X168540181Y-112858668D01*
X168931084Y-112807582D01*
X169397675Y-112693236D01*
X169852070Y-112532302D01*
X170190613Y-112352703D01*
X170599796Y-112139474D01*
X170822161Y-112221526D01*
X170885915Y-112581924D01*
X170976392Y-112868832D01*
X171168558Y-112857312D01*
X171308347Y-112641549D01*
X171553925Y-112407795D01*
X171729949Y-112367550D01*
X171938394Y-112341815D01*
X171864588Y-112227085D01*
X171703903Y-112101089D01*
X171488467Y-111857932D01*
X171490037Y-111709493D01*
X171678054Y-111716128D01*
X171767662Y-111816201D01*
X172021527Y-111966791D01*
X172514638Y-111921913D01*
X172901940Y-111849644D01*
X172999151Y-111896223D01*
X172863178Y-112093458D01*
X172850011Y-112109374D01*
X172500688Y-112400606D01*
X172021618Y-112664145D01*
X172003873Y-112671658D01*
X171615345Y-112900978D01*
X171426100Y-113144044D01*
X171422535Y-113174276D01*
X171270183Y-113504436D01*
X170889588Y-113691402D01*
X170395439Y-113693855D01*
X170170422Y-113625352D01*
X169671081Y-113507276D01*
X169292285Y-113616666D01*
X168966773Y-113874859D01*
X168993401Y-114101460D01*
X169289536Y-114255686D01*
X169560426Y-114387870D01*
X169479592Y-114496834D01*
X169052554Y-114578330D01*
X168845127Y-114597799D01*
X168366172Y-114579071D01*
X168202817Y-114426230D01*
X168052241Y-114211331D01*
X167813805Y-114101967D01*
X167405742Y-114133907D01*
X167135144Y-114425119D01*
X167017302Y-114898633D01*
X167067511Y-115477482D01*
X167301064Y-116084698D01*
X167390430Y-116232736D01*
X167578838Y-116613509D01*
X167524327Y-116883602D01*
X167477389Y-116946477D01*
X167192824Y-117166077D01*
X167054013Y-117202817D01*
X166748575Y-117318139D01*
X166641328Y-117404868D01*
X166576592Y-117617119D01*
X166761261Y-117937796D01*
X166955654Y-118159444D01*
X167268889Y-118526542D01*
X167352033Y-118760299D01*
X167238226Y-118969642D01*
X167211368Y-118999997D01*
X166981155Y-119328764D01*
X167008771Y-119488789D01*
X167243001Y-119454279D01*
X167429138Y-119432548D01*
X167476289Y-119621220D01*
X167433120Y-119971761D01*
X167402009Y-120383608D01*
X167455946Y-120594275D01*
X167476667Y-120601408D01*
X167707722Y-120483493D01*
X167893995Y-120236828D01*
X167918893Y-120022035D01*
X167907465Y-120007935D01*
X167911547Y-119799089D01*
X168022186Y-119619722D01*
X168264976Y-119443334D01*
X168511801Y-119561926D01*
X168822842Y-119682213D01*
X169362024Y-119772274D01*
X169874336Y-119806997D01*
X170514547Y-119844680D01*
X170872151Y-119930392D01*
X171021233Y-120084704D01*
X171033186Y-120128781D01*
X170990599Y-120379146D01*
X170899031Y-120422535D01*
X170728499Y-120545356D01*
X170734772Y-120804311D01*
X170900372Y-121035139D01*
X170967975Y-121070512D01*
X171350182Y-121086603D01*
X171845418Y-120961099D01*
X172300355Y-120749433D01*
X172561668Y-120507039D01*
X172568130Y-120491982D01*
X172762291Y-120320775D01*
X172890412Y-120355898D01*
X173296420Y-120501245D01*
X173798965Y-120554815D01*
X174248581Y-120513812D01*
X174489853Y-120385825D01*
X174608542Y-120277475D01*
X174639514Y-120467253D01*
X174726282Y-120732788D01*
X174821126Y-120780281D01*
X174946217Y-120624719D01*
X174999961Y-120249360D01*
X175000000Y-120238048D01*
X175110635Y-119757699D01*
X175425056Y-119562431D01*
X175917033Y-119663325D01*
X176117860Y-119765781D01*
X176621240Y-120012843D01*
X176875820Y-120024038D01*
X176903237Y-119797689D01*
X176878112Y-119706865D01*
X176834942Y-119464231D01*
X176990517Y-119443082D01*
X177215783Y-119520514D01*
X177655898Y-119604037D01*
X178271096Y-119624590D01*
X178614160Y-119605582D01*
X179125722Y-119569963D01*
X179313341Y-119591319D01*
X179207029Y-119674672D01*
X179158802Y-119696732D01*
X178812852Y-119957447D01*
X178820143Y-120269434D01*
X179069366Y-120537409D01*
X179270854Y-120709168D01*
X179185971Y-120711571D01*
X179084754Y-120678051D01*
X178896180Y-120668771D01*
X178818187Y-120867888D01*
X178816444Y-121305387D01*
X178873367Y-121753822D01*
X178980721Y-121999408D01*
X179024647Y-122016226D01*
X179164256Y-121878285D01*
X179158802Y-121835633D01*
X179269112Y-121705978D01*
X179471831Y-121674647D01*
X179733690Y-121590319D01*
X179825886Y-121276550D01*
X179829577Y-121138028D01*
X179903050Y-120721459D01*
X180112793Y-120601408D01*
X180317286Y-120710203D01*
X180317349Y-120825000D01*
X180313088Y-121158454D01*
X180387452Y-121451056D01*
X180446660Y-121764539D01*
X180282889Y-121853521D01*
X179963862Y-121982337D01*
X179898321Y-122277592D01*
X179997617Y-122466523D01*
X180088705Y-122693966D01*
X179923579Y-122810820D01*
X179682652Y-123057004D01*
X179650704Y-123204550D01*
X179696953Y-123352662D01*
X179884219Y-123424900D01*
X180285279Y-123431777D01*
X180921395Y-123388112D01*
X181574695Y-123321571D01*
X182089900Y-123246419D01*
X182360387Y-123178367D01*
X182365833Y-123175274D01*
X182379635Y-122998831D01*
X182197069Y-122714906D01*
X181910972Y-122426589D01*
X181614184Y-122236971D01*
X181497693Y-122211267D01*
X181280425Y-122101809D01*
X181260563Y-122028986D01*
X181397219Y-121922891D01*
X181731356Y-121961599D01*
X182149223Y-122113507D01*
X182537071Y-122347013D01*
X182602112Y-122401700D01*
X182973424Y-122664286D01*
X183424271Y-122893521D01*
X183830746Y-123036212D01*
X184068945Y-123039165D01*
X184074928Y-123033992D01*
X184098363Y-122820416D01*
X184040065Y-122421861D01*
X183781605Y-121969500D01*
X183270834Y-121755523D01*
X182530063Y-121789047D01*
X182503608Y-121794151D01*
X182126773Y-121787038D01*
X181884420Y-121519742D01*
X181836668Y-121421567D01*
X181565881Y-121073895D01*
X181285260Y-120959155D01*
X180965070Y-120805889D01*
X180849066Y-120594059D01*
X180830698Y-120333079D01*
X181037326Y-120312823D01*
X181141232Y-120339942D01*
X181634410Y-120478339D01*
X181886619Y-120547322D01*
X182328799Y-120749897D01*
X182532697Y-120896247D01*
X182919048Y-121103451D01*
X183365870Y-121217726D01*
X183890297Y-121333185D01*
X184273174Y-121480664D01*
X184647079Y-121650281D01*
X184807516Y-121605912D01*
X184838028Y-121387200D01*
X184926960Y-121191121D01*
X185151056Y-121235584D01*
X185550245Y-121357310D01*
X186045422Y-121453165D01*
X186440947Y-121550092D01*
X186625064Y-121676610D01*
X186626760Y-121688603D01*
X186494863Y-121770190D01*
X186358450Y-121739333D01*
X186120541Y-121700917D01*
X186167672Y-121876794D01*
X186492605Y-122258370D01*
X186842078Y-122665913D01*
X187085009Y-123013348D01*
X187331335Y-123227104D01*
X187570316Y-123143699D01*
X187697124Y-122810184D01*
X187700000Y-122737330D01*
X187812240Y-122453149D01*
X187962696Y-122390140D01*
X188143589Y-122509731D01*
X188124705Y-122652525D01*
X188183650Y-122873724D01*
X188402437Y-123197490D01*
X188688874Y-123518326D01*
X188950766Y-123730733D01*
X189083208Y-123749344D01*
X189072057Y-123618734D01*
X194318309Y-123618734D01*
X194392241Y-123993563D01*
X194614869Y-124043758D01*
X194987440Y-123769533D01*
X195017812Y-123739549D01*
X195305652Y-123382220D01*
X195310955Y-123141934D01*
X195270093Y-123091502D01*
X194969987Y-123001207D01*
X194621964Y-123136152D01*
X194367410Y-123418017D01*
X194318309Y-123618734D01*
X189072057Y-123618734D01*
X189067805Y-123568933D01*
X188974542Y-123184444D01*
X188961540Y-123138505D01*
X188880599Y-122744099D01*
X188978178Y-122593459D01*
X189310861Y-122652387D01*
X189596401Y-122754819D01*
X189988731Y-122842670D01*
X190189384Y-122781597D01*
X190351990Y-122638549D01*
X195294218Y-122638549D01*
X195343089Y-122733679D01*
X195633740Y-122722676D01*
X196001939Y-122670150D01*
X196565340Y-122624013D01*
X196812202Y-122699514D01*
X196822535Y-122736927D01*
X196676543Y-122902019D01*
X196535088Y-122926760D01*
X196333471Y-123032088D01*
X196358791Y-123216415D01*
X196373572Y-123417562D01*
X196139904Y-123440304D01*
X196020182Y-123420093D01*
X195671512Y-123366556D01*
X195589839Y-123450502D01*
X195678996Y-123717060D01*
X195917962Y-123947737D01*
X196264589Y-123981712D01*
X196539774Y-123812527D01*
X196572229Y-123749272D01*
X196797703Y-123556642D01*
X197230037Y-123403491D01*
X197326827Y-123384193D01*
X198094043Y-123178910D01*
X198706445Y-122879280D01*
X199119162Y-122527330D01*
X199287326Y-122165089D01*
X199166068Y-121834583D01*
X199070599Y-121750849D01*
X198828317Y-121406370D01*
X198765028Y-121111163D01*
X198750175Y-120875198D01*
X199344617Y-120875198D01*
X199465140Y-121341344D01*
X199537994Y-121481121D01*
X199722920Y-121705005D01*
X199939586Y-121682602D01*
X200164050Y-121547559D01*
X200468831Y-121296664D01*
X200578873Y-121117456D01*
X200442920Y-120962874D01*
X200405613Y-120959155D01*
X200304552Y-120829133D01*
X200330050Y-120704563D01*
X200269049Y-120450457D01*
X200001914Y-120222908D01*
X199673482Y-120117772D01*
X199501937Y-120156510D01*
X199355477Y-120428635D01*
X199344617Y-120875198D01*
X198750175Y-120875198D01*
X198713262Y-120288764D01*
X198571636Y-119764043D01*
X198321353Y-119484057D01*
X198165664Y-119423145D01*
X197745030Y-119194015D01*
X197453882Y-118885084D01*
X197151528Y-118567246D01*
X196857342Y-118462559D01*
X196668450Y-118589451D01*
X196643662Y-118731370D01*
X196762412Y-119043894D01*
X197048704Y-119412818D01*
X197055273Y-119419422D01*
X197328517Y-119748111D01*
X197430059Y-119984100D01*
X197428666Y-119992629D01*
X197364505Y-120274918D01*
X197282219Y-120645078D01*
X197136471Y-120985023D01*
X196953545Y-121092261D01*
X196774096Y-121202048D01*
X196732462Y-121395132D01*
X196573441Y-121713142D01*
X196195843Y-121881428D01*
X195728399Y-122106333D01*
X195420600Y-122407194D01*
X195294218Y-122638549D01*
X190351990Y-122638549D01*
X190416758Y-122581571D01*
X190696126Y-122410625D01*
X191003240Y-122155748D01*
X191098591Y-121936664D01*
X191246732Y-121721377D01*
X191441708Y-121674647D01*
X191994252Y-121588475D01*
X192306471Y-121354788D01*
X192350704Y-121189190D01*
X192237397Y-120998603D01*
X192127112Y-121004907D01*
X191544812Y-121213634D01*
X191228718Y-121271921D01*
X191111872Y-121159652D01*
X191127315Y-120856712D01*
X191149732Y-120713388D01*
X192350704Y-120713388D01*
X192503650Y-120857602D01*
X192860906Y-120986061D01*
X193270102Y-121055435D01*
X193513380Y-121044022D01*
X194007515Y-120970289D01*
X194228873Y-120956066D01*
X194550825Y-120807851D01*
X194963127Y-120423615D01*
X195189334Y-120148061D01*
X195529522Y-119661137D01*
X195659498Y-119352152D01*
X195610069Y-119134673D01*
X195569897Y-119080353D01*
X195259167Y-118865362D01*
X194923703Y-118828110D01*
X194701966Y-118968499D01*
X194676056Y-119080986D01*
X194533086Y-119318135D01*
X194408160Y-119349295D01*
X194162287Y-119441502D01*
X193747123Y-119674837D01*
X193260600Y-119984370D01*
X192800651Y-120305172D01*
X192465209Y-120572314D01*
X192350704Y-120713388D01*
X191149732Y-120713388D01*
X191150045Y-120711385D01*
X191196442Y-120284680D01*
X191110868Y-120103591D01*
X190840453Y-120064842D01*
X190819035Y-120064788D01*
X190467813Y-120160111D01*
X190383098Y-120333098D01*
X190261315Y-120563148D01*
X189977382Y-120566238D01*
X189704050Y-120387430D01*
X189478747Y-120279215D01*
X189265811Y-120457130D01*
X188952905Y-120695838D01*
X188469920Y-120919674D01*
X188371329Y-120953106D01*
X187854298Y-121192781D01*
X187457426Y-121504856D01*
X187417561Y-121554181D01*
X187199583Y-121816900D01*
X187057034Y-121798361D01*
X186925105Y-121610551D01*
X186663456Y-121225407D01*
X186361579Y-120813972D01*
X186111792Y-120412604D01*
X186003905Y-120092068D01*
X186003832Y-120088537D01*
X185840365Y-119856344D01*
X185427566Y-119642761D01*
X184873557Y-119480827D01*
X184286461Y-119403584D01*
X183844625Y-119428731D01*
X183435600Y-119548741D01*
X183232933Y-119693046D01*
X183228169Y-119715147D01*
X183078280Y-119853918D01*
X182870422Y-119885915D01*
X182579759Y-119811008D01*
X182512676Y-119707042D01*
X182662491Y-119561710D01*
X182870422Y-119528169D01*
X183141611Y-119390453D01*
X183239747Y-119088123D01*
X183127890Y-118787407D01*
X183049295Y-118723239D01*
X182838674Y-118511211D01*
X182939571Y-118364362D01*
X183307776Y-118309911D01*
X183675352Y-118337757D01*
X184231405Y-118377249D01*
X184462009Y-118292569D01*
X184379874Y-118076287D01*
X184290026Y-117978476D01*
X184297056Y-117853739D01*
X184546566Y-117771176D01*
X202398017Y-117771176D01*
X202476179Y-117993116D01*
X202668843Y-118253167D01*
X202846140Y-118189648D01*
X202904225Y-117918309D01*
X202792381Y-117626962D01*
X202635915Y-117560563D01*
X202409697Y-117594167D01*
X202398017Y-117771176D01*
X184546566Y-117771176D01*
X184611685Y-117749628D01*
X185195903Y-117664207D01*
X185873013Y-117553802D01*
X186194248Y-117416139D01*
X186218346Y-117326787D01*
X186004097Y-117190355D01*
X185625496Y-117180597D01*
X184986426Y-117226990D01*
X184095829Y-117244218D01*
X183058486Y-117235160D01*
X181979177Y-117202696D01*
X180962683Y-117149707D01*
X180113787Y-117079074D01*
X179650704Y-117016355D01*
X178907151Y-116851497D01*
X178188776Y-116640315D01*
X177772535Y-116480692D01*
X177372170Y-116325949D01*
X181976056Y-116325949D01*
X182096750Y-116475112D01*
X182470862Y-116404306D01*
X182605517Y-116348710D01*
X186805509Y-116348710D01*
X186867039Y-116467431D01*
X187020281Y-116487324D01*
X187144727Y-116540120D01*
X187020281Y-116701971D01*
X186813633Y-117005935D01*
X186903540Y-117170457D01*
X187250499Y-117178764D01*
X187783707Y-117026122D01*
X188299563Y-116950505D01*
X188600281Y-117069149D01*
X188965632Y-117198908D01*
X189073317Y-117157341D01*
X196372815Y-117157341D01*
X196470175Y-117428505D01*
X196652242Y-117560563D01*
X196872576Y-117430465D01*
X196924331Y-117361691D01*
X196922236Y-117333842D01*
X200600637Y-117333842D01*
X200719070Y-117461120D01*
X201026182Y-117496922D01*
X201361790Y-117469192D01*
X201473239Y-117384669D01*
X201351377Y-117170060D01*
X201191296Y-117012629D01*
X200937626Y-116871343D01*
X200758384Y-117017520D01*
X200746852Y-117035445D01*
X200600637Y-117333842D01*
X196922236Y-117333842D01*
X196906980Y-117131034D01*
X196694372Y-116950697D01*
X196440225Y-116949743D01*
X196436423Y-116952038D01*
X196372815Y-117157341D01*
X189073317Y-117157341D01*
X189307432Y-117066971D01*
X189743126Y-116886041D01*
X190008019Y-116845070D01*
X190332960Y-116744067D01*
X190434258Y-116621478D01*
X190562244Y-116491326D01*
X190839106Y-116590770D01*
X190911388Y-116632387D01*
X191493011Y-116776184D01*
X192279382Y-116655192D01*
X192788795Y-116464162D01*
X196743160Y-116464162D01*
X196919616Y-116674644D01*
X197259697Y-116972717D01*
X197506881Y-116956175D01*
X197711091Y-116677052D01*
X197788021Y-116329934D01*
X197572950Y-116165820D01*
X197091489Y-116203072D01*
X197060600Y-116210621D01*
X196745552Y-116314424D01*
X196743160Y-116464162D01*
X192788795Y-116464162D01*
X193013934Y-116379735D01*
X193392363Y-116165780D01*
X193495519Y-115942225D01*
X193443797Y-115730869D01*
X193225735Y-115365020D01*
X193209052Y-115350584D01*
X194143423Y-115350584D01*
X194231931Y-115637815D01*
X194452464Y-115935798D01*
X194776910Y-116236406D01*
X194976252Y-116248054D01*
X195096609Y-116045035D01*
X195035593Y-115780602D01*
X194776383Y-115481564D01*
X194442365Y-115270058D01*
X194278509Y-115235211D01*
X194143423Y-115350584D01*
X193209052Y-115350584D01*
X193048876Y-115211982D01*
X192410683Y-114902023D01*
X192153016Y-114788028D01*
X196285915Y-114788028D01*
X196376675Y-115010648D01*
X196478204Y-115022054D01*
X196663009Y-114837388D01*
X196670493Y-114788028D01*
X196531236Y-114578293D01*
X196478204Y-114554002D01*
X196315100Y-114640348D01*
X196285915Y-114788028D01*
X192153016Y-114788028D01*
X191698840Y-114587095D01*
X191006469Y-114304750D01*
X190860736Y-114251408D01*
X195749295Y-114251408D01*
X195838732Y-114340845D01*
X195928169Y-114251408D01*
X195838732Y-114161971D01*
X195749295Y-114251408D01*
X190860736Y-114251408D01*
X190426688Y-114092536D01*
X190052618Y-113988006D01*
X190001434Y-113983098D01*
X189676025Y-113832719D01*
X189456185Y-113535915D01*
X189248979Y-113249115D01*
X189007717Y-113097149D01*
X188832767Y-113110770D01*
X188824502Y-113320732D01*
X188833331Y-113345071D01*
X188772924Y-113572091D01*
X188405285Y-113717030D01*
X188035039Y-113833417D01*
X187880270Y-113951813D01*
X187880268Y-113952592D01*
X188033207Y-114128045D01*
X188385571Y-114299093D01*
X188783199Y-114406940D01*
X189054656Y-114400500D01*
X189276523Y-114410349D01*
X189309859Y-114489783D01*
X189151628Y-114623311D01*
X188759354Y-114719522D01*
X188639084Y-114732512D01*
X188197645Y-114798035D01*
X188009036Y-114955709D01*
X187968344Y-115296870D01*
X187968309Y-115316471D01*
X187907679Y-115704742D01*
X187655485Y-115919899D01*
X187386971Y-116013122D01*
X186994903Y-116176474D01*
X186805509Y-116348710D01*
X182605517Y-116348710D01*
X182772569Y-116279738D01*
X183079021Y-116085665D01*
X183246625Y-115886334D01*
X183203061Y-115775245D01*
X183165424Y-115771831D01*
X182865259Y-115839888D01*
X182471036Y-115999357D01*
X182126677Y-116183187D01*
X181976104Y-116324324D01*
X181976056Y-116325949D01*
X177372170Y-116325949D01*
X177141040Y-116236616D01*
X176499353Y-116054442D01*
X176392366Y-116032944D01*
X175854420Y-115847666D01*
X175608046Y-115529476D01*
X175426969Y-115155352D01*
X175288919Y-114998002D01*
X175195786Y-114836979D01*
X175313028Y-114759504D01*
X175358279Y-114717729D01*
X177504225Y-114717729D01*
X177609508Y-114870599D01*
X177854518Y-114785211D01*
X178040845Y-114609155D01*
X178182110Y-114387375D01*
X178050142Y-114361422D01*
X177787164Y-114449419D01*
X177541527Y-114624385D01*
X177504225Y-114717729D01*
X175358279Y-114717729D01*
X175520248Y-114568201D01*
X175536619Y-114497332D01*
X175647955Y-114252928D01*
X175888152Y-113948560D01*
X176183485Y-113701711D01*
X176418703Y-113727999D01*
X176502774Y-113789579D01*
X176824566Y-113915861D01*
X177135044Y-113810344D01*
X177412496Y-113706455D01*
X177500072Y-113859730D01*
X177504225Y-113983098D01*
X177553771Y-114239965D01*
X177766003Y-114211155D01*
X177849013Y-114168906D01*
X178221487Y-114069418D01*
X178547428Y-114127270D01*
X178738289Y-114288946D01*
X178705520Y-114500933D01*
X178577464Y-114609155D01*
X178406622Y-114834488D01*
X178496437Y-115024240D01*
X178635721Y-115056338D01*
X178913306Y-115177338D01*
X179261705Y-115470507D01*
X179280226Y-115489969D01*
X179687602Y-115923600D01*
X180566759Y-115291989D01*
X181241775Y-114752977D01*
X181679455Y-114302634D01*
X187191155Y-114302634D01*
X187243302Y-114648860D01*
X187364028Y-114853317D01*
X187507226Y-114725867D01*
X187528010Y-114693578D01*
X187679537Y-114279005D01*
X187697261Y-114117253D01*
X187612701Y-113851945D01*
X187515512Y-113804225D01*
X187290697Y-113953875D01*
X187191155Y-114302634D01*
X181679455Y-114302634D01*
X181723551Y-114257262D01*
X181960420Y-113860847D01*
X181976056Y-113764425D01*
X181824130Y-113654750D01*
X181573591Y-113622613D01*
X181237487Y-113588325D01*
X180960913Y-113445908D01*
X180652984Y-113127940D01*
X180311358Y-112686267D01*
X180018727Y-112280688D01*
X179930182Y-112084053D01*
X180032885Y-112020827D01*
X180197358Y-112015493D01*
X180258637Y-111999926D01*
X182370521Y-111999926D01*
X182374012Y-112452624D01*
X182398926Y-112666514D01*
X182467836Y-113226697D01*
X182508251Y-113666286D01*
X182512676Y-113775529D01*
X182573220Y-113947630D01*
X182701178Y-113866145D01*
X182800723Y-113555555D01*
X182792738Y-112990000D01*
X187548762Y-112990000D01*
X187587560Y-113226060D01*
X187727635Y-113228665D01*
X187965099Y-113002901D01*
X188030111Y-112829717D01*
X187991312Y-112593657D01*
X187851238Y-112591053D01*
X187613774Y-112816817D01*
X187548762Y-112990000D01*
X182792738Y-112990000D01*
X182792567Y-112977854D01*
X182767570Y-112757131D01*
X182667409Y-112239112D01*
X182555526Y-111940098D01*
X186186644Y-111940098D01*
X186278295Y-112119395D01*
X186543154Y-112345868D01*
X186993041Y-112653978D01*
X187245262Y-112695619D01*
X187338990Y-112472440D01*
X187342253Y-112379532D01*
X187265571Y-112192801D01*
X188952112Y-112192801D01*
X189102776Y-112352298D01*
X189490279Y-112580903D01*
X189840847Y-112745618D01*
X190382482Y-113007121D01*
X190798614Y-113259070D01*
X190935988Y-113376646D01*
X191326855Y-113599440D01*
X191822528Y-113564030D01*
X192294631Y-113283526D01*
X192344742Y-113232797D01*
X192599764Y-112804301D01*
X192605242Y-112508720D01*
X192614806Y-112108165D01*
X192709071Y-111925308D01*
X192838686Y-111634980D01*
X192817138Y-111510022D01*
X192594553Y-111440290D01*
X192165459Y-111458930D01*
X191664296Y-111545994D01*
X191225510Y-111681532D01*
X191057143Y-111771175D01*
X190723469Y-111877040D01*
X190293662Y-111894690D01*
X189675762Y-111897442D01*
X189200942Y-111987748D01*
X188963392Y-112144678D01*
X188952112Y-112192801D01*
X187265571Y-112192801D01*
X187190157Y-112009159D01*
X186833962Y-111775122D01*
X186423811Y-111763795D01*
X186337788Y-111801686D01*
X186186644Y-111940098D01*
X182555526Y-111940098D01*
X182542475Y-111905218D01*
X182465318Y-111836619D01*
X182370521Y-111999926D01*
X180258637Y-111999926D01*
X180475700Y-111944785D01*
X180473238Y-111763771D01*
X187611726Y-111763771D01*
X187812346Y-111959562D01*
X188114509Y-112117067D01*
X188397210Y-112154818D01*
X188672271Y-111988978D01*
X188721177Y-111903620D01*
X188620532Y-111744429D01*
X188308548Y-111616074D01*
X187931537Y-111557621D01*
X187635812Y-111608135D01*
X187629203Y-111612064D01*
X187611726Y-111763771D01*
X180473238Y-111763771D01*
X180472742Y-111727267D01*
X180458535Y-111522520D01*
X180637919Y-111544868D01*
X180926364Y-111486523D01*
X181115843Y-111207037D01*
X181309062Y-110880599D01*
X181455047Y-110763380D01*
X181621102Y-110620253D01*
X181836411Y-110273363D01*
X181848546Y-110249338D01*
X181982859Y-109666290D01*
X181806744Y-109161970D01*
X181616420Y-108974647D01*
X181488120Y-108750927D01*
X181375329Y-108398075D01*
X181342262Y-108047604D01*
X181473877Y-107986577D01*
X181748951Y-108198791D01*
X182146259Y-108668041D01*
X182630063Y-109356054D01*
X183065295Y-109986047D01*
X183388685Y-110361703D01*
X183661815Y-110541583D01*
X183921865Y-110584507D01*
X184380174Y-110706450D01*
X184905374Y-111018769D01*
X185023658Y-111113857D01*
X185422966Y-111433463D01*
X185712273Y-111625941D01*
X185777112Y-111650477D01*
X185905439Y-111528386D01*
X185878936Y-111225383D01*
X185720459Y-110871053D01*
X185615234Y-110732746D01*
X185454905Y-110483196D01*
X185585452Y-110421044D01*
X185992713Y-110546785D01*
X186352382Y-110707073D01*
X186756934Y-110954815D01*
X186973215Y-111194073D01*
X186984507Y-111243693D01*
X187099493Y-111456794D01*
X187326534Y-111425061D01*
X187415468Y-111326246D01*
X187627435Y-111240214D01*
X188101040Y-111152832D01*
X188740644Y-111081023D01*
X188851399Y-111072155D01*
X190009819Y-110884059D01*
X190583568Y-110678345D01*
X192708450Y-110678345D01*
X192849887Y-110752605D01*
X193169265Y-110730758D01*
X193509185Y-110641316D01*
X193712246Y-110512790D01*
X193720269Y-110495070D01*
X193683048Y-110203717D01*
X193607914Y-110050284D01*
X193451900Y-109901559D01*
X193248443Y-110002105D01*
X193074202Y-110176959D01*
X192813829Y-110489015D01*
X192708450Y-110678345D01*
X190583568Y-110678345D01*
X191013628Y-110524150D01*
X191794734Y-110023769D01*
X192229176Y-109517425D01*
X192465592Y-109080815D01*
X192502182Y-108865345D01*
X192342762Y-108798021D01*
X192266881Y-108795774D01*
X192086424Y-108677258D01*
X192107145Y-108527464D01*
X192109520Y-108297206D01*
X192033997Y-108259155D01*
X191735950Y-108420627D01*
X191455487Y-108842585D01*
X191297674Y-109273355D01*
X191149997Y-109606029D01*
X190861332Y-109798848D01*
X190371000Y-109920962D01*
X189744269Y-109986291D01*
X188967602Y-109999073D01*
X188440539Y-109973459D01*
X187740665Y-109885815D01*
X187281376Y-109738687D01*
X186946005Y-109491347D01*
X186888481Y-109431625D01*
X186581841Y-109012423D01*
X186417448Y-108621957D01*
X186416252Y-108614717D01*
X186309263Y-108370001D01*
X187611134Y-108370001D01*
X187772375Y-108599688D01*
X188073052Y-108767062D01*
X188258521Y-108795774D01*
X188537343Y-108735424D01*
X188594366Y-108659928D01*
X188448264Y-108446380D01*
X188124913Y-108248285D01*
X187796746Y-108156630D01*
X187684038Y-108179583D01*
X187611134Y-108370001D01*
X186309263Y-108370001D01*
X186283670Y-108311461D01*
X186108607Y-108296226D01*
X186014743Y-108565323D01*
X186015170Y-108626677D01*
X185919347Y-108871724D01*
X185639518Y-108870877D01*
X185233137Y-108642210D01*
X184793309Y-108242342D01*
X184400112Y-107721593D01*
X184328491Y-107345209D01*
X184569718Y-107121230D01*
X184602407Y-107087183D01*
X185044536Y-107087183D01*
X185083335Y-107323243D01*
X185223410Y-107325848D01*
X185460873Y-107100084D01*
X185525885Y-106926901D01*
X185487087Y-106690841D01*
X185347012Y-106688236D01*
X185109548Y-106914000D01*
X185044536Y-107087183D01*
X184602407Y-107087183D01*
X184806134Y-106874989D01*
X184838028Y-106724044D01*
X184926295Y-106521793D01*
X185245462Y-106492290D01*
X185370282Y-106507936D01*
X185763709Y-106508758D01*
X185964136Y-106401245D01*
X185964338Y-106400648D01*
X186127026Y-106367289D01*
X186444770Y-106545019D01*
X186474905Y-106568240D01*
X186766725Y-106870368D01*
X186857749Y-107117673D01*
X186855389Y-107126085D01*
X186960834Y-107308210D01*
X187308059Y-107499672D01*
X187411250Y-107536916D01*
X187977362Y-107782475D01*
X188474032Y-108087971D01*
X188481250Y-108093613D01*
X188811227Y-108309972D01*
X188983071Y-108265752D01*
X189043421Y-107922950D01*
X189046411Y-107633098D01*
X189112044Y-107190069D01*
X189264529Y-106917605D01*
X189384674Y-106610702D01*
X189299444Y-106119502D01*
X189049717Y-105519212D01*
X188676367Y-104885040D01*
X188220272Y-104292195D01*
X187722308Y-103815883D01*
X187492956Y-103658112D01*
X187073943Y-103409165D01*
X187554882Y-103509464D01*
X187944203Y-103525083D01*
X188146777Y-103430234D01*
X188133217Y-103264933D01*
X188068303Y-103250704D01*
X187886105Y-103125085D01*
X187878873Y-103077863D01*
X187997681Y-103023131D01*
X188299930Y-103154363D01*
X188704354Y-103416868D01*
X189129689Y-103755959D01*
X189494668Y-104116945D01*
X189582611Y-104224432D01*
X189936497Y-104787439D01*
X190239629Y-105428168D01*
X190275398Y-105524291D01*
X190422631Y-105992395D01*
X190411464Y-106284464D01*
X190207512Y-106560023D01*
X190010597Y-106752868D01*
X189611852Y-107187221D01*
X189515570Y-107441358D01*
X189720386Y-107523930D01*
X189891197Y-107510187D01*
X190198449Y-107539903D01*
X190295249Y-107810687D01*
X190297542Y-107887795D01*
X190389363Y-108251705D01*
X190544780Y-108402485D01*
X190704619Y-108368090D01*
X190724121Y-108069508D01*
X190704878Y-107916321D01*
X190687018Y-107476152D01*
X190763595Y-107274178D01*
X190889813Y-107352762D01*
X190995317Y-107641650D01*
X191157029Y-107948282D01*
X191341219Y-107940162D01*
X191451542Y-107639974D01*
X191456338Y-107533105D01*
X191544515Y-107269797D01*
X191667022Y-107230633D01*
X191869193Y-107114432D01*
X192063143Y-106772099D01*
X192065883Y-106764728D01*
X192160486Y-106363866D01*
X192024015Y-106083502D01*
X191835900Y-105915499D01*
X191534615Y-105539969D01*
X191533442Y-105275382D01*
X191643070Y-105088109D01*
X191808777Y-105146163D01*
X192011636Y-105336362D01*
X192292437Y-105687493D01*
X192412165Y-105950484D01*
X192539799Y-106320964D01*
X192621980Y-106470422D01*
X192740683Y-106827527D01*
X192795449Y-107329813D01*
X192795823Y-107364788D01*
X192837083Y-107792559D01*
X192983228Y-107943956D01*
X193097360Y-107941398D01*
X193389786Y-108049036D01*
X193511879Y-108254426D01*
X193692893Y-108572774D01*
X193877531Y-108546481D01*
X193992840Y-108214436D01*
X194045919Y-107989548D01*
X194146834Y-108010538D01*
X194352224Y-108306129D01*
X194433725Y-108438028D01*
X194682400Y-108990584D01*
X194882742Y-109690797D01*
X194946221Y-110047887D01*
X195053966Y-110669107D01*
X195189586Y-111188163D01*
X195270799Y-111389436D01*
X195407932Y-111780200D01*
X195415718Y-111994806D01*
X195417579Y-112441299D01*
X195558421Y-112848518D01*
X195782572Y-113076223D01*
X195849981Y-113088732D01*
X196061435Y-112974447D01*
X196071379Y-112865140D01*
X196107268Y-112629548D01*
X196152974Y-112596831D01*
X196439181Y-112562947D01*
X196560337Y-112752175D01*
X196544465Y-113219305D01*
X196529723Y-113333457D01*
X196513308Y-113824954D01*
X196587804Y-114177108D01*
X196716221Y-114330436D01*
X196861570Y-114225450D01*
X196944873Y-114001096D01*
X197143142Y-113693759D01*
X197428245Y-113640376D01*
X197627464Y-113804225D01*
X197887476Y-113979111D01*
X198167061Y-113872454D01*
X198305349Y-113625352D01*
X198537917Y-113329244D01*
X198862831Y-113267605D01*
X199206918Y-113326817D01*
X199326760Y-113446478D01*
X199465307Y-113617062D01*
X199524771Y-113625352D01*
X199639421Y-113493329D01*
X199606510Y-113322352D01*
X199544950Y-113121487D01*
X199647631Y-113166186D01*
X199825480Y-113322743D01*
X200144455Y-113517148D01*
X200315931Y-113447574D01*
X200283270Y-113171545D01*
X200289841Y-112831072D01*
X200379592Y-112607695D01*
X200523652Y-112396863D01*
X200568933Y-112514005D01*
X200573434Y-112672543D01*
X200688884Y-113061980D01*
X200965894Y-113517767D01*
X201026056Y-113592731D01*
X201315444Y-113984526D01*
X201466806Y-114282898D01*
X201473239Y-114324375D01*
X201549006Y-114644288D01*
X201631072Y-114835173D01*
X201798924Y-115236766D01*
X201944100Y-115667777D01*
X202122890Y-116062816D01*
X202325370Y-116264849D01*
X202377744Y-116146839D01*
X202293484Y-115730876D01*
X202079641Y-115046634D01*
X201945354Y-114665566D01*
X200717847Y-111786756D01*
X199189620Y-109073479D01*
X197384281Y-106548676D01*
X195325433Y-104235286D01*
X193036683Y-102156250D01*
X190541637Y-100334507D01*
X187863900Y-98792997D01*
X185027078Y-97554660D01*
X183954338Y-97181948D01*
X183176376Y-96939428D01*
X182456958Y-96731979D01*
X181913126Y-96592755D01*
X181772254Y-96563820D01*
X181171126Y-96458127D01*
X181752464Y-96724647D01*
X182101212Y-96957969D01*
X182316586Y-97230716D01*
X182348562Y-97450507D01*
X182186793Y-97526760D01*
X181730677Y-97439673D01*
X181129373Y-97220494D01*
X180523930Y-96932347D01*
X180055399Y-96638356D01*
X179919014Y-96511867D01*
X179735075Y-96328243D01*
X179494759Y-96193861D01*
X179129740Y-96092006D01*
X178571693Y-96005967D01*
X177752293Y-95919030D01*
X177337458Y-95880388D01*
X174506470Y-95789037D01*
X171602264Y-96011854D01*
X168695004Y-96535253D01*
X165854852Y-97345644D01*
X163151971Y-98429439D01*
X162469567Y-98759760D01*
X161101702Y-99471680D01*
X160010972Y-100102763D01*
X159139528Y-100697734D01*
X158429519Y-101301318D01*
X157823095Y-101958242D01*
X157262404Y-102713231D01*
X157161500Y-102863556D01*
X156734148Y-103524384D01*
X156393235Y-104081812D01*
X156181037Y-104464873D01*
X156131693Y-104592253D01*
X155998156Y-104803020D01*
X155668909Y-105108268D01*
X155547535Y-105202159D01*
X155181329Y-105503932D01*
X154979750Y-105728837D01*
X154966197Y-105767746D01*
X155121342Y-105847517D01*
X155534437Y-105813124D01*
X156126976Y-105671967D01*
X156193891Y-105652017D01*
X156487587Y-105589433D01*
X156505970Y-105717097D01*
X156419634Y-105891851D01*
X156171000Y-106220498D01*
X155758066Y-106645928D01*
X155504968Y-106874265D01*
X155100051Y-107253258D01*
X154839817Y-107559046D01*
X154787324Y-107673073D01*
X154663628Y-107929259D01*
X154510547Y-108087308D01*
X154346362Y-108322113D01*
X154430735Y-108438744D01*
X154435003Y-108638243D01*
X154196405Y-109055137D01*
X153813146Y-109560426D01*
X153414348Y-110063647D01*
X153124013Y-110456037D01*
X152999680Y-110659481D01*
X152998591Y-110666306D01*
X149268175Y-110666306D01*
X149755072Y-109704367D01*
X149920961Y-109421831D01*
X151730805Y-106723602D01*
X153796592Y-104268688D01*
X156101344Y-102069110D01*
X158628083Y-100136887D01*
X161359833Y-98484041D01*
X164279615Y-97122592D01*
X167370452Y-96064559D01*
X169544366Y-95528086D01*
X170979067Y-95299744D01*
X172658518Y-95151314D01*
X174478728Y-95082955D01*
X176335702Y-95094823D01*
G37*
G36*
X175615634Y-150720971D02*
G01*
X175626056Y-150830986D01*
X175367248Y-150995572D01*
X175257753Y-151009859D01*
X175026569Y-150909847D01*
X175000000Y-150830986D01*
X175150265Y-150687059D01*
X175368303Y-150652112D01*
X175615634Y-150720971D01*
G37*
G36*
X178842692Y-150178995D02*
G01*
X179196398Y-150248223D01*
X179741490Y-150289392D01*
X180003942Y-150294366D01*
X180616647Y-150341959D01*
X180926218Y-150492684D01*
X180967502Y-150562676D01*
X180964340Y-150716625D01*
X180760192Y-150799045D01*
X180288860Y-150829208D01*
X180045864Y-150830986D01*
X179428185Y-150807933D01*
X179060217Y-150717269D01*
X178835677Y-150526739D01*
X178781653Y-150447305D01*
X178635104Y-150177860D01*
X178710512Y-150134238D01*
X178842692Y-150178995D01*
G37*
G36*
X185002988Y-150160057D02*
G01*
X184798347Y-150389112D01*
X184670010Y-150467429D01*
X184334672Y-150558753D01*
X184204915Y-150461822D01*
X184133407Y-150279187D01*
X184265265Y-150157298D01*
X184614436Y-150036223D01*
X184937884Y-150012943D01*
X185002988Y-150160057D01*
G37*
G36*
X179786944Y-149634846D02*
G01*
X179828758Y-149683197D01*
X179571885Y-149710327D01*
X179382394Y-149712637D01*
X179035991Y-149695026D01*
X178983436Y-149654626D01*
X179071451Y-149631236D01*
X179537529Y-149602437D01*
X179786944Y-149634846D01*
G37*
G36*
X183928131Y-148816153D02*
G01*
X184014541Y-148968958D01*
X184039358Y-149361474D01*
X183768675Y-149561837D01*
X183597718Y-149578873D01*
X183337554Y-149453728D01*
X183272887Y-149131690D01*
X183391796Y-148788606D01*
X183656314Y-148673311D01*
X183928131Y-148816153D01*
G37*
G36*
X188933972Y-147350634D02*
G01*
X188952112Y-147420340D01*
X188812582Y-147600250D01*
X188742605Y-147611267D01*
X188448379Y-147721666D01*
X188250704Y-147866746D01*
X187925340Y-148075973D01*
X187370813Y-148353811D01*
X186683449Y-148660420D01*
X185959576Y-148955963D01*
X185295521Y-149200601D01*
X184787609Y-149354498D01*
X184575148Y-149386853D01*
X184584181Y-149310760D01*
X184869560Y-149112303D01*
X185383473Y-148820458D01*
X186078109Y-148464202D01*
X186179577Y-148414482D01*
X187215023Y-147917697D01*
X187971491Y-147576077D01*
X188485675Y-147376465D01*
X188794270Y-147305703D01*
X188933972Y-147350634D01*
G37*
G36*
X175165444Y-148585863D02*
G01*
X175081842Y-148879813D01*
X174996760Y-149042253D01*
X174873572Y-149179685D01*
X174864182Y-149001950D01*
X174875641Y-148912708D01*
X174970688Y-148542443D01*
X175055015Y-148390994D01*
X175160241Y-148381123D01*
X175165444Y-148585863D01*
G37*
G36*
X179591079Y-148923004D02*
G01*
X179612487Y-149135285D01*
X179591079Y-149161502D01*
X179484739Y-149136948D01*
X179471831Y-149042253D01*
X179537277Y-148895020D01*
X179591079Y-148923004D01*
G37*
G36*
X191394850Y-142175781D02*
G01*
X191366901Y-142245070D01*
X191206164Y-142415712D01*
X191177471Y-142423943D01*
X191100642Y-142285551D01*
X191098591Y-142245070D01*
X191236100Y-142073071D01*
X191288021Y-142066197D01*
X191394850Y-142175781D01*
G37*
G36*
X195868544Y-139442723D02*
G01*
X195843990Y-139549063D01*
X195749295Y-139561971D01*
X195602062Y-139496525D01*
X195630047Y-139442723D01*
X195842327Y-139421315D01*
X195868544Y-139442723D01*
G37*
G36*
X178040845Y-142155633D02*
G01*
X177951408Y-142245070D01*
X177861971Y-142155633D01*
X177951408Y-142066197D01*
X178040845Y-142155633D01*
G37*
G36*
X179505846Y-140655395D02*
G01*
X179604429Y-140806458D01*
X179712989Y-141131564D01*
X179593778Y-141280403D01*
X179353550Y-141204746D01*
X179244750Y-140958097D01*
X179274761Y-140770032D01*
X179378374Y-140564435D01*
X179505846Y-140655395D01*
G37*
G36*
X178415366Y-140222690D02*
G01*
X178555070Y-140553734D01*
X178549521Y-140721695D01*
X178438392Y-140913623D01*
X178353873Y-140889756D01*
X178242256Y-140614640D01*
X178219718Y-140390751D01*
X178267590Y-140152398D01*
X178415366Y-140222690D01*
G37*
G36*
X182017230Y-135169198D02*
G01*
X182020514Y-135298565D01*
X181967192Y-135369130D01*
X181859210Y-135699597D01*
X182043039Y-135939563D01*
X182254922Y-135984507D01*
X182486106Y-136084518D01*
X182512676Y-136163380D01*
X182366169Y-136318076D01*
X182219367Y-136342253D01*
X181872158Y-136475317D01*
X181722565Y-136620546D01*
X181378426Y-136884952D01*
X181166226Y-136953893D01*
X180892627Y-137119994D01*
X180875104Y-137346374D01*
X180988540Y-137711290D01*
X181165966Y-137733071D01*
X181406952Y-137491986D01*
X181850250Y-137097942D01*
X182351838Y-136857514D01*
X182796154Y-136814527D01*
X182979879Y-136895488D01*
X183196206Y-137209889D01*
X183228169Y-137365629D01*
X183099231Y-137674378D01*
X182784950Y-138037465D01*
X182394124Y-138359498D01*
X182035550Y-138545082D01*
X181877470Y-138549907D01*
X181658076Y-138587959D01*
X181618309Y-138757042D01*
X181517150Y-138976175D01*
X181344273Y-138958469D01*
X181068089Y-139015476D01*
X180901518Y-139297078D01*
X180726779Y-139662347D01*
X180575929Y-139707650D01*
X180455633Y-139561971D01*
X180222241Y-139449900D01*
X179773797Y-139387624D01*
X179605959Y-139383098D01*
X179162015Y-139369606D01*
X179024919Y-139311142D01*
X179144224Y-139180727D01*
X179179068Y-139154788D01*
X179360082Y-138875184D01*
X179359637Y-138547405D01*
X179193551Y-138330320D01*
X179094947Y-138309859D01*
X178965110Y-138159876D01*
X178935211Y-137952112D01*
X179020110Y-137638260D01*
X179250434Y-137647719D01*
X179391338Y-137761097D01*
X179680808Y-137899364D01*
X180096731Y-137984689D01*
X180461934Y-137993543D01*
X180589268Y-137843598D01*
X180576302Y-137471181D01*
X180590850Y-137047150D01*
X180802492Y-136775201D01*
X181078461Y-136612232D01*
X181408738Y-136409890D01*
X181537507Y-136183905D01*
X181485896Y-135826234D01*
X181323629Y-135358450D01*
X181423683Y-135217712D01*
X181712458Y-135153374D01*
X182017230Y-135169198D01*
G37*
G36*
X180650730Y-134778429D02*
G01*
X180602532Y-134940404D01*
X180459956Y-135086553D01*
X180235044Y-135201906D01*
X180187324Y-135122599D01*
X180299090Y-134888262D01*
X180521159Y-134750462D01*
X180650730Y-134778429D01*
G37*
G36*
X182806173Y-131297439D02*
G01*
X182725173Y-131694400D01*
X182471453Y-132299955D01*
X182397405Y-132449014D01*
X182187255Y-132988130D01*
X182082957Y-133432817D01*
X181933163Y-134108262D01*
X181693885Y-134468376D01*
X181420299Y-134553521D01*
X181139744Y-134511227D01*
X181081690Y-134457791D01*
X181169713Y-134254829D01*
X181370779Y-133920855D01*
X181552383Y-133476672D01*
X181563809Y-133112318D01*
X181629825Y-132670862D01*
X181990213Y-132149936D01*
X182309690Y-131744050D01*
X182494427Y-131428001D01*
X182512676Y-131354907D01*
X182644866Y-131164669D01*
X182703603Y-131154929D01*
X182806173Y-131297439D01*
G37*
G36*
X184903498Y-132446026D02*
G01*
X184944111Y-132908360D01*
X184869835Y-133601624D01*
X184618607Y-134157736D01*
X184239806Y-134493074D01*
X183972630Y-134553521D01*
X183681360Y-134519610D01*
X183695008Y-134375805D01*
X183762898Y-134287489D01*
X183900652Y-133935422D01*
X183879130Y-133748991D01*
X183787725Y-133373748D01*
X183916370Y-133249766D01*
X184029528Y-133261017D01*
X184242665Y-133139330D01*
X184451296Y-132756654D01*
X184482808Y-132667695D01*
X184664320Y-132241755D01*
X184806534Y-132168900D01*
X184903498Y-132446026D01*
G37*
G36*
X189724080Y-132911834D02*
G01*
X189710879Y-133214615D01*
X189567973Y-133634494D01*
X189378922Y-133780215D01*
X189221236Y-133660472D01*
X189172629Y-133338819D01*
X189289444Y-132985979D01*
X189505162Y-132775061D01*
X189565418Y-132764788D01*
X189724080Y-132911834D01*
G37*
G36*
X188883360Y-132563556D02*
G01*
X188807229Y-133049574D01*
X188773348Y-133401651D01*
X188773239Y-133413204D01*
X188654622Y-133629156D01*
X188346065Y-133608483D01*
X187918508Y-133359354D01*
X187853971Y-133307359D01*
X187594593Y-133062942D01*
X187611051Y-132963555D01*
X187737479Y-132949613D01*
X188055838Y-132824002D01*
X188447294Y-132522163D01*
X188518374Y-132451760D01*
X188993480Y-131959859D01*
X188883360Y-132563556D01*
G37*
G36*
X183599184Y-132236930D02*
G01*
X183653596Y-132451760D01*
X183686424Y-132820057D01*
X183589323Y-132943662D01*
X183463993Y-132787587D01*
X183407323Y-132408739D01*
X183407042Y-132377230D01*
X183427758Y-131977027D01*
X183491173Y-131930069D01*
X183599184Y-132236930D01*
G37*
G36*
X181612358Y-131378521D02*
G01*
X181582770Y-132010846D01*
X181490655Y-132355623D01*
X181417077Y-132407042D01*
X181293825Y-132253510D01*
X181320809Y-131882222D01*
X181345548Y-131479163D01*
X181183100Y-131310674D01*
X181143469Y-131300884D01*
X180983011Y-131221991D01*
X181048266Y-131035141D01*
X181233786Y-130797183D01*
X181606407Y-130350000D01*
X181612358Y-131378521D01*
G37*
G36*
X186224732Y-131823453D02*
G01*
X186256213Y-132094981D01*
X186110477Y-132305037D01*
X185947321Y-132241885D01*
X185858913Y-132047284D01*
X185874179Y-131749962D01*
X186017450Y-131691549D01*
X186224732Y-131823453D01*
G37*
G36*
X193932890Y-131975443D02*
G01*
X193859891Y-132189380D01*
X193651670Y-132360546D01*
X193636234Y-132366091D01*
X193501555Y-132310207D01*
X193532396Y-132153679D01*
X193715173Y-131907647D01*
X193815733Y-131870422D01*
X193932890Y-131975443D01*
G37*
G36*
X189607981Y-132108920D02*
G01*
X189583427Y-132215260D01*
X189488732Y-132228169D01*
X189341499Y-132162722D01*
X189369483Y-132108920D01*
X189581764Y-132087512D01*
X189607981Y-132108920D01*
G37*
G36*
X184267866Y-131483617D02*
G01*
X184301408Y-131691549D01*
X184226501Y-131982212D01*
X184122535Y-132049295D01*
X183977203Y-131899480D01*
X183943662Y-131691549D01*
X184018569Y-131400886D01*
X184122535Y-131333802D01*
X184267866Y-131483617D01*
G37*
G36*
X188355868Y-131930047D02*
G01*
X188331314Y-132036386D01*
X188236619Y-132049295D01*
X188089386Y-131983848D01*
X188117370Y-131930047D01*
X188329651Y-131908639D01*
X188355868Y-131930047D01*
G37*
G36*
X185369528Y-131462185D02*
G01*
X185374647Y-131502119D01*
X185244625Y-131744374D01*
X185195774Y-131780986D01*
X185042641Y-131740435D01*
X185016901Y-131612669D01*
X185110291Y-131367932D01*
X185195774Y-131333802D01*
X185369528Y-131462185D01*
G37*
G36*
X193185446Y-131393427D02*
G01*
X193206853Y-131605708D01*
X193185446Y-131631924D01*
X193079106Y-131607371D01*
X193066197Y-131512676D01*
X193131644Y-131365443D01*
X193185446Y-131393427D01*
G37*
G36*
X184976196Y-126061858D02*
G01*
X185413960Y-126384565D01*
X185732632Y-126815671D01*
X185862196Y-127205379D01*
X185955430Y-127699888D01*
X186000566Y-128181894D01*
X185985834Y-128534093D01*
X185916036Y-128643702D01*
X185704420Y-128574307D01*
X185307873Y-128413114D01*
X185236736Y-128382448D01*
X184771844Y-128237577D01*
X184413677Y-128221504D01*
X184387088Y-128229714D01*
X184160200Y-128196513D01*
X184122535Y-128049399D01*
X184010527Y-127851324D01*
X183854225Y-127870526D01*
X183626196Y-127871797D01*
X183601567Y-127671479D01*
X183763091Y-127349578D01*
X184033098Y-127040845D01*
X184387398Y-126655895D01*
X184435544Y-126431031D01*
X184173622Y-126334938D01*
X183943662Y-126325352D01*
X183566859Y-126275158D01*
X183407082Y-126154224D01*
X183407042Y-126152092D01*
X183538330Y-126054103D01*
X183677630Y-126082667D01*
X184037933Y-126070886D01*
X184187449Y-125987957D01*
X184530808Y-125910076D01*
X184976196Y-126061858D01*
G37*
G36*
X168679812Y-140158216D02*
G01*
X168655258Y-140264555D01*
X168560563Y-140277464D01*
X168413330Y-140212017D01*
X168441314Y-140158216D01*
X168653595Y-140136808D01*
X168679812Y-140158216D01*
G37*
G36*
X169633802Y-140188028D02*
G01*
X169544366Y-140277464D01*
X169454929Y-140188028D01*
X169544366Y-140098591D01*
X169633802Y-140188028D01*
G37*
G36*
X161195949Y-119488696D02*
G01*
X161216677Y-119789995D01*
X161123201Y-120077840D01*
X161046624Y-120155006D01*
X160840954Y-120117913D01*
X160762463Y-119995255D01*
X160744669Y-119629086D01*
X160929863Y-119380876D01*
X161058443Y-119349295D01*
X161195949Y-119488696D01*
G37*
G36*
X159253957Y-119485413D02*
G01*
X159259155Y-119528169D01*
X159123036Y-119701844D01*
X159080281Y-119707042D01*
X158906606Y-119570924D01*
X158901408Y-119528169D01*
X159037526Y-119354493D01*
X159080281Y-119349295D01*
X159253957Y-119485413D01*
G37*
G36*
X159438028Y-118902112D02*
G01*
X159348591Y-118991549D01*
X159259155Y-118902112D01*
X159348591Y-118812676D01*
X159438028Y-118902112D01*
G37*
G36*
X168500939Y-117262441D02*
G01*
X168493625Y-117461570D01*
X168313580Y-117725184D01*
X168074643Y-117903624D01*
X168002041Y-117918309D01*
X167846831Y-117784789D01*
X167845070Y-117761338D01*
X167962322Y-117527991D01*
X168214306Y-117315838D01*
X168451362Y-117238721D01*
X168500939Y-117262441D01*
G37*
G36*
X169004977Y-115650509D02*
G01*
X168928866Y-115933623D01*
X168766809Y-116069853D01*
X168652170Y-115954215D01*
X168637195Y-115654470D01*
X168699058Y-115561786D01*
X168904393Y-115486866D01*
X169004977Y-115650509D01*
G37*
G36*
X180590272Y-114105773D02*
G01*
X180624702Y-114301018D01*
X180539260Y-114530573D01*
X180292869Y-114801738D01*
X180030290Y-114868341D01*
X179870025Y-114724418D01*
X179866454Y-114564436D01*
X180046736Y-114250326D01*
X180361278Y-114078099D01*
X180590272Y-114105773D01*
G37*
G36*
X198190015Y-110418398D02*
G01*
X198511606Y-110602175D01*
X198983553Y-110972739D01*
X199146733Y-111366551D01*
X199147887Y-111407105D01*
X199202651Y-111734844D01*
X199301955Y-111836619D01*
X199388022Y-111985441D01*
X199370540Y-112283802D01*
X199244609Y-112606483D01*
X199076495Y-112745712D01*
X198955733Y-112635185D01*
X198947831Y-112596831D01*
X198954107Y-112309693D01*
X198876331Y-112056672D01*
X198772684Y-111905022D01*
X198533102Y-111749262D01*
X198309472Y-111864410D01*
X198027657Y-111918955D01*
X197715142Y-111763595D01*
X197477556Y-111495612D01*
X197420529Y-111212286D01*
X197483695Y-111103910D01*
X197684928Y-111034028D01*
X197888178Y-111285806D01*
X198100016Y-111540473D01*
X198254683Y-111567591D01*
X198338251Y-111330675D01*
X198204909Y-110937852D01*
X197930299Y-110539788D01*
X197755891Y-110294364D01*
X197837982Y-110253420D01*
X198190015Y-110418398D01*
G37*
G36*
X169435922Y-111235033D02*
G01*
X169850970Y-111532348D01*
X169902112Y-111573854D01*
X170215485Y-111875336D01*
X170213725Y-112007788D01*
X170156884Y-112014604D01*
X169848873Y-111892952D01*
X169481603Y-111596123D01*
X169454929Y-111568309D01*
X169202615Y-111252576D01*
X169208041Y-111141629D01*
X169435922Y-111235033D01*
G37*
G36*
X170647417Y-111538497D02*
G01*
X170622864Y-111644837D01*
X170528169Y-111657746D01*
X170380936Y-111592299D01*
X170408920Y-111538497D01*
X170621200Y-111517090D01*
X170647417Y-111538497D01*
G37*
G36*
X178133649Y-110894495D02*
G01*
X178105530Y-111031690D01*
X178113400Y-111261414D01*
X178200580Y-111300000D01*
X178389414Y-111425156D01*
X178398591Y-111478873D01*
X178253711Y-111637565D01*
X178130281Y-111657746D01*
X177914486Y-111502251D01*
X177861971Y-111210563D01*
X177921293Y-110874375D01*
X178035231Y-110763380D01*
X178133649Y-110894495D01*
G37*
G36*
X170863952Y-107490066D02*
G01*
X170885915Y-107598419D01*
X170990040Y-107910016D01*
X171240736Y-108304236D01*
X171243662Y-108307964D01*
X171490673Y-108649081D01*
X171601013Y-108855023D01*
X171601408Y-108860113D01*
X171466532Y-109006687D01*
X171119242Y-109280983D01*
X170796478Y-109511267D01*
X170358341Y-109785620D01*
X170065991Y-109916784D01*
X169991549Y-109898053D01*
X170068011Y-109634768D01*
X170252580Y-109230573D01*
X170258757Y-109218685D01*
X170456785Y-108651956D01*
X170527067Y-108135556D01*
X170578814Y-107705990D01*
X170702278Y-107457370D01*
X170707042Y-107454225D01*
X170863952Y-107490066D01*
G37*
G36*
X181394651Y-109615271D02*
G01*
X181398444Y-109723679D01*
X181220404Y-109959893D01*
X181006066Y-109989926D01*
X180902817Y-109794483D01*
X181046837Y-109548077D01*
X181186032Y-109511267D01*
X181394651Y-109615271D01*
G37*
G36*
X169812516Y-108570935D02*
G01*
X169812676Y-108588189D01*
X169666025Y-108895510D01*
X169320774Y-109163788D01*
X168942241Y-109354638D01*
X168728257Y-109464536D01*
X168528767Y-109418028D01*
X168509528Y-109400608D01*
X168460091Y-109182198D01*
X168676278Y-109013428D01*
X168916812Y-108974647D01*
X169236682Y-108824804D01*
X169365493Y-108616901D01*
X169542103Y-108314418D01*
X169724347Y-108296962D01*
X169812516Y-108570935D01*
G37*
G36*
X165161971Y-107749159D02*
G01*
X165038187Y-108069304D01*
X164804225Y-108348591D01*
X164535173Y-108674532D01*
X164446478Y-108912934D01*
X164303891Y-109129072D01*
X164192798Y-109153521D01*
X163799451Y-109216268D01*
X163656178Y-109262095D01*
X163416812Y-109277203D01*
X163373239Y-109206846D01*
X163449600Y-108985842D01*
X163620860Y-108718852D01*
X163800280Y-108518440D01*
X163901125Y-108497167D01*
X163904170Y-108517835D01*
X164019748Y-108505392D01*
X164309107Y-108288220D01*
X164535915Y-108080281D01*
X164939676Y-107733111D01*
X165138327Y-107674225D01*
X165161971Y-107749159D01*
G37*
G36*
X163675154Y-107221532D02*
G01*
X163394426Y-107620690D01*
X163184472Y-107856690D01*
X162641120Y-108287076D01*
X162120739Y-108430962D01*
X161687145Y-108275305D01*
X161594438Y-108181685D01*
X161500869Y-107958436D01*
X161677624Y-107738570D01*
X161832980Y-107629647D01*
X162209512Y-107453800D01*
X162470693Y-107449169D01*
X162739552Y-107442718D01*
X163054979Y-107285714D01*
X163499162Y-107026406D01*
X163707976Y-107014225D01*
X163675154Y-107221532D01*
G37*
G36*
X176744014Y-107071358D02*
G01*
X177116398Y-107154556D01*
X177653981Y-107251734D01*
X177806956Y-107276268D01*
X178262363Y-107391370D01*
X178637620Y-107558255D01*
X178866896Y-107729956D01*
X178884363Y-107859508D01*
X178683189Y-107901408D01*
X178368799Y-108042521D01*
X178284403Y-108169718D01*
X178182456Y-108362673D01*
X178026163Y-108403995D01*
X177736775Y-108277143D01*
X177235547Y-107965581D01*
X177198595Y-107941674D01*
X176754493Y-107603067D01*
X176490402Y-107303516D01*
X176435442Y-107098773D01*
X176618733Y-107044589D01*
X176744014Y-107071358D01*
G37*
G36*
X195049767Y-104999516D02*
G01*
X195367411Y-105217728D01*
X195643491Y-105459597D01*
X196071871Y-105935537D01*
X196233912Y-106291294D01*
X196222826Y-106376826D01*
X196225062Y-106561981D01*
X196477962Y-106614737D01*
X196686311Y-106604492D01*
X197130813Y-106636117D01*
X197403358Y-106883372D01*
X197496735Y-107054639D01*
X197620050Y-107479425D01*
X197622531Y-107902013D01*
X197515550Y-108192836D01*
X197391819Y-108249772D01*
X197168647Y-108150226D01*
X196867253Y-107959645D01*
X196567782Y-107668488D01*
X196464788Y-107432407D01*
X196316354Y-107230056D01*
X196120155Y-107185915D01*
X195848726Y-107060063D01*
X195554225Y-106655311D01*
X195310769Y-106170763D01*
X195075518Y-105612844D01*
X194929354Y-105178921D01*
X194902841Y-104985138D01*
X195049767Y-104999516D01*
G37*
G36*
X172910015Y-107013272D02*
G01*
X172781643Y-107285244D01*
X172543720Y-107557074D01*
X172279114Y-107714461D01*
X172217322Y-107722535D01*
X171985655Y-107637892D01*
X171959155Y-107571385D01*
X172091329Y-107319646D01*
X172389844Y-107045320D01*
X172707689Y-106867089D01*
X172845963Y-106855462D01*
X172910015Y-107013272D01*
G37*
G36*
X171599357Y-107145435D02*
G01*
X171601408Y-107185915D01*
X171463899Y-107357915D01*
X171411978Y-107364788D01*
X171305149Y-107255204D01*
X171333098Y-107185915D01*
X171493835Y-107015273D01*
X171522528Y-107007042D01*
X171599357Y-107145435D01*
G37*
G36*
X172740228Y-106172528D02*
G01*
X172845398Y-106316315D01*
X172642881Y-106497469D01*
X172540493Y-106539112D01*
X172134375Y-106695780D01*
X171986790Y-106759447D01*
X171810022Y-106743868D01*
X171809446Y-106535741D01*
X172033082Y-106245042D01*
X172363149Y-106145513D01*
X172740228Y-106172528D01*
G37*
G36*
X176726126Y-105970091D02*
G01*
X177218133Y-106163903D01*
X177674592Y-106383911D01*
X177979220Y-106581278D01*
X178040845Y-106671323D01*
X177993555Y-106790914D01*
X177806297Y-106780163D01*
X177410989Y-106624506D01*
X177057042Y-106460904D01*
X176579009Y-106237997D01*
X176231260Y-106081407D01*
X176162676Y-106052688D01*
X176072611Y-105900687D01*
X176100589Y-105856410D01*
X176314851Y-105851314D01*
X176726126Y-105970091D01*
G37*
G36*
X186955077Y-105660118D02*
G01*
X187230736Y-105793003D01*
X188026243Y-106202112D01*
X187619757Y-106504675D01*
X187356803Y-106673018D01*
X187147102Y-106667745D01*
X186876631Y-106454905D01*
X186636160Y-106211811D01*
X186289666Y-105784078D01*
X186238991Y-105541331D01*
X186466630Y-105495901D01*
X186955077Y-105660118D01*
G37*
G36*
X173497217Y-104973479D02*
G01*
X173569014Y-105307746D01*
X173508033Y-105631850D01*
X173252807Y-105746566D01*
X173053256Y-105754929D01*
X172616230Y-105658419D01*
X172446967Y-105408735D01*
X172497168Y-105068689D01*
X172863565Y-104889428D01*
X173225897Y-104860563D01*
X173497217Y-104973479D01*
G37*
G36*
X182266460Y-102102966D02*
G01*
X182745874Y-102276779D01*
X183063380Y-102469799D01*
X183375677Y-102671314D01*
X183527558Y-102714084D01*
X183803186Y-102842095D01*
X184071909Y-103133553D01*
X184226745Y-103449597D01*
X184214031Y-103605118D01*
X184260721Y-103830864D01*
X184505891Y-104216791D01*
X184822565Y-104596196D01*
X185209732Y-105030502D01*
X185474728Y-105355072D01*
X185553521Y-105482623D01*
X185440298Y-105593423D01*
X185119317Y-105452160D01*
X184618611Y-105075815D01*
X184077591Y-104588493D01*
X183448821Y-104023585D01*
X183003083Y-103696586D01*
X182757211Y-103616565D01*
X182728041Y-103792587D01*
X182756234Y-103876760D01*
X182728750Y-104107524D01*
X182596498Y-104145070D01*
X182362085Y-104046692D01*
X182333802Y-103966197D01*
X182177344Y-103843357D01*
X181796276Y-103784153D01*
X181752464Y-103783346D01*
X181186767Y-103669464D01*
X180723943Y-103429577D01*
X180342441Y-103181415D01*
X183647402Y-103181415D01*
X183675352Y-103250704D01*
X183836088Y-103421346D01*
X183864782Y-103429577D01*
X183941611Y-103291184D01*
X183943662Y-103250704D01*
X183806152Y-103078704D01*
X183754232Y-103071831D01*
X183647402Y-103181415D01*
X180342441Y-103181415D01*
X180342064Y-103181170D01*
X180053169Y-103075808D01*
X179845195Y-102962303D01*
X179829577Y-102898571D01*
X179960865Y-102800581D01*
X180100165Y-102829146D01*
X180453610Y-102814102D01*
X180634507Y-102714084D01*
X180985377Y-102577465D01*
X181168848Y-102599022D01*
X181553697Y-102641141D01*
X181819744Y-102498156D01*
X181852701Y-102243011D01*
X181849187Y-102072471D01*
X182082911Y-102064075D01*
X182266460Y-102102966D01*
G37*
G36*
X185306073Y-100230672D02*
G01*
X185329929Y-100251419D01*
X185685455Y-100451024D01*
X186233995Y-100645647D01*
X186537324Y-100723024D01*
X187156987Y-100863737D01*
X187700530Y-100995610D01*
X187878873Y-101042507D01*
X188181338Y-101106609D01*
X188192905Y-101014300D01*
X188080562Y-100866934D01*
X187965771Y-100685084D01*
X188056602Y-100596829D01*
X188416197Y-100569130D01*
X188652614Y-100567605D01*
X189110143Y-100595475D01*
X189498112Y-100712818D01*
X189923250Y-100970240D01*
X190492283Y-101418343D01*
X190552685Y-101468492D01*
X191160228Y-102000905D01*
X191502449Y-102386191D01*
X191609231Y-102679305D01*
X191510455Y-102935204D01*
X191411619Y-103048098D01*
X191293781Y-103270793D01*
X191482228Y-103492052D01*
X191498276Y-103504024D01*
X191697861Y-103729822D01*
X191692055Y-103849728D01*
X191393910Y-103962181D01*
X191113593Y-103752076D01*
X190998966Y-103529455D01*
X190703498Y-103088317D01*
X190185590Y-102591544D01*
X189547093Y-102111675D01*
X188889853Y-101721247D01*
X188315721Y-101492801D01*
X188096101Y-101461971D01*
X187481494Y-101461971D01*
X187903775Y-101808228D01*
X188326056Y-102154485D01*
X187700000Y-101999177D01*
X186948231Y-101802654D01*
X186441825Y-101632580D01*
X186076124Y-101441452D01*
X185746470Y-101181767D01*
X185598239Y-101045212D01*
X185277362Y-100691430D01*
X185065495Y-100367375D01*
X184984851Y-100138755D01*
X185057640Y-100071284D01*
X185306073Y-100230672D01*
G37*
G36*
X184604474Y-101794652D02*
G01*
X184950837Y-102024660D01*
X185136935Y-102236765D01*
X185099310Y-102351881D01*
X185055181Y-102356338D01*
X184829919Y-102235151D01*
X184552723Y-101972563D01*
X184326349Y-101707758D01*
X184350262Y-101668050D01*
X184604474Y-101794652D01*
G37*
G36*
X192169362Y-101962067D02*
G01*
X192236516Y-102088028D01*
X192233285Y-102325761D01*
X192039772Y-102321163D01*
X191933333Y-102237089D01*
X191818086Y-101990330D01*
X191921543Y-101827077D01*
X191973820Y-101819718D01*
X192169362Y-101962067D01*
G37*
G36*
X188108894Y-99087904D02*
G01*
X188147183Y-99136619D01*
X188210142Y-99297499D01*
X188040908Y-99236907D01*
X187878873Y-99136619D01*
X187741358Y-98993024D01*
X187823598Y-98960485D01*
X188108894Y-99087904D01*
G37*
G36*
X191715357Y-112841608D02*
G01*
X191967133Y-112985952D01*
X191924955Y-113079287D01*
X191824641Y-113088732D01*
X191582085Y-112958820D01*
X191547041Y-112911908D01*
X191575832Y-112810262D01*
X191715357Y-112841608D01*
G37*
%TO.C,\u2193*%
X65500000Y-55000000D02*
X65500000Y-54000000D01*
X65500000Y-68000000D02*
X65500000Y-67000000D01*
X65500000Y-68000000D02*
X66500000Y-68000000D01*
X66500000Y-54000000D02*
X65500000Y-54000000D01*
X78500000Y-68000000D02*
X79500000Y-68000000D01*
X79500000Y-54000000D02*
X78500000Y-54000000D01*
X79500000Y-54000000D02*
X79500000Y-55000000D01*
X79500000Y-67000000D02*
X79500000Y-68000000D01*
%TO.C,O*%
X166500000Y-85000000D02*
X166500000Y-86000000D01*
X166500000Y-72000000D02*
X166500000Y-73000000D01*
X166500000Y-72000000D02*
X165500000Y-72000000D01*
X165500000Y-86000000D02*
X166500000Y-86000000D01*
X153500000Y-72000000D02*
X152500000Y-72000000D01*
X152500000Y-86000000D02*
X153500000Y-86000000D01*
X152500000Y-86000000D02*
X152500000Y-85000000D01*
X152500000Y-73000000D02*
X152500000Y-72000000D01*
D12*
%TO.C,L3*%
X79750000Y-31500000D02*
X79750000Y-33000000D01*
X81000000Y-35500000D02*
X85500000Y-35500000D01*
X85500000Y-29000000D02*
X81000000Y-29000000D01*
X86750000Y-33000000D02*
X86750000Y-31500000D01*
%TO.C,R3*%
X91750000Y-31500000D02*
X91750000Y-33000000D01*
X93000000Y-35500000D02*
X97500000Y-35500000D01*
X97500000Y-29000000D02*
X93000000Y-29000000D01*
X98750000Y-33000000D02*
X98750000Y-31500000D01*
%TO.C,SIDE*%
X131590000Y-31330000D02*
X131590000Y-30000000D01*
X132920000Y-31330000D02*
X131590000Y-31330000D01*
X134190000Y-31330000D02*
X146950000Y-31330000D01*
X134190000Y-31330000D02*
X134190000Y-28670000D01*
X146950000Y-31330000D02*
X146950000Y-28670000D01*
X134190000Y-28670000D02*
X146950000Y-28670000D01*
%TO.C,PS*%
X43750000Y-31500000D02*
X43750000Y-33000000D01*
X45000000Y-35500000D02*
X49500000Y-35500000D01*
X49500000Y-29000000D02*
X45000000Y-29000000D01*
X50750000Y-33000000D02*
X50750000Y-31500000D01*
D13*
%TO.C,U+D = N*%
X68168600Y-102957497D02*
X68168600Y-105542503D01*
X76906200Y-105542503D02*
X76906200Y-102957497D01*
X68168600Y-104554800D02*
G75*
G03*
X68168600Y-103945200I0J304800D01*
G01*
G36*
X73997900Y-100541600D02*
G01*
X73616900Y-100541600D01*
X73616900Y-100287600D01*
X73997900Y-100287600D01*
X73997900Y-100541600D01*
G37*
D11*
%TO.C,\u25A1*%
X127500000Y-58000000D02*
X127500000Y-57000000D01*
X127500000Y-71000000D02*
X127500000Y-70000000D01*
X127500000Y-71000000D02*
X128500000Y-71000000D01*
X128500000Y-57000000D02*
X127500000Y-57000000D01*
X140500000Y-71000000D02*
X141500000Y-71000000D01*
X141500000Y-57000000D02*
X140500000Y-57000000D01*
X141500000Y-57000000D02*
X141500000Y-58000000D01*
X141500000Y-70000000D02*
X141500000Y-71000000D01*
%TO.C,X*%
X127500000Y-87000000D02*
X127500000Y-86000000D01*
X127500000Y-100000000D02*
X127500000Y-99000000D01*
X127500000Y-100000000D02*
X128500000Y-100000000D01*
X128500000Y-86000000D02*
X127500000Y-86000000D01*
X140500000Y-100000000D02*
X141500000Y-100000000D01*
X141500000Y-86000000D02*
X140500000Y-86000000D01*
X141500000Y-86000000D02*
X141500000Y-87000000D01*
X141500000Y-99000000D02*
X141500000Y-100000000D01*
%TO.C,\u2190*%
X36500000Y-55000000D02*
X36500000Y-54000000D01*
X36500000Y-68000000D02*
X36500000Y-67000000D01*
X36500000Y-68000000D02*
X37500000Y-68000000D01*
X37500000Y-54000000D02*
X36500000Y-54000000D01*
X49500000Y-68000000D02*
X50500000Y-68000000D01*
X50500000Y-54000000D02*
X49500000Y-54000000D01*
X50500000Y-54000000D02*
X50500000Y-55000000D01*
X50500000Y-67000000D02*
X50500000Y-68000000D01*
D12*
%TO.C,SHOULDER*%
X175270000Y-31330000D02*
X182950000Y-31330000D01*
X175270000Y-31330000D02*
X175270000Y-28670000D01*
X182950000Y-31330000D02*
X182950000Y-28670000D01*
X172670000Y-30000000D02*
X172670000Y-28670000D01*
X172670000Y-28670000D02*
X174000000Y-28670000D01*
X175270000Y-28670000D02*
X182950000Y-28670000D01*
D11*
%TO.C,L2*%
X181500000Y-73000000D02*
X181500000Y-72000000D01*
X181500000Y-86000000D02*
X181500000Y-85000000D01*
X181500000Y-86000000D02*
X182500000Y-86000000D01*
X182500000Y-72000000D02*
X181500000Y-72000000D01*
X194500000Y-86000000D02*
X195500000Y-86000000D01*
X195500000Y-72000000D02*
X194500000Y-72000000D01*
X195500000Y-72000000D02*
X195500000Y-73000000D01*
X195500000Y-85000000D02*
X195500000Y-86000000D01*
D12*
%TO.C,TOUCH*%
X103750000Y-31500000D02*
X103750000Y-33000000D01*
X105000000Y-35500000D02*
X109500000Y-35500000D01*
X109500000Y-29000000D02*
X105000000Y-29000000D01*
X110750000Y-33000000D02*
X110750000Y-31500000D01*
D11*
%TO.C,\u2191*%
X105500000Y-122000000D02*
X105500000Y-121000000D01*
X105500000Y-135000000D02*
X105500000Y-134000000D01*
X105500000Y-135000000D02*
X106500000Y-135000000D01*
X106500000Y-121000000D02*
X105500000Y-121000000D01*
X118500000Y-135000000D02*
X119500000Y-135000000D01*
X119500000Y-121000000D02*
X118500000Y-121000000D01*
X119500000Y-121000000D02*
X119500000Y-122000000D01*
X119500000Y-134000000D02*
X119500000Y-135000000D01*
%TO.C,\u2192*%
X90500000Y-69000000D02*
X90500000Y-68000000D01*
X90500000Y-82000000D02*
X90500000Y-81000000D01*
X90500000Y-82000000D02*
X91500000Y-82000000D01*
X91500000Y-68000000D02*
X90500000Y-68000000D01*
X103500000Y-82000000D02*
X104500000Y-82000000D01*
X104500000Y-68000000D02*
X103500000Y-68000000D01*
X104500000Y-68000000D02*
X104500000Y-69000000D01*
X104500000Y-81000000D02*
X104500000Y-82000000D01*
%TO.C,R1*%
X209500000Y-51000000D02*
X209500000Y-50000000D01*
X209500000Y-64000000D02*
X209500000Y-63000000D01*
X209500000Y-64000000D02*
X210500000Y-64000000D01*
X210500000Y-50000000D02*
X209500000Y-50000000D01*
X222500000Y-64000000D02*
X223500000Y-64000000D01*
X223500000Y-50000000D02*
X222500000Y-50000000D01*
X223500000Y-50000000D02*
X223500000Y-51000000D01*
X223500000Y-63000000D02*
X223500000Y-64000000D01*
D12*
%TO.C,OPTION*%
X67750000Y-31500000D02*
X67750000Y-33000000D01*
X69000000Y-35500000D02*
X73500000Y-35500000D01*
X73500000Y-29000000D02*
X69000000Y-29000000D01*
X74750000Y-33000000D02*
X74750000Y-31500000D01*
D11*
%TO.C,L1*%
X181500000Y-44000000D02*
X181500000Y-43000000D01*
X181500000Y-57000000D02*
X181500000Y-56000000D01*
X181500000Y-57000000D02*
X182500000Y-57000000D01*
X182500000Y-43000000D02*
X181500000Y-43000000D01*
X194500000Y-57000000D02*
X195500000Y-57000000D01*
X195500000Y-43000000D02*
X194500000Y-43000000D01*
X195500000Y-43000000D02*
X195500000Y-44000000D01*
X195500000Y-56000000D02*
X195500000Y-57000000D01*
%TO.C,\u25B3*%
X152500000Y-44000000D02*
X152500000Y-43000000D01*
X152500000Y-57000000D02*
X152500000Y-56000000D01*
X152500000Y-57000000D02*
X153500000Y-57000000D01*
X153500000Y-43000000D02*
X152500000Y-43000000D01*
X165500000Y-57000000D02*
X166500000Y-57000000D01*
X166500000Y-43000000D02*
X165500000Y-43000000D01*
X166500000Y-43000000D02*
X166500000Y-44000000D01*
X166500000Y-56000000D02*
X166500000Y-57000000D01*
%TO.C,R2*%
X223500000Y-92000000D02*
X223500000Y-93000000D01*
X223500000Y-79000000D02*
X223500000Y-80000000D01*
X223500000Y-79000000D02*
X222500000Y-79000000D01*
X222500000Y-93000000D02*
X223500000Y-93000000D01*
X210500000Y-79000000D02*
X209500000Y-79000000D01*
X209500000Y-93000000D02*
X210500000Y-93000000D01*
X209500000Y-93000000D02*
X209500000Y-92000000D01*
X209500000Y-80000000D02*
X209500000Y-79000000D01*
D12*
%TO.C,FACE*%
X163270000Y-31330000D02*
X170950000Y-31330000D01*
X163270000Y-31330000D02*
X163270000Y-28670000D01*
X170950000Y-31330000D02*
X170950000Y-28670000D01*
X160670000Y-30000000D02*
X160670000Y-28670000D01*
X160670000Y-28670000D02*
X162000000Y-28670000D01*
X163270000Y-28670000D02*
X170950000Y-28670000D01*
%TO.C,10K*%
X116540000Y-140000000D02*
X115770000Y-140000000D01*
X115770000Y-141370000D02*
X115770000Y-138630000D01*
X115770000Y-138630000D02*
X109230000Y-138630000D01*
X109230000Y-141370000D02*
X115770000Y-141370000D01*
X109230000Y-138630000D02*
X109230000Y-141370000D01*
X108460000Y-140000000D02*
X109230000Y-140000000D01*
X47540000Y-73000000D02*
X46770000Y-73000000D01*
X46770000Y-74370000D02*
X46770000Y-71630000D01*
X46770000Y-71630000D02*
X40230000Y-71630000D01*
X40230000Y-74370000D02*
X46770000Y-74370000D01*
X40230000Y-71630000D02*
X40230000Y-74370000D01*
X39460000Y-73000000D02*
X40230000Y-73000000D01*
D13*
%TO.C,L+R = N*%
X68131200Y-89707497D02*
X68131200Y-92292503D01*
X76868800Y-92292503D02*
X76868800Y-89707497D01*
X68131200Y-91304800D02*
G75*
G03*
X68131200Y-90695200I0J304800D01*
G01*
G36*
X73960500Y-87291600D02*
G01*
X73579500Y-87291600D01*
X73579500Y-87037600D01*
X73960500Y-87037600D01*
X73960500Y-87291600D01*
G37*
D12*
%TO.C,10K*%
X93460000Y-87000000D02*
X94230000Y-87000000D01*
X94230000Y-85630000D02*
X94230000Y-88370000D01*
X94230000Y-88370000D02*
X100770000Y-88370000D01*
X100770000Y-85630000D02*
X94230000Y-85630000D01*
X100770000Y-88370000D02*
X100770000Y-85630000D01*
X101540000Y-87000000D02*
X100770000Y-87000000D01*
%TO.C,1.8V/GND*%
X218670000Y-141270000D02*
X218670000Y-143870000D01*
X218670000Y-141270000D02*
X221330000Y-141270000D01*
X218670000Y-143870000D02*
X221330000Y-143870000D01*
X220000000Y-138670000D02*
X221330000Y-138670000D01*
X221330000Y-138670000D02*
X221330000Y-140000000D01*
X221330000Y-141270000D02*
X221330000Y-143870000D01*
%TO.C,DPAD*%
X151270000Y-31330000D02*
X158950000Y-31330000D01*
X151270000Y-31330000D02*
X151270000Y-28670000D01*
X158950000Y-31330000D02*
X158950000Y-28670000D01*
X148670000Y-30000000D02*
X148670000Y-28670000D01*
X148670000Y-28670000D02*
X150000000Y-28670000D01*
X151270000Y-28670000D02*
X158950000Y-28670000D01*
%TO.C,10K*%
X68460000Y-73000000D02*
X69230000Y-73000000D01*
X69230000Y-71630000D02*
X69230000Y-74370000D01*
X69230000Y-74370000D02*
X75770000Y-74370000D01*
X75770000Y-71630000D02*
X69230000Y-71630000D01*
X75770000Y-74370000D02*
X75770000Y-71630000D01*
X76540000Y-73000000D02*
X75770000Y-73000000D01*
%TO.C,SHARE*%
X55750000Y-31500000D02*
X55750000Y-33000000D01*
X57000000Y-35500000D02*
X61500000Y-35500000D01*
X61500000Y-29000000D02*
X57000000Y-29000000D01*
X62750000Y-33000000D02*
X62750000Y-31500000D01*
%TD*%
M02*
