M48
; DRILL file {KiCad 7.0.2} date Tue Sep  5 17:50:12 2023
; FORMAT={-:-/ absolute / inch / decimal}
; #@! TF.CreationDate,2023-09-05T17:50:12-07:00
; #@! TF.GenerationSoftware,Kicad,Pcbnew,7.0.2
; #@! TF.FileFunction,Plated,1,2,PTH
FMAT,2
INCH
; #@! TA.AperFunction,Plated,PTH,ComponentDrill
T1C0.0315
; #@! TA.AperFunction,Plated,PTH,ComponentDrill
T2C0.0394
; #@! TA.AperFunction,Plated,PTH,ComponentDrill
T3C0.0433
; #@! TA.AperFunction,Plated,PTH,ComponentDrill
T4C0.0590
%
G90
G05
T1
X1.5126Y-2.874
X1.9126Y-2.874
X2.6543Y-2.874
X3.0543Y-2.874
X3.6386Y-3.4252
X4.0386Y-3.4252
X4.2291Y-5.5118
X4.6291Y-5.5118
T2
X5.2331Y-1.1811
X5.3331Y-1.1811
X5.4331Y-1.1811
X5.5331Y-1.1811
X5.6331Y-1.1811
X5.7331Y-1.1811
X5.9055Y-1.1811
X6.0055Y-1.1811
X6.1055Y-1.1811
X6.2055Y-1.1811
X6.378Y-1.1811
X6.478Y-1.1811
X6.578Y-1.1811
X6.678Y-1.1811
X6.8504Y-1.1811
X6.9504Y-1.1811
X7.0504Y-1.1811
X7.1504Y-1.1811
X8.6614Y-5.5118
X8.6614Y-5.6118
T3
X1.7323Y-1.1811
X1.7323Y-1.3583
X1.9882Y-1.1811
X1.9882Y-1.3583
X2.2047Y-1.1811
X2.2047Y-1.3583
X2.4606Y-1.1811
X2.4606Y-1.3583
X2.6772Y-1.1811
X2.6772Y-1.3583
X2.9331Y-1.1811
X2.9331Y-1.3583
X3.1496Y-1.1811
X3.1496Y-1.3583
X3.4055Y-1.1811
X3.4055Y-1.3583
X3.622Y-1.1811
X3.622Y-1.3583
X3.878Y-1.1811
X3.878Y-1.3583
X4.0945Y-1.1811
X4.0945Y-1.3583
X4.3504Y-1.1811
X4.3504Y-1.3583
T4
X1.5626Y-2.3016
X1.8126Y-2.2016
X2.7043Y-2.3016
X2.9543Y-2.2016
X3.6886Y-2.8528
X3.9386Y-2.7528
X4.2791Y-4.9394
X4.5291Y-4.8394
X5.1453Y-2.4197
X5.1453Y-3.5614
X5.3953Y-2.3197
X5.3953Y-3.4614
X6.1295Y-1.8685
X6.1295Y-3.0102
X6.3795Y-1.7685
X6.3795Y-2.9102
X7.2713Y-1.8685
X7.2713Y-3.0102
X7.5213Y-1.7685
X7.5213Y-2.9102
X8.3736Y-2.1441
X8.3736Y-3.2858
X8.6236Y-2.0441
X8.6236Y-3.1858
T0
M30
