%TF.GenerationSoftware,KiCad,Pcbnew,7.0.2*%
%TF.CreationDate,2023-09-05T17:50:18-07:00*%
%TF.ProjectId,takupcb-r2,74616b75-7063-4622-9d72-322e6b696361,rev?*%
%TF.SameCoordinates,Original*%
%TF.FileFunction,Copper,L1,Top*%
%TF.FilePolarity,Positive*%
%FSLAX46Y46*%
G04 Gerber Fmt 4.6, Leading zero omitted, Abs format (unit mm)*
G04 Created by KiCad (PCBNEW 7.0.2) date 2023-09-05 17:50:18*
%MOMM*%
%LPD*%
G01*
G04 APERTURE LIST*
%TA.AperFunction,ComponentPad*%
%ADD10C,2.286000*%
%TD*%
%TA.AperFunction,ComponentPad*%
%ADD11C,2.000000*%
%TD*%
%TA.AperFunction,ComponentPad*%
%ADD12R,1.700000X1.700000*%
%TD*%
%TA.AperFunction,ComponentPad*%
%ADD13O,1.700000X1.700000*%
%TD*%
%TA.AperFunction,SMDPad,CuDef*%
%ADD14R,0.558800X1.981200*%
%TD*%
%TA.AperFunction,ComponentPad*%
%ADD15C,1.600000*%
%TD*%
%TA.AperFunction,ComponentPad*%
%ADD16O,1.600000X1.600000*%
%TD*%
%TA.AperFunction,Conductor*%
%ADD17C,0.250000*%
%TD*%
G04 APERTURE END LIST*
D10*
%TO.P,\u2193,1*%
%TO.N,Net-(NeutralUD1-2B)*%
X75040000Y-55920000D03*
%TO.P,\u2193,2*%
%TO.N,GND*%
X68690000Y-58460000D03*
%TD*%
%TO.P,O,2*%
%TO.N,GND*%
X155690000Y-76460000D03*
%TO.P,O,1*%
%TO.N,/O*%
X162040000Y-73920000D03*
%TD*%
D11*
%TO.P,L3,1*%
%TO.N,/L3*%
X80000000Y-30000000D03*
X86500000Y-30000000D03*
%TO.P,L3,2*%
%TO.N,/1.8V*%
X80000000Y-34500000D03*
X86500000Y-34500000D03*
%TD*%
%TO.P,R3,1*%
%TO.N,/R3*%
X92000000Y-30000000D03*
X98500000Y-30000000D03*
%TO.P,R3,2*%
%TO.N,/1.8V*%
X92000000Y-34500000D03*
X98500000Y-34500000D03*
%TD*%
D12*
%TO.P,SIDE,1,Pin_1*%
%TO.N,/Touch*%
X132920000Y-30000000D03*
D13*
%TO.P,SIDE,2,Pin_2*%
%TO.N,/R3*%
X135460000Y-30000000D03*
%TO.P,SIDE,3,Pin_3*%
%TO.N,/L3*%
X138000000Y-30000000D03*
%TO.P,SIDE,4,Pin_4*%
%TO.N,/Option*%
X140540000Y-30000000D03*
%TO.P,SIDE,5,Pin_5*%
%TO.N,/Share*%
X143080000Y-30000000D03*
%TO.P,SIDE,6,Pin_6*%
%TO.N,/PS*%
X145620000Y-30000000D03*
%TD*%
D11*
%TO.P,PS,1*%
%TO.N,/PS*%
X44000000Y-30000000D03*
X50500000Y-30000000D03*
%TO.P,PS,2*%
%TO.N,GND*%
X44000000Y-34500000D03*
X50500000Y-34500000D03*
%TD*%
D14*
%TO.P,U+D = N,1,1A*%
%TO.N,Net-(NeutralUD1-1A)*%
X68727400Y-106713800D03*
%TO.P,U+D = N,2,1B*%
X69997400Y-106713800D03*
%TO.P,U+D = N,3,1Y*%
%TO.N,Net-(NeutralUD1-1Y)*%
X71267400Y-106713800D03*
%TO.P,U+D = N,4,2A*%
X72537400Y-106713800D03*
%TO.P,U+D = N,5,2B*%
%TO.N,Net-(NeutralUD1-2B)*%
X73807400Y-106713800D03*
%TO.P,U+D = N,6,2Y*%
%TO.N,/Up*%
X75077400Y-106713800D03*
%TO.P,U+D = N,7,GND*%
%TO.N,GND*%
X76347400Y-106713800D03*
%TO.P,U+D = N,8,3Y*%
%TO.N,/Down*%
X76347400Y-101786200D03*
%TO.P,U+D = N,9,3A*%
%TO.N,Net-(NeutralUD1-1A)*%
X75077400Y-101786200D03*
%TO.P,U+D = N,10,3B*%
%TO.N,Net-(NeutralUD1-3B)*%
X73807400Y-101786200D03*
%TO.P,U+D = N,11,4Y*%
X72537400Y-101786200D03*
%TO.P,U+D = N,12,4A*%
%TO.N,Net-(NeutralUD1-2B)*%
X71267400Y-101786200D03*
%TO.P,U+D = N,13,4B*%
X69997400Y-101786200D03*
%TO.P,U+D = N,14,VCC*%
%TO.N,/1.8V*%
X68727400Y-101786200D03*
%TD*%
D10*
%TO.P,\u25A1,1*%
%TO.N,/\u25A1*%
X137040000Y-58920000D03*
%TO.P,\u25A1,2*%
%TO.N,GND*%
X130690000Y-61460000D03*
%TD*%
%TO.P,X,1*%
%TO.N,/X*%
X137040000Y-87920000D03*
%TO.P,X,2*%
%TO.N,GND*%
X130690000Y-90460000D03*
%TD*%
%TO.P,\u2190,1*%
%TO.N,Net-(NeutralLR1-1A)*%
X46040000Y-55920000D03*
%TO.P,\u2190,2*%
%TO.N,GND*%
X39690000Y-58460000D03*
%TD*%
D12*
%TO.P,SHOULDER,1,Pin_1*%
%TO.N,/L2*%
X174000000Y-30000000D03*
D13*
%TO.P,SHOULDER,2,Pin_2*%
%TO.N,/L1*%
X176540000Y-30000000D03*
%TO.P,SHOULDER,3,Pin_3*%
%TO.N,/R2*%
X179080000Y-30000000D03*
%TO.P,SHOULDER,4,Pin_4*%
%TO.N,/R1*%
X181620000Y-30000000D03*
%TD*%
D10*
%TO.P,L2,1*%
%TO.N,/L2*%
X191040000Y-73920000D03*
%TO.P,L2,2*%
%TO.N,GND*%
X184690000Y-76460000D03*
%TD*%
D11*
%TO.P,TOUCH,1*%
%TO.N,/Touch*%
X104000000Y-30000000D03*
X110500000Y-30000000D03*
%TO.P,TOUCH,2*%
%TO.N,GND*%
X104000000Y-34500000D03*
X110500000Y-34500000D03*
%TD*%
D10*
%TO.P,\u2191,1*%
%TO.N,Net-(NeutralUD1-1A)*%
X115040000Y-122920000D03*
%TO.P,\u2191,2*%
%TO.N,GND*%
X108690000Y-125460000D03*
%TD*%
%TO.P,\u2192,1*%
%TO.N,Net-(NeutralLR1-2B)*%
X100040000Y-69920000D03*
%TO.P,\u2192,2*%
%TO.N,GND*%
X93690000Y-72460000D03*
%TD*%
%TO.P,R1,1*%
%TO.N,/R1*%
X219040000Y-51920000D03*
%TO.P,R1,2*%
%TO.N,GND*%
X212690000Y-54460000D03*
%TD*%
D11*
%TO.P,OPTION,1*%
%TO.N,/Option*%
X68000000Y-30000000D03*
X74500000Y-30000000D03*
%TO.P,OPTION,2*%
%TO.N,GND*%
X68000000Y-34500000D03*
X74500000Y-34500000D03*
%TD*%
D10*
%TO.P,L1,1*%
%TO.N,/L1*%
X191040000Y-44920000D03*
%TO.P,L1,2*%
%TO.N,GND*%
X184690000Y-47460000D03*
%TD*%
%TO.P,\u25B3,1*%
%TO.N,/\u25B3*%
X162040000Y-44920000D03*
%TO.P,\u25B3,2*%
%TO.N,GND*%
X155690000Y-47460000D03*
%TD*%
%TO.P,R2,2*%
%TO.N,GND*%
X212690000Y-83460000D03*
%TO.P,R2,1*%
%TO.N,/R2*%
X219040000Y-80920000D03*
%TD*%
D12*
%TO.P,FACE,1,Pin_1*%
%TO.N,/\u25A1*%
X162000000Y-30000000D03*
D13*
%TO.P,FACE,2,Pin_2*%
%TO.N,/X*%
X164540000Y-30000000D03*
%TO.P,FACE,3,Pin_3*%
%TO.N,/\u25B3*%
X167080000Y-30000000D03*
%TO.P,FACE,4,Pin_4*%
%TO.N,/O*%
X169620000Y-30000000D03*
%TD*%
D15*
%TO.P,10K,1*%
%TO.N,/1.8V*%
X117580000Y-140000000D03*
D16*
%TO.P,10K,2*%
%TO.N,Net-(NeutralUD1-1A)*%
X107420000Y-140000000D03*
%TD*%
D15*
%TO.P,10K,1*%
%TO.N,/1.8V*%
X48580000Y-73000000D03*
D16*
%TO.P,10K,2*%
%TO.N,Net-(NeutralLR1-1A)*%
X38420000Y-73000000D03*
%TD*%
D14*
%TO.P,L+R = N,1,1A*%
%TO.N,Net-(NeutralLR1-1A)*%
X68690000Y-93463800D03*
%TO.P,L+R = N,2,1B*%
X69960000Y-93463800D03*
%TO.P,L+R = N,3,1Y*%
%TO.N,Net-(NeutralLR1-1Y)*%
X71230000Y-93463800D03*
%TO.P,L+R = N,4,2A*%
X72500000Y-93463800D03*
%TO.P,L+R = N,5,2B*%
%TO.N,Net-(NeutralLR1-2B)*%
X73770000Y-93463800D03*
%TO.P,L+R = N,6,2Y*%
%TO.N,/Left*%
X75040000Y-93463800D03*
%TO.P,L+R = N,7,GND*%
%TO.N,GND*%
X76310000Y-93463800D03*
%TO.P,L+R = N,8,3Y*%
%TO.N,/Right*%
X76310000Y-88536200D03*
%TO.P,L+R = N,9,3A*%
%TO.N,Net-(NeutralLR1-1A)*%
X75040000Y-88536200D03*
%TO.P,L+R = N,10,3B*%
%TO.N,Net-(NeutralLR1-3B)*%
X73770000Y-88536200D03*
%TO.P,L+R = N,11,4Y*%
X72500000Y-88536200D03*
%TO.P,L+R = N,12,4A*%
%TO.N,Net-(NeutralLR1-2B)*%
X71230000Y-88536200D03*
%TO.P,L+R = N,13,4B*%
X69960000Y-88536200D03*
%TO.P,L+R = N,14,VCC*%
%TO.N,/1.8V*%
X68690000Y-88536200D03*
%TD*%
D15*
%TO.P,10K,1*%
%TO.N,Net-(NeutralLR1-2B)*%
X92420000Y-87000000D03*
D16*
%TO.P,10K,2*%
%TO.N,/1.8V*%
X102580000Y-87000000D03*
%TD*%
D12*
%TO.P,1.8V/GND,1,+*%
%TO.N,/1.8V*%
X220000000Y-140000000D03*
D13*
%TO.P,1.8V/GND,2,-*%
%TO.N,GND*%
X220000000Y-142540000D03*
%TD*%
D12*
%TO.P,DPAD,1,Pin_1*%
%TO.N,/Right*%
X150000000Y-30000000D03*
D13*
%TO.P,DPAD,2,Pin_2*%
%TO.N,/Left*%
X152540000Y-30000000D03*
%TO.P,DPAD,3,Pin_3*%
%TO.N,/Down*%
X155080000Y-30000000D03*
%TO.P,DPAD,4,Pin_4*%
%TO.N,/Up*%
X157620000Y-30000000D03*
%TD*%
D15*
%TO.P,10K,1*%
%TO.N,Net-(NeutralUD1-2B)*%
X67420000Y-73000000D03*
D16*
%TO.P,10K,2*%
%TO.N,/1.8V*%
X77580000Y-73000000D03*
%TD*%
D11*
%TO.P,SHARE,1*%
%TO.N,/Share*%
X56000000Y-30000000D03*
X62500000Y-30000000D03*
%TO.P,SHARE,2*%
%TO.N,GND*%
X56000000Y-34500000D03*
X62500000Y-34500000D03*
%TD*%
D17*
%TO.N,GND*%
X76383600Y-106750000D02*
X113936316Y-106750000D01*
X81750000Y-74000000D02*
X83290000Y-72460000D01*
X68000000Y-34500000D02*
X74500000Y-34500000D01*
X81750000Y-86500000D02*
X81750000Y-74000000D01*
X83290000Y-72460000D02*
X93690000Y-72460000D01*
X44000000Y-34500000D02*
X50500000Y-34500000D01*
X76347400Y-106713800D02*
X76383600Y-106750000D01*
X130226316Y-90460000D02*
X130690000Y-90460000D01*
X76310000Y-93463800D02*
X76310000Y-91940000D01*
X113936316Y-106750000D02*
X130226316Y-90460000D01*
X56000000Y-34500000D02*
X62500000Y-34500000D01*
X76310000Y-91940000D02*
X81750000Y-86500000D01*
%TO.N,/Up*%
X157250000Y-30000000D02*
X157620000Y-30000000D01*
X82297400Y-104952600D02*
X157250000Y-30000000D01*
X76161004Y-104952600D02*
X82297400Y-104952600D01*
X75077400Y-106713800D02*
X75077400Y-106036204D01*
X75077400Y-106036204D02*
X76161004Y-104952600D01*
%TO.N,/Down*%
X155000000Y-30000000D02*
X155080000Y-30000000D01*
X76347400Y-101786200D02*
X83213800Y-101786200D01*
X83213800Y-101786200D02*
X155000000Y-30000000D01*
%TO.N,/Left*%
X75040000Y-93463800D02*
X75040000Y-91710000D01*
X80750000Y-73750000D02*
X109500000Y-45000000D01*
X80750000Y-86000000D02*
X80750000Y-73750000D01*
X109500000Y-45000000D02*
X137540000Y-45000000D01*
X75040000Y-91710000D02*
X80750000Y-86000000D01*
X137540000Y-45000000D02*
X152540000Y-30000000D01*
%TO.N,/Right*%
X79700000Y-72800000D02*
X108750000Y-43750000D01*
X136250000Y-43750000D02*
X150000000Y-30000000D01*
X108750000Y-43750000D02*
X136250000Y-43750000D01*
X79700000Y-84550000D02*
X79700000Y-72800000D01*
X76310000Y-88536200D02*
X76310000Y-87940000D01*
X76310000Y-87940000D02*
X79700000Y-84550000D01*
%TO.N,/O*%
X162040000Y-73920000D02*
X166000000Y-69960000D01*
X166000000Y-69960000D02*
X166000000Y-33620000D01*
X166000000Y-33620000D02*
X169620000Y-30000000D01*
%TO.N,/X*%
X137040000Y-87920000D02*
X144000000Y-80960000D01*
X164540000Y-30000000D02*
X144040000Y-50500000D01*
X144040000Y-50500000D02*
X144000000Y-50500000D01*
X144000000Y-80960000D02*
X144000000Y-50500000D01*
%TO.N,/\u25B3*%
X164000000Y-42960000D02*
X164000000Y-32750000D01*
X162040000Y-44920000D02*
X164000000Y-42960000D01*
X166750000Y-30000000D02*
X167080000Y-30000000D01*
X164000000Y-32750000D02*
X166750000Y-30000000D01*
%TO.N,/\u25A1*%
X137040000Y-58920000D02*
X137040000Y-54960000D01*
X137040000Y-54960000D02*
X162000000Y-30000000D01*
%TO.N,/L1*%
X176540000Y-30420000D02*
X176540000Y-30000000D01*
X191040000Y-44920000D02*
X176540000Y-30420000D01*
%TO.N,/L2*%
X180000000Y-62880000D02*
X180000000Y-36000000D01*
X180000000Y-36000000D02*
X174000000Y-30000000D01*
X191040000Y-73920000D02*
X180000000Y-62880000D01*
%TO.N,/Option*%
X68000000Y-30000000D02*
X74500000Y-30000000D01*
X80500000Y-40000000D02*
X130540000Y-40000000D01*
X76500000Y-36000000D02*
X80500000Y-40000000D01*
X76500000Y-32000000D02*
X76500000Y-36000000D01*
X130540000Y-40000000D02*
X140540000Y-30000000D01*
X74500000Y-30000000D02*
X76500000Y-32000000D01*
%TO.N,/R1*%
X219040000Y-51920000D02*
X203540000Y-51920000D01*
X203540000Y-51920000D02*
X181620000Y-30000000D01*
%TO.N,/R2*%
X219040000Y-80920000D02*
X219040000Y-69960000D01*
X219040000Y-69960000D02*
X179080000Y-30000000D01*
%TO.N,/Share*%
X64250000Y-31750000D02*
X64250000Y-36000000D01*
X62500000Y-30000000D02*
X64250000Y-31750000D01*
X131830000Y-41250000D02*
X143080000Y-30000000D01*
X69500000Y-41250000D02*
X131830000Y-41250000D01*
X56000000Y-30000000D02*
X62500000Y-30000000D01*
X64250000Y-36000000D02*
X69500000Y-41250000D01*
%TO.N,/Touch*%
X104000000Y-30000000D02*
X110500000Y-30000000D01*
X110500000Y-30000000D02*
X132920000Y-30000000D01*
%TO.N,/PS*%
X133120000Y-42500000D02*
X145620000Y-30000000D01*
X58750000Y-42500000D02*
X133120000Y-42500000D01*
X52250000Y-31750000D02*
X52250000Y-36000000D01*
X44000000Y-30000000D02*
X50500000Y-30000000D01*
X50500000Y-30000000D02*
X52250000Y-31750000D01*
X52250000Y-36000000D02*
X58750000Y-42500000D01*
%TO.N,/1.8V*%
X76000000Y-84500000D02*
X76625000Y-85125000D01*
X69942600Y-90500000D02*
X68690000Y-89247400D01*
X71871800Y-102980000D02*
X71871800Y-100371800D01*
X71750000Y-103101800D02*
X71871800Y-102980000D01*
X71871800Y-100371800D02*
X66250000Y-94750000D01*
X66250000Y-94750000D02*
X66250000Y-87125000D01*
X71186200Y-90500000D02*
X69942600Y-90500000D01*
X92000000Y-34500000D02*
X98500000Y-34500000D01*
X75500000Y-86250000D02*
X73000000Y-86250000D01*
X80000000Y-34500000D02*
X86500000Y-34500000D01*
X77580000Y-84170000D02*
X76625000Y-85125000D01*
X77580000Y-73000000D02*
X77580000Y-84170000D01*
X76625000Y-85125000D02*
X75500000Y-86250000D01*
X69393000Y-103101800D02*
X71750000Y-103101800D01*
X68727400Y-101786200D02*
X68727400Y-102436200D01*
X68690000Y-89247400D02*
X68690000Y-88536200D01*
X68727400Y-102436200D02*
X69393000Y-103101800D01*
X73000000Y-86250000D02*
X71834400Y-87415600D01*
X71834400Y-89851800D02*
X71186200Y-90500000D01*
X71834400Y-87415600D02*
X71834400Y-89851800D01*
X66250000Y-87125000D02*
X68875000Y-84500000D01*
X68875000Y-84500000D02*
X76000000Y-84500000D01*
%TO.N,Net-(NeutralUD1-2B)*%
X69997400Y-101786200D02*
X71267400Y-101786200D01*
X35750000Y-72250000D02*
X67017400Y-103517400D01*
X69037400Y-99786200D02*
X69997400Y-100746200D01*
X67017400Y-100732600D02*
X67963800Y-99786200D01*
X67017400Y-107786200D02*
X67017400Y-104250000D01*
X73787400Y-106750000D02*
X73787400Y-107400000D01*
X67963800Y-99786200D02*
X69037400Y-99786200D01*
X68017400Y-108786200D02*
X67017400Y-107786200D01*
X67017400Y-104250000D02*
X67017400Y-100732600D01*
X72401200Y-108786200D02*
X68017400Y-108786200D01*
X39798000Y-54452000D02*
X35750000Y-58500000D01*
X73572000Y-54452000D02*
X39798000Y-54452000D01*
X67017400Y-103517400D02*
X67017400Y-104250000D01*
X69997400Y-100746200D02*
X69997400Y-101786200D01*
X35750000Y-58500000D02*
X35750000Y-72250000D01*
X75040000Y-55920000D02*
X73572000Y-54452000D01*
X73787400Y-107400000D02*
X72401200Y-108786200D01*
%TO.N,Net-(NeutralLR1-1A)*%
X73327400Y-91036200D02*
X75080000Y-89283600D01*
X71752600Y-91036200D02*
X73327400Y-91036200D01*
X77500000Y-71000000D02*
X78750000Y-72250000D01*
X75040000Y-87886200D02*
X75040000Y-88536200D01*
X52750000Y-58750000D02*
X52750000Y-68000000D01*
X75080000Y-89283600D02*
X75080000Y-88572400D01*
X78750000Y-72250000D02*
X78750000Y-84176200D01*
X49920000Y-55920000D02*
X52750000Y-58750000D01*
X52750000Y-68000000D02*
X55750000Y-71000000D01*
X55750000Y-71000000D02*
X77500000Y-71000000D01*
X78750000Y-84176200D02*
X75040000Y-87886200D01*
X70000000Y-92788800D02*
X71752600Y-91036200D01*
X70000000Y-93500000D02*
X70000000Y-92788800D01*
X68690000Y-93463800D02*
X69960000Y-93463800D01*
X46040000Y-55920000D02*
X49920000Y-55920000D01*
%TO.N,Net-(NeutralLR1-2B)*%
X67000000Y-87500000D02*
X67000000Y-94500000D01*
X73770000Y-94113800D02*
X73770000Y-93463800D01*
X92420000Y-87000000D02*
X83920000Y-95500000D01*
X75095000Y-95500000D02*
X73770000Y-94175000D01*
X69960000Y-88536200D02*
X69960000Y-87460000D01*
X72383800Y-95500000D02*
X73770000Y-94113800D01*
X68000000Y-86500000D02*
X67000000Y-87500000D01*
X69000000Y-86500000D02*
X68000000Y-86500000D01*
X69960000Y-87460000D02*
X69000000Y-86500000D01*
X83920000Y-95500000D02*
X75095000Y-95500000D01*
X68000000Y-95500000D02*
X72383800Y-95500000D01*
X67000000Y-94500000D02*
X68000000Y-95500000D01*
X69960000Y-88536200D02*
X71230000Y-88536200D01*
X73770000Y-94175000D02*
X73770000Y-93463800D01*
%TO.N,Net-(NeutralUD1-1A)*%
X75077400Y-102497400D02*
X75077400Y-101786200D01*
X73324800Y-104250000D02*
X75077400Y-102497400D01*
X74411800Y-105337000D02*
X73324800Y-104250000D01*
X75250000Y-108750000D02*
X74411800Y-107911800D01*
X115040000Y-122920000D02*
X100870000Y-108750000D01*
X71750000Y-104250000D02*
X73324800Y-104250000D01*
X68727400Y-106713800D02*
X69997400Y-106713800D01*
X74411800Y-107911800D02*
X74411800Y-105337000D01*
X100870000Y-108750000D02*
X75250000Y-108750000D01*
X69997400Y-106713800D02*
X69997400Y-106002600D01*
X69997400Y-106002600D02*
X71750000Y-104250000D01*
%TO.N,Net-(NeutralLR1-1Y)*%
X71230000Y-93463800D02*
X72500000Y-93463800D01*
%TO.N,Net-(NeutralLR1-3B)*%
X72500000Y-88536200D02*
X73770000Y-88536200D01*
%TO.N,Net-(NeutralUD1-1Y)*%
X71267400Y-106713800D02*
X72537400Y-106713800D01*
%TO.N,Net-(NeutralUD1-3B)*%
X72537400Y-101786200D02*
X73807400Y-101786200D01*
%TO.N,/L3*%
X129250000Y-38750000D02*
X138000000Y-30000000D01*
X88500000Y-32000000D02*
X88500000Y-35750000D01*
X80000000Y-30000000D02*
X86500000Y-30000000D01*
X86500000Y-30000000D02*
X88500000Y-32000000D01*
X91500000Y-38750000D02*
X129250000Y-38750000D01*
X88500000Y-35750000D02*
X91500000Y-38750000D01*
%TO.N,/R3*%
X100500000Y-36000000D02*
X102000000Y-37500000D01*
X127960000Y-37500000D02*
X135460000Y-30000000D01*
X102000000Y-37500000D02*
X127960000Y-37500000D01*
X92000000Y-30000000D02*
X98500000Y-30000000D01*
X98500000Y-30000000D02*
X100500000Y-32000000D01*
X100500000Y-32000000D02*
X100500000Y-36000000D01*
%TD*%
M02*
